<?xml version="1.0" encoding="utf-8"?>
<!-- Generator: Adobe Illustrator 16.0.0, SVG Export Plug-In . SVG Version: 6.00 Build 0)  -->
<!DOCTYPE svg PUBLIC "-//W3C//DTD SVG 1.1//EN" "http://www.w3.org/Graphics/SVG/1.1/DTD/svg11.dtd">
<svg version="1.1" id="Layer_1" xmlns="http://www.w3.org/2000/svg" xmlns:xlink="http://www.w3.org/1999/xlink" x="0px" y="0px"
	 width="951.33px" height="327.5px" viewBox="4.51 17 951.33 327.5" enable-background="new 4.51 17 951.33 327.5"
	 xml:space="preserve">
<pattern  x="430.5" y="232" width="144.13" height="138.362" patternUnits="userSpaceOnUse" id="Alyssa" viewBox="99.963 -203.087 144.13 138.362" overflow="visible">
	<g>
		<polygon fill="none" points="99.963,-64.725 244.093,-64.725 244.093,-203.087 99.963,-203.087 		"/>
		<g>
			<polygon fill="none" points="99.963,-64.725 244.093,-64.725 244.093,-203.088 99.963,-203.088 			"/>
			<g>
				<path fill="#C6DD7F" d="M311.037-223.247c-11.76,1.384-19.369-0.346-22.654-3.113c-3.02-2.543-4.955-5.405-2.248-11.932
					c2.939-7.091,1.533-14.732-5.535-15.91c-6.225-1.037-10.895,4.842-11.24,12.278c-0.24,5.183-1.902,8.301-5.533,7.608
					c-3.633-0.691-4.629-5.9-3.633-11.759c1.385-8.128,5.535-11.76,6.227-20.233c0.494-6.055-2.939-13.662-12.451-15.045
					c-9.301-1.354-15.91,4.322-16.602,10.549c-0.732,6.588,3.631,10.895,3.111,17.639c-0.518,6.745-4.012,10.172-5.879,17.294
					c-2.768,10.549,1.211,19.022,7.781,22.654c14.746,8.148,22.832-3.642,35.971-1.556c10.896,1.729,23.348,18.157,33.031,19.541
					c8.228,1.175,13.834-4.669,15.045-14.008C327.638-218.578,321.688-224.5,311.037-223.247z M268.841-223.765
					c0,2.292-1.859,4.15-4.15,4.15c-2.293,0-4.15-1.858-4.15-4.15s1.857-4.15,4.15-4.15
					C266.982-227.916,268.841-226.057,268.841-223.765z M318.3-208.375c0,0.955-0.774,1.729-1.729,1.729s-1.729-0.774-1.729-1.729
					c0-0.955,0.773-1.729,1.729-1.729S318.3-209.33,318.3-208.375z"/>
			</g>
			<g>
				<path fill="#E9DDB7" d="M148.795-204.059c0-7.166,4.588-13.813-1-16.333c-8.5-3.833-27.999,14.333-27.999,36.167
					c0,12,8.667,19,17.833,19c12.334,0,18-8.167,18-17.5C155.629-192.057,148.795-195.865,148.795-204.059z M143.387-198.689
					c0,1.146-0.93,2.075-2.074,2.075c-1.146,0-2.076-0.929-2.076-2.075c0-1.146,0.93-2.075,2.076-2.075
					C142.457-200.765,143.387-199.836,143.387-198.689z"/>
				<path fill="#A6D0E4" d="M223.495-227.554c-7.871-2.737-19.439,15.297-17.67,27.018c1.24,8.228,7.123,13.19,13.088,14.217
					c7.525,1.297,12.898-2.601,13.299-7.243c0.547-6.309-3.633-7.518-4.223-14.958C227.426-215.654,231.68-224.705,223.495-227.554z
					 M219.706-200.046c0,1.434-1.162,2.595-2.594,2.595c-1.434,0-2.594-1.161-2.594-2.595c0-1.433,1.16-2.594,2.594-2.594
					C218.543-202.639,219.706-201.478,219.706-200.046z"/>
				<path fill="#E9DDB7" d="M119.351-205.089c0-1.433-1.162-2.594-2.594-2.594c-1.434,0-2.594,1.161-2.594,2.594
					c0,1.433,1.16,2.594,2.594,2.594C118.188-202.495,119.351-203.656,119.351-205.089z"/>
				<path fill="#A6D0E4" d="M184.573-197.365c0.74-8.101,12.672-7.017,17.904-14.214c10.52-14.475-1.219-46.365-21.631-46.365
					c-11.74,0-24.217,9.719-24.217,29.219c0,15.834,10.166,21.5,8.25,42.166c-1.006,10.834-12.5,20.343-12.5,34.75
					c0,5.922,3.586,13.447,11.553,13.447c7.055,0,10.822-5.953,10.822-12.9c0-6.798-5.381-15.74,1.375-19.047
					c5.242-2.565,13.211,4.77,19.5,6.75c5.191,1.636,12.389-0.225,14.75-8.5c2.531-8.876-3.252-14.745-11.592-16.693
					C192.469-190.229,183.985-190.924,184.573-197.365z M168.588-166.806c0,1.815-1.471,3.287-3.285,3.287
					c-1.814,0-3.287-1.472-3.287-3.287c0-1.814,1.473-3.285,3.287-3.285C167.118-170.092,168.588-168.621,168.588-166.806z
					 M194.573-176.502c1.285,0,2.328,1.043,2.328,2.33c0,1.286-1.043,2.328-2.328,2.328c-1.287,0-2.33-1.042-2.33-2.328
					C192.243-175.459,193.286-176.502,194.573-176.502z M174.588-236.174c0,1.815-1.471,3.287-3.287,3.287
					c-1.814,0-3.285-1.472-3.285-3.287s1.471-3.285,3.285-3.285C173.118-239.458,174.588-237.988,174.588-236.174z"/>
				<path fill="#C6DD7F" d="M166.907-223.247c-11.76,1.384-19.369-0.346-22.654-3.113c-3.02-2.543-4.955-5.405-2.248-11.932
					c2.939-7.091,1.533-14.732-5.535-15.91c-6.225-1.037-10.894,4.842-11.24,12.278c-0.24,5.183-1.902,8.301-5.533,7.608
					c-3.633-0.691-4.629-5.9-3.633-11.759c1.385-8.128,5.535-11.76,6.227-20.233c0.494-6.055-2.939-13.662-12.451-15.045
					c-9.301-1.354-15.91,4.322-16.602,10.549c-0.732,6.588,3.631,10.895,3.111,17.639c-0.518,6.745-4.012,10.172-5.879,17.294
					c-2.768,10.549,1.211,19.022,7.781,22.654c14.746,8.148,22.832-3.642,35.97-1.556c10.896,1.729,23.348,18.157,33.031,19.541
					c8.227,1.175,13.834-4.669,15.045-14.008C183.508-218.578,177.557-224.5,166.907-223.247z M124.711-223.765
					c0,2.292-1.859,4.15-4.15,4.15c-2.293,0-4.15-1.858-4.15-4.15s1.858-4.15,4.15-4.15
					C122.852-227.916,124.711-226.057,124.711-223.765z M174.17-208.375c0,0.955-0.775,1.729-1.73,1.729s-1.729-0.774-1.729-1.729
					c0-0.955,0.773-1.729,1.729-1.729C173.395-210.104,174.17-209.33,174.17-208.375z"/>
			</g>
			<g>
				<path fill="#A6D0E4" d="M290.285-176.713c0-6.227-4.15-10.721-8.647-11.586c-4.496-0.865-8.318,1.281-12.971-1.211
					c-4.842-2.594-7.09-11.068-16.775-11.068c-7.955,0-15.217,7.955-15.217,18.85c0,20.234,13.143,29.227,25.594,29.227
					C278.871-152.502,290.285-165.127,290.285-176.713z M270.57-162.359c0,2.1-1.703,3.803-3.805,3.803s-3.805-1.703-3.805-3.803
					c0-2.101,1.703-3.805,3.805-3.805S270.57-164.461,270.57-162.359z"/>
				<path fill="#C6DD7F" d="M311.037-84.885c-11.76,1.384-19.369-0.346-22.654-3.113c-3.02-2.543-4.955-5.405-2.248-11.932
					c2.939-7.091,1.533-14.732-5.535-15.91c-6.225-1.037-10.895,4.842-11.24,12.278c-0.24,5.183-1.902,8.301-5.533,7.608
					c-3.633-0.691-4.629-5.9-3.633-11.759c1.385-8.128,5.535-11.76,6.227-20.233c0.494-6.055-2.939-13.662-12.451-15.045
					c-9.301-1.354-15.91,4.322-16.602,10.549c-0.732,6.588,3.631,10.895,3.111,17.639c-0.518,6.745-4.012,10.172-5.879,17.294
					c-2.768,10.549,1.211,19.023,7.781,22.654c14.746,8.148,22.832-3.642,35.971-1.556c10.896,1.729,23.348,18.157,33.031,19.541
					c8.228,1.175,13.834-4.669,15.045-14.008C327.638-80.216,321.688-86.139,311.037-84.885z M268.841-85.403
					c0,2.292-1.859,4.15-4.15,4.15c-2.293,0-4.15-1.858-4.15-4.15s1.857-4.15,4.15-4.15
					C266.982-89.554,268.841-87.695,268.841-85.403z M318.3-70.013c0,0.955-0.774,1.73-1.729,1.73s-1.729-0.774-1.729-1.73
					c0-0.955,0.773-1.729,1.729-1.729S318.3-70.968,318.3-70.013z"/>
			</g>
			<g>
				<path fill="#A6D0E4" d="M131.795-148.363c-13.956-1.988-21.165,13.332-17.665,20.332c3.666,7.334,12.119,4.168,19.499,4.168
					c9.666,0,16.367,7.568,20.416,2.25C158.295-127.197,149.036-145.908,131.795-148.363z M132.319-130.885
					c0,1.24-1.006,2.248-2.248,2.248c-1.24,0-2.248-1.008-2.248-2.248c0-1.242,1.008-2.248,2.248-2.248
					C131.313-133.133,132.319-132.127,132.319-130.885z"/>
				<path fill="#E9DDB7" d="M148.795-65.697c0-7.166,4.588-13.813-1-16.333c-8.5-3.833-27.999,14.333-27.999,36.167
					c0,12,8.667,19,17.833,19c12.334,0,18-8.166,18-17.5C155.629-53.695,148.795-57.503,148.795-65.697z M143.387-60.328
					c0,1.146-0.93,2.075-2.074,2.075c-1.146,0-2.076-0.929-2.076-2.075c0-1.145,0.93-2.075,2.076-2.075
					C142.457-62.403,143.387-61.473,143.387-60.328z"/>
				<path fill="#A6D0E4" d="M146.155-176.713c0-6.227-4.15-10.721-8.646-11.586c-4.496-0.865-8.318,1.281-12.971-1.211
					c-4.841-2.594-7.089-11.068-16.775-11.068c-7.955,0-15.217,7.955-15.217,18.85c0,20.234,13.143,29.227,25.594,29.227
					C134.741-152.502,146.155-165.127,146.155-176.713z M126.44-162.359c0,2.1-1.703,3.803-3.804,3.803
					c-2.102,0-3.805-1.703-3.805-3.803c0-2.101,1.703-3.805,3.805-3.805C124.737-166.164,126.44-164.461,126.44-162.359z"/>
				<path fill="#C6DD7F" d="M145.463-153.021c0-1.336-1.084-2.42-2.422-2.42c-1.336,0-2.42,1.084-2.42,2.42
					c0,1.338,1.084,2.422,2.42,2.422C144.379-150.599,145.463-151.683,145.463-153.021z"/>
				<path fill="#A6D0E4" d="M229.163-134.517c-3.191-4.68,1.039-10.721-1.383-15.217c-2.422-4.498-6.744-5.016-9.857-2.596
					c-3.635,2.828-3.41,6.643-8.301,8.82c-5.529,2.465-17.984-2.248-19.715,7.264c-0.875,4.811,2.375,8.566,7.264,9.684
					c6.053,1.383,9.352,0.18,15.391,3.113c6.053,2.939,11.242,8.993,22.137,12.105c10.406,2.975,16.072-1.557,16.602-5.879
					C252.336-125.697,234.172-127.172,229.163-134.517z M226.915-127.08c0,1.24-1.006,2.248-2.248,2.248
					c-1.24,0-2.248-1.008-2.248-2.248c0-1.242,1.008-2.248,2.248-2.248C225.909-129.328,226.915-128.322,226.915-127.08z"/>
				<path fill="#E9DDB7" d="M256.129-173.697c0-17.166-14.5-25.5-27-22.832c-10.264,2.189-12.834,17.332-16.668,26.166
					c-3.713,8.557-8.832,22.5-20.166,22.5c-11.197,0-12.832-14.5-23.666-14.5c-11,0-24.5,15.666-24.5,39.666
					c0,14.667,9.799,31.455,20.834,30.667c11.666-0.833,4.5-19.667,15.332-19.667c9.5,0,7.857,16.259,9.168,23.334
					c1.666,9,6.832,14.166,18.498,13.166c14.443-1.237,22.334-13.5,18.871-23.344c-4.029-11.451-23.869-17.322-21.537-30.49
					c1.346-7.592,13-11.998,26-16.166C245.825-149.853,256.129-156.529,256.129-173.697z M211.178-97.854
					c0-1.815,1.471-3.286,3.285-3.286s3.287,1.471,3.287,3.286c0,1.815-1.473,3.286-3.287,3.286S211.178-96.039,211.178-97.854z
					 M164.485-122.758c0,0.955-0.773,1.73-1.729,1.73c-0.955,0-1.73-0.775-1.73-1.73s0.775-1.729,1.73-1.729
					C163.711-124.486,164.485-123.713,164.485-122.758z M181.952-133.478c0,2.102-1.703,3.805-3.805,3.805
					c-2.1,0-3.805-1.703-3.805-3.805c0-2.102,1.705-3.805,3.805-3.805C180.248-137.283,181.952-135.58,181.952-133.478z
					 M201.84-117.915c0,0.859-0.697,1.556-1.557,1.556c-0.859,0-1.557-0.696-1.557-1.556c0-0.859,0.697-1.556,1.557-1.556
					C201.143-119.471,201.84-118.773,201.84-117.915z M231.483-172.609c0,1.752-1.42,3.174-3.174,3.174
					c-1.752,0-3.174-1.422-3.174-3.174c0-1.754,1.422-3.174,3.174-3.174C230.063-175.783,231.483-174.363,231.483-172.609z"/>
				<path fill="#A6D0E4" d="M223.495-89.19c-7.871-2.737-19.439,15.297-17.67,27.019c1.24,8.228,7.123,13.189,13.088,14.217
					c7.525,1.297,12.898-2.601,13.299-7.243c0.547-6.309-3.633-7.518-4.223-14.958C227.426-77.292,231.68-86.343,223.495-89.19z
					 M219.706-61.683c0,1.434-1.162,2.595-2.594,2.595c-1.434,0-2.594-1.161-2.594-2.595c0-1.433,1.16-2.594,2.594-2.594
					C218.543-64.277,219.706-63.116,219.706-61.683z"/>
				<path fill="#E9DDB7" d="M119.351-66.726c0-1.433-1.162-2.594-2.594-2.594c-1.434,0-2.594,1.161-2.594,2.594
					c0,1.433,1.16,2.594,2.594,2.594C118.188-64.133,119.351-65.294,119.351-66.726z"/>
				<path fill="#E9DDB7" d="M253.348-153.463c0,8.41-5.078,15.227-11.34,15.227c-6.262,0-11.34-6.816-11.34-15.227
					c0-8.408,5.078-12.441,11.34-12.441C248.27-165.904,253.348-161.871,253.348-153.463z"/>
				<path fill="#A6D0E4" d="M184.573-59.003c0.74-8.101,12.672-7.017,17.904-14.214c10.52-14.475-1.219-46.365-21.631-46.365
					c-11.74,0-24.217,9.719-24.217,29.219c0,15.834,10.166,21.5,8.25,42.166c-1.006,10.834-12.5,20.344-12.5,34.75
					C152.379-7.525,155.965,0,163.932,0c7.055,0,10.822-5.953,10.822-12.9c0-6.797-5.381-15.739,1.375-19.047
					c5.242-2.564,13.211,4.771,19.5,6.75c5.191,1.637,12.389-0.225,14.75-8.5c2.531-8.875-3.252-14.744-11.592-16.692
					C192.469-51.867,183.985-52.561,184.573-59.003z M168.588-28.443c0,1.814-1.471,3.287-3.285,3.287
					c-1.814,0-3.287-1.473-3.287-3.287s1.473-3.285,3.287-3.285C167.118-31.729,168.588-30.259,168.588-28.443z M194.573-38.139
					c1.285,0,2.328,1.043,2.328,2.33c0,1.286-1.043,2.328-2.328,2.328c-1.287,0-2.33-1.042-2.33-2.328
					C192.243-37.097,193.286-38.139,194.573-38.139z M174.588-97.811c0,1.815-1.471,3.287-3.287,3.287
					c-1.814,0-3.285-1.472-3.285-3.287c0-1.814,1.471-3.285,3.285-3.285C173.118-101.097,174.588-99.626,174.588-97.811z"/>
				<path fill="#C6DD7F" d="M166.907-84.885c-11.76,1.384-19.369-0.346-22.654-3.113c-3.02-2.543-4.955-5.405-2.248-11.932
					c2.939-7.091,1.533-14.732-5.535-15.91c-6.225-1.037-10.894,4.842-11.24,12.278c-0.24,5.183-1.902,8.301-5.533,7.608
					c-3.633-0.691-4.629-5.9-3.633-11.759c1.385-8.128,5.535-11.76,6.227-20.233c0.494-6.055-2.939-13.662-12.451-15.045
					c-9.301-1.354-15.91,4.322-16.602,10.549c-0.732,6.588,3.631,10.895,3.111,17.639c-0.518,6.745-4.012,10.172-5.879,17.294
					c-2.768,10.549,1.211,19.023,7.781,22.654c14.746,8.148,22.832-3.642,35.97-1.556c10.896,1.729,23.348,18.157,33.031,19.541
					c8.227,1.175,13.834-4.669,15.045-14.008C183.508-80.216,177.557-86.139,166.907-84.885z M124.711-85.403
					c0,2.292-1.859,4.15-4.15,4.15c-2.293,0-4.15-1.858-4.15-4.15s1.858-4.15,4.15-4.15
					C122.852-89.554,124.711-87.695,124.711-85.403z M174.17-70.013c0,0.955-0.775,1.73-1.73,1.73s-1.729-0.774-1.729-1.73
					c0-0.955,0.773-1.729,1.729-1.729C173.395-71.742,174.17-70.968,174.17-70.013z"/>
				<path fill="#C6DD7F" d="M230.202-107.193c0-0.764-0.619-1.384-1.385-1.384c-0.764,0-1.383,0.62-1.383,1.384
					c0,0.764,0.619,1.384,1.383,1.384C229.582-105.809,230.202-106.43,230.202-107.193z"/>
				<path fill="#E9DDB7" d="M235.735-68.802c0-1.242-1.006-2.249-2.248-2.249c-1.242,0-2.25,1.007-2.25,2.249
					s1.008,2.249,2.25,2.249C234.729-66.553,235.735-67.559,235.735-68.802z"/>
				<path fill="#A6D0E4" d="M152.207-91.974c0-0.668-0.543-1.211-1.211-1.211s-1.211,0.543-1.211,1.211s0.543,1.211,1.211,1.211
					S152.207-91.306,152.207-91.974z"/>
				<path fill="#A6D0E4" d="M148.575-160.457c0-0.764-0.619-1.385-1.383-1.385c-0.764,0-1.383,0.621-1.383,1.385
					c0,0.764,0.619,1.383,1.383,1.383C147.956-159.074,148.575-159.693,148.575-160.457z"/>
				<path fill="#E9DDB7" d="M233.141-138.494c0-0.668-0.543-1.211-1.211-1.211s-1.209,0.543-1.209,1.211s0.541,1.209,1.209,1.209
					S233.141-137.826,233.141-138.494z"/>
				<path fill="#C6DD7F" d="M195.852-156.42c0-1.881-1.527-3.408-3.408-3.408c-1.883,0-3.408,1.527-3.408,3.408
					c0,1.883,1.525,3.408,3.408,3.408C194.325-153.012,195.852-154.537,195.852-156.42z"/>
				<path fill="#E9DDB7" d="M200.832-196.271c0-1.158-0.939-2.096-2.098-2.096c-1.159,0-2.096,0.938-2.096,2.096
					c0,1.158,0.938,2.098,2.096,2.098C199.892-194.173,200.832-195.113,200.832-196.271z"/>
				<path fill="#E9DDB7" d="M162.03-189.978c0-0.869-0.703-1.572-1.572-1.572s-1.574,0.703-1.574,1.572
					c0,0.869,0.705,1.574,1.574,1.574S162.03-189.109,162.03-189.978z"/>
				<path fill="#C6DD7F" d="M235.702-75.931c0-1.447-1.174-2.621-2.621-2.621c-1.447,0-2.621,1.174-2.621,2.621
					c0,1.447,1.174,2.621,2.621,2.621C234.528-73.309,235.702-74.483,235.702-75.931z"/>
				<path fill="#A6D0E4" d="M225.477-110.8c0-1.303-1.057-2.359-2.359-2.359c-1.303,0-2.359,1.057-2.359,2.359
					c0,1.302,1.057,2.359,2.359,2.359C224.42-108.439,225.477-109.497,225.477-110.8z"/>
				<path fill="#E9DDB7" d="M127.686-117.354c0-1.448-1.174-2.622-2.623-2.622c-1.447,0-2.621,1.174-2.621,2.622
					c0,1.448,1.174,2.622,2.621,2.622C126.512-114.731,127.686-115.906,127.686-117.354z"/>
				<path fill="#A6D0E4" d="M122.704-110.275c0-0.724-0.586-1.311-1.31-1.311c-0.723,0-1.311,0.587-1.311,1.311
					c0,0.724,0.588,1.311,1.311,1.311C122.118-108.965,122.704-109.552,122.704-110.275z"/>
				<path fill="#E9DDB7" d="M186.938-162.187c0-0.869-0.705-1.572-1.574-1.572c-0.869,0-1.572,0.703-1.572,1.572
					c0,0.869,0.703,1.574,1.572,1.574C186.233-160.613,186.938-161.318,186.938-162.187z"/>
			</g>
			<g>
				<path fill="#A6D0E4" d="M85.033-134.517c-3.191-4.68,1.039-10.721-1.383-15.217c-2.422-4.498-6.744-5.016-9.857-2.596
					c-3.635,2.828-3.41,6.643-8.301,8.82c-5.529,2.465-17.984-2.248-19.715,7.264c-0.875,4.811,2.375,8.566,7.264,9.684
					c6.053,1.383,9.352,0.18,15.391,3.113c6.053,2.939,11.242,8.993,22.137,12.105c10.406,2.975,16.072-1.557,16.602-5.879
					C108.207-125.697,90.043-127.172,85.033-134.517z M82.785-127.08c0,1.24-1.006,2.248-2.248,2.248
					c-1.24,0-2.248-1.008-2.248-2.248c0-1.242,1.008-2.248,2.248-2.248C81.779-129.328,82.785-128.322,82.785-127.08z"/>
				<path fill="#E9DDB7" d="M112-173.697c0-17.166-14.5-25.5-27-22.832c-10.264,2.189-12.834,17.332-16.668,26.166
					c-3.713,8.557-8.832,22.5-20.166,22.5c-11.197,0-12.832-14.5-23.666-14.5c-11,0-24.5,15.666-24.5,39.666
					C0-108.03,9.799-91.242,20.834-92.03c11.666-0.833,4.5-19.667,15.332-19.667c9.5,0,7.857,16.259,9.168,23.334
					c1.666,9,6.832,14.166,18.498,13.166c14.443-1.237,22.334-13.5,18.871-23.344c-4.029-11.451-23.869-17.322-21.537-30.49
					c1.346-7.592,13-11.998,26-16.166C101.695-149.853,112-156.529,112-173.697z M67.049-97.854c0-1.815,1.471-3.286,3.285-3.286
					s3.287,1.471,3.287,3.286c0,1.815-1.473,3.286-3.287,3.286S67.049-96.039,67.049-97.854z M20.355-122.758
					c0,0.955-0.773,1.73-1.728,1.73s-1.731-0.775-1.731-1.73s0.775-1.729,1.731-1.729C19.582-124.486,20.355-123.713,20.355-122.758
					z M37.822-133.478c0,2.102-1.703,3.805-3.805,3.805c-2.1,0-3.805-1.703-3.805-3.805c0-2.102,1.705-3.805,3.805-3.805
					C36.119-137.283,37.822-135.58,37.822-133.478z M57.711-117.915c0,0.859-0.697,1.556-1.557,1.556
					c-0.859,0-1.557-0.696-1.557-1.556c0-0.859,0.697-1.556,1.557-1.556C57.014-119.471,57.711-118.773,57.711-117.915z
					 M87.354-172.609c0,1.752-1.42,3.174-3.174,3.174c-1.752,0-3.174-1.422-3.174-3.174c0-1.754,1.422-3.174,3.174-3.174
					C85.934-175.783,87.354-174.363,87.354-172.609z"/>
				<path fill="#E9DDB7" d="M109.219-153.463c0,8.41-5.078,15.227-11.34,15.227c-6.262,0-11.34-6.816-11.34-15.227
					c0-8.408,5.078-12.441,11.34-12.441C104.141-165.904,109.219-161.871,109.219-153.463z"/>
			</g>
		</g>
	</g>
</pattern>
<g id="Layer_5" display="none">
</g>
<g id="Layer_2">
	<rect x="-200" y="2" display="none" fill="#EEE6D7" width="1356" height="558"/>
	<path fill="#836FEA" d="M13.419,36.243C28.507,55.02,62.915,80.322,119.34,96.252c56.425,15.93,109.88,23.581,166.306,27.692
		c56.426,4.111,34.051,54.499,84.143,74.484c90.082,35.939,213.821,19.514,256.388,10.777s105.921-43.687,160.366-26.215
		c54.445,17.472,158.386,13.843,169.275,9.218L955.841,19H4.51C4.51,19,10.114,32.13,13.419,36.243z"/>
	<path fill="#03284C" d="M13.419,34.215C28.507,52.992,62.915,78.28,119.34,94.21c56.425,15.93,109.88,23.574,166.306,27.685
		c56.426,4.111,34.051,54.496,84.143,74.48c90.082,35.939,213.821,19.512,256.388,10.775s105.921-43.688,160.366-26.216
		s158.386,13.871,169.275,9.246L955.841,17H4.51C4.51,17,10.114,30.102,13.419,34.215z"/>
</g>
<g id="Layer_1_1_">
	<pattern  id="SVGID_1_" xlink:href="#Alyssa" patternTransform="matrix(1 0 0 -1 -386.333 -16360.3652)">
	</pattern>
	<path display="none" opacity="0.2" fill="url(#SVGID_1_)" enable-background="new    " d="M5,35.5
		c15.242,36.54,50,85.75,107,116.75s111,45.875,168,53.875s34.398,106.048,85,144.938c91,69.938,216,37.97,259,20.97
		s107-85.017,162-51.017s160,26.992,171,17.992L957.024,2H-4C-4,2,1.662,27.496,5,35.5z"/>
	<g>
		<polygon fill="#FFFFFF" points="508.371,64.829 508.666,65.425 509.323,65.521 508.847,65.985 508.96,66.64 508.371,66.331 
			507.783,66.64 507.895,65.985 507.419,65.521 508.077,65.425 		"/>
		<polygon fill="#D4D6D8" points="508.371,65.158 508.559,65.538 508.978,65.598 508.675,65.894 508.746,66.311 508.371,66.114 
			507.997,66.311 508.068,65.894 507.765,65.598 508.184,65.538 		"/>
	</g>
	<g>
		<path fill="#FFFFFF" d="M404.287,151.224c1.162-0.573,4.162-0.844,4.162-0.844s-3-0.271-4.162-0.844
			c0.501-0.876,1.4-1.958,1.4-1.958s-1.081,0.9-1.957,1.401c-0.573-1.162-0.845-4.162-0.845-4.162s-0.271,3-0.844,4.162
			c-0.876-0.501-1.958-1.401-1.958-1.401s0.9,1.082,1.401,1.958c-1.162,0.573-4.162,0.844-4.162,0.844s3,0.271,4.162,0.844
			c-0.501,0.876-1.401,1.958-1.401,1.958s1.082-0.9,1.958-1.401c0.573,1.162,0.844,4.162,0.844,4.162s0.271-3,0.845-4.162
			c0.876,0.501,1.957,1.401,1.957,1.401S404.788,152.101,404.287,151.224z"/>
		<path fill="#EEE6D7" d="M403.712,150.878c0.686-0.338,2.452-0.497,2.452-0.497s-1.767-0.16-2.452-0.497
			c0.295-0.516,0.826-1.154,0.826-1.154s-0.638,0.53-1.154,0.826c-0.338-0.685-0.497-2.452-0.497-2.452s-0.16,1.767-0.497,2.452
			c-0.516-0.295-1.153-0.826-1.153-0.826s0.529,0.638,0.825,1.154c-0.685,0.338-2.451,0.497-2.451,0.497s1.767,0.16,2.451,0.497
			c-0.295,0.516-0.825,1.154-0.825,1.154s0.638-0.53,1.153-0.826c0.338,0.685,0.497,2.452,0.497,2.452s0.16-1.767,0.497-2.452
			c0.517,0.295,1.154,0.826,1.154,0.826S404.007,151.394,403.712,150.878z"/>
	</g>
	<g>
		<path fill="#FFFFFF" d="M897.959,42.223c1.162-0.573,4.162-0.844,4.162-0.844s-3-0.271-4.162-0.844
			c0.501-0.876,1.401-1.958,1.401-1.958s-1.082,0.9-1.958,1.401c-0.573-1.162-0.845-4.162-0.845-4.162s-0.271,3-0.844,4.162
			c-0.876-0.501-1.958-1.401-1.958-1.401s0.9,1.082,1.401,1.958c-1.162,0.573-4.162,0.844-4.162,0.844s3,0.271,4.162,0.844
			c-0.501,0.876-1.401,1.958-1.401,1.958s1.082-0.9,1.958-1.401c0.573,1.162,0.844,4.162,0.844,4.162s0.271-3,0.845-4.162
			c0.876,0.501,1.958,1.401,1.958,1.401S898.46,43.099,897.959,42.223z"/>
		<path fill="#EEE6D7" d="M897.383,41.876c0.686-0.338,2.452-0.497,2.452-0.497s-1.767-0.16-2.452-0.497
			c0.295-0.516,0.826-1.154,0.826-1.154s-0.638,0.53-1.154,0.826c-0.338-0.685-0.497-2.452-0.497-2.452s-0.159,1.767-0.497,2.452
			c-0.516-0.295-1.153-0.826-1.153-0.826s0.53,0.638,0.826,1.154c-0.686,0.338-2.452,0.497-2.452,0.497s1.767,0.16,2.452,0.497
			c-0.296,0.516-0.826,1.154-0.826,1.154s0.638-0.53,1.153-0.826c0.339,0.685,0.497,2.452,0.497,2.452s0.16-1.767,0.497-2.452
			c0.517,0.295,1.154,0.826,1.154,0.826S897.678,42.392,897.383,41.876z"/>
	</g>
	<g>
		<path fill="#FFFFFF" d="M632.839,176.541c1.162-0.573,4.162-0.844,4.162-0.844s-3-0.271-4.162-0.844
			c0.501-0.876,1.401-1.958,1.401-1.958s-1.082,0.9-1.958,1.401c-0.573-1.162-0.845-4.162-0.845-4.162s-0.271,3-0.844,4.162
			c-0.876-0.501-1.958-1.401-1.958-1.401s0.9,1.082,1.401,1.958c-1.162,0.573-4.162,0.844-4.162,0.844s3,0.271,4.162,0.844
			c-0.501,0.876-1.401,1.958-1.401,1.958s1.082-0.9,1.958-1.401c0.573,1.162,0.844,4.162,0.844,4.162s0.271-3,0.845-4.162
			c0.876,0.501,1.958,1.401,1.958,1.401S633.34,177.417,632.839,176.541z"/>
		<path fill="#EEE6D7" d="M632.263,176.194c0.686-0.338,2.452-0.497,2.452-0.497s-1.767-0.16-2.452-0.497
			c0.295-0.516,0.826-1.154,0.826-1.154s-0.638,0.53-1.154,0.826c-0.338-0.685-0.497-2.452-0.497-2.452s-0.159,1.767-0.496,2.452
			c-0.517-0.295-1.154-0.826-1.154-0.826s0.53,0.638,0.826,1.154c-0.686,0.338-2.452,0.497-2.452,0.497s1.767,0.16,2.452,0.497
			c-0.295,0.516-0.826,1.154-0.826,1.154s0.638-0.53,1.154-0.826c0.338,0.685,0.496,2.452,0.496,2.452s0.16-1.767,0.497-2.452
			c0.517,0.295,1.154,0.826,1.154,0.826S632.559,176.71,632.263,176.194z"/>
	</g>
	<g>
		<path fill="#FFFFFF" d="M173.626,35.894c1.162-0.573,4.162-0.844,4.162-0.844s-3-0.271-4.162-0.844
			c0.501-0.876,1.401-1.958,1.401-1.958s-1.082,0.9-1.958,1.401c-0.573-1.162-0.844-4.162-0.844-4.162s-0.271,3-0.844,4.162
			c-0.876-0.501-1.958-1.401-1.958-1.401s0.9,1.082,1.401,1.958c-1.162,0.573-4.162,0.844-4.162,0.844s3,0.271,4.162,0.844
			c-0.501,0.876-1.401,1.958-1.401,1.958s1.082-0.9,1.958-1.401c0.573,1.162,0.844,4.162,0.844,4.162s0.271-3,0.844-4.162
			c0.876,0.501,1.958,1.401,1.958,1.401S174.127,36.77,173.626,35.894z"/>
		<path fill="#EEE6D7" d="M173.05,35.547c0.685-0.338,2.452-0.497,2.452-0.497s-1.767-0.16-2.452-0.497
			c0.295-0.516,0.826-1.154,0.826-1.154s-0.638,0.53-1.154,0.826c-0.338-0.685-0.497-2.452-0.497-2.452s-0.16,1.767-0.497,2.452
			c-0.516-0.295-1.154-0.826-1.154-0.826s0.53,0.638,0.826,1.154c-0.685,0.338-2.452,0.497-2.452,0.497s1.767,0.16,2.452,0.497
			c-0.295,0.516-0.826,1.154-0.826,1.154s0.638-0.53,1.154-0.826c0.338,0.685,0.497,2.452,0.497,2.452s0.16-1.767,0.497-2.452
			c0.516,0.295,1.154,0.826,1.154,0.826S173.345,36.063,173.05,35.547z"/>
	</g>
	<g>
		<path fill="#FFFFFF" d="M269.969,32.378c1.162-0.573,4.162-0.844,4.162-0.844s-3-0.271-4.162-0.844
			c0.501-0.876,1.401-1.958,1.401-1.958s-1.082,0.9-1.958,1.401c-0.573-1.162-0.844-4.162-0.844-4.162s-0.271,3-0.844,4.162
			c-0.876-0.501-1.958-1.401-1.958-1.401s0.9,1.082,1.401,1.958c-1.162,0.573-4.162,0.844-4.162,0.844s3,0.271,4.162,0.844
			c-0.501,0.876-1.401,1.958-1.401,1.958s1.082-0.9,1.958-1.401c0.573,1.162,0.844,4.162,0.844,4.162s0.271-3,0.844-4.162
			c0.876,0.501,1.958,1.401,1.958,1.401S270.47,33.254,269.969,32.378z"/>
		<path fill="#EEE6D7" d="M269.394,32.031c0.685-0.338,2.452-0.497,2.452-0.497s-1.767-0.16-2.452-0.497
			c0.295-0.516,0.826-1.154,0.826-1.154s-0.638,0.53-1.154,0.826c-0.338-0.685-0.497-2.452-0.497-2.452s-0.16,1.767-0.497,2.452
			c-0.516-0.295-1.154-0.826-1.154-0.826s0.53,0.638,0.826,1.154c-0.685,0.338-2.452,0.497-2.452,0.497s1.767,0.16,2.452,0.497
			c-0.295,0.516-0.826,1.154-0.826,1.154s0.638-0.53,1.154-0.826c0.338,0.685,0.497,2.452,0.497,2.452s0.16-1.767,0.497-2.452
			c0.516,0.295,1.154,0.826,1.154,0.826S269.689,32.547,269.394,32.031z"/>
	</g>
	<g>
		<path fill="#FFFFFF" d="M321.892,75.302c0.705-0.348,2.524-0.512,2.524-0.512s-1.82-0.164-2.524-0.512
			c0.305-0.531,0.851-1.188,0.851-1.188s-0.656,0.546-1.188,0.85c-0.348-0.705-0.512-2.524-0.512-2.524s-0.164,1.82-0.512,2.524
			c-0.531-0.304-1.188-0.85-1.188-0.85s0.546,0.656,0.851,1.188c-0.705,0.348-2.524,0.512-2.524,0.512s1.819,0.164,2.524,0.512
			c-0.305,0.532-0.851,1.188-0.851,1.188s0.656-0.546,1.188-0.85c0.348,0.705,0.512,2.524,0.512,2.524s0.164-1.82,0.512-2.524
			c0.531,0.304,1.188,0.85,1.188,0.85S322.196,75.833,321.892,75.302z"/>
		<path fill="#EEE6D7" d="M321.543,75.092c0.415-0.205,1.487-0.302,1.487-0.302s-1.072-0.097-1.487-0.302
			c0.179-0.313,0.501-0.7,0.501-0.7s-0.387,0.322-0.7,0.501c-0.205-0.415-0.302-1.487-0.302-1.487s-0.097,1.072-0.302,1.487
			c-0.313-0.179-0.7-0.501-0.7-0.501s0.322,0.387,0.501,0.7c-0.415,0.205-1.487,0.302-1.487,0.302s1.072,0.097,1.487,0.302
			c-0.179,0.313-0.501,0.7-0.501,0.7s0.387-0.322,0.7-0.501c0.205,0.415,0.302,1.487,0.302,1.487s0.097-1.072,0.302-1.487
			c0.313,0.179,0.7,0.501,0.7,0.501S321.722,75.405,321.543,75.092z"/>
	</g>
	<g>
		<path fill="#FFFFFF" d="M477.177,25.983c0.705-0.348,2.524-0.512,2.524-0.512s-1.82-0.164-2.524-0.512
			c0.305-0.531,0.851-1.188,0.851-1.188s-0.656,0.546-1.188,0.85c-0.348-0.705-0.512-2.524-0.512-2.524s-0.164,1.82-0.512,2.524
			c-0.531-0.304-1.188-0.85-1.188-0.85s0.546,0.656,0.85,1.188c-0.704,0.348-2.523,0.512-2.523,0.512s1.819,0.164,2.523,0.512
			c-0.304,0.532-0.85,1.188-0.85,1.188s0.656-0.546,1.188-0.85c0.348,0.705,0.512,2.524,0.512,2.524s0.164-1.82,0.512-2.524
			c0.531,0.304,1.188,0.85,1.188,0.85S477.481,26.515,477.177,25.983z"/>
		<path fill="#EEE6D7" d="M476.828,25.773c0.415-0.205,1.487-0.302,1.487-0.302s-1.072-0.097-1.487-0.302
			c0.179-0.313,0.501-0.7,0.501-0.7s-0.387,0.322-0.7,0.501c-0.205-0.415-0.302-1.487-0.302-1.487s-0.097,1.072-0.302,1.487
			c-0.313-0.179-0.7-0.501-0.7-0.501s0.321,0.387,0.501,0.7c-0.415,0.205-1.487,0.302-1.487,0.302s1.072,0.097,1.487,0.302
			c-0.179,0.313-0.501,0.7-0.501,0.7s0.387-0.322,0.7-0.501c0.205,0.415,0.302,1.487,0.302,1.487s0.097-1.072,0.302-1.487
			c0.313,0.179,0.7,0.501,0.7,0.501S477.007,26.086,476.828,25.773z"/>
	</g>
	<g>
		<path fill="#FFFFFF" d="M459.843,194.825c1.162-0.573,4.162-0.845,4.162-0.845s-3-0.271-4.162-0.844
			c0.501-0.875,1.401-1.957,1.401-1.957s-1.082,0.899-1.958,1.4c-0.573-1.162-0.844-4.162-0.844-4.162s-0.271,3-0.845,4.162
			c-0.876-0.501-1.958-1.4-1.958-1.4s0.9,1.082,1.401,1.957c-1.162,0.573-4.162,0.844-4.162,0.844s3,0.271,4.162,0.845
			c-0.501,0.876-1.401,1.958-1.401,1.958s1.082-0.9,1.958-1.401c0.573,1.162,0.845,4.162,0.845,4.162s0.271-3,0.844-4.162
			c0.876,0.501,1.958,1.401,1.958,1.401S460.344,195.701,459.843,194.825z"/>
		<path fill="#EEE6D7" d="M459.267,194.479c0.686-0.338,2.452-0.498,2.452-0.498s-1.767-0.16-2.452-0.496
			c0.296-0.517,0.826-1.154,0.826-1.154s-0.638,0.529-1.153,0.826c-0.339-0.686-0.497-2.452-0.497-2.452s-0.16,1.767-0.497,2.452
			c-0.517-0.295-1.154-0.826-1.154-0.826s0.53,0.638,0.826,1.154c-0.686,0.338-2.452,0.496-2.452,0.496s1.767,0.16,2.452,0.498
			c-0.295,0.516-0.826,1.153-0.826,1.153s0.638-0.53,1.154-0.825c0.338,0.685,0.497,2.451,0.497,2.451s0.159-1.767,0.497-2.451
			c0.516,0.295,1.153,0.825,1.153,0.825S459.563,194.995,459.267,194.479z"/>
	</g>
	<g>
		<path fill="#FFFFFF" d="M622.988,50.803c2.323-1.146,8.323-1.688,8.323-1.688s-6-0.542-8.323-1.688
			c1.002-1.753,2.802-3.917,2.802-3.917s-2.164,1.801-3.917,2.803c-1.146-2.324-1.688-8.324-1.688-8.324s-0.542,6-1.688,8.324
			c-1.753-1.002-3.917-2.803-3.917-2.803s1.801,2.164,2.802,3.917c-2.324,1.146-8.324,1.688-8.324,1.688s6,0.542,8.324,1.688
			c-1.002,1.753-2.802,3.917-2.802,3.917s2.164-1.801,3.917-2.803c1.146,2.324,1.688,8.324,1.688,8.324s0.542-6,1.688-8.324
			c1.753,1.002,3.917,2.803,3.917,2.803S623.99,52.555,622.988,50.803z"/>
		<path fill="#EEE6D7" d="M621.837,50.109c1.37-0.675,4.904-0.995,4.904-0.995s-3.535-0.319-4.904-0.995
			c0.59-1.033,1.651-2.308,1.651-2.308s-1.275,1.061-2.309,1.651c-0.675-1.369-0.995-4.904-0.995-4.904s-0.318,3.535-0.994,4.904
			c-1.033-0.59-2.309-1.651-2.309-1.651s1.062,1.275,1.651,2.308c-1.369,0.675-4.904,0.995-4.904,0.995s3.535,0.319,4.904,0.995
			c-0.59,1.033-1.651,2.308-1.651,2.308s1.275-1.061,2.309-1.651c0.675,1.369,0.994,4.904,0.994,4.904s0.319-3.535,0.995-4.904
			c1.033,0.59,2.309,1.651,2.309,1.651S622.427,51.142,621.837,50.109z"/>
	</g>
	<g>
		<path fill="#FFFFFF" d="M759.421,56.288c1.162-0.573,4.162-0.844,4.162-0.844s-3-0.271-4.162-0.844
			c0.501-0.876,1.401-1.958,1.401-1.958s-1.082,0.9-1.958,1.401c-0.573-1.162-0.845-4.162-0.845-4.162s-0.271,3-0.844,4.162
			c-0.876-0.501-1.958-1.401-1.958-1.401s0.9,1.082,1.401,1.958c-1.162,0.573-4.162,0.844-4.162,0.844s3,0.271,4.162,0.844
			c-0.501,0.876-1.401,1.958-1.401,1.958s1.082-0.9,1.958-1.401c0.573,1.162,0.844,4.162,0.844,4.162s0.271-3,0.845-4.162
			c0.876,0.501,1.958,1.401,1.958,1.401S759.922,57.164,759.421,56.288z"/>
		<path fill="#EEE6D7" d="M758.846,55.941c0.686-0.338,2.452-0.497,2.452-0.497s-1.767-0.16-2.452-0.497
			c0.295-0.516,0.826-1.154,0.826-1.154s-0.638,0.53-1.154,0.826c-0.338-0.685-0.496-2.452-0.496-2.452s-0.16,1.767-0.497,2.452
			c-0.517-0.295-1.154-0.826-1.154-0.826s0.53,0.638,0.826,1.154c-0.686,0.338-2.452,0.497-2.452,0.497s1.767,0.16,2.452,0.497
			c-0.295,0.516-0.826,1.154-0.826,1.154s0.638-0.53,1.154-0.826c0.338,0.685,0.497,2.452,0.497,2.452s0.159-1.767,0.496-2.452
			c0.517,0.295,1.154,0.826,1.154,0.826S759.141,56.457,758.846,55.941z"/>
	</g>
	<g>
		<path fill="#FFFFFF" d="M127.403,68.347c0.705-0.348,2.524-0.512,2.524-0.512s-1.82-0.164-2.524-0.512
			c0.304-0.531,0.85-1.188,0.85-1.188s-0.656,0.546-1.188,0.85c-0.348-0.705-0.512-2.524-0.512-2.524s-0.164,1.82-0.512,2.524
			c-0.531-0.304-1.188-0.85-1.188-0.85s0.546,0.656,0.85,1.188c-0.705,0.348-2.524,0.512-2.524,0.512s1.819,0.164,2.524,0.512
			c-0.304,0.532-0.85,1.188-0.85,1.188s0.656-0.546,1.188-0.85c0.348,0.705,0.512,2.524,0.512,2.524s0.164-1.82,0.512-2.524
			c0.531,0.304,1.188,0.85,1.188,0.85S127.707,68.878,127.403,68.347z"/>
		<path fill="#EEE6D7" d="M127.054,68.136c0.415-0.205,1.487-0.302,1.487-0.302s-1.072-0.097-1.487-0.302
			c0.179-0.313,0.501-0.7,0.501-0.7s-0.387,0.322-0.7,0.501c-0.205-0.415-0.302-1.487-0.302-1.487s-0.097,1.072-0.302,1.487
			c-0.313-0.179-0.7-0.501-0.7-0.501s0.322,0.387,0.501,0.7c-0.415,0.205-1.487,0.302-1.487,0.302s1.072,0.097,1.487,0.302
			c-0.179,0.313-0.501,0.7-0.501,0.7s0.387-0.322,0.7-0.501c0.205,0.415,0.302,1.487,0.302,1.487s0.097-1.072,0.302-1.487
			c0.313,0.179,0.7,0.501,0.7,0.501S127.233,68.45,127.054,68.136z"/>
	</g>
	<g>
		<path fill="#FFFFFF" d="M679.59,89.168c0.705-0.348,2.524-0.512,2.524-0.512s-1.82-0.164-2.524-0.512
			c0.305-0.531,0.851-1.188,0.851-1.188s-0.656,0.546-1.188,0.85c-0.348-0.705-0.512-2.524-0.512-2.524s-0.164,1.82-0.513,2.524
			c-0.53-0.304-1.188-0.85-1.188-0.85s0.546,0.656,0.85,1.188c-0.705,0.348-2.523,0.512-2.523,0.512s1.818,0.164,2.523,0.512
			c-0.304,0.532-0.85,1.188-0.85,1.188s0.656-0.546,1.188-0.85c0.349,0.705,0.513,2.524,0.513,2.524s0.164-1.82,0.512-2.524
			c0.531,0.304,1.188,0.85,1.188,0.85S679.894,89.699,679.59,89.168z"/>
		<path fill="#EEE6D7" d="M679.241,88.958c0.415-0.205,1.487-0.302,1.487-0.302s-1.072-0.097-1.487-0.302
			c0.179-0.313,0.501-0.7,0.501-0.7s-0.387,0.322-0.7,0.501c-0.205-0.415-0.302-1.487-0.302-1.487s-0.098,1.072-0.303,1.487
			c-0.313-0.179-0.699-0.501-0.699-0.501s0.321,0.387,0.501,0.7c-0.415,0.205-1.487,0.302-1.487,0.302s1.072,0.097,1.487,0.302
			c-0.18,0.313-0.501,0.7-0.501,0.7s0.387-0.322,0.699-0.501c0.205,0.415,0.303,1.487,0.303,1.487s0.097-1.072,0.302-1.487
			c0.313,0.179,0.7,0.501,0.7,0.501S679.42,89.271,679.241,88.958z"/>
	</g>
	<g>
		<path fill="#FFFFFF" d="M722.854,129.424c1.161-0.573,4.161-0.844,4.161-0.844s-3-0.271-4.161-0.844
			c0.5-0.876,1.4-1.958,1.4-1.958s-1.082,0.9-1.958,1.401c-0.573-1.162-0.844-4.162-0.844-4.162s-0.271,3-0.844,4.162
			c-0.876-0.501-1.958-1.401-1.958-1.401s0.899,1.082,1.4,1.958c-1.162,0.573-4.162,0.844-4.162,0.844s3,0.271,4.162,0.844
			c-0.501,0.876-1.4,1.958-1.4,1.958s1.082-0.9,1.958-1.401c0.572,1.162,0.844,4.162,0.844,4.162s0.271-3,0.844-4.162
			c0.876,0.501,1.958,1.401,1.958,1.401S723.354,130.3,722.854,129.424z"/>
		<path fill="#EEE6D7" d="M722.278,129.077c0.685-0.338,2.452-0.497,2.452-0.497s-1.768-0.16-2.452-0.497
			c0.295-0.516,0.825-1.154,0.825-1.154s-0.638,0.53-1.153,0.826c-0.338-0.685-0.497-2.452-0.497-2.452s-0.16,1.767-0.497,2.452
			c-0.516-0.295-1.154-0.826-1.154-0.826s0.53,0.638,0.826,1.154c-0.685,0.338-2.452,0.497-2.452,0.497s1.768,0.16,2.452,0.497
			c-0.295,0.516-0.826,1.154-0.826,1.154s0.639-0.53,1.154-0.826c0.338,0.685,0.497,2.452,0.497,2.452s0.16-1.767,0.497-2.452
			c0.516,0.295,1.153,0.826,1.153,0.826S722.573,129.594,722.278,129.077z"/>
	</g>
	<g>
		<path fill="#FFFFFF" d="M57.592,35.191c1.162-0.573,4.162-0.844,4.162-0.844s-3-0.271-4.162-0.844
			c0.501-0.876,1.401-1.958,1.401-1.958s-1.082,0.9-1.958,1.401c-0.573-1.162-0.844-4.162-0.844-4.162s-0.271,3-0.844,4.162
			c-0.876-0.501-1.958-1.401-1.958-1.401s0.9,1.082,1.401,1.958c-1.162,0.573-4.162,0.844-4.162,0.844s3,0.271,4.162,0.844
			c-0.501,0.876-1.401,1.958-1.401,1.958s1.082-0.9,1.958-1.401c0.573,1.162,0.844,4.162,0.844,4.162s0.271-3,0.844-4.162
			c0.876,0.501,1.958,1.401,1.958,1.401S58.093,36.067,57.592,35.191z"/>
		<path fill="#EEE6D7" d="M57.016,34.844c0.685-0.338,2.452-0.497,2.452-0.497s-1.767-0.16-2.452-0.497
			c0.295-0.516,0.826-1.154,0.826-1.154s-0.638,0.53-1.154,0.826c-0.338-0.685-0.497-2.452-0.497-2.452s-0.16,1.767-0.497,2.452
			c-0.516-0.295-1.154-0.826-1.154-0.826s0.53,0.638,0.826,1.154c-0.685,0.338-2.452,0.497-2.452,0.497s1.767,0.16,2.452,0.497
			c-0.295,0.516-0.826,1.154-0.826,1.154s0.638-0.53,1.154-0.826c0.338,0.685,0.497,2.452,0.497,2.452s0.16-1.767,0.497-2.452
			c0.516,0.295,1.154,0.826,1.154,0.826S57.311,35.36,57.016,34.844z"/>
	</g>
	<g>
		<path fill="#FFFFFF" d="M485.863,109.03c1.162-0.573,4.162-0.844,4.162-0.844s-3-0.271-4.162-0.844
			c0.501-0.876,1.4-1.958,1.4-1.958s-1.082,0.9-1.958,1.401c-0.572-1.162-0.844-4.162-0.844-4.162s-0.271,3-0.844,4.162
			c-0.876-0.501-1.958-1.401-1.958-1.401s0.899,1.082,1.4,1.958c-1.161,0.573-4.161,0.844-4.161,0.844s3,0.271,4.161,0.844
			c-0.501,0.876-1.4,1.958-1.4,1.958s1.082-0.9,1.958-1.401c0.573,1.162,0.844,4.162,0.844,4.162s0.271-3,0.844-4.162
			c0.876,0.501,1.958,1.401,1.958,1.401S486.364,109.907,485.863,109.03z"/>
		<path fill="#EEE6D7" d="M485.287,108.684c0.685-0.338,2.452-0.497,2.452-0.497s-1.768-0.16-2.452-0.497
			c0.295-0.516,0.826-1.154,0.826-1.154s-0.639,0.53-1.154,0.826c-0.338-0.685-0.497-2.452-0.497-2.452s-0.16,1.767-0.497,2.452
			c-0.516-0.295-1.154-0.826-1.154-0.826s0.53,0.638,0.826,1.154c-0.685,0.338-2.452,0.497-2.452,0.497s1.768,0.16,2.452,0.497
			c-0.295,0.516-0.826,1.154-0.826,1.154s0.639-0.53,1.154-0.826c0.338,0.685,0.497,2.452,0.497,2.452s0.16-1.767,0.497-2.452
			c0.516,0.295,1.154,0.826,1.154,0.826S485.582,109.2,485.287,108.684z"/>
	</g>
	<g>
		<path fill="#FFFFFF" d="M924.682,130.127c1.162-0.573,4.162-0.844,4.162-0.844s-3-0.271-4.162-0.844
			c0.501-0.876,1.401-1.958,1.401-1.958s-1.082,0.9-1.958,1.401c-0.573-1.162-0.844-4.162-0.844-4.162s-0.271,3-0.844,4.162
			c-0.877-0.501-1.959-1.401-1.959-1.401s0.9,1.082,1.401,1.958c-1.162,0.573-4.162,0.844-4.162,0.844s3,0.271,4.162,0.844
			c-0.501,0.876-1.401,1.958-1.401,1.958s1.082-0.9,1.959-1.401c0.572,1.162,0.844,4.162,0.844,4.162s0.271-3,0.844-4.162
			c0.876,0.501,1.958,1.401,1.958,1.401S925.183,131.004,924.682,130.127z"/>
		<path fill="#EEE6D7" d="M924.106,129.781c0.685-0.338,2.451-0.497,2.451-0.497s-1.767-0.16-2.451-0.497
			c0.295-0.516,0.825-1.154,0.825-1.154s-0.638,0.53-1.153,0.826c-0.338-0.685-0.497-2.452-0.497-2.452s-0.16,1.767-0.497,2.452
			c-0.517-0.295-1.154-0.826-1.154-0.826s0.53,0.638,0.826,1.154c-0.685,0.338-2.452,0.497-2.452,0.497s1.768,0.16,2.452,0.497
			c-0.295,0.516-0.826,1.154-0.826,1.154s0.638-0.53,1.154-0.826c0.338,0.685,0.497,2.452,0.497,2.452s0.16-1.767,0.497-2.452
			c0.516,0.295,1.153,0.826,1.153,0.826S924.401,130.297,924.106,129.781z"/>
	</g>
	<g>
		<path fill="#FFFFFF" d="M803.725,165.992c1.162-0.573,4.162-0.844,4.162-0.844s-3-0.271-4.162-0.844
			c0.501-0.876,1.401-1.958,1.401-1.958s-1.082,0.9-1.958,1.401c-0.573-1.162-0.844-4.162-0.844-4.162s-0.271,3-0.844,4.162
			c-0.877-0.501-1.959-1.401-1.959-1.401s0.9,1.082,1.401,1.958c-1.162,0.573-4.162,0.844-4.162,0.844s3,0.271,4.162,0.844
			c-0.501,0.876-1.401,1.958-1.401,1.958s1.082-0.9,1.959-1.401c0.572,1.162,0.844,4.162,0.844,4.162s0.271-3,0.844-4.162
			c0.876,0.501,1.958,1.401,1.958,1.401S804.226,166.869,803.725,165.992z"/>
		<path fill="#EEE6D7" d="M803.15,165.646c0.685-0.338,2.451-0.497,2.451-0.497s-1.767-0.16-2.451-0.497
			c0.295-0.516,0.825-1.154,0.825-1.154s-0.638,0.53-1.153,0.826c-0.338-0.685-0.497-2.452-0.497-2.452s-0.16,1.767-0.497,2.452
			c-0.516-0.295-1.154-0.826-1.154-0.826s0.53,0.638,0.826,1.154c-0.685,0.338-2.452,0.497-2.452,0.497s1.768,0.16,2.452,0.497
			c-0.295,0.516-0.826,1.154-0.826,1.154s0.639-0.53,1.154-0.826c0.338,0.685,0.497,2.452,0.497,2.452s0.16-1.767,0.497-2.452
			c0.516,0.295,1.153,0.826,1.153,0.826S803.445,166.162,803.15,165.646z"/>
	</g>
	<g>
		<path fill="#FFFFFF" d="M829.745,108.327c1.162-0.573,4.162-0.844,4.162-0.844s-3-0.271-4.162-0.844
			c0.501-0.876,1.401-1.958,1.401-1.958s-1.082,0.9-1.959,1.401c-0.572-1.162-0.844-4.162-0.844-4.162s-0.271,3-0.844,4.162
			c-0.876-0.501-1.958-1.401-1.958-1.401s0.9,1.082,1.401,1.958c-1.162,0.573-4.162,0.844-4.162,0.844s3,0.271,4.162,0.844
			c-0.501,0.876-1.401,1.958-1.401,1.958s1.082-0.9,1.958-1.401c0.573,1.162,0.844,4.162,0.844,4.162s0.271-3,0.844-4.162
			c0.877,0.501,1.959,1.401,1.959,1.401S830.246,109.203,829.745,108.327z"/>
		<path fill="#EEE6D7" d="M829.169,107.98c0.685-0.338,2.452-0.497,2.452-0.497s-1.768-0.16-2.452-0.497
			c0.295-0.516,0.826-1.154,0.826-1.154s-0.638,0.53-1.154,0.826c-0.338-0.685-0.497-2.452-0.497-2.452s-0.16,1.767-0.497,2.452
			c-0.516-0.295-1.153-0.826-1.153-0.826s0.529,0.638,0.825,1.154c-0.685,0.338-2.451,0.497-2.451,0.497s1.767,0.16,2.451,0.497
			c-0.295,0.516-0.825,1.154-0.825,1.154s0.638-0.53,1.153-0.826c0.338,0.685,0.497,2.452,0.497,2.452s0.16-1.767,0.497-2.452
			c0.517,0.295,1.154,0.826,1.154,0.826S829.465,108.497,829.169,107.98z"/>
	</g>
	<g>
		<path fill="#FFFFFF" d="M702.459,32.378c1.162-0.573,4.162-0.844,4.162-0.844s-3-0.271-4.162-0.844
			c0.501-0.876,1.401-1.958,1.401-1.958s-1.082,0.9-1.958,1.401c-0.573-1.162-0.845-4.162-0.845-4.162s-0.271,3-0.844,4.162
			c-0.876-0.501-1.958-1.401-1.958-1.401s0.9,1.082,1.401,1.958c-1.162,0.573-4.162,0.844-4.162,0.844s3,0.271,4.162,0.844
			c-0.501,0.876-1.401,1.958-1.401,1.958s1.082-0.9,1.958-1.401c0.573,1.162,0.844,4.162,0.844,4.162s0.271-3,0.845-4.162
			c0.876,0.501,1.958,1.401,1.958,1.401S702.96,33.254,702.459,32.378z"/>
		<path fill="#EEE6D7" d="M701.884,32.031c0.686-0.338,2.452-0.497,2.452-0.497s-1.767-0.16-2.452-0.497
			c0.295-0.516,0.826-1.154,0.826-1.154s-0.638,0.53-1.154,0.826c-0.338-0.685-0.497-2.452-0.497-2.452s-0.159,1.767-0.497,2.452
			c-0.516-0.295-1.153-0.826-1.153-0.826s0.529,0.638,0.826,1.154c-0.686,0.338-2.452,0.497-2.452,0.497s1.767,0.16,2.452,0.497
			c-0.295,0.516-0.826,1.154-0.826,1.154s0.638-0.53,1.153-0.826c0.339,0.685,0.497,2.452,0.497,2.452s0.16-1.767,0.497-2.452
			c0.517,0.295,1.154,0.826,1.154,0.826S702.179,32.547,701.884,32.031z"/>
	</g>
	<g>
		<circle fill="#D71419" cx="520.326" cy="163.101" r="22.398"/>
		<path fill="#ED1C24" d="M525.168,141.228c-1.559-0.344-3.179-0.525-4.842-0.525c-12.37,0-22.398,10.028-22.398,22.398
			s10.028,22.398,22.398,22.398c3.344,0,6.514-0.738,9.364-2.052c-0.176-1.367-0.62-2.796-0.926-4.328
			c-0.865-4.355-10.549-4.594-15.471-3.89c-4.923,0.704-4.219-4.22-4.662-11.952c-0.442-7.732,11.695-0.176,11.343-7.509
			c-0.352-7.333,10.9,2.583,11.698-5.965l0.925-5.436C530.366,142.902,527.859,141.821,525.168,141.228z"/>
		<path fill="none" stroke="#385572" stroke-miterlimit="10" d="M497.928,163.101c0,0-6.582,0.632-6.582,6.731
			s51.483-13.357,54.296-17.342c2.813-3.985-4.804-3.278-4.804-3.278"/>
		<path fill="none" stroke="#8296A7" stroke-miterlimit="10" d="M497.928,164.508c0,0-6.582,0.632-6.582,6.731
			c0,6.099,51.483-13.357,54.296-17.342c2.813-3.985-4.804-3.278-4.804-3.278"/>
		<path fill="none" stroke="#385572" stroke-miterlimit="10" d="M497.928,165.914c0,0-6.582,0.632-6.582,6.731
			s51.483-13.357,54.296-17.342c2.813-3.985-4.804-3.278-4.804-3.278"/>
		<path fill="none" stroke="#385572" stroke-width="3" stroke-miterlimit="10" d="M497.928,168.024c0,0-6.582,0.632-6.582,6.731
			c0,6.099,51.483-13.357,54.296-17.342c2.813-3.985-4.804-3.278-4.804-3.278"/>
	</g>
	<g>
		<circle fill="#FFFFFF" cx="224.967" cy="90.543" r="3.428"/>
		<circle fill="#EEE6D7" cx="224.967" cy="90.543" r="2.11"/>
	</g>
	<g>
		<circle fill="#FFFFFF" cx="598.542" cy="118.125" r="4.809"/>
		<circle fill="#EEE6D7" cx="598.542" cy="118.125" r="2.959"/>
	</g>
	<g>
		<circle fill="#47C7E9" cx="404.996" cy="61.835" r="36.631"/>
		<path opacity="0.3" fill="#0071FA" enable-background="new    " d="M407.624,25.309c-7.797,2.656-15.894,5.918-15.927,8.023
			c-0.063,4.062,25.957-3.14,25.957,2.219c0,5.359-12.658,1.601-12.658,7.699s23.332,3.395,22.566,7.208
			c-0.767,3.813-44.041,3.47-44.907,11.377c-0.866,7.907,27.761,2.516,29.622,5.563c1.86,3.047-10.571,5.335-11.739,7.356
			s26.384-2.304,27.023,3.374c0.642,5.679-9.937,9.038-7.798,12.623c0.688,1.151,1.951,2.102,3.463,2.85
			c10.992-6.322,18.4-18.176,18.4-31.767C441.627,42.489,426.626,26.657,407.624,25.309z"/>
	</g>
	<g>
		<circle fill="#FFDC2D" cx="821.249" cy="40.676" r="14.256"/>
		<path fill="#EBC80F" d="M821.249,26.42c-3.104,0-5.968,1.003-8.309,2.688c1.303,1.402,3.233,2.18,6.102,1.239
			c8.162-2.678-3.317,4.756-3.317,4.756l9.123,1.813c0,0-4.175-0.697-3.408,3.757c0.766,4.454,6.562,1.472,6.562,1.472v6.501
			l4.553,0.932c1.955-2.44,3.042-5.532,3.042-8.903C835.595,32.802,829.122,26.42,821.249,26.42z"/>
		<path fill="none" stroke="#D71419" stroke-width="2" stroke-linecap="round" stroke-linejoin="round" stroke-miterlimit="10" d="
			M806.29,40.676c0,0-15.424,6.054-13.211,10.88c2.213,4.826,62.126-10.685,59.878-17.146c-1.406-4.044-17.903-0.063-17.903-0.063"
			/>
	</g>
	<g>
		<path fill="#EBC80F" d="M523.525,31.569c-0.118-0.099-0.027-0.403,0.203-0.678s0.514-0.417,0.632-0.318l21.608,17.183
			c1.201,1.008,1.779,2.297,1.29,2.88c-0.489,0.583-1.858,0.237-3.06-0.771L523.525,31.569z"/>
		<path fill="#FFDC2D" d="M545.969,47.756l-1.285-1.022l0,0c-0.134-0.107-1.242-0.055-1.988,0.542
			c-0.198,0.158-0.217,0.588-0.145,1.129l1.649,1.459c1.201,1.008,2.571,1.353,3.06,0.771
			C547.748,50.054,547.171,48.764,545.969,47.756z"/>
	</g>
	<g display="none">
		<circle display="inline" fill="#EBC80F" cx="397" cy="318.578" r="4.875"/>
		<circle display="inline" fill="#FF5E23" cx="397" cy="318.578" r="3"/>
	</g>
	<g display="none">
		<circle display="inline" fill="#EBC80F" cx="105" cy="58.578" r="4.875"/>
		<circle display="inline" fill="#FF5E23" cx="105" cy="58.578" r="3"/>
	</g>
</g>
<g id="Layer_3">
	<path fill="#FF5E23" d="M288.511,249.121L280,221.438V219h-0.056l0.056-1.4v-1.645c0,0,0.794-16.172,1.343-20.831
		c0.549-4.659,1.704-8.696,1.704-8.696s10.404-9.395,16.434-8.024c6.03,1.37,16.956,5.208,17.23,6.304l13.138-14.042L335.313,141
		h6.029c0,0-2.056,28.158-3.576,32.815c-0.052,0.158-0.631-0.325-0.665-0.16c-0.094,0.462,0.503,0.521,0.403,0.724
		c-0.105,0.216-0.687-0.257-0.938,0.16c-0.089,0.145,0.262,0.335,0.243,0.471c-0.813,6.43-17.67,25.08-17.67,25.08L312.495,216
		h-19.943l-0.822-6.052l-1.096-1.245c0,0-3.258,10.686-2.467,12.671s3.988,16.478,3.988,16.478L288.511,249.121z"/>
	<ellipse fill="#D4D6D8" cx="302.42" cy="338.272" rx="40.932" ry="5.411"/>
	<ellipse fill="#BFC2C5" cx="300.775" cy="336.629" rx="40.932" ry="5.411"/>
	<circle fill="#FFDC2D" cx="305.709" cy="165.704" r="10.416"/>
	<circle fill="#EBC80F" cx="304.613" cy="164.608" r="10.416"/>
	<path fill="#FFDC2D" d="M337.009,135.409c-1.656,3.902-3.874,10.139-0.311,8.671c3.071-1.266,4.095-2.507,5.687-5.458
		c2.654-4.92,5.597-9.153,4.148-9.767C344.443,127.967,338.665,131.507,337.009,135.409z"/>
	<path fill="#EBC80F" d="M335.912,134.861c-1.656,3.902-4.164,8.747-0.312,8.671c6.507-0.128,4.031-1.556,5.688-5.458
		c1.656-3.902,6.238-8.88,4.147-9.767C343.347,127.419,337.569,130.959,335.912,134.861z"/>
	<path fill="#836FEA" d="M311.557,335.827c0.535,1.284,7.857,2.192,8.588,1.827c0.731-0.365,1.827-0.549,1.646-1.827
		c-0.183-1.279-2.558-4.935-2.376-8.771c0.182-3.838-7.857-1.828-7.857-1.828S310.643,333.634,311.557,335.827z"/>
	<path fill="#836FEA" d="M280.858,325.959c0,0-4.386,7.492-3.106,10.05c1.28,2.558,4.751,1.726,4.751,1.726s4.02-0.812,4.386-2.457
		c0.365-1.645,0-8.178,0.914-10.575C288.715,322.305,280.858,325.959,280.858,325.959z"/>
	<path fill="#03284C" d="M309.912,335.827c0.535,1.284,7.856,2.192,8.588,1.827s1.827-0.549,1.645-1.827
		c-0.182-1.279-2.558-4.935-2.375-8.771c0.184-3.838-7.856-1.828-7.856-1.828S308.998,333.634,309.912,335.827z"/>
	<path fill="#03284C" d="M279.213,325.959c0,0-4.386,7.492-3.106,10.05c1.28,2.558,4.751,1.726,4.751,1.726s4.02-0.812,4.386-2.457
		c0.365-1.645,0-8.178,0.914-10.575C287.071,322.305,279.213,325.959,279.213,325.959z"/>
	<path fill="#D71419" d="M286.689,249.121L278,221.438V219h0.3l-0.3-1.4v-1.645c0,0,0.972-16.172,1.52-20.831
		c0.548-4.66,1.793-8.696,1.793-8.696s10.448-9.395,16.478-8.024c6.03,1.37,16.978,5.208,17.253,6.304l13.149-14.042L333.667,141
		h7.126c0,0-3.152,28.158-4.672,32.815c-0.052,0.158-0.631-0.325-0.665-0.16c-0.094,0.462,0.503,0.521,0.403,0.724
		c-0.106,0.216-0.688-0.257-0.939,0.16c-0.088,0.145,0.262,0.335,0.244,0.471c-0.813,6.43-17.67,25.08-17.67,25.08L310.851,216
		h-19.942l-0.822-6.052l-1.096-1.245c0,0-3.258,10.686-2.467,12.671c0.792,1.987,3.9,16.478,3.9,16.478L286.689,249.121z"/>
	<path fill="#FFDC2D" d="M293,221.984V216h19v5.984c0,0,10.011,18.64,11.93,30.699c1.919,12.061,8.295,74.555,8.295,74.555
		s-7.675,1.062-10.287,1.096c-3.134,0.041-12.408-1.096-12.408-1.096l-0.539-57.012c0,0-1.914-10.143-2.736-10.416
		c-0.822-0.274-6.028,24.119-5.754,25.765s-1.095,42.759-1.095,42.759s-8.139,0.548-10.647,0.548
		c-2.509,0-11.005-1.096-11.005-1.096s6.689-73.706,8.173-79.488C287.408,242.518,293,227.467,293,221.984z"/>
	<path fill="#EBC80F" d="M291,221.984V216h20v5.984c0,0,9.689,18.64,11.608,30.699c1.919,12.061,8.134,74.555,8.134,74.555
		s-7.755,1.062-10.369,1.096c-3.133,0.041-12.448-1.096-12.448-1.096l-0.559-57.012c0,0-1.924-10.143-2.747-10.416
		c-0.822-0.274-6.033,24.119-5.759,25.765s-1.098,42.759-1.098,42.759s-8.14,0.548-10.649,0.548c-2.509,0-11.006-1.096-11.006-1.096
		s6.511-73.706,7.995-79.488S291,227.467,291,221.984z"/>
	<path fill="#836FEA" d="M277.569,163.877c-4.751,7.401-4.846,16.369-8.588,20.466c-3.353,3.671-13.522,9.105-11.329,20.177
		c2.193,11.07,12.983,19.349,22.659,19.477c12.243,0.161,27.592-4.568,29.42-19.553c0.625-5.125-8.647-14.678-2.925-23.023
		c4.387-6.396-3.837-14.618-3.837-14.618s10.201-5.216,9.457-6.558c-0.745-1.341-3.975-7.33-12.746-6.051
		C290.908,155.471,281.145,158.305,277.569,163.877z"/>
	<path fill="#03284C" d="M279.761,163.877c-4.751,7.401-4.846,16.369-8.588,20.466c-3.353,3.671-13.522,9.105-11.329,20.177
		c2.193,11.07,12.983,19.349,22.659,19.477c12.243,0.161,27.592-4.568,29.42-19.553c0.625-5.125-8.647-14.678-2.924-23.023
		c4.386-6.396-3.837-14.618-3.837-14.618s10.201-5.216,9.457-6.558c-0.744-1.342-3.976-7.33-12.746-6.051
		C293.101,155.471,283.338,158.305,279.761,163.877z"/>
	<path fill="#03284C" d="M279.761,163.877c-4.751,7.401-4.846,16.369-8.588,20.466c-3.353,3.671-13.522,9.105-11.329,20.177
		c2.193,11.07,12.983,19.349,22.659,19.477c12.243,0.161,27.592-4.568,29.42-19.553c0.625-5.125-8.647-14.678-2.924-23.023
		c4.386-6.396-3.837-14.618-3.837-14.618s10.201-5.216,9.457-6.558c-0.744-1.342-3.976-7.33-12.746-6.051
		C293.101,155.471,283.338,158.305,279.761,163.877z"/>
	<pattern  id="SVGID_2_" xlink:href="#Alyssa" patternTransform="matrix(1 0 0 -1 -386.333 -16360.3652)">
	</pattern>
	<path display="none" opacity="0.2" fill="url(#SVGID_2_)" enable-background="new    " d="M195.667,211
		c-8.667,13.5-8.84,29.861-15.667,37.333c-6.116,6.694-24.667,16.608-20.667,36.804s23.684,35.297,41.333,35.529
		C223,320.961,251,312.333,254.333,285c1.14-9.35-15.774-26.775-5.333-42c8-11.667-7-26.667-7-26.667s18.609-9.517,17.251-11.963
		C257.893,201.923,252,191,236,193.333C220,195.667,202.191,200.837,195.667,211z"/>
</g>
<g id="Layer_4">
	<g>
		<path fill="#FFFFFF" d="M297.478,200.094c1.812-0.893,6.489-1.316,6.489-1.316s-4.677-0.422-6.489-1.315
			c0.781-1.366,2.185-3.053,2.185-3.053s-1.687,1.403-3.053,2.185c-0.893-1.812-1.316-6.488-1.316-6.488s-0.423,4.677-1.316,6.488
			c-1.366-0.781-3.053-2.185-3.053-2.185s1.404,1.687,2.185,3.053c-1.812,0.894-6.489,1.315-6.489,1.315s4.677,0.424,6.489,1.316
			c-0.781,1.366-2.185,3.053-2.185,3.053s1.687-1.403,3.053-2.185c0.893,1.812,1.316,6.489,1.316,6.489s0.423-4.678,1.316-6.489
			c1.366,0.781,3.053,2.185,3.053,2.185S298.259,201.461,297.478,200.094z"/>
		<path fill="#EEE6D7" d="M296.581,199.555c1.068-0.527,3.823-0.775,3.823-0.775s-2.756-0.25-3.823-0.775
			c0.46-0.805,1.287-1.799,1.287-1.799s-0.994,0.827-1.799,1.287c-0.526-1.067-0.775-3.823-0.775-3.823s-0.249,2.756-0.775,3.823
			c-0.805-0.46-1.799-1.287-1.799-1.287s0.827,0.994,1.287,1.799c-1.067,0.525-3.823,0.775-3.823,0.775s2.755,0.248,3.823,0.775
			c-0.46,0.805-1.287,1.799-1.287,1.799s0.994-0.828,1.799-1.287c0.526,1.066,0.775,3.822,0.775,3.822s0.249-2.756,0.775-3.822
			c0.805,0.459,1.799,1.287,1.799,1.287S297.041,200.359,296.581,199.555z"/>
	</g>
	<g>
		<path fill="#FFFFFF" d="M295.004,175.182c0.549-0.271,1.968-0.399,1.968-0.399s-1.418-0.128-1.968-0.399
			c0.237-0.414,0.663-0.926,0.663-0.926s-0.512,0.426-0.926,0.663c-0.271-0.549-0.399-1.968-0.399-1.968s-0.128,1.418-0.399,1.968
			c-0.414-0.237-0.926-0.663-0.926-0.663s0.426,0.512,0.663,0.926c-0.549,0.271-1.968,0.399-1.968,0.399s1.418,0.128,1.968,0.399
			c-0.237,0.414-0.663,0.926-0.663,0.926s0.512-0.426,0.926-0.663c0.271,0.549,0.399,1.968,0.399,1.968s0.128-1.418,0.399-1.968
			c0.414,0.237,0.926,0.663,0.926,0.663S295.241,175.596,295.004,175.182z"/>
		<path fill="#EEE6D7" d="M294.732,175.018c0.324-0.16,1.159-0.235,1.159-0.235s-0.836-0.076-1.159-0.235
			c0.14-0.244,0.39-0.546,0.39-0.546s-0.301,0.251-0.546,0.39c-0.16-0.324-0.235-1.159-0.235-1.159s-0.076,0.836-0.235,1.159
			c-0.244-0.14-0.546-0.39-0.546-0.39s0.251,0.301,0.39,0.546c-0.324,0.16-1.159,0.235-1.159,0.235s0.836,0.076,1.159,0.235
			c-0.14,0.244-0.39,0.546-0.39,0.546s0.301-0.251,0.546-0.39c0.16,0.324,0.235,1.159,0.235,1.159s0.076-0.836,0.235-1.159
			c0.244,0.14,0.546,0.39,0.546,0.39S294.872,175.262,294.732,175.018z"/>
	</g>
	<g>
		<path fill="#FFFFFF" d="M266.692,202.747c0.549-0.271,1.968-0.399,1.968-0.399s-1.418-0.127-1.968-0.398
			c0.237-0.414,0.663-0.926,0.663-0.926s-0.512,0.426-0.926,0.662c-0.271-0.549-0.399-1.968-0.399-1.968s-0.128,1.418-0.399,1.968
			c-0.414-0.236-0.926-0.662-0.926-0.662s0.426,0.512,0.663,0.926c-0.549,0.271-1.968,0.398-1.968,0.398s1.418,0.129,1.968,0.399
			c-0.237,0.414-0.663,0.926-0.663,0.926s0.512-0.426,0.926-0.663c0.271,0.549,0.399,1.969,0.399,1.969s0.128-1.418,0.399-1.969
			c0.414,0.237,0.926,0.663,0.926,0.663S266.929,203.161,266.692,202.747z"/>
		<path fill="#EEE6D7" d="M266.42,202.583c0.324-0.16,1.159-0.235,1.159-0.235s-0.836-0.076-1.159-0.234
			c0.14-0.244,0.39-0.547,0.39-0.547s-0.301,0.252-0.546,0.391c-0.16-0.324-0.235-1.159-0.235-1.159s-0.076,0.836-0.235,1.159
			c-0.244-0.141-0.546-0.391-0.546-0.391s0.251,0.302,0.39,0.547c-0.324,0.16-1.159,0.234-1.159,0.234s0.836,0.076,1.159,0.235
			c-0.14,0.244-0.39,0.546-0.39,0.546s0.301-0.251,0.546-0.391c0.16,0.324,0.235,1.16,0.235,1.16s0.076-0.836,0.235-1.16
			c0.244,0.141,0.546,0.391,0.546,0.391S266.56,202.827,266.42,202.583z"/>
	</g>
</g>
</svg>
