<?xml version="1.0"?>
<svg xmlns="http://www.w3.org/2000/svg" height="512px" viewBox="0 0 492 492" width="512px" class=""><g><path d="m386.449219 238.199219c.363281-4.964844.550781-10 .550781-15.050781v-108.765626c0-2.398437-1.425781-4.566406-3.628906-5.511718l-1.230469-.53125c-65.703125-28.269532-127.816406-64.234375-185.039063-107.140625-2.136718-1.597657-5.066406-1.597657-7.203124 0-57.222657 42.90625-119.335938 78.871093-185.039063 107.140625l-1.230469.53125c-2.203125.945312-3.628906 3.113281-3.628906 5.511718v108.769532c0 38.078125 9.988281 73.476562 29.691406 105.214844 15.691406 25.277343 37.523438 48.25 64.890625 68.28125 46.378907 33.945312 92.0625 47.539062 93.980469 48.097656 1.085938.316406 2.238281.324218 3.324219.015625 1.089843-.3125 25.78125-7.414063 57.609375-24.007813 26.308594 53.273438 85.855468 81.40625 143.71875 67.894532 57.859375-13.511719 98.789062-65.105469 98.785156-124.523438 0-62.898438-45.644531-115.324219-105.550781-125.925781zm-196.171875 194.515625c-8.550782-2.746094-48.746094-16.574219-88.609375-45.75-22.078125-16.164063-40.328125-34.273438-54.4375-53.964844 1.976562-1.035156 3.214843-3.082031 3.214843-5.3125v-11.464844c0-3.3125-2.6875-6-6-6s-6 2.6875-6 6v3.402344c-17.53125-29.1875-26.445312-61.625-26.445312-96.472656v-104.824219c64.3125-27.890625 125.210938-63.066406 181.5-104.84375 56.289062 41.777344 117.1875 76.953125 181.5 104.84375v104.824219c0 4.535156-.167969 9.058594-.476562 13.523437-3.429688-.277343-6.898438-.421875-10.398438-.425781-42.078125-.003906-81.460938 20.695312-105.324219 55.351562-23.863281 34.652344-29.148437 78.828126-14.136719 118.136719-17.433593 9.207031-35.632812 16.894531-54.386718 22.976563zm173.847656 47.285156c-43.125-.015625-82.671875-23.980469-102.648438-62.203125-19.976562-38.21875-17.074218-84.371094 7.53125-119.785156 24.605469-35.417969 66.84375-54.238281 109.632813-48.855469.246094.058594.492187.101562.742187.128906.113282.011719.222657.011719.332032.015625 60.40625 8.203125 104.128906 61.8125 100.019531 122.636719-4.113281 60.824219-54.648437 108.058594-115.609375 108.0625zm0 0" data-original="#000000" class="active-path" data-old_color="#ffffff" fill="#ffffff"/><path d="m406.636719 292.398438h-84.308594c-10.65625 0-20 7.128906-26.332031 20.078124l-15.597656 27.636719c-9.859376 1.859375-17.132813 11-17.132813 22.320313 0 .253906.015625.503906.046875.753906l4.929688 38.953125c.1875 5.945313 3.992187 11.171875 9.589843 13.175781v10.289063c.007813 5.652343 4.585938 10.230469 10.234375 10.238281h12.863282c5.648437-.007812 10.230468-4.585938 10.234374-10.238281v-9.425781h105.921876v9.425781c.003906 5.652343 4.582031 10.230469 10.234374 10.238281h12.859376c5.648437-.007812 10.226562-4.585938 10.234374-10.238281v-10.363281c5.480469-2.066407 9.175782-7.226563 9.367188-13.082032l5.148438-38.933594c.03125-.261718.050781-.523437.050781-.789062 0-11.066406-7.445313-20.296875-17.238281-22.222656l-15.089844-27.816406c-5.191406-9.308594-12.839844-20-26.015625-20zm-107.472657 131.449218h-9.328124v-7.664062h9.328124zm139.25 0h-9.328124v-7.664062h9.328124zm5.523438-72.011718c5.457031 0 8.882812 5.253906 9.039062 10.25l-5.136718 38.84375c-.035156.261718-.050782.523437-.050782.785156-.015624 1.355468-1.113281 2.453125-2.46875 2.46875h-162.609374c-1.359376-.015625-2.453126-1.113282-2.46875-2.46875 0-.25-.015626-.503906-.046876-.753906l-4.921874-38.863282c.132812-4.953125 3.199218-9.941406 8.277343-10.300781.171875.015625.339844.035156.515625.035156h159.785156c.027344 0 .054688.003907.085938.003907zm-120.738281-12c2.003906-3.773438 5.925781-6.136719 10.199219-6.136719 4.273437 0 8.199218 2.363281 10.199218 6.136719zm33.121093 0c-2.511718-10.628907-12-18.136719-22.921874-18.136719-10.917969 0-20.410157 7.507812-22.917969 18.136719h-16.140625l12.199218-21.613282c.0625-.105468.121094-.21875.175782-.328125 2.441406-5.039062 7.71875-13.488281 15.617187-13.488281h84.308594c5.476563 0 10.125 4.140625 15.5 13.78125l11.742187 21.648438zm0 0" data-original="#000000" class="active-path" data-old_color="#ffffff" fill="#ffffff"/><path d="m295.394531 392.421875c8.160157 0 14.777344-6.613281 14.777344-14.777344 0-8.160156-6.613281-14.777343-14.777344-14.777343-8.160156 0-14.777343 6.617187-14.777343 14.777343.011718 8.15625 6.621093 14.765625 14.777343 14.777344zm0-17.554687c1.535157 0 2.777344 1.242187 2.777344 2.777343 0 1.535157-1.242187 2.78125-2.777344 2.78125-1.535156-.003906-2.777343-1.246093-2.777343-2.78125.003906-1.53125 1.242187-2.773437 2.777343-2.777343zm0 0" data-original="#000000" class="active-path" data-old_color="#ffffff" fill="#ffffff"/><path d="m432.855469 392.421875c8.160156 0 14.777343-6.613281 14.777343-14.777344 0-8.160156-6.613281-14.777343-14.777343-14.777343-8.160157 0-14.777344 6.617187-14.777344 14.777343.007813 8.15625 6.621094 14.769531 14.777344 14.777344zm0-17.554687c1.535156 0 2.777343 1.242187 2.777343 2.777343 0 1.535157-1.242187 2.78125-2.777343 2.78125-1.535157-.003906-2.777344-1.246093-2.777344-2.78125.003906-1.53125 1.242187-2.773437 2.777344-2.777343zm0 0" data-original="#000000" class="active-path" data-old_color="#ffffff" fill="#ffffff"/><path d="m323.472656 387.0625h81.300782c1.933593 0 3.75-.933594 4.878906-2.503906 1.125-1.574219 1.425781-3.59375.800781-5.425782l-2.800781-8.242187c-2.628906-7.097656-9.308594-11.882813-16.875-12.089844h-53.523438c-7.582031.199219-14.261718 5.042969-16.800781 12.1875l-2.683594 8.210938c-.59375 1.828125-.28125 3.828125.847657 5.382812 1.128906 1.554688 2.933593 2.476563 4.855468 2.480469zm8.382813-12.347656c.949219-2.191406 3.015625-3.695313 5.398437-3.914063h53.523438c2.417968.222657 4.527344 1.734375 5.515625 3.953125l.105469.308594h-64.65625zm0 0" data-original="#000000" class="active-path" data-old_color="#ffffff" fill="#ffffff"/><path d="m193.5 310.222656c-3.3125 0-6 2.6875-6 6v11.46875c0 3.3125 2.6875 6 6 6s6-2.6875 6-6v-11.46875c0-3.3125-2.6875-6-6-6zm0 0" data-original="#000000" class="active-path" data-old_color="#ffffff" fill="#ffffff"/><path d="m236.765625 316.222656c0-3.3125-2.6875-6-6-6-3.316406 0-6 2.6875-6 6v11.46875c0 3.3125 2.683594 6 6 6 3.3125 0 6-2.6875 6-6zm0 0" data-original="#000000" class="active-path" data-old_color="#ffffff" fill="#ffffff"/><path d="m156.234375 310.222656c-3.3125 0-6 2.6875-6 6v11.46875c0 3.3125 2.6875 6 6 6 3.316406 0 6-2.6875 6-6v-11.46875c0-3.3125-2.683594-6-6-6zm0 0" data-original="#000000" class="active-path" data-old_color="#ffffff" fill="#ffffff"/><path d="m118.972656 310.222656c-3.3125 0-6 2.6875-6 6v11.46875c0 3.3125 2.6875 6 6 6s6-2.6875 6-6v-11.46875c0-3.3125-2.6875-6-6-6zm0 0" data-original="#000000" class="active-path" data-old_color="#ffffff" fill="#ffffff"/><path d="m81.710938 310.222656c-3.316407 0-6 2.6875-6 6v11.46875c0 3.3125 2.683593 6 6 6 3.3125 0 6-2.6875 6-6v-11.46875c0-3.3125-2.6875-6-6-6zm0 0" data-original="#000000" class="active-path" data-old_color="#ffffff" fill="#ffffff"/></g> </svg>
