<?xml version="1.0" encoding="iso-8859-1"?>
<!-- Generator: Adobe Illustrator 19.0.0, SVG Export Plug-In . SVG Version: 6.00 Build 0)  -->
<svg version="1.1" id="Capa_1" xmlns="http://www.w3.org/2000/svg" xmlns:xlink="http://www.w3.org/1999/xlink" x="0px" y="0px"
	 viewBox="0 0 512 512" style="enable-background:new 0 0 512 512;" xml:space="preserve">
<path style="fill:#B6EE7B;" d="M10,361.445l159.297-159.297c70.26,70.261,70.317,70.317,70.384,70.383l16.929,16.876
	c32.087-32.084,188.009-188.039,198.582-198.622l24.771,24.771l22.029-105.55L396.44,32.033l24.802,24.802
	c-60.162,60.203-125.551,125.634-164.668,164.71c-25.371-25.372-87.277-87.278-87.277-87.278L10,293.563"/>
<path style="fill:#FFB135;" d="M37.999,445.996h75.999c15.464,0,27.999,12.536,27.999,27.999l0,0
	c0,15.464-12.536,27.999-27.999,27.999H37.999C22.536,501.995,10,489.459,10,473.995l0,0C10,458.532,22.536,445.996,37.999,445.996z
	"/>
<path style="fill:#FFC365;" d="M37.999,389.997h75.999c15.464,0,27.999,12.536,27.999,27.999l0,0
	c0,15.464-12.536,27.999-27.999,27.999H37.999C22.536,445.996,10,433.46,10,417.997l0,0C10,402.533,22.536,389.997,37.999,389.997z"
	/>
<path style="fill:#FFB135;" d="M218.123,445.996h75.999c15.464,0,27.999,12.536,27.999,27.999l0,0
	c0,15.464-12.536,27.999-27.999,27.999h-75.999c-15.464,0-27.999-12.536-27.999-27.999l0,0
	C190.123,458.532,202.659,445.996,218.123,445.996z"/>
<path style="fill:#FFC365;" d="M218.123,389.997h75.999c15.464,0,27.999,12.536,27.999,27.999l0,0
	c0,15.464-12.536,27.999-27.999,27.999h-75.999c-15.464,0-27.999-12.536-27.999-27.999l0,0
	C190.123,402.533,202.659,389.997,218.123,389.997z"/>
<g>
	<path style="fill:#FFB135;" d="M218.123,333.998h75.999c15.464,0,27.999,12.536,27.999,27.999l0,0
		c0,15.464-12.536,27.999-27.999,27.999h-75.999c-15.464,0-27.999-12.536-27.999-27.999l0,0
		C190.123,346.534,202.659,333.998,218.123,333.998z"/>
	<path style="fill:#FFB135;" d="M398.002,445.996h75.999c15.464,0,27.999,12.536,27.999,27.999l0,0
		c0,15.464-12.536,27.999-27.999,27.999h-75.999c-15.464,0-27.999-12.536-27.999-27.999l0,0
		C370.003,458.532,382.539,445.996,398.002,445.996z"/>
</g>
<path style="fill:#FFC365;" d="M398.002,389.997h75.999c15.464,0,27.999,12.536,27.999,27.999l0,0
	c0,15.464-12.536,27.999-27.999,27.999h-75.999c-15.464,0-27.999-12.536-27.999-27.999l0,0
	C370.003,402.533,382.539,389.997,398.002,389.997z"/>
<path style="fill:#FFB135;" d="M398.002,333.998h75.999c15.464,0,27.999,12.536,27.999,27.999l0,0
	c0,15.464-12.536,27.999-27.999,27.999h-75.999c-15.464,0-27.999-12.536-27.999-27.999l0,0
	C370.003,346.534,382.539,333.998,398.002,333.998z"/>
<path style="fill:#FFC365;" d="M398.002,277.999h75.999c15.464,0,27.999,12.536,27.999,27.999l0,0
	c0,15.464-12.536,27.999-27.999,27.999h-75.999c-15.464,0-27.999-12.536-27.999-27.999l0,0
	C370.003,290.535,382.539,277.999,398.002,277.999z"/>
<path d="M151.997,417.997c0-20.953-17.047-37.999-37.999-37.999H37.999C17.047,379.997,0,397.044,0,417.997
	c0,11.071,4.761,21.048,12.341,27.999C4.761,452.948,0,462.926,0,473.995c0,20.953,17.047,37.999,37.999,37.999h75.999
	c20.953,0,37.999-17.047,37.999-37.999c0-11.071-4.761-21.048-12.341-27.999C147.236,439.045,151.997,429.067,151.997,417.997z
	 M131.997,473.995c0,9.925-8.075,18-18,18H37.999c-9.925,0-18-8.075-18-18c0-9.925,8.075-18,18-18h75.999
	C123.923,455.996,131.997,464.071,131.997,473.995z M37.999,435.996c-9.925,0-18-8.075-18-18s8.075-18,18-18h75.999
	c9.925,0,18,8.075,18,18s-8.075,18-18,18H37.999z"/>
<path d="M332.121,361.998c0-20.953-17.047-37.999-37.999-37.999h-75.999c-20.953,0-37.999,17.047-37.999,37.999
	c0,11.071,4.761,21.048,12.341,27.999c-7.579,6.952-12.341,16.929-12.341,27.999s4.761,21.048,12.341,27.999
	c-7.579,6.952-12.341,16.929-12.341,27.999c0,20.953,17.047,37.999,37.999,37.999h75.999c20.953,0,37.999-17.047,37.999-37.999
	c0-11.071-4.761-21.048-12.341-27.999c7.579-6.952,12.341-16.929,12.341-27.999s-4.761-21.048-12.341-27.999
	C327.36,383.046,332.121,373.068,332.121,361.998z M312.121,473.995c0,9.925-8.075,18-18,18h-75.999c-9.925,0-18-8.075-18-18
	c0-9.925,8.075-18,18-18h75.999C304.046,455.996,312.121,464.071,312.121,473.995z M312.121,417.997c0,9.925-8.075,18-18,18h-75.999
	c-9.925,0-18-8.075-18-18s8.075-18,18-18h75.999C304.046,399.997,312.121,408.072,312.121,417.997z M218.123,379.997
	c-9.925,0-18-8.075-18-18s8.075-18,18-18h75.999c9.925,0,18,8.075,18,18s-8.075,18-18,18H218.123z"/>
<path d="M512,361.998c0-11.071-4.761-21.048-12.341-27.999C507.238,327.046,512,317.07,512,305.999
	C512,285.046,494.953,268,474.001,268h-75.999c-20.953,0-37.999,17.047-37.999,37.999c0,11.071,4.761,21.048,12.341,27.999
	c-7.579,6.952-12.341,16.929-12.341,27.999s4.761,21.048,12.341,27.999c-7.579,6.952-12.341,16.929-12.341,27.999
	s4.761,21.048,12.341,27.999c-7.579,6.952-12.341,16.929-12.341,27.999c0,20.953,17.047,37.999,37.999,37.999h75.999
	c20.953,0,37.999-17.047,37.999-37.999c0-11.071-4.761-21.048-12.341-27.999c7.579-6.952,12.341-16.929,12.341-27.999
	s-4.761-21.048-12.341-27.999C507.239,383.046,512,373.068,512,361.998z M380.003,305.999c0-9.925,8.075-18,18-18h75.999
	c9.925,0,18,8.075,18,18s-8.075,18-18,18h-75.999C388.077,323.998,380.003,315.925,380.003,305.999z M492,473.995
	c0,9.925-8.075,18-18,18h-75.999c-9.925,0-18-8.075-18-18c0-9.925,8.075-18,18-18h75.999C483.927,455.996,492,464.071,492,473.995z
	 M492,417.997c0,9.925-8.075,18-18,18h-75.999c-9.925,0-18-8.075-18-18s8.075-18,18-18h75.999
	C483.927,399.997,492,408.072,492,417.997z M398.002,379.997c-9.925,0-18-8.075-18-18s8.075-18,18-18h75.999c9.925,0,18,8.075,18,18
	s-8.075,18-18,18H398.002z"/>
<path d="M10,303.559c2.63,0,5.21-1.06,7.07-2.92c1.86-1.86,2.93-4.44,2.93-7.08c0-2.63-1.07-5.21-2.93-7.07
	c-1.86-1.86-4.44-2.93-7.07-2.93s-5.21,1.07-7.07,2.93c-1.86,1.86-2.93,4.44-2.93,7.07c0,2.64,1.07,5.21,2.93,7.08
	C4.79,302.499,7.37,303.559,10,303.559z"/>
<path d="M232.62,279.612l16.929,16.876c3.907,3.895,10.229,3.89,14.13-0.01c28.358-28.353,158.356-158.378,191.515-191.549
	l17.698,17.698c2.597,2.598,6.41,3.563,9.929,2.512c3.52-1.05,6.181-3.944,6.931-7.54l22.029-105.55
	c0.689-3.302-0.333-6.729-2.718-9.114c-2.386-2.386-5.813-3.408-9.114-2.718L394.397,22.244c-3.596,0.75-6.49,3.412-7.54,6.931
	c-1.05,3.52-0.085,7.332,2.512,9.929l17.733,17.733c-58.56,58.6-113.652,113.724-150.525,150.569l-80.209-80.21
	c-1.875-1.875-4.419-2.929-7.071-2.929s-5.196,1.054-7.071,2.929L28.391,261.03c-3.905,3.905-3.905,10.237,0,14.143
	c3.904,3.905,10.237,3.905,14.142,0l126.764-126.765l80.206,80.207c3.904,3.904,10.233,3.905,14.139,0.004
	C301.7,190.6,363.253,129.011,428.316,63.904c3.903-3.906,3.902-10.236-0.003-14.14l-11.721-11.721l72.49-15.129l-15.129,72.489
	l-11.69-11.69c-1.876-1.876-4.42-2.93-7.074-2.929c-2.653,0-5.197,1.055-7.072,2.932
	c-10.576,10.586-148.732,148.772-191.519,191.559l-9.878-9.848c-0.19-0.189-5.615-5.613-70.352-70.351
	c-1.875-1.875-4.419-2.929-7.071-2.929s-5.196,1.054-7.071,2.929L2.93,354.374c-3.905,3.905-3.905,10.237,0,14.142
	c1.953,1.953,4.512,2.929,7.071,2.929s5.119-0.977,7.071-2.929L169.297,216.29C232.506,279.5,232.564,279.557,232.62,279.612z"/>
<g>
</g>
<g>
</g>
<g>
</g>
<g>
</g>
<g>
</g>
<g>
</g>
<g>
</g>
<g>
</g>
<g>
</g>
<g>
</g>
<g>
</g>
<g>
</g>
<g>
</g>
<g>
</g>
<g>
</g>
</svg>
