<?xml version="1.0" encoding="utf-8"?>
<!-- Generator: Adobe Illustrator 17.0.0, SVG Export Plug-In . SVG Version: 6.00 Build 0)  -->
<!DOCTYPE svg PUBLIC "-//W3C//DTD SVG 1.1//EN" "http://www.w3.org/Graphics/SVG/1.1/DTD/svg11.dtd">
<svg version="1.1" id="Capa_1" xmlns="http://www.w3.org/2000/svg" xmlns:xlink="http://www.w3.org/1999/xlink" x="0px" y="0px"
	 width="200px" height="200px" viewBox="0 0 200 200" enable-background="new 0 0 200 200" xml:space="preserve">
<path fill="#FC9C7E" d="M157.748,37.003v118.018c0,0.236-0.004,0.471-0.016,0.707c-0.369,8.082-7.041,14.527-15.222,14.527H56.848
	c-8.416,0-15.238-6.821-15.238-15.234V18.38c0-7.234,5.039-13.29,11.798-14.849c1.107-0.255,2.258-0.389,3.44-0.389h68.044
	c2.313,0,4.571,0.526,6.618,1.516c4.116,1.981,5.276,4.485,12.673,12.049c8.511,9.241,10.542,10.188,12.277,14.189
	C157.304,32.804,157.748,34.878,157.748,37.003z"/>
<path fill="#FFB7A6" d="M157.748,37.003v118.018c0,0.236-0.004,0.471-0.016,0.707c-1.107,0.255-2.258,0.389-3.44,0.389H68.63
	c-8.416,0-15.238-6.821-15.238-15.234V4.241c0-0.239,0.004-0.475,0.016-0.711c1.107-0.255,2.258-0.389,3.44-0.389h68.044
	c2.313,0,4.571,0.526,6.618,1.516c1.681,0.809,3.216,1.932,4.516,3.323l8.157,8.727l9.339,9.771c1.245,1.3,2.235,2.796,2.938,4.418
	C157.304,32.804,157.748,34.878,157.748,37.003z"/>
<path fill="#CE111F" d="M196.84,89.852v85.67c0,4.764-1.547,9.17-4.171,12.736c-3.916,5.333-10.234,8.797-17.363,8.797h-55.955
	c-11.892,0-21.533-9.641-21.533-21.533v-85.67c0-8.887,5.388-16.518,13.074-19.805c2.596-1.111,5.455-1.728,8.459-1.728h55.956
	C187.202,68.319,196.84,77.96,196.84,89.852z"/>
<path fill="#ED1C24" d="M196.84,89.852v85.67c0,4.764-1.547,9.17-4.171,12.736c-2.596,1.111-5.455,1.728-8.459,1.728h-55.955
	c-11.892,0-21.533-9.641-21.533-21.533v-85.67c0-4.764,1.547-9.17,4.171-12.736c2.596-1.111,5.455-1.728,8.459-1.728h55.956
	C187.202,68.319,196.84,77.96,196.84,89.852z"/>
<path fill="#DDCCB1" d="M155.58,146.177v10.062c0,1.779-1.441,3.22-3.216,3.22h-10.066c-1.779,0-3.22-1.441-3.22-3.22v-10.062
	c0-1.779,1.441-3.22,3.22-3.22h10.066C154.139,142.957,155.58,144.398,155.58,146.177z"/>
<path fill="#49B4FC" d="M182.042,87.833v10.78c0,3.833-3.107,6.943-6.943,6.943H119.56c-3.833,0-6.943-3.111-6.943-6.943v-10.78
	c0-3.833,3.111-6.943,6.943-6.943h55.539C178.936,80.89,182.042,84,182.042,87.833z"/>
<path fill="#47C7E9" d="M182.042,87.833v10.78c0,3.833-3.107,6.943-6.943,6.943h-43.758c-3.833,0-6.943-3.111-6.943-6.943v-10.78
	c0-3.833,3.111-6.943,6.943-6.943h43.757C178.936,80.89,182.042,84,182.042,87.833z"/>
<g>
	<path fill="#DDCCB1" d="M129.122,146.177v10.062c0,1.779-1.441,3.22-3.22,3.22h-10.066c-1.775,0-3.22-1.441-3.22-3.22v-10.062
		c0-1.779,1.445-3.22,3.22-3.22h10.066C127.681,142.957,129.122,144.398,129.122,146.177z"/>
	<path fill="#DDCCB1" d="M155.58,119.864v10.062c0,1.779-1.441,3.22-3.216,3.22h-10.066c-1.779,0-3.22-1.441-3.22-3.22v-10.062
		c0-1.779,1.441-3.22,3.22-3.22h10.066C154.139,116.644,155.58,118.085,155.58,119.864z"/>
</g>
<path fill="#DDCCB1" d="M182.36,119.864v10.062c0,1.779-1.441,3.22-3.22,3.22h-10.062c-1.779,0-3.22-1.441-3.22-3.22v-10.062
	c0-1.779,1.441-3.22,3.22-3.22h10.062C180.919,116.644,182.36,118.085,182.36,119.864z"/>
<g>
	<path fill="#DDCCB1" d="M129.122,119.864v10.062c0,1.779-1.441,3.22-3.22,3.22h-10.066c-1.775,0-3.22-1.441-3.22-3.22v-10.062
		c0-1.779,1.445-3.22,3.22-3.22h10.066C127.681,116.644,129.122,118.085,129.122,119.864z"/>
	<path fill="#DDCCB1" d="M155.58,171.197v10.066c0,1.779-1.441,3.22-3.216,3.22h-10.066c-1.779,0-3.22-1.441-3.22-3.22v-10.066
		c0-1.775,1.441-3.216,3.22-3.216h10.066C154.139,167.981,155.58,169.422,155.58,171.197z"/>
	<path fill="#DDCCB1" d="M129.122,171.197v10.066c0,1.779-1.441,3.22-3.22,3.22h-10.066c-1.775,0-3.22-1.441-3.22-3.22v-10.066
		c0-1.775,1.445-3.216,3.22-3.216h10.066C127.681,167.981,129.122,169.422,129.122,171.197z"/>
</g>
<path fill="#DDCCB1" d="M182.36,147.74v31.249c0,3.036-2.459,5.494-5.49,5.494h-5.522c-3.032,0-5.49-2.459-5.49-5.494V147.74
	c0-2.643,2.144-4.784,4.784-4.784h6.936C180.22,142.957,182.36,145.097,182.36,147.74z"/>
<g>
	<path fill="#EEE6D7" d="M155.58,146.177v2.993c0,1.779-1.441,3.22-3.216,3.22h-10.066c-1.779,0-3.22-1.441-3.22-3.22v-2.993
		c0-1.779,1.441-3.22,3.22-3.22h10.066C154.139,142.957,155.58,144.398,155.58,146.177z"/>
	<path fill="#EEE6D7" d="M129.122,146.177v2.993c0,1.779-1.441,3.22-3.22,3.22h-10.066c-1.775,0-3.22-1.441-3.22-3.22v-2.993
		c0-1.779,1.445-3.22,3.22-3.22h10.066C127.681,142.957,129.122,144.398,129.122,146.177z"/>
	<path fill="#EEE6D7" d="M155.58,119.864v2.993c0,1.779-1.441,3.22-3.216,3.22h-10.066c-1.779,0-3.22-1.441-3.22-3.22v-2.993
		c0-1.779,1.441-3.22,3.22-3.22h10.066C154.139,116.644,155.58,118.085,155.58,119.864z"/>
</g>
<path fill="#EEE6D7" d="M182.36,119.864v2.993c0,1.779-1.441,3.22-3.22,3.22h-10.062c-1.779,0-3.22-1.441-3.22-3.22v-2.993
	c0-1.779,1.441-3.22,3.22-3.22h10.062C180.919,116.644,182.36,118.085,182.36,119.864z"/>
<g>
	<path fill="#EEE6D7" d="M129.122,119.864v2.993c0,1.779-1.441,3.22-3.22,3.22h-10.066c-1.775,0-3.22-1.441-3.22-3.22v-2.993
		c0-1.779,1.445-3.22,3.22-3.22h10.066C127.681,116.644,129.122,118.085,129.122,119.864z"/>
	<path fill="#EEE6D7" d="M155.58,171.197v2.996c0,1.779-1.441,3.22-3.216,3.22h-10.066c-1.779,0-3.22-1.441-3.22-3.22v-2.996
		c0-1.775,1.441-3.216,3.22-3.216h10.066C154.139,167.981,155.58,169.422,155.58,171.197z"/>
	<path fill="#EEE6D7" d="M129.122,171.197v2.996c0,1.779-1.441,3.22-3.22,3.22h-10.066c-1.775,0-3.22-1.441-3.22-3.22v-2.996
		c0-1.775,1.445-3.216,3.22-3.216h10.066C127.681,167.981,129.122,169.422,129.122,171.197z"/>
</g>
<path fill="#EEE6D7" d="M182.36,147.74v24.18c0,3.036-2.459,5.494-5.49,5.494h-5.522c-3.032,0-5.49-2.459-5.49-5.494v-24.18
	c0-2.643,2.144-4.784,4.784-4.784h6.936C180.22,142.957,182.36,145.097,182.36,147.74z"/>
<path fill="#FC9C7E" d="M156.46,30.895h-19.094c-3.235,0-5.858-2.623-5.858-5.858V4.658c1.682,0.809,3.217,1.931,4.516,3.32
	l8.16,8.727l9.338,9.773C154.766,27.777,155.755,29.274,156.46,30.895z"/>
<path fill="#FFDC2D" d="M87.768,187.794c0,2.054-0.841,3.916-2.191,5.27c-1.355,1.351-3.216,2.191-5.27,2.191H34.593
	c-4.104,0-7.462-3.358-7.462-7.462c0-2.054,0.841-3.916,2.191-5.27c1.355-1.351,3.216-2.191,5.27-2.191h45.713
	C84.41,180.332,87.768,183.69,87.768,187.794z"/>
<path fill="#FFDC2D" d="M87.768,172.87c0,2.054-0.841,3.916-2.191,5.27c-1.355,1.351-3.216,2.191-5.27,2.191H34.593
	c-4.104,0-7.462-3.358-7.462-7.462c0-2.054,0.841-3.916,2.191-5.27c1.355-1.351,3.216-2.191,5.27-2.191h45.713
	C84.41,165.409,87.768,168.766,87.768,172.87z"/>
<path fill="#EBC80F" d="M87.768,157.947c0,2.054-0.841,3.916-2.191,5.27c-1.355,1.351-3.216,2.191-5.27,2.191H34.593
	c-4.104,0-7.462-3.358-7.462-7.462c0-2.054,0.841-3.916,2.191-5.27c1.355-1.351,3.216-2.191,5.27-2.191h45.713
	C84.41,150.485,87.768,153.843,87.768,157.947z"/>
<path fill="#EBC80F" d="M87.768,143.023c0,2.054-0.841,3.916-2.191,5.27c-1.355,1.351-3.216,2.191-5.27,2.191H34.593
	c-4.104,0-7.462-3.358-7.462-7.462c0-1.461,0.428-2.828,1.162-3.982c0.295-0.467,0.64-0.899,1.029-1.288
	c1.355-1.351,3.216-2.191,5.27-2.191h45.713C84.41,135.561,87.768,138.919,87.768,143.023z"/>
<path fill="#EBC80F" d="M80.305,135.562H34.593c-4.104,0-7.462-3.358-7.462-7.462l0,0c0-4.104,3.358-7.462,7.462-7.462h45.712
	c4.104,0,7.462,3.358,7.462,7.462l0,0C87.766,132.204,84.409,135.562,80.305,135.562z"/>
<path fill="#EBC80F" d="M61.516,170.779c-0.475-11.138-8.373-20.206-18.721-22.633c-2.105-0.493-4.312-0.713-6.581-0.617v-0.001
	H26.7c-21.57,0.935-31.624,27.801-15.106,42.46c4.551,4.046,10.622,6.4,17.186,6.118h7.434v-0.008
	c0.679,0.027,1.362,0.034,2.053,0.005c1.551-0.067,3.059-0.279,4.516-0.616c10.549-2.462,18.352-11.75,18.737-22.79v-0.027
	C61.544,172.044,61.544,171.415,61.516,170.779z"/>
<path fill="#FFDC2D" d="M61.52,172.668v0.027c-0.385,11.039-8.188,20.328-18.737,22.79c-10.341-2.431-18.238-11.495-18.713-22.629
	c-0.004-0.055-0.008-0.106-0.008-0.161v-0.027c-0.412-11.782,7.639-21.93,18.733-24.522c10.348,2.427,18.246,11.495,18.721,22.633
	C61.544,171.415,61.544,172.044,61.52,172.668z"/>
<path d="M175.307,65.373H160.89v-28.37c0-4.858-1.932-9.386-5.094-12.697l-9.315-9.748c-7.905-8.145-8.903-10.446-13.612-12.732
	C130.681,0.734,127.799,0,124.893,0H56.849c-10.136,0-18.38,8.247-18.38,18.38v99.116h-3.876c-5.848,0-10.604,4.756-10.604,10.604
	c0,2.91,1.178,5.545,3.079,7.462c-1.901,1.916-3.079,4.552-3.079,7.462c0,1.092,0.153,1.74,0.208,2.097
	C1.187,147.462-7.98,175.942,8.861,191.4c5.086,4.67,11.837,7.316,19.157,7.018c2.419,0,52.225-0.02,52.288-0.02
	c5.844,0,10.604-4.756,10.604-10.604c0-2.91-1.178-5.545-3.079-7.462c1.787-1.803,2.934-4.234,3.063-6.936h3.979v2.125
	c0,13.498,10.98,24.479,24.479,24.479h55.956c13.498,0,24.479-10.98,24.479-24.479v-85.67
	C199.786,76.354,188.805,65.373,175.307,65.373z M134.652,11.11c12.339,13.043,15.12,15.984,15.642,16.538c0,0,0.004,0,0.008,0.008
	c0.004,0,0.004,0,0.004,0c0.004,0.008,0.012,0.016,0.016,0.02l0.004,0.004c0.008,0.012,0.016,0.02,0.023,0.023
	c0.004,0.004,0.008,0.008,0.012,0.016c0.004,0.004,0.008,0.004,0.008,0.008c0.004,0.004,0.008,0.004,0.012,0.012
	c0.008,0.004,0.012,0.012,0.016,0.016h-15.745L134.652,11.11L134.652,11.11z M34.593,123.78h45.713c2.38,0,4.32,1.94,4.32,4.32
	c0,2.384-1.94,4.32-4.32,4.32H34.593c-2.38,0-4.32-1.936-4.32-4.32C30.273,125.72,32.213,123.78,34.593,123.78z M34.593,138.703
	h45.713c2.38,0,4.32,1.94,4.32,4.32c0,2.384-1.94,4.32-4.32,4.32H48.731c-1.284-0.589-2.616-1.068-3.979-1.438
	c-2.034-0.554-4.139-0.868-6.284-0.923c-0.616-0.016-1.233-0.012-1.85,0.016h-5.863c-0.31-0.593-0.483-1.264-0.483-1.975
	C30.273,140.643,32.213,138.703,34.593,138.703z M84.626,157.947c0,2.384-1.94,4.32-4.32,4.32H62.724
	c-1.194-3.177-2.993-6.103-5.333-8.64h22.916C82.686,153.627,84.626,155.567,84.626,157.947z M19.308,152.307
	c-1.913,1.814-3.613,3.97-4.948,6.346H10.7C13.091,155.689,16.064,153.58,19.308,152.307z M7.357,164.545h4.575
	c-0.102,0.44-0.621,2.132-0.856,4.709H6.242C6.43,167.636,6.804,166.057,7.357,164.545z M7.864,180.116
	c-0.695-1.579-1.194-3.248-1.477-4.972h4.799c0.86,4.878,0.907,4.037,1.123,4.972H7.864z M11.783,186.007
	c1.928-0.004,3.048,0.008,3.311-0.008c1.174,1.854,2.588,3.57,4.226,5.113C16.472,189.993,13.939,188.285,11.783,186.007z
	 M38.591,192.53c-11.495,0.495-21.227-8.408-21.714-19.931c-0.789-18.344,21.121-28.909,34.917-16.243
	C65.395,168.841,57.116,191.768,38.591,192.53z M80.306,192.114H54.948c2.808-2.376,5.113-5.318,6.751-8.64h18.607
	c2.38,0,4.32,1.94,4.32,4.32C84.626,190.178,82.686,192.114,80.306,192.114z M84.591,173.397c-0.259,2.136-2.082,3.794-4.285,3.794
	H63.867c0.57-2.725,0.73-5.663,0.381-8.64h16.059C82.953,168.55,84.929,170.919,84.591,173.397z M94.872,167.113h-5.671
	c-0.396-0.616-0.856-1.186-1.371-1.704c4.104-4.139,4.108-10.784,0-14.923c1.901-1.916,3.079-4.552,3.079-7.462
	s-1.178-5.545-3.079-7.462c6.605-6.661,1.885-18.065-7.525-18.065H44.752V18.38c0-6.668,5.427-12.096,12.096-12.096h71.52v24.612
	c0,1.736,1.406,3.142,3.142,3.142h22.723c0.656,2.545,0.251,1.704,0.373,31.336h-35.255c-13.498,0-24.479,10.98-24.479,24.479
	L94.872,167.113L94.872,167.113z M193.895,175.521c0,10.25-8.337,18.588-18.588,18.588h-55.955
	c-10.246,0-18.588-8.338-18.588-18.588v-85.67c0-10.25,8.341-18.588,18.588-18.588h55.956c10.25,0,18.588,8.338,18.588,18.588
	L193.895,175.521L193.895,175.521z"/>
<path d="M130.245,102.612h-10.686c-2.199,0-3.998-1.799-3.998-3.998v-10.78c0-2.199,1.799-3.998,3.998-3.998h55.539
	c2.207,0,3.998,1.795,3.998,3.998v10.78c0,2.203-1.791,3.998-3.998,3.998h-32.152c-1.627,0-2.945,1.319-2.945,2.945
	s1.319,2.945,2.945,2.945h32.152c5.455,0,9.889-4.438,9.889-9.889v-10.78c0-5.451-4.434-9.889-9.889-9.889h-55.539
	c-5.461,0-9.889,4.427-9.889,9.889v10.78c0,5.461,4.427,9.889,9.889,9.889h10.686c1.627,0,2.945-1.319,2.945-2.945
	S131.872,102.612,130.245,102.612z"/>
<path d="M115.836,162.404h10.066c3.401,0,6.166-2.765,6.166-6.166v-10.062c0-3.401-2.765-6.166-6.166-6.166h-10.066
	c-3.397,0-6.166,2.765-6.166,6.166v10.062C109.67,159.639,112.439,162.404,115.836,162.404z M115.561,146.177
	c0-0.153,0.126-0.275,0.275-0.275h10.066c0.149,0,0.275,0.122,0.275,0.275v10.062c0,0.153-0.126,0.275-0.275,0.275h-10.066
	c-0.149,0-0.275-0.122-0.275-0.275V146.177z"/>
<path d="M179.14,113.698h-10.062c-3.401,0-6.166,2.765-6.166,6.166v10.062c0,3.401,2.765,6.166,6.166,6.166h10.062
	c3.401,0,6.166-2.765,6.166-6.166v-10.062C185.305,116.463,182.541,113.698,179.14,113.698z M179.415,129.926
	c0,0.153-0.122,0.275-0.275,0.275h-10.062c-0.149,0-0.275-0.122-0.275-0.275c0.122-9.955-0.255-10.337,0.275-10.337h10.062
	c0.153,0,0.275,0.122,0.275,0.275V129.926z"/>
<path d="M115.836,136.091h10.066c3.401,0,6.166-2.765,6.166-6.166v-10.062c0-3.401-2.765-6.166-6.166-6.166h-10.066
	c-3.397,0-6.166,2.765-6.166,6.166v10.062C109.67,133.327,112.439,136.091,115.836,136.091z M115.561,119.864
	c0-0.153,0.126-0.275,0.275-0.275h10.066c0.149,0,0.275,0.122,0.275,0.275v10.062c0,0.153-0.126,0.275-0.275,0.275h-10.066
	c-0.149,0-0.275-0.122-0.275-0.275V119.864z"/>
<path d="M130.516,167.113c-1.131-1.272-2.78-2.077-4.614-2.077h-10.066c-1.834,0-3.484,0.805-4.611,2.077
	c-2.14,2.4-1.414,5.015-1.555,6.284v7.866c0,3.401,2.769,6.166,6.166,6.166h10.066c3.401,0,6.166-2.765,6.166-6.166v-7.866
	C131.926,172.156,132.645,169.512,130.516,167.113z M125.902,181.538c-9.944-0.122-10.341,0.255-10.341-0.275
	c0-10.655-0.118-10.337,0.275-10.337h10.066c0.483,0,0.185,0.671,0.275,2.47C126.177,173.397,126.432,181.538,125.902,181.538z"/>
<path d="M177.577,140.011h-6.936c-4.261,0-7.729,3.468-7.729,7.729v31.249c0,4.654,3.786,8.44,8.436,8.44h5.522
	c4.654,0,8.436-3.786,8.436-8.44V147.74C185.305,143.479,181.842,140.011,177.577,140.011z M179.415,178.989
	c0,1.406-1.139,2.549-2.545,2.549h-5.522c-1.402,0-2.545-1.143-2.545-2.549V147.74c0-1.013,0.825-1.838,1.838-1.838h6.936
	c1.013,0,1.838,0.825,1.838,1.838V178.989L179.415,178.989z"/>
<path d="M152.364,165.036h-10.066c-1.834,0-3.484,0.805-4.614,2.077c-2.132,2.404-1.41,5.015-1.551,6.284v7.866
	c0,3.401,2.765,6.166,6.166,6.166h10.066c3.397,0,6.162-2.765,6.162-6.166v-10.066c0-1.74-0.727-3.314-1.889-4.434
	C155.529,165.695,154.021,165.036,152.364,165.036z M152.364,181.538c-9.944-0.122-10.341,0.255-10.341-0.275v-10.066
	c0-0.149,0.126-0.271,0.275-0.271h10.066c0.149,0,0.271,0.122,0.271,0.271C152.517,181.165,152.886,181.538,152.364,181.538z"/>
<path d="M152.364,113.698h-10.066c-3.401,0-6.166,2.765-6.166,6.166v10.062c0,3.401,2.765,6.166,6.166,6.166h10.066
	c0.793,0,1.547-0.149,2.243-0.424c2.293-0.899,3.92-3.134,3.92-5.742v-10.062C158.525,116.451,155.745,113.698,152.364,113.698z
	 M152.635,129.926c0,0.153-0.122,0.275-0.271,0.275h-10.066c-0.149,0-0.275-0.122-0.275-0.275v-10.062
	c0-0.53,0.365-0.157,10.341-0.275c0.149,0,0.271,0.122,0.271,0.275L152.635,129.926L152.635,129.926z"/>
<path d="M154.606,140.435c-0.695-0.275-1.449-0.424-2.243-0.424h-10.066c-3.401,0-6.166,2.765-6.166,6.166v10.062
	c0,3.401,2.765,6.166,6.166,6.166h10.066c3.397,0,6.162-2.765,6.162-6.166v-10.062C158.525,143.569,156.9,141.334,154.606,140.435z
	 M152.635,156.238c0,0.153-0.122,0.275-0.271,0.275h-10.066c-0.149,0-0.275-0.122-0.275-0.275v-10.062
	c0-0.153,0.126-0.275,0.275-0.275h10.066c0.149,0,0.271,0.122,0.271,0.275V156.238z"/>
<path d="M127.964,46.141h7.399c1.626,0,2.945-1.316,2.945-2.945c0-1.626-1.32-2.945-2.945-2.945h-7.399
	c-1.626,0-2.945,1.32-2.945,2.945C125.018,44.826,126.338,46.141,127.964,46.141z"/>
<path d="M63.949,46.141h52.233c1.626,0,2.945-1.316,2.945-2.945c0-1.626-1.32-2.945-2.945-2.945H63.949
	c-1.626,0-2.945,1.32-2.945,2.945C61.004,44.826,62.323,46.141,63.949,46.141z"/>
<path d="M73.312,60.763c1.626,0,2.945-1.32,2.945-2.945c0-1.626-1.32-2.945-2.945-2.945H63.95c-1.626,0-2.945,1.32-2.945,2.945
	c0,1.626,1.32,2.945,2.945,2.945H73.312z"/>
<path d="M138.308,57.817c0-1.626-1.32-2.945-2.945-2.945h-50.27c-1.626,0-2.945,1.32-2.945,2.945c0,1.626,1.32,2.945,2.945,2.945
	h50.269C136.988,60.763,138.308,59.443,138.308,57.817z"/>
<path d="M87.127,78.608h-4.611h-1.745c-0.32-1.491-0.938-2.715-1.763-3.715h8.119c1.141,0,2.064-0.925,2.064-2.066
	c0-1.131-0.91-2.048-2.038-2.062v-0.003h-0.026h-4.611H68.203h-4.61H63.08v0.072c-0.891,0.229-1.553,1.031-1.553,1.993
	c0,1.141,0.925,2.066,2.066,2.066h7.331c2.394,0.593,3.998,1.831,4.746,3.715h-7.468h-4.61c-1.141,0-2.066,0.925-2.066,2.064
	c0,1.141,0.925,2.066,2.066,2.066h12.461c-0.591,3.703-3.879,6.095-9.829,6.095h-1.569c-0.3-0.069-0.61-0.067-0.912,0H63.08v0.276
	c-0.083,0.053-0.166,0.105-0.243,0.171c-0.861,0.749-0.952,2.053-0.204,2.914l15.44,17.761c0.749,0.861,2.052,0.951,2.914,0.203
	c0.86-0.748,0.952-2.052,0.204-2.913l-3.025-3.48l-5.422-6.238c-1.276-1.892-2.617-3.7-4.289-5.436
	c7.138-0.222,11.709-3.769,12.463-9.354h6.21c1.141,0,2.064-0.925,2.064-2.066C89.192,79.532,88.268,78.608,87.127,78.608z"/>
<path d="M49.016,163.299h-3.644h-1.379c-0.253-1.178-0.741-2.145-1.393-2.935h6.415c0.902,0,1.631-0.731,1.631-1.632
	c0-0.894-0.719-1.618-1.611-1.629V157.1h-0.021h-3.644H34.062h-3.643h-0.405v0.057c-0.704,0.181-1.227,0.814-1.227,1.575
	c0,0.902,0.731,1.632,1.632,1.632h5.793c1.891,0.468,3.16,1.447,3.75,2.935h-5.901h-3.643c-0.902,0-1.632,0.731-1.632,1.631
	c0,0.902,0.731,1.633,1.632,1.633h9.847c-0.467,2.926-3.065,4.816-7.767,4.816h-1.24c-0.237-0.055-0.482-0.053-0.72,0h-0.525v0.218
	c-0.065,0.042-0.131,0.083-0.192,0.135c-0.681,0.592-0.753,1.622-0.161,2.303l12.201,14.035c0.592,0.681,1.622,0.752,2.302,0.16
	c0.68-0.591,0.752-1.621,0.161-2.302l-2.39-2.75l-4.285-4.929c-1.008-1.495-2.068-2.924-3.389-4.296
	c5.641-0.176,9.253-2.978,9.849-7.392h4.907c0.902,0,1.631-0.731,1.631-1.633C50.648,164.03,49.917,163.299,49.016,163.299z"/>
</svg>
