<?xml version="1.0" encoding="utf-8"?>
<!-- Generator: Adobe Illustrator 17.0.0, SVG Export Plug-In . SVG Version: 6.00 Build 0)  -->
<!DOCTYPE svg PUBLIC "-//W3C//DTD SVG 1.1//EN" "http://www.w3.org/Graphics/SVG/1.1/DTD/svg11.dtd">
<svg version="1.1" id="Layer_1" xmlns="http://www.w3.org/2000/svg" xmlns:xlink="http://www.w3.org/1999/xlink" x="0px" y="0px"
	 width="200.5px" height="200.5px" viewBox="0 0 200.5 200.5" enable-background="new 0 0 200.5 200.5" xml:space="preserve">
<path fill="#A9ADB1" d="M154.685,97.652h-4.297V66.403c0-8.629-7.047-15.624-15.675-15.624H60.615l-10.39-35.623
	c-1.945-6.668-8.058-11.25-14.999-11.25H21.878L51.51,107.608c0.82,2.879,3.191,4.988,6.051,5.531
	c1.142,0.217,57.804,0.137,112.749,0.137C170.309,104.648,163.314,97.652,154.685,97.652z M133.592,97.652H74.286l-9.113-31.249
	h68.419L133.592,97.652L133.592,97.652z"/>
<path fill="#EEE6D7" d="M194.871,158.298c-2.312-3.633-7.152-4.707-10.785-2.398c-5.174,3.289-10.528,6.24-15.792,8.773
	l-17.905-51.396h-16.796l20.312,57.533l0.004,0.004c-15.975,6.108-35.803,10.328-53.916,9.746c-16.086,0.52-31.825-2.536-46.99-7.34
	l0.004-0.004l21.163-59.939H59.021c-0.496,0-0.988-0.047-1.461-0.137l-19.183,54.576c-6.4-2.687-15.004-7.08-22.464-11.816
	c-3.633-2.308-8.472-1.234-10.785,2.398c-2.312,3.637-1.242,8.468,2.402,10.789c27.05,17.204,60.798,26.998,92.47,26.998
	c31.374,0,65.095-9.586,92.469-26.999C196.113,166.766,197.183,161.934,194.871,158.298z"/>
<path fill="#385572" d="M100,175.383c-2.156,0-3.906,1.75-3.906,3.906c0,2.131,1.724,3.906,3.906,3.906
	c2.183,0,3.906-1.776,3.906-3.906C103.906,177.133,102.156,175.383,100,175.383z"/>
<path fill="#385572" d="M18.009,152.603c-5.451-3.465-12.707-1.851-16.176,3.599c-3.466,5.451-1.851,12.709,3.602,16.18
	C33.02,189.928,67.488,199.991,100,199.991c32.515,0,66.983-10.063,94.566-27.61c5.452-3.47,7.067-10.728,3.6-16.181
	c-3.468-5.447-10.724-7.061-16.176-3.597c-3.681,2.34-7.518,4.54-11.47,6.588l-14.635-42.008h14.424
	c2.157,0,3.906-1.749,3.906-3.906c0-10.769-8.761-19.53-19.53-19.53h-0.391V66.403c0-10.769-8.784-19.53-19.581-19.53H63.545
	l-9.57-32.811C51.559,5.783,43.849,0,35.226,0H21.878c-1.226,0-2.38,0.575-3.118,1.554c-0.738,0.978-0.974,2.247-0.637,3.425
	l29.631,103.7c0.797,2.799,2.561,5.12,4.904,6.629L36.102,162.41C29.793,159.508,23.711,156.223,18.009,152.603z M186.181,159.196
	c1.818-1.155,4.238-0.618,5.394,1.197c1.156,1.818,0.616,4.24-1.203,5.397c-26.363,16.77-59.302,26.389-90.372,26.389
	c-31.067,0-64.007-9.618-90.371-26.388c-1.819-1.159-2.36-3.58-1.205-5.396c1.156-1.816,3.576-2.354,5.396-1.198
	c20.43,12.969,45.987,22.14,70.165,24.665c2.144,0.217,4.066-1.334,4.29-3.48s-1.334-4.066-3.48-4.29
	c-8.784-0.917-17.822-2.769-26.75-5.421l18.886-53.488h53.896l18.1,51.268c-11.165,3.869-22.648,6.504-33.719,7.641
	c-2.146,0.22-3.707,2.139-3.487,4.285s2.142,3.707,4.285,3.487C139.85,181.413,165.432,172.389,186.181,159.196z M129.686,93.746
	h-52.47L70.38,70.309h59.306V93.746z M163.447,162.633c-2.371,1.084-4.772,2.115-7.198,3.086l-17.136-48.537h8.499L163.447,162.633z
	 M154.685,101.558c5.093,0,9.437,3.265,11.049,7.812h-11.44v-7.812H154.685z M134.713,54.685c6.49,0,11.769,5.257,11.769,11.718
	c0,4.182,0,38.736,0,42.967h-8.984c0-4.226,0-38.789,0-42.967c0-2.157-1.749-3.906-3.906-3.906h-65.49l-2.278-7.812H134.713z
	 M27.057,7.812h8.168c5.174,0,9.8,3.47,11.249,8.437c0.814,2.791,22.977,78.778,24.061,82.496c0.486,1.667,2.014,2.812,3.75,2.812
	h55.4v7.812H59.021c-1.754,0-3.274-1.146-3.756-2.835L27.057,7.812z M60.28,117.182h8.368L50.61,168.268
	c-2.459-0.86-4.901-1.78-7.319-2.756L60.28,117.182z"/>
<g id="Layer_2">
</g>
</svg>
