<?xml version="1.0" encoding="utf-8"?>
<!-- Generator: Adobe Illustrator 17.0.0, SVG Export Plug-In . SVG Version: 6.00 Build 0)  -->
<!DOCTYPE svg PUBLIC "-//W3C//DTD SVG 1.1//EN" "http://www.w3.org/Graphics/SVG/1.1/DTD/svg11.dtd">
<svg version="1.1" id="Layer_1" xmlns="http://www.w3.org/2000/svg" xmlns:xlink="http://www.w3.org/1999/xlink" x="0px" y="0px"
	 width="512px" height="512px" viewBox="0 0 512 512" enable-background="new 0 0 512 512" xml:space="preserve">
<path fill="#FFFFFF" d="M478.892,209.397c-16.784,0-30.438,13.655-30.438,30.438v78.208c-5.618-5.53-13.195-8.657-21.16-8.657
	c-7.177,0-14.136,2.574-19.595,7.247c-1.174,1.005-2.283,2.114-3.298,3.297l-36.587,42.749
	c-33.403,17.369-54.064,51.523-53.937,89.181v53.922h18.822v-53.925c-0.09-31.258,17.253-59.301,45.265-73.188
	c1.125-0.566,2.111-1.339,2.933-2.295l37.798-44.096c2.171-2.52,5.324-3.964,8.653-3.964c2.472,0,4.828,0.782,6.812,2.26
	c5.017,3.763,6.038,10.905,2.275,15.922c-0.205,0.275-0.423,0.54-0.663,0.807l-43.875,50.409c-3.394,3.925-2.963,9.88,0.961,13.274
	c1.71,1.479,3.895,2.294,6.153,2.294c2.7,0,5.273-1.16,7.063-3.187l58.877-67.288c1.513-1.732,2.339-3.951,2.324-6.243v-96.727
	c0-6.405,5.212-11.616,11.617-11.616s11.616,5.211,11.616,11.616v115.896c0.003,7.704-2.155,15.229-6.24,21.759l-76.971,123.153
	l15.996,9.974l76.97-123.152c5.946-9.528,9.082-20.502,9.067-31.733V239.836C509.33,223.052,495.676,209.397,478.892,209.397z"/>
<path fill="#FFFFFF" d="M144.187,362.68l-36.589-42.691c-5.756-6.681-14.12-10.512-22.946-10.512
	c-6.565,0-12.822,2.079-18.091,6.013c-1.059,0.788-2.066,1.648-3.012,2.571v-78.225c0-16.784-13.655-30.438-30.438-30.438
	S2.67,223.052,2.67,239.836v115.896c-0.004,11.235,3.143,22.209,9.101,31.734L88.21,509.771l0.53,0.847l15.996-9.975L27.732,377.49
	c-4.085-6.531-6.243-14.055-6.24-21.759V239.836c0-6.405,5.211-11.616,11.617-11.616s11.616,5.211,11.616,11.616v96.727
	c0,2.282,0.83,4.485,2.333,6.201l58.88,67.292c1.786,2.021,4.357,3.181,7.056,3.181c2.295,0,4.506-0.838,6.228-2.358
	c3.848-3.398,4.247-9.324,0.887-13.21l-43.938-50.474c-4.163-4.684-3.741-11.88,0.943-16.045c0.236-0.21,0.481-0.41,0.733-0.599
	c1.986-1.483,4.344-2.268,6.819-2.268c3.326,0,6.478,1.444,8.646,3.959l37.8,44.101c0.821,0.954,1.808,1.726,2.938,2.295
	c28.015,13.894,45.354,41.949,45.251,73.223v53.922h18.822v-53.919C198.251,414.203,177.59,380.048,144.187,362.68z"/>
<path fill="#FFFFFF" d="M407.448,145.643l-0.373,0.923c-6.447,15.993-16.795,30.354-29.923,41.532l-121.34,103.056l-118.514-94.781
	c-13.213-10.596-23.86-24.364-30.792-39.817l-0.409-0.911l-17.185,7.679l0.41,0.914c8.152,18.178,20.677,34.373,36.22,46.834
	l124.575,99.662c1.662,1.328,3.749,2.061,5.876,2.061c0,0,0,0,0,0c2.23,0,4.394-0.795,6.093-2.239L389.34,202.373
	c15.44-13.147,27.613-30.037,35.202-48.843l0.376-0.932L407.448,145.643z"/>
<path fill="#FFFFFF" d="M433.138,117.343c0.331-3.789,0.493-7.309,0.493-10.725c-0.002-54.378-44.243-98.617-98.621-98.615
	c-26.342,0.001-51.107,10.26-69.733,28.887L256,46.159l-9.277-9.269c-18.626-18.628-43.393-28.887-69.736-28.887
	c-26.34,0-51.104,10.257-69.731,28.882C88.629,55.511,78.37,80.276,78.369,106.618v6.305c0.022,4.269,0.266,8.58,0.723,12.831H2.67
	v18.822h169.22c3.284,0,6.375-1.75,8.065-4.565l17.054-28.418l50.857,87.155c1.672,2.896,4.788,4.699,8.133,4.706h0.169h0.009
	c3.405-0.065,6.518-1.973,8.122-4.979l59.27-111.109l25.178,44.085c1.674,2.908,4.799,4.715,8.184,4.715H509.33v-18.822H433.138z
	 M189.058,88.263l-22.494,37.491H98.068c-0.546-4.251-0.84-8.568-0.876-12.836v-6.3c0.001-44.002,35.802-79.801,79.807-79.801
	c21.315,0.001,41.354,8.301,56.426,23.373l15.931,15.93c1.777,1.777,4.14,2.756,6.653,2.756c2.513,0,4.876-0.979,6.654-2.756
	l15.913-15.93c15.073-15.072,35.113-23.373,56.43-23.373s41.358,8.302,56.432,23.375c15.07,15.072,23.371,35.111,23.372,56.42
	c-0.021,3.565-0.227,7.17-0.609,10.731h-51.809l-30.933-54.166c-1.653-2.908-4.757-4.714-8.1-4.714l-0.211,0.002
	c-3.423,0.052-6.549,1.959-8.161,4.979l-59.354,111.287l-50.376-86.327c-1.66-2.876-4.754-4.679-8.083-4.706h-0.05
	C193.839,83.699,190.749,85.448,189.058,88.263z"/>
</svg>
