<?xml version="1.0" encoding="utf-8"?>
<!-- Generator: Adobe Illustrator 17.0.0, SVG Export Plug-In . SVG Version: 6.00 Build 0)  -->
<!DOCTYPE svg PUBLIC "-//W3C//DTD SVG 1.1//EN" "http://www.w3.org/Graphics/SVG/1.1/DTD/svg11.dtd">
<svg version="1.1" id="Capa_1" xmlns="http://www.w3.org/2000/svg" xmlns:xlink="http://www.w3.org/1999/xlink" x="0px" y="0px"
	 width="200.5px" height="200.5px" viewBox="0 0 200.5 200.5" enable-background="new 0 0 200.5 200.5" xml:space="preserve">
<path fill="#EEE6D7" d="M41.572,31.493H22.751c-2.29,0-4.146,1.856-4.146,4.146v9.286h27.114v-9.286
	C45.718,33.349,43.862,31.493,41.572,31.493z"/>
<path fill="#EEE6D7" d="M177.502,31.493h-18.821c-2.29,0-4.146,1.856-4.146,4.146v9.286h27.114v-9.286
	C181.648,33.349,179.792,31.493,177.502,31.493L177.502,31.493z"/>
<path fill="#EEE6D7" d="M132.007,60.712c-3.245,0-5.876-2.631-5.876-5.876V29.281c0-1.006-0.818-1.824-1.824-1.824H75.946
	c-1.006,0-1.824,0.818-1.824,1.824v25.555c0,3.245-2.631,5.876-5.876,5.876s-5.876-2.631-5.876-5.876V29.281
	c0-7.486,6.09-13.575,13.575-13.575h48.362c7.486,0,13.575,6.09,13.575,13.575v25.555C137.883,58.082,135.252,60.712,132.007,60.712
	L132.007,60.712z"/>
<path fill="#BFC2C5" d="M185.707,184.172H14.546c-6.413,0-11.612-5.199-11.612-11.612V54.579c0-6.413,5.199-11.612,11.612-11.612
	h171.162c6.413,0,11.612,5.199,11.612,11.612v117.98C197.32,178.973,192.121,184.172,185.707,184.172z"/>
<path fill="#A9ADB1" d="M185.707,42.967h-10.589c4.801,0,8.693,3.892,8.693,8.693v123.82c0,4.801-3.892,8.693-8.693,8.693h10.589
	c6.413,0,11.612-5.199,11.612-11.612V54.579C197.32,48.166,192.121,42.967,185.707,42.967L185.707,42.967z"/>
<circle fill="#BFC2C5" cx="100.127" cy="113.57" r="42.894"/>
<path fill="#A9ADB1" d="M100.127,70.675c-2.299,0-4.556,0.183-6.757,0.532c20.479,3.241,36.137,20.973,36.137,42.363
	s-15.658,39.122-36.137,42.363c2.202,0.348,4.458,0.532,6.757,0.532c23.69,0,42.894-19.204,42.894-42.894
	S123.816,70.675,100.127,70.675L100.127,70.675z"/>
<path fill="#EEE6D7" d="M122.095,106.653h-13.03c-1.117,0-2.022-0.905-2.022-2.022V91.6c0-1.117-0.905-2.022-2.022-2.022h-9.788
	c-1.117,0-2.022,0.905-2.022,2.022v13.03c0,1.117-0.905,2.022-2.022,2.022h-13.03c-1.117,0-2.022,0.905-2.022,2.022v9.788
	c0,1.117,0.905,2.022,2.022,2.022h13.03c1.117,0,2.022,0.905,2.022,2.022v13.03c0,1.117,0.905,2.022,2.022,2.022h9.788
	c1.117,0,2.022-0.905,2.022-2.022v-13.03c0-1.117,0.905-2.022,2.022-2.022h13.03c1.117,0,2.022-0.905,2.022-2.022v-9.788
	C124.118,107.558,123.212,106.653,122.095,106.653z"/>
<path fill="#EEE6D7" d="M24.705,42.967h14.913v141.205H24.705V42.967z"/>
<path fill="#EEE6D7" d="M160.635,42.967h14.913v141.205h-14.913V42.967z"/>
<path fill="#385572" d="M185.707,40.033h-1.126v-4.394c0-3.903-3.176-7.08-7.08-7.08H158.68c-3.903,0-7.08,3.176-7.08,7.08v4.394
	h-10.785V29.282c0-9.103-7.406-16.509-16.509-16.509h-48.36c-9.103,0-16.509,7.406-16.509,16.509v10.752H48.652V35.64
	c0-3.903-3.176-7.08-7.08-7.08H22.751c-3.903,0-7.08,3.176-7.08,7.08v4.394h-1.126C6.525,40.034,0,46.559,0,54.579v117.98
	c0,8.021,6.525,14.546,14.546,14.546h171.162c8.021,0,14.546-6.525,14.546-14.546V54.579
	C200.253,46.559,193.728,40.033,185.707,40.033L185.707,40.033z M157.468,35.639c0-0.668,0.544-1.213,1.213-1.213h18.821
	c0.669,0,1.213,0.544,1.213,1.213v4.394h-21.246L157.468,35.639L157.468,35.639z M36.685,45.9v135.338h-9.046V45.9H36.685z
	 M42.551,45.9h115.15v135.338H42.551V45.9z M123.198,40.033H77.056v-9.642h46.142V40.033L123.198,40.033z M163.568,45.9h9.046
	v135.338h-9.046V45.9z M65.304,29.281c0-5.868,4.774-10.642,10.642-10.642h48.362c5.868,0,10.642,4.774,10.642,10.642v10.752h-5.885
	V29.281c0-2.623-2.134-4.757-4.757-4.757H75.946c-2.623,0-4.757,2.134-4.757,4.757v10.752h-5.885
	C65.304,40.033,65.304,29.281,65.304,29.281z M21.538,35.639c0-0.668,0.544-1.213,1.213-1.213h18.821
	c0.669,0,1.213,0.544,1.213,1.213v4.394H21.538V35.639z M5.867,172.56V54.579c0-4.786,3.893-8.679,8.679-8.679h7.226v135.338h-7.226
	C9.76,181.239,5.867,177.345,5.867,172.56z M194.386,172.56c0,4.786-3.893,8.679-8.679,8.679h-7.226V45.9h7.226
	c4.786,0,8.679,3.894,8.679,8.679V172.56z"/>
<path fill="#385572" d="M137.447,86.968c-0.941-1.318-2.773-1.624-4.092-0.683c-1.318,0.941-1.624,2.773-0.682,4.092
	c4.851,6.795,7.415,14.814,7.415,23.193c0,22.035-17.927,39.961-39.961,39.961c-8.376,0-16.394-2.563-23.187-7.411
	c-1.318-0.941-3.151-0.635-4.091,0.684c-0.941,1.319-0.635,3.15,0.684,4.092c7.793,5.562,16.989,8.502,26.595,8.502
	c25.269,0,45.828-20.558,45.828-45.828C145.954,103.961,143.012,94.763,137.447,86.968z"/>
<path fill="#385572" d="M100.127,73.608c8.534,0,16.675,2.651,23.543,7.668c1.309,0.955,3.143,0.67,4.099-0.639
	c0.956-1.308,0.67-3.143-0.639-4.099c-7.879-5.755-17.217-8.797-27.003-8.797c-25.269,0-45.828,20.558-45.828,45.827
	c0,9.678,2.981,18.931,8.62,26.76c0.95,1.318,2.784,1.61,4.095,0.666c1.314-0.947,1.613-2.78,0.666-4.095
	c-4.916-6.824-7.514-14.891-7.514-23.33C60.166,91.535,78.092,73.608,100.127,73.608L100.127,73.608z"/>
<path fill="#385572" d="M95.232,140.494h9.788c2.732,0,4.956-2.223,4.956-4.956v-12.119h12.119c2.732,0,4.956-2.223,4.956-4.956
	v-9.788c0-2.733-2.224-4.956-4.956-4.956h-12.119V91.6c0-2.733-2.224-4.956-4.956-4.956h-9.788c-2.732,0-4.956,2.223-4.956,4.956
	v12.119H78.158c-2.733,0-4.956,2.223-4.956,4.956v9.788c0,2.733,2.224,4.956,4.956,4.956h12.119v12.119
	C90.277,138.271,92.5,140.494,95.232,140.494z M79.068,117.552v-7.966h12.119c2.732,0,4.956-2.223,4.956-4.956V92.511h7.966v12.119
	c0,2.733,2.224,4.956,4.956,4.956h12.119v7.966h-12.119c-2.732,0-4.956,2.223-4.956,4.956v12.119h-7.966v-12.119
	c0-2.733-2.224-4.956-4.956-4.956C91.187,117.552,79.068,117.552,79.068,117.552z"/>
<g id="Layer_2">
</g>
</svg>
