<?xml version="1.0" encoding="utf-8"?>
<!-- Generator: Adobe Illustrator 17.0.0, SVG Export Plug-In . SVG Version: 6.00 Build 0)  -->
<!DOCTYPE svg PUBLIC "-//W3C//DTD SVG 1.1//EN" "http://www.w3.org/Graphics/SVG/1.1/DTD/svg11.dtd">
<svg version="1.1" id="Layer_1" xmlns="http://www.w3.org/2000/svg" xmlns:xlink="http://www.w3.org/1999/xlink" x="0px" y="0px"
	 width="575px" height="905.062px" viewBox="0 0 575 905.062" enable-background="new 0 0 575 905.062" xml:space="preserve">
<pattern  x="188" y="553.031" width="144.13" height="138.362" patternUnits="userSpaceOnUse" id="Alyssa" viewBox="99.963 -203.087 144.13 138.362" overflow="visible">
	<g>
		<polygon fill="none" points="99.963,-64.725 244.093,-64.725 244.093,-203.087 99.963,-203.087 		"/>
		<g>
			<polygon fill="none" points="99.963,-64.725 244.093,-64.725 244.093,-203.088 99.963,-203.088 			"/>
			<g>
				<path fill="#C6DD7F" d="M311.037-223.247c-11.76,1.384-19.369-0.346-22.654-3.113c-3.02-2.543-4.955-5.405-2.248-11.932
					c2.939-7.091,1.533-14.732-5.535-15.91c-6.225-1.037-10.895,4.842-11.24,12.278c-0.24,5.183-1.902,8.301-5.533,7.608
					c-3.633-0.691-4.629-5.9-3.633-11.759c1.385-8.128,5.535-11.76,6.227-20.233c0.494-6.055-2.939-13.662-12.451-15.045
					c-9.301-1.354-15.91,4.322-16.602,10.549c-0.732,6.588,3.631,10.895,3.111,17.639c-0.518,6.745-4.012,10.172-5.879,17.294
					c-2.768,10.549,1.211,19.022,7.781,22.654c14.746,8.148,22.832-3.642,35.971-1.556c10.896,1.729,23.348,18.157,33.031,19.541
					c8.227,1.175,13.834-4.669,15.045-14.008C327.638-218.578,321.687-224.501,311.037-223.247z M268.841-223.765
					c0,2.292-1.859,4.15-4.15,4.15c-2.293,0-4.15-1.858-4.15-4.15s1.857-4.15,4.15-4.15
					C266.982-227.916,268.841-226.057,268.841-223.765z M318.3-208.375c0,0.955-0.775,1.729-1.73,1.729s-1.729-0.774-1.729-1.729
					s0.773-1.729,1.729-1.729S318.3-209.33,318.3-208.375z"/>
			</g>
			<g>
				<path fill="#E9DDB7" d="M148.795-204.059c0-7.166,4.588-13.813-1-16.333c-8.5-3.833-27.999,14.333-27.999,36.167
					c0,12,8.667,19,17.833,19c12.334,0,18-8.167,18-17.5C155.629-192.057,148.795-195.865,148.795-204.059z M143.387-198.69
					c0,1.146-0.93,2.075-2.074,2.075c-1.146,0-2.076-0.929-2.076-2.075c0-1.146,0.93-2.075,2.076-2.075
					C142.457-200.765,143.387-199.836,143.387-198.69z"/>
				<path fill="#A6D0E4" d="M223.495-227.554c-7.871-2.737-19.439,15.297-17.67,27.018c1.24,8.228,7.123,13.19,13.088,14.217
					c7.525,1.297,12.898-2.601,13.299-7.243c0.547-6.309-3.633-7.518-4.223-14.958C227.426-215.654,231.68-224.705,223.495-227.554z
					 M219.706-200.046c0,1.434-1.162,2.595-2.594,2.595c-1.434,0-2.594-1.161-2.594-2.595c0-1.433,1.16-2.594,2.594-2.594
					C218.543-202.639,219.706-201.478,219.706-200.046z"/>
				<path fill="#E9DDB7" d="M119.351-205.089c0-1.433-1.162-2.594-2.594-2.594c-1.434,0-2.594,1.161-2.594,2.594
					s1.16,2.594,2.594,2.594C118.188-202.495,119.351-203.656,119.351-205.089z"/>
				<path fill="#A6D0E4" d="M184.573-197.365c0.74-8.101,12.672-7.017,17.904-14.214c10.52-14.475-1.219-46.365-21.631-46.365
					c-11.74,0-24.217,9.719-24.217,29.219c0,15.834,10.166,21.5,8.25,42.166c-1.006,10.834-12.5,20.343-12.5,34.75
					c0,5.922,3.586,13.447,11.553,13.447c7.055,0,10.822-5.953,10.822-12.9c0-6.798-5.381-15.74,1.375-19.047
					c5.242-2.565,13.211,4.77,19.5,6.75c5.191,1.636,12.389-0.225,14.75-8.5c2.531-8.876-3.252-14.745-11.592-16.693
					C192.469-190.229,183.985-190.924,184.573-197.365z M168.588-166.806c0,1.815-1.471,3.287-3.285,3.287
					c-1.814,0-3.287-1.472-3.287-3.287c0-1.814,1.473-3.285,3.287-3.285C167.118-170.092,168.588-168.621,168.588-166.806z
					 M194.573-176.502c1.285,0,2.328,1.043,2.328,2.33c0,1.286-1.043,2.328-2.328,2.328c-1.287,0-2.33-1.042-2.33-2.328
					C192.243-175.459,193.286-176.502,194.573-176.502z M174.588-236.174c0,1.815-1.471,3.287-3.287,3.287
					c-1.814,0-3.285-1.472-3.285-3.287s1.471-3.285,3.285-3.285C173.118-239.459,174.588-237.988,174.588-236.174z"/>
				<path fill="#C6DD7F" d="M166.907-223.247c-11.76,1.384-19.369-0.346-22.654-3.113c-3.02-2.543-4.955-5.405-2.248-11.932
					c2.939-7.091,1.533-14.732-5.535-15.91c-6.225-1.037-10.894,4.842-11.24,12.278c-0.24,5.183-1.902,8.301-5.533,7.608
					c-3.633-0.691-4.629-5.9-3.633-11.759c1.385-8.128,5.535-11.76,6.227-20.233c0.494-6.055-2.939-13.662-12.451-15.045
					c-9.301-1.354-15.91,4.322-16.602,10.549c-0.732,6.588,3.631,10.895,3.111,17.639c-0.518,6.745-4.012,10.172-5.879,17.294
					c-2.768,10.549,1.211,19.022,7.781,22.654c14.746,8.148,22.832-3.642,35.97-1.556c10.896,1.729,23.348,18.157,33.031,19.541
					c8.227,1.175,13.834-4.669,15.045-14.008C183.508-218.578,177.557-224.501,166.907-223.247z M124.711-223.765
					c0,2.292-1.859,4.15-4.15,4.15c-2.293,0-4.15-1.858-4.15-4.15s1.858-4.15,4.15-4.15
					C122.852-227.916,124.711-226.057,124.711-223.765z M174.17-208.375c0,0.955-0.775,1.729-1.73,1.729s-1.729-0.774-1.729-1.729
					s0.773-1.729,1.729-1.729C173.395-210.104,174.17-209.33,174.17-208.375z"/>
			</g>
			<g>
				<path fill="#A6D0E4" d="M290.285-176.713c0-6.227-4.15-10.721-8.647-11.586c-4.496-0.865-8.318,1.281-12.971-1.211
					c-4.842-2.594-7.09-11.068-16.775-11.068c-7.955,0-15.217,7.955-15.217,18.85c0,20.234,13.143,29.227,25.594,29.227
					C278.871-152.502,290.285-165.127,290.285-176.713z M270.57-162.359c0,2.1-1.703,3.803-3.805,3.803s-3.805-1.703-3.805-3.803
					c0-2.101,1.703-3.805,3.805-3.805S270.57-164.461,270.57-162.359z"/>
				<path fill="#C6DD7F" d="M311.037-84.885c-11.76,1.384-19.369-0.346-22.654-3.113c-3.02-2.543-4.955-5.405-2.248-11.932
					c2.939-7.091,1.533-14.732-5.535-15.91c-6.225-1.037-10.895,4.842-11.24,12.278c-0.24,5.183-1.902,8.301-5.533,7.608
					c-3.633-0.691-4.629-5.9-3.633-11.759c1.385-8.128,5.535-11.76,6.227-20.233c0.494-6.055-2.939-13.662-12.451-15.045
					c-9.301-1.354-15.91,4.322-16.602,10.549c-0.732,6.588,3.631,10.895,3.111,17.639c-0.518,6.745-4.012,10.172-5.879,17.294
					c-2.768,10.549,1.211,19.023,7.781,22.654c14.746,8.148,22.832-3.642,35.971-1.556c10.896,1.729,23.348,18.157,33.031,19.541
					c8.227,1.175,13.834-4.669,15.045-14.008C327.638-80.216,321.687-86.139,311.037-84.885z M268.841-85.403
					c0,2.292-1.859,4.15-4.15,4.15c-2.293,0-4.15-1.858-4.15-4.15c0-2.292,1.857-4.15,4.15-4.15
					C266.982-89.554,268.841-87.695,268.841-85.403z M318.3-70.013c0,0.955-0.775,1.73-1.73,1.73s-1.729-0.774-1.729-1.73
					c0-0.955,0.773-1.729,1.729-1.729S318.3-70.968,318.3-70.013z"/>
			</g>
			<g>
				<path fill="#A6D0E4" d="M131.795-148.363c-13.956-1.988-21.165,13.332-17.665,20.332c3.666,7.334,12.119,4.168,19.499,4.168
					c9.666,0,16.367,7.568,20.416,2.25C158.295-127.197,149.036-145.908,131.795-148.363z M132.319-130.885
					c0,1.24-1.006,2.248-2.248,2.248c-1.24,0-2.248-1.008-2.248-2.248c0-1.242,1.008-2.248,2.248-2.248
					C131.313-133.133,132.319-132.127,132.319-130.885z"/>
				<path fill="#E9DDB7" d="M148.795-65.697c0-7.166,4.588-13.813-1-16.333c-8.5-3.833-27.999,14.333-27.999,36.167
					c0,12,8.667,19,17.833,19c12.334,0,18-8.167,18-17.5C155.629-53.695,148.795-57.503,148.795-65.697z M143.387-60.328
					c0,1.146-0.93,2.075-2.074,2.075c-1.146,0-2.076-0.929-2.076-2.075c0-1.145,0.93-2.075,2.076-2.075
					C142.457-62.403,143.387-61.473,143.387-60.328z"/>
				<path fill="#A6D0E4" d="M146.155-176.713c0-6.227-4.15-10.721-8.646-11.586s-8.318,1.281-12.971-1.211
					c-4.841-2.594-7.089-11.068-16.775-11.068c-7.955,0-15.217,7.955-15.217,18.85c0,20.234,13.143,29.227,25.594,29.227
					C134.741-152.502,146.155-165.127,146.155-176.713z M126.44-162.359c0,2.1-1.703,3.803-3.804,3.803
					c-2.102,0-3.805-1.703-3.805-3.803c0-2.101,1.703-3.805,3.805-3.805C124.737-166.164,126.44-164.461,126.44-162.359z"/>
				<path fill="#C6DD7F" d="M145.463-153.021c0-1.336-1.084-2.42-2.422-2.42c-1.336,0-2.42,1.084-2.42,2.42
					c0,1.338,1.084,2.422,2.42,2.422C144.379-150.599,145.463-151.683,145.463-153.021z"/>
				<path fill="#A6D0E4" d="M229.163-134.517c-3.191-4.68,1.039-10.721-1.383-15.217c-2.422-4.498-6.744-5.016-9.857-2.596
					c-3.635,2.828-3.41,6.643-8.301,8.82c-5.529,2.465-17.984-2.248-19.715,7.264c-0.875,4.811,2.375,8.566,7.264,9.684
					c6.053,1.383,9.352,0.18,15.391,3.113c6.053,2.939,11.242,8.993,22.137,12.105c10.406,2.975,16.072-1.557,16.602-5.879
					C252.336-125.697,234.172-127.172,229.163-134.517z M226.915-127.08c0,1.24-1.006,2.248-2.248,2.248
					c-1.24,0-2.248-1.008-2.248-2.248c0-1.242,1.008-2.248,2.248-2.248C225.909-129.328,226.915-128.322,226.915-127.08z"/>
				<path fill="#E9DDB7" d="M256.129-173.697c0-17.166-14.5-25.5-27-22.832c-10.264,2.189-12.834,17.332-16.668,26.166
					c-3.713,8.557-8.832,22.5-20.166,22.5c-11.197,0-12.832-14.5-23.666-14.5c-11,0-24.5,15.666-24.5,39.666
					c0,14.667,9.799,31.455,20.834,30.667c11.666-0.833,4.5-19.667,15.332-19.667c9.5,0,7.857,16.259,9.168,23.334
					c1.666,9,6.832,14.166,18.498,13.166c14.443-1.237,22.334-13.5,18.871-23.344c-4.029-11.451-23.869-17.322-21.537-30.49
					c1.346-7.592,13-11.998,26-16.166C245.825-149.853,256.129-156.529,256.129-173.697z M211.178-97.854
					c0-1.815,1.471-3.286,3.285-3.286c1.814,0,3.287,1.471,3.287,3.286s-1.473,3.286-3.287,3.286S211.178-96.039,211.178-97.854z
					 M164.485-122.758c0,0.955-0.773,1.73-1.729,1.73c-0.955,0-1.73-0.775-1.73-1.73s0.775-1.729,1.73-1.729
					C163.711-124.486,164.485-123.713,164.485-122.758z M181.952-133.478c0,2.102-1.703,3.805-3.805,3.805
					c-2.1,0-3.805-1.703-3.805-3.805c0-2.102,1.705-3.805,3.805-3.805C180.248-137.283,181.952-135.58,181.952-133.478z
					 M201.84-117.915c0,0.859-0.697,1.556-1.557,1.556c-0.859,0-1.557-0.696-1.557-1.556c0-0.859,0.697-1.556,1.557-1.556
					C201.143-119.471,201.84-118.774,201.84-117.915z M231.483-172.609c0,1.752-1.42,3.174-3.174,3.174
					c-1.752,0-3.174-1.422-3.174-3.174c0-1.754,1.422-3.174,3.174-3.174C230.063-175.783,231.483-174.363,231.483-172.609z"/>
				<path fill="#A6D0E4" d="M223.495-89.191c-7.871-2.737-19.439,15.297-17.67,27.019c1.24,8.228,7.123,13.189,13.088,14.217
					c7.525,1.297,12.898-2.601,13.299-7.243c0.547-6.309-3.633-7.518-4.223-14.958C227.426-77.292,231.68-86.343,223.495-89.191z
					 M219.706-61.683c0,1.434-1.162,2.595-2.594,2.595c-1.434,0-2.594-1.161-2.594-2.595c0-1.433,1.16-2.594,2.594-2.594
					C218.543-64.277,219.706-63.116,219.706-61.683z"/>
				<path fill="#E9DDB7" d="M119.351-66.726c0-1.433-1.162-2.594-2.594-2.594c-1.434,0-2.594,1.161-2.594,2.594
					s1.16,2.594,2.594,2.594C118.188-64.133,119.351-65.294,119.351-66.726z"/>
				<path fill="#E9DDB7" d="M253.348-153.463c0,8.41-5.078,15.227-11.34,15.227s-11.34-6.816-11.34-15.227
					c0-8.408,5.078-12.441,11.34-12.441S253.348-161.871,253.348-153.463z"/>
				<path fill="#A6D0E4" d="M184.573-59.003c0.74-8.101,12.672-7.017,17.904-14.214c10.52-14.475-1.219-46.365-21.631-46.365
					c-11.74,0-24.217,9.719-24.217,29.219c0,15.834,10.166,21.5,8.25,42.166c-1.006,10.834-12.5,20.343-12.5,34.75
					C152.379-7.525,155.965,0,163.932,0c7.055,0,10.822-5.953,10.822-12.9c0-6.798-5.381-15.74,1.375-19.047
					c5.242-2.565,13.211,4.77,19.5,6.75c5.191,1.636,12.389-0.225,14.75-8.5c2.531-8.876-3.252-14.745-11.592-16.693
					C192.469-51.867,183.985-52.561,184.573-59.003z M168.588-28.444c0,1.815-1.471,3.287-3.285,3.287
					c-1.814,0-3.287-1.472-3.287-3.287c0-1.814,1.473-3.285,3.287-3.285C167.118-31.729,168.588-30.259,168.588-28.444z
					 M194.573-38.139c1.285,0,2.328,1.043,2.328,2.33c0,1.286-1.043,2.328-2.328,2.328c-1.287,0-2.33-1.042-2.33-2.328
					C192.243-37.097,193.286-38.139,194.573-38.139z M174.588-97.811c0,1.815-1.471,3.287-3.287,3.287
					c-1.814,0-3.285-1.472-3.285-3.287c0-1.814,1.471-3.285,3.285-3.285C173.118-101.097,174.588-99.626,174.588-97.811z"/>
				<path fill="#C6DD7F" d="M166.907-84.885c-11.76,1.384-19.369-0.346-22.654-3.113c-3.02-2.543-4.955-5.405-2.248-11.932
					c2.939-7.091,1.533-14.732-5.535-15.91c-6.225-1.037-10.894,4.842-11.24,12.278c-0.24,5.183-1.902,8.301-5.533,7.608
					c-3.633-0.691-4.629-5.9-3.633-11.759c1.385-8.128,5.535-11.76,6.227-20.233c0.494-6.055-2.939-13.662-12.451-15.045
					c-9.301-1.354-15.91,4.322-16.602,10.549c-0.732,6.588,3.631,10.895,3.111,17.639c-0.518,6.745-4.012,10.172-5.879,17.294
					c-2.768,10.549,1.211,19.023,7.781,22.654c14.746,8.148,22.832-3.642,35.97-1.556c10.896,1.729,23.348,18.157,33.031,19.541
					c8.227,1.175,13.834-4.669,15.045-14.008C183.508-80.216,177.557-86.139,166.907-84.885z M124.711-85.403
					c0,2.292-1.859,4.15-4.15,4.15c-2.293,0-4.15-1.858-4.15-4.15c0-2.292,1.858-4.15,4.15-4.15
					C122.852-89.554,124.711-87.695,124.711-85.403z M174.17-70.013c0,0.955-0.775,1.73-1.73,1.73s-1.729-0.774-1.729-1.73
					c0-0.955,0.773-1.729,1.729-1.729C173.395-71.742,174.17-70.968,174.17-70.013z"/>
				<path fill="#C6DD7F" d="M230.202-107.193c0-0.764-0.619-1.384-1.385-1.384c-0.764,0-1.383,0.62-1.383,1.384
					s0.619,1.384,1.383,1.384C229.582-105.809,230.202-106.43,230.202-107.193z"/>
				<path fill="#E9DDB7" d="M235.735-68.802c0-1.242-1.006-2.249-2.248-2.249s-2.25,1.007-2.25,2.249
					c0,1.242,1.008,2.249,2.25,2.249S235.735-67.559,235.735-68.802z"/>
				<path fill="#A6D0E4" d="M152.207-91.974c0-0.668-0.543-1.211-1.211-1.211s-1.211,0.543-1.211,1.211s0.543,1.211,1.211,1.211
					S152.207-91.306,152.207-91.974z"/>
				<path fill="#A6D0E4" d="M148.575-160.457c0-0.764-0.619-1.385-1.383-1.385s-1.383,0.621-1.383,1.385s0.619,1.383,1.383,1.383
					S148.575-159.693,148.575-160.457z"/>
				<path fill="#E9DDB7" d="M233.141-138.494c0-0.668-0.543-1.211-1.211-1.211s-1.209,0.543-1.209,1.211s0.541,1.209,1.209,1.209
					S233.141-137.826,233.141-138.494z"/>
				<path fill="#C6DD7F" d="M195.852-156.42c0-1.881-1.527-3.408-3.408-3.408c-1.883,0-3.408,1.527-3.408,3.408
					c0,1.883,1.525,3.408,3.408,3.408C194.325-153.012,195.852-154.537,195.852-156.42z"/>
				<path fill="#E9DDB7" d="M200.832-196.271c0-1.158-0.939-2.096-2.098-2.096s-2.096,0.938-2.096,2.096
					c0,1.158,0.938,2.098,2.096,2.098S200.832-195.113,200.832-196.271z"/>
				<path fill="#E9DDB7" d="M162.03-189.978c0-0.869-0.703-1.572-1.572-1.572s-1.574,0.703-1.574,1.572
					c0,0.869,0.705,1.574,1.574,1.574S162.03-189.109,162.03-189.978z"/>
				<path fill="#C6DD7F" d="M235.702-75.931c0-1.447-1.174-2.621-2.621-2.621s-2.621,1.174-2.621,2.621s1.174,2.621,2.621,2.621
					C234.528-73.309,235.702-74.483,235.702-75.931z"/>
				<path fill="#A6D0E4" d="M225.477-110.8c0-1.303-1.057-2.359-2.359-2.359c-1.303,0-2.359,1.057-2.359,2.359
					s1.057,2.359,2.359,2.359C224.42-108.44,225.477-109.497,225.477-110.8z"/>
				<path fill="#E9DDB7" d="M127.686-117.354c0-1.448-1.174-2.622-2.623-2.622c-1.447,0-2.621,1.174-2.621,2.622
					s1.174,2.622,2.621,2.622C126.512-114.732,127.686-115.906,127.686-117.354z"/>
				<path fill="#A6D0E4" d="M122.704-110.275c0-0.724-0.586-1.311-1.31-1.311c-0.723,0-1.311,0.587-1.311,1.311
					s0.588,1.311,1.311,1.311C122.118-108.965,122.704-109.552,122.704-110.275z"/>
				<path fill="#E9DDB7" d="M186.938-162.187c0-0.869-0.705-1.572-1.574-1.572s-1.572,0.703-1.572,1.572
					c0,0.869,0.703,1.574,1.572,1.574C186.233-160.613,186.938-161.318,186.938-162.187z"/>
			</g>
			<g>
				<path fill="#A6D0E4" d="M85.033-134.517c-3.191-4.68,1.039-10.721-1.383-15.217c-2.422-4.498-6.744-5.016-9.857-2.596
					c-3.635,2.828-3.41,6.643-8.301,8.82c-5.529,2.465-17.984-2.248-19.715,7.264c-0.875,4.811,2.375,8.566,7.264,9.684
					c6.053,1.383,9.352,0.18,15.391,3.113c6.053,2.939,11.242,8.993,22.137,12.105c10.406,2.975,16.072-1.557,16.602-5.879
					C108.207-125.697,90.043-127.172,85.033-134.517z M82.785-127.08c0,1.24-1.006,2.248-2.248,2.248
					c-1.24,0-2.248-1.008-2.248-2.248c0-1.242,1.008-2.248,2.248-2.248C81.779-129.328,82.785-128.322,82.785-127.08z"/>
				<path fill="#E9DDB7" d="M112-173.697c0-17.166-14.5-25.5-27-22.832c-10.264,2.189-12.834,17.332-16.668,26.166
					c-3.713,8.557-8.832,22.5-20.166,22.5c-11.197,0-12.832-14.5-23.666-14.5c-11,0-24.5,15.666-24.5,39.666
					C0-108.03,9.799-91.242,20.834-92.03c11.666-0.833,4.5-19.667,15.332-19.667c9.5,0,7.857,16.259,9.168,23.334
					c1.666,9,6.832,14.166,18.498,13.166c14.443-1.237,22.334-13.5,18.871-23.344c-4.029-11.451-23.869-17.322-21.537-30.49
					c1.346-7.592,13-11.998,26-16.166C101.695-149.853,112-156.529,112-173.697z M67.049-97.854c0-1.815,1.471-3.286,3.285-3.286
					s3.287,1.471,3.287,3.286s-1.473,3.286-3.287,3.286C68.52-94.568,67.049-96.039,67.049-97.854z M20.355-122.758
					c0,0.955-0.773,1.73-1.728,1.73s-1.731-0.775-1.731-1.73s0.775-1.729,1.731-1.729C19.582-124.486,20.355-123.713,20.355-122.758
					z M37.822-133.478c0,2.102-1.703,3.805-3.805,3.805c-2.1,0-3.805-1.703-3.805-3.805c0-2.102,1.705-3.805,3.805-3.805
					C36.119-137.283,37.822-135.58,37.822-133.478z M57.711-117.915c0,0.859-0.697,1.556-1.557,1.556
					c-0.859,0-1.557-0.696-1.557-1.556c0-0.859,0.697-1.556,1.557-1.556C57.014-119.471,57.711-118.774,57.711-117.915z
					 M87.354-172.609c0,1.752-1.42,3.174-3.174,3.174c-1.752,0-3.174-1.422-3.174-3.174c0-1.754,1.422-3.174,3.174-3.174
					C85.934-175.783,87.354-174.363,87.354-172.609z"/>
				<path fill="#E9DDB7" d="M109.219-153.463c0,8.41-5.078,15.227-11.34,15.227s-11.34-6.816-11.34-15.227
					c0-8.408,5.078-12.441,11.34-12.441S109.219-161.871,109.219-153.463z"/>
			</g>
		</g>
	</g>
</pattern>
<g id="Layer_5" display="none">
	
		<image display="inline" overflow="visible" enable-background="new    " width="1352" height="538" xlink:href="C0AC1B0.jpg"  transform="matrix(1 0 0 1 -283 65)">
	</image>
</g>
<rect x="-284" y="51" display="none" fill="#EEE6D7" width="1356" height="558"/>
<path fill="#03284C" d="M0,0v187.245c38.077,6.018,76.179,10.067,115.284,12.916c80.236,5.846,48.42,77.493,119.651,105.911
	C348.657,351.443,500.09,338.122,575,325.869V180.566v-2.979V54v-3V3V0H0z"/>
<path fill="#836FEA" d="M234.935,306.072c-71.23-28.418-39.414-100.065-119.651-105.911C76.179,197.312,38.077,193.264,0,187.245
	v2.937c38.077,6.016,76.179,10.062,115.284,12.911c80.236,5.846,48.42,77.488,119.651,105.906
	C348.657,354.371,500.09,341.048,575,328.795v-2.925C500.09,338.122,348.657,351.443,234.935,306.072z"/>
<g id="Layer_1_1_">
	<pattern  id="SVGID_1_" xlink:href="#Alyssa" patternTransform="matrix(1 0 0 -1 -371.963 -16063.292)">
	</pattern>
	<path display="none" opacity="0.2" fill="url(#SVGID_1_)" enable-background="new    " d="M-79,84.5
		c15.242,36.54,50,85.75,107,116.75s111,45.875,168,53.875s34.398,106.048,85,144.938c91,69.938,216,37.969,259,20.969
		s107-85.016,162-51.016s160,26.992,171,17.992L873.024,51H-88C-88,51-82.338,76.496-79,84.5z"/>
	<g>
		<polygon fill="#FFFFFF" points="432,119.013 432.418,119.861 433.354,119.996 432.677,120.656 432.837,121.588 432,121.148 
			431.163,121.588 431.323,120.656 430.646,119.996 431.582,119.861 		"/>
		<polygon fill="#D4D6D8" points="432,119.481 432.266,120.02 432.862,120.107 432.431,120.527 432.533,121.12 432,120.84 
			431.467,121.12 431.569,120.527 431.138,120.107 431.734,120.02 		"/>
	</g>
	<g>
		<path fill="#FFFFFF" d="M283.993,241.867c1.653-0.815,5.918-1.2,5.918-1.2s-4.266-0.385-5.918-1.2
			c0.712-1.246,1.993-2.785,1.993-2.785s-1.539,1.28-2.785,1.993c-0.815-1.653-1.2-5.918-1.2-5.918s-0.385,4.266-1.2,5.918
			c-1.246-0.712-2.785-1.993-2.785-1.993s1.28,1.539,1.993,2.785c-1.653,0.815-5.918,1.2-5.918,1.2s4.266,0.385,5.918,1.2
			c-0.712,1.246-1.992,2.785-1.992,2.785s1.539-1.28,2.785-1.993c0.815,1.653,1.2,5.918,1.2,5.918s0.385-4.266,1.2-5.918
			c1.246,0.712,2.785,1.993,2.785,1.993S284.705,243.113,283.993,241.867z"/>
		<path fill="#EEE6D7" d="M283.174,241.374c0.974-0.48,3.487-0.707,3.487-0.707s-2.513-0.227-3.487-0.707
			c0.42-0.734,1.174-1.641,1.174-1.641s-0.907,0.754-1.641,1.174c-0.48-0.974-0.707-3.487-0.707-3.487s-0.227,2.513-0.707,3.487
			c-0.734-0.42-1.641-1.174-1.641-1.174s0.754,0.907,1.174,1.641c-0.974,0.48-3.487,0.707-3.487,0.707s2.513,0.227,3.487,0.707
			c-0.42,0.734-1.174,1.641-1.174,1.641s0.907-0.754,1.641-1.174c0.48,0.974,0.707,3.487,0.707,3.487s0.227-2.513,0.707-3.487
			c0.734,0.42,1.641,1.174,1.641,1.174S283.594,242.108,283.174,241.374z"/>
	</g>
	<g>
		<path fill="#FFFFFF" d="M558.993,277.867c1.653-0.815,5.918-1.2,5.918-1.2s-4.266-0.385-5.918-1.2
			c0.712-1.246,1.993-2.785,1.993-2.785s-1.539,1.28-2.785,1.993c-0.815-1.653-1.2-5.918-1.2-5.918s-0.385,4.266-1.2,5.918
			c-1.246-0.712-2.785-1.993-2.785-1.993s1.28,1.539,1.993,2.785c-1.653,0.815-5.918,1.2-5.918,1.2s4.266,0.385,5.918,1.2
			c-0.712,1.246-1.992,2.785-1.992,2.785s1.539-1.28,2.785-1.993c0.815,1.653,1.2,5.918,1.2,5.918s0.385-4.266,1.2-5.918
			c1.246,0.712,2.785,1.993,2.785,1.993S559.705,279.113,558.993,277.867z"/>
		<path fill="#EEE6D7" d="M558.174,277.374c0.974-0.48,3.487-0.707,3.487-0.707s-2.513-0.227-3.487-0.707
			c0.42-0.734,1.174-1.641,1.174-1.641s-0.907,0.754-1.641,1.174c-0.48-0.974-0.707-3.487-0.707-3.487s-0.227,2.513-0.707,3.487
			c-0.734-0.42-1.641-1.174-1.641-1.174s0.754,0.907,1.174,1.641c-0.974,0.48-3.487,0.707-3.487,0.707s2.513,0.227,3.487,0.707
			c-0.42,0.734-1.174,1.641-1.174,1.641s0.907-0.754,1.641-1.174c0.48,0.974,0.707,3.487,0.707,3.487s0.227-2.513,0.707-3.487
			c0.734,0.42,1.641,1.174,1.641,1.174S558.594,278.108,558.174,277.374z"/>
	</g>
	<g>
		<path fill="#FFFFFF" d="M92.993,72.867c1.653-0.815,5.918-1.2,5.918-1.2s-4.266-0.385-5.918-1.2
			c0.712-1.246,1.993-2.785,1.993-2.785s-1.539,1.28-2.785,1.993c-0.815-1.653-1.2-5.918-1.2-5.918s-0.385,4.266-1.2,5.918
			c-1.246-0.712-2.785-1.993-2.785-1.993s1.28,1.539,1.993,2.785c-1.653,0.815-5.918,1.2-5.918,1.2s4.266,0.385,5.918,1.2
			c-0.712,1.246-1.992,2.785-1.992,2.785s1.539-1.28,2.785-1.993c0.815,1.653,1.2,5.918,1.2,5.918s0.385-4.266,1.2-5.918
			c1.246,0.712,2.785,1.993,2.785,1.993S93.705,74.113,92.993,72.867z"/>
		<path fill="#EEE6D7" d="M92.174,72.374c0.974-0.48,3.487-0.707,3.487-0.707s-2.513-0.227-3.487-0.707
			c0.42-0.734,1.174-1.641,1.174-1.641s-0.907,0.754-1.641,1.174C91.227,69.519,91,67.006,91,67.006s-0.227,2.513-0.707,3.487
			c-0.734-0.42-1.641-1.174-1.641-1.174s0.754,0.907,1.174,1.641c-0.974,0.48-3.487,0.707-3.487,0.707s2.513,0.227,3.487,0.707
			c-0.42,0.734-1.174,1.641-1.174,1.641s0.907-0.754,1.641-1.174C90.773,73.814,91,76.328,91,76.328s0.227-2.513,0.707-3.487
			c0.734,0.42,1.641,1.174,1.641,1.174S92.594,73.108,92.174,72.374z"/>
	</g>
	<g>
		<path fill="#FFFFFF" d="M166.827,133.905c1.002-0.494,3.59-0.728,3.59-0.728s-2.587-0.234-3.59-0.728
			c0.432-0.756,1.209-1.689,1.209-1.689s-0.933,0.777-1.689,1.209c-0.494-1.002-0.728-3.59-0.728-3.59s-0.234,2.587-0.728,3.59
			c-0.756-0.432-1.689-1.209-1.689-1.209s0.777,0.933,1.209,1.689c-1.002,0.494-3.59,0.728-3.59,0.728s2.587,0.234,3.59,0.728
			c-0.432,0.756-1.209,1.689-1.209,1.689s0.933-0.776,1.689-1.209c0.494,1.002,0.728,3.59,0.728,3.59s0.234-2.587,0.728-3.59
			c0.756,0.432,1.689,1.209,1.689,1.209S167.259,134.661,166.827,133.905z"/>
		<path fill="#EEE6D7" d="M166.33,133.606c0.591-0.291,2.115-0.429,2.115-0.429s-1.524-0.138-2.115-0.429
			c0.255-0.445,0.712-0.995,0.712-0.995s-0.55,0.457-0.995,0.712c-0.291-0.591-0.429-2.115-0.429-2.115s-0.138,1.524-0.429,2.115
			c-0.445-0.255-0.995-0.712-0.995-0.712s0.457,0.55,0.712,0.995c-0.591,0.291-2.115,0.429-2.115,0.429s1.524,0.138,2.115,0.429
			c-0.255,0.445-0.712,0.995-0.712,0.995s0.55-0.457,0.995-0.712c0.291,0.591,0.429,2.115,0.429,2.115s0.138-1.524,0.429-2.115
			c0.445,0.255,0.995,0.712,0.995,0.712S166.585,134.051,166.33,133.606z"/>
	</g>
	<g>
		<path fill="#FFFFFF" d="M387.642,63.774c1.002-0.494,3.59-0.728,3.59-0.728s-2.587-0.234-3.59-0.728
			c0.432-0.756,1.209-1.689,1.209-1.689s-0.933,0.777-1.689,1.209c-0.494-1.002-0.728-3.59-0.728-3.59s-0.234,2.587-0.728,3.59
			c-0.756-0.432-1.689-1.209-1.689-1.209s0.777,0.933,1.209,1.689c-1.002,0.494-3.59,0.728-3.59,0.728s2.587,0.234,3.59,0.728
			c-0.432,0.756-1.209,1.689-1.209,1.689s0.933-0.776,1.689-1.209c0.494,1.002,0.728,3.59,0.728,3.59s0.234-2.587,0.728-3.59
			c0.756,0.432,1.689,1.209,1.689,1.209S388.074,64.53,387.642,63.774z"/>
		<path fill="#EEE6D7" d="M387.145,63.475c0.591-0.291,2.115-0.429,2.115-0.429s-1.524-0.138-2.115-0.429
			c0.255-0.445,0.712-0.995,0.712-0.995s-0.55,0.457-0.995,0.712c-0.291-0.591-0.429-2.115-0.429-2.115s-0.138,1.524-0.429,2.115
			c-0.445-0.255-0.995-0.712-0.995-0.712s0.457,0.55,0.712,0.995c-0.591,0.291-2.115,0.429-2.115,0.429s1.524,0.138,2.115,0.429
			c-0.255,0.445-0.712,0.995-0.712,0.995s0.55-0.457,0.995-0.712c0.291,0.591,0.429,2.115,0.429,2.115s0.138-1.524,0.429-2.115
			c0.445,0.255,0.995,0.712,0.995,0.712S387.4,63.921,387.145,63.475z"/>
	</g>
	<g>
		<path fill="#FFFFFF" d="M362.993,303.867c1.653-0.815,5.918-1.2,5.918-1.2s-4.266-0.385-5.918-1.2
			c0.712-1.246,1.993-2.785,1.993-2.785s-1.539,1.28-2.785,1.993c-0.815-1.653-1.2-5.918-1.2-5.918s-0.385,4.266-1.2,5.918
			c-1.246-0.712-2.785-1.993-2.785-1.993s1.28,1.539,1.993,2.785c-1.653,0.815-5.918,1.2-5.918,1.2s4.266,0.385,5.918,1.2
			c-0.712,1.246-1.992,2.785-1.992,2.785s1.539-1.28,2.785-1.993c0.815,1.653,1.2,5.918,1.2,5.918s0.385-4.266,1.2-5.918
			c1.246,0.712,2.785,1.993,2.785,1.993S363.705,305.113,362.993,303.867z"/>
		<path fill="#EEE6D7" d="M362.174,303.374c0.974-0.48,3.487-0.707,3.487-0.707s-2.513-0.227-3.487-0.707
			c0.42-0.734,1.174-1.641,1.174-1.641s-0.907,0.754-1.641,1.174c-0.48-0.974-0.707-3.487-0.707-3.487s-0.227,2.513-0.707,3.487
			c-0.734-0.42-1.641-1.174-1.641-1.174s0.754,0.907,1.174,1.641c-0.974,0.48-3.487,0.707-3.487,0.707s2.513,0.227,3.487,0.707
			c-0.42,0.734-1.174,1.641-1.174,1.641s0.907-0.754,1.641-1.174c0.48,0.974,0.707,3.487,0.707,3.487s0.227-2.513,0.707-3.487
			c0.734,0.42,1.641,1.174,1.641,1.174S362.594,304.108,362.174,303.374z"/>
	</g>
	<g>
		<path fill="#FFFFFF" d="M544.985,47.067c3.305-1.63,11.837-2.401,11.837-2.401s-8.532-0.771-11.837-2.4
			c1.425-2.492,3.985-5.57,3.985-5.57s-3.078,2.56-5.57,3.985c-1.63-3.305-2.4-11.837-2.4-11.837s-0.771,8.532-2.4,11.837
			c-2.492-1.425-5.57-3.985-5.57-3.985s2.56,3.078,3.985,5.57c-3.305,1.63-11.837,2.4-11.837,2.4s8.531,0.771,11.837,2.401
			c-1.425,2.492-3.985,5.57-3.985,5.57s3.078-2.56,5.57-3.985c1.63,3.305,2.4,11.837,2.4,11.837s0.771-8.532,2.4-11.837
			c2.492,1.425,5.57,3.985,5.57,3.985S546.41,49.559,544.985,47.067z"/>
		<path fill="#EEE6D7" d="M543.348,46.081c1.947-0.96,6.974-1.414,6.974-1.414s-5.027-0.454-6.974-1.414
			c0.839-1.468,2.348-3.281,2.348-3.281s-1.813,1.509-3.281,2.348c-0.96-1.947-1.414-6.974-1.414-6.974s-0.454,5.027-1.414,6.974
			c-1.468-0.839-3.281-2.348-3.281-2.348s1.509,1.813,2.348,3.281c-1.947,0.96-6.974,1.414-6.974,1.414s5.026,0.454,6.974,1.414
			c-0.839,1.468-2.348,3.281-2.348,3.281s1.813-1.509,3.281-2.348c0.96,1.947,1.414,6.974,1.414,6.974s0.454-5.027,1.414-6.974
			c1.468,0.839,3.281,2.348,3.281,2.348S544.187,47.549,543.348,46.081z"/>
	</g>
	<g>
		<path fill="#FFFFFF" d="M399.993,181.867c1.653-0.815,5.918-1.2,5.918-1.2s-4.266-0.385-5.918-1.2
			c0.712-1.246,1.993-2.785,1.993-2.785s-1.539,1.28-2.785,1.993c-0.815-1.653-1.2-5.918-1.2-5.918s-0.385,4.266-1.2,5.918
			c-1.246-0.712-2.785-1.993-2.785-1.993s1.28,1.539,1.993,2.785c-1.653,0.815-5.918,1.2-5.918,1.2s4.266,0.385,5.918,1.2
			c-0.712,1.246-1.992,2.785-1.992,2.785s1.539-1.28,2.785-1.993c0.815,1.653,1.2,5.918,1.2,5.918s0.385-4.266,1.2-5.918
			c1.246,0.712,2.785,1.993,2.785,1.993S400.705,183.113,399.993,181.867z"/>
		<path fill="#EEE6D7" d="M399.174,181.374c0.974-0.48,3.487-0.707,3.487-0.707s-2.513-0.227-3.487-0.707
			c0.42-0.734,1.174-1.641,1.174-1.641s-0.907,0.754-1.641,1.174c-0.48-0.974-0.707-3.487-0.707-3.487s-0.227,2.513-0.707,3.487
			c-0.734-0.42-1.641-1.174-1.641-1.174s0.754,0.907,1.174,1.641c-0.974,0.48-3.487,0.707-3.487,0.707s2.513,0.227,3.487,0.707
			c-0.42,0.734-1.174,1.641-1.174,1.641s0.907-0.754,1.641-1.174c0.48,0.974,0.707,3.487,0.707,3.487s0.227-2.513,0.707-3.487
			c0.734,0.42,1.641,1.174,1.641,1.174S399.594,182.108,399.174,181.374z"/>
	</g>
	<g>
		<circle fill="#D71419" cx="449" cy="258.756" r="31.85"/>
		<path fill="#ED1C24" d="M455.885,227.652c-2.217-0.489-4.521-0.746-6.885-0.746c-17.59,0-31.85,14.26-31.85,31.85
			s14.26,31.85,31.85,31.85c4.755,0,9.263-1.05,13.316-2.918c-0.248-1.944-0.882-3.976-1.316-6.155c-1.232-6.192-15-6.533-22-5.532
			s-6-6.001-6.63-16.995c-0.63-10.994,16.63-0.25,16.13-10.678s15.5,3.672,16.634-8.483l1.315-7.73
			C463.276,230.032,459.711,228.495,455.885,227.652z"/>
		<path fill="none" stroke="#385572" stroke-miterlimit="10" d="M417.15,258.756c0,0-9.359,0.899-9.359,9.572
			S481,249.333,485,243.667s-6.832-4.661-6.832-4.661"/>
		<path fill="none" stroke="#8296A7" stroke-miterlimit="10" d="M417.15,260.756c0,0-9.359,0.899-9.359,9.572
			S481,251.333,485,245.667s-6.832-4.661-6.832-4.661"/>
		<path fill="none" stroke="#385572" stroke-miterlimit="10" d="M417.15,262.756c0,0-9.359,0.899-9.359,9.572
			S481,253.333,485,247.667s-6.832-4.661-6.832-4.661"/>
		<path fill="none" stroke="#385572" stroke-width="3" stroke-miterlimit="10" d="M417.15,265.756c0,0-9.359,0.899-9.359,9.572
			S481,256.333,485,250.667s-6.832-4.661-6.832-4.661"/>
	</g>
	<g>
		<circle fill="#FFFFFF" cx="37.222" cy="164.799" r="6.838"/>
		<circle fill="#EEE6D7" cx="37.222" cy="164.799" r="4.208"/>
	</g>
	<g>
		<circle fill="#47C7E9" cx="285" cy="114.756" r="52.089"/>
		<path opacity="0.3" fill="#0071FA" enable-background="new    " d="M288.737,62.815c-11.088,3.777-22.602,8.416-22.648,11.409
			C266,80,303,69.758,303,77.379c0,7.621-18,2.276-18,10.949s33.178,4.828,32.089,10.25s-62.626,4.934-63.857,16.178
			c-1.232,11.244,39.476,3.578,42.122,7.911s-15.032,7.586-16.693,10.46c-1.661,2.873,37.518-3.277,38.428,4.798
			C318,146,302.959,150.777,306,155.875c0.977,1.637,2.774,2.989,4.924,4.053c15.631-8.99,26.165-25.846,26.165-45.172
			C337.089,87.246,315.759,64.733,288.737,62.815z"/>
	</g>
	<g>
		<path fill="#EBC80F" d="M453.549,71.717c-0.168-0.141-0.039-0.573,0.289-0.964s0.731-0.593,0.899-0.452l30.727,24.435
			c1.708,1.433,2.53,3.267,1.835,4.095s-2.643,0.337-4.351-1.096L453.549,71.717z"/>
		<path fill="#FFDC2D" d="M485.464,94.735l-1.827-1.453l0,0c-0.191-0.152-1.767-0.078-2.829,0.771
			c-0.281,0.225-0.309,0.836-0.205,1.606l2.345,2.075c1.708,1.433,3.656,1.924,4.351,1.096
			C487.994,98.002,487.172,96.169,485.464,94.735z"/>
	</g>
	<g display="none">
		<circle display="inline" fill="#EBC80F" cx="313" cy="367.578" r="4.875"/>
		<circle display="inline" fill="#FF5E23" cx="313" cy="367.578" r="3"/>
	</g>
	<g display="none">
		<circle display="inline" fill="#EBC80F" cx="21" cy="107.578" r="4.875"/>
		<circle display="inline" fill="#FF5E23" cx="21" cy="107.578" r="3"/>
	</g>
</g>
<path fill="#FF5E23" d="M113.975,357.484l-11.193-35.161v-2.785h0.696l-0.696-2.089v-2.089c0,0,1.393-20.54,2.089-26.458
	c0.696-5.918,2.356-11.044,2.356-11.044s13.31-11.933,20.969-10.192s21.584,6.615,21.932,8.007l16.71-18.277l6.963-38.12h7.659
	c0,0-2.611,36.206-4.542,42.12c-0.065,0.201-0.801-0.192-0.844,0.017c-0.119,0.587,0.639,0.772,0.512,1.03
	c-0.134,0.274-0.872-0.272-1.193,0.259c-0.111,0.185,0.332,0.453,0.311,0.626c-1.033,8.166-22.443,32.188-22.443,32.188
	l-8.439,20.54h-25.329l-1.044-8.007l-1.393-1.741c0,0-4.139,13.491-3.133,16.014c1.005,2.523,4.874,20.888,4.874,20.888
	L113.975,357.484z"/>
<image display="none" overflow="visible" enable-background="new    " width="420" height="456" xlink:href="C0AC1B3.jpg"  transform="matrix(1 0 0 1 12 140)">
</image>
<ellipse fill="#D4D6D8" cx="132.025" cy="470.717" rx="51.988" ry="6.872"/>
<ellipse fill="#BFC2C5" cx="129.936" cy="468.628" rx="51.988" ry="6.872"/>
<circle fill="#FFDC2D" cx="136.202" cy="251.536" r="13.229"/>
<circle fill="#EBC80F" cx="134.81" cy="250.143" r="13.229"/>
<path fill="#FFDC2D" d="M175.956,213.058c-2.103,4.955-4.921,12.878-0.394,11.013c3.902-1.608,5.201-3.184,7.223-6.933
	c3.371-6.249,7.108-11.625,5.268-12.406C185.398,203.606,178.06,208.102,175.956,213.058z"/>
<path fill="#EBC80F" d="M174.564,212.362c-2.103,4.955-5.289,11.11-0.394,11.013c8.264-0.163,5.12-1.977,7.223-6.933
	c2.103-4.955,7.923-11.279,5.268-12.406S176.667,207.406,174.564,212.362z"/>
<path fill="#836FEA" d="M143.629,467.61c0.68,1.631,9.98,2.785,10.908,2.321c0.928-0.464,2.321-0.696,2.089-2.321
	c-0.232-1.624-3.249-6.266-3.017-11.14c0.233-4.874-9.98-2.321-9.98-2.321S142.469,464.825,143.629,467.61z"/>
<path fill="#836FEA" d="M104.639,455.077c0,0-5.57,9.516-3.946,12.765c1.624,3.249,6.035,2.193,6.035,2.193s5.106-1.032,5.57-3.121
	c0.464-2.089,0-10.388,1.161-13.433C114.618,450.435,104.639,455.077,104.639,455.077z"/>
<path fill="#03284C" d="M141.541,467.61c0.68,1.631,9.98,2.785,10.908,2.321c0.928-0.464,2.321-0.696,2.089-2.321
	c-0.232-1.624-3.249-6.266-3.017-11.14s-9.98-2.321-9.98-2.321S140.38,464.825,141.541,467.61z"/>
<path fill="#03284C" d="M102.55,455.077c0,0-5.57,9.516-3.946,12.765s6.035,2.193,6.035,2.193s5.106-1.032,5.57-3.121
	c0.464-2.089,0-10.388,1.161-13.433C112.529,450.435,102.55,455.077,102.55,455.077z"/>
<path fill="#D71419" d="M111.886,357.484l-11.193-35.161v-2.785h0.696l-0.696-2.089v-2.089c0,0,1.393-20.54,2.089-26.458
	c0.696-5.918,2.356-11.044,2.356-11.044s13.31-11.933,20.969-10.192s21.584,6.615,21.932,8.007l16.71-18.277l6.963-38.12h9.051
	c0,0-4.004,36.206-5.934,42.12c-0.065,0.201-0.801-0.192-0.844,0.017c-0.119,0.587,0.639,0.772,0.512,1.03
	c-0.134,0.274-0.872-0.272-1.193,0.259c-0.111,0.185,0.332,0.453,0.311,0.626c-1.033,8.166-22.443,32.188-22.443,32.188
	l-8.439,20.54h-25.329l-1.044-8.007l-1.393-1.741c0,0-4.139,13.491-3.133,16.014c1.005,2.523,4.874,20.888,4.874,20.888
	L111.886,357.484z"/>
<path fill="#FFDC2D" d="M120.188,323.019v-6.963h24.369v6.963c0,0,12.533,23.673,14.97,38.991s10.444,94.692,10.444,94.692
	s-9.794,1.349-13.113,1.393c-3.98,0.052-15.782-1.393-15.782-1.393l-0.696-72.411c0,0-2.437-12.881-3.481-13.229
	c-1.044-0.348-7.659,30.636-7.311,32.724c0.348,2.089-1.393,54.308-1.393,54.308s-10.337,0.696-13.524,0.696
	c-3.186,0-13.978-1.393-13.978-1.393s8.559-93.615,10.444-100.958C113.022,349.096,120.188,329.981,120.188,323.019z"/>
<path fill="#EBC80F" d="M118.099,323.019v-6.963h24.369v6.963c0,0,12.533,23.673,14.97,38.991s10.444,94.692,10.444,94.692
	s-9.794,1.349-13.113,1.393c-3.98,0.052-15.782-1.393-15.782-1.393l-0.696-72.411c0,0-2.437-12.881-3.481-13.229
	c-1.044-0.348-7.659,30.636-7.311,32.724c0.348,2.089-1.393,54.308-1.393,54.308s-10.337,0.696-13.524,0.696
	s-13.978-1.393-13.978-1.393s8.559-93.615,10.444-100.958C110.933,349.096,118.099,329.981,118.099,323.019z"/>
<path fill="#836FEA" d="M100.461,249.215c-6.035,9.4-6.155,20.791-10.908,25.994c-4.258,4.661-17.175,11.564-14.39,25.625
	c2.785,14.061,16.49,24.575,28.779,24.737c15.55,0.205,35.046-5.802,37.366-24.833c0.794-6.509-10.983-18.642-3.713-29.243
	c5.57-8.123-4.874-18.567-4.874-18.567s12.957-6.626,12.011-8.329c-0.946-1.704-5.049-9.309-16.189-7.685
	C117.403,238.539,105.003,242.139,100.461,249.215z"/>
<path fill="#03284C" d="M103.246,249.215c-6.035,9.4-6.155,20.791-10.908,25.994c-4.258,4.661-17.175,11.564-14.39,25.625
	c2.785,14.061,16.49,24.575,28.779,24.737c15.55,0.205,35.046-5.802,37.366-24.833c0.794-6.509-10.983-18.642-3.713-29.243
	c5.57-8.123-4.874-18.567-4.874-18.567s12.957-6.626,12.011-8.329c-0.946-1.704-5.049-9.309-16.189-7.685
	C120.188,238.539,107.789,242.139,103.246,249.215z"/>
<path fill="#03284C" d="M103.246,249.215c-6.035,9.4-6.155,20.791-10.908,25.994c-4.258,4.661-17.175,11.564-14.39,25.625
	c2.785,14.061,16.49,24.575,28.779,24.737c15.55,0.205,35.046-5.802,37.366-24.833c0.794-6.509-10.983-18.642-3.713-29.243
	c5.57-8.123-4.874-18.567-4.874-18.567s12.957-6.626,12.011-8.329c-0.946-1.704-5.049-9.309-16.189-7.685
	C120.188,238.539,107.789,242.139,103.246,249.215z"/>
<pattern  id="SVGID_2_" xlink:href="#Alyssa" patternTransform="matrix(1 0 0 -1 -371.963 -16063.292)">
</pattern>
<path display="none" opacity="0.2" fill="url(#SVGID_2_)" enable-background="new    " d="M111.667,260
	C103,273.5,102.827,289.861,96,297.333c-6.116,6.694-24.667,16.609-20.667,36.804s23.684,35.296,41.333,35.529
	C139,369.961,167,361.333,170.333,334c1.14-9.349-15.774-26.775-5.333-42c8-11.667-7-26.667-7-26.667s18.609-9.516,17.251-11.963
	S168,240,152,242.333C136,244.667,118.191,249.837,111.667,260z"/>
<g>
	<path fill="#FFFFFF" d="M125.748,295.215c2.301-1.135,8.242-1.672,8.242-1.672s-5.941-0.537-8.242-1.671
		c0.992-1.735,2.775-3.878,2.775-3.878s-2.143,1.782-3.878,2.775c-1.135-2.301-1.671-8.242-1.671-8.242s-0.537,5.941-1.671,8.242
		c-1.735-0.992-3.878-2.775-3.878-2.775s1.782,2.143,2.775,3.878c-2.301,1.135-8.242,1.671-8.242,1.671s5.94,0.537,8.242,1.672
		c-0.992,1.735-2.775,3.878-2.775,3.878s2.143-1.782,3.878-2.775c1.135,2.301,1.671,8.242,1.671,8.242s0.537-5.941,1.671-8.242
		c1.735,0.992,3.878,2.775,3.878,2.775S126.74,296.95,125.748,295.215z"/>
	<path fill="#EEE6D7" d="M124.608,294.528c1.356-0.668,4.856-0.984,4.856-0.984s-3.5-0.316-4.856-0.985
		c0.584-1.022,1.635-2.284,1.635-2.284s-1.262,1.051-2.284,1.635c-0.668-1.356-0.985-4.856-0.985-4.856s-0.316,3.5-0.985,4.856
		c-1.022-0.584-2.284-1.635-2.284-1.635s1.051,1.262,1.635,2.284c-1.356,0.668-4.856,0.985-4.856,0.985s3.499,0.316,4.856,0.984
		c-0.584,1.022-1.635,2.284-1.635,2.284s1.262-1.051,2.284-1.635c0.668,1.356,0.985,4.856,0.985,4.856s0.316-3.5,0.985-4.856
		c1.022,0.584,2.284,1.635,2.284,1.635S125.192,295.551,124.608,294.528z"/>
</g>
<g>
	<path fill="#FFFFFF" d="M122.606,263.573c0.698-0.344,2.5-0.507,2.5-0.507s-1.801-0.163-2.5-0.507
		c0.301-0.526,0.842-1.176,0.842-1.176s-0.65,0.54-1.176,0.842c-0.344-0.698-0.507-2.5-0.507-2.5s-0.163,1.801-0.507,2.5
		c-0.526-0.301-1.176-0.842-1.176-0.842s0.541,0.65,0.842,1.176c-0.698,0.344-2.5,0.507-2.5,0.507s1.801,0.163,2.5,0.507
		c-0.301,0.526-0.842,1.176-0.842,1.176s0.65-0.54,1.176-0.842c0.344,0.698,0.507,2.5,0.507,2.5s0.163-1.801,0.507-2.5
		c0.526,0.301,1.176,0.842,1.176,0.842S122.906,264.1,122.606,263.573z"/>
	<path fill="#EEE6D7" d="M122.26,263.365c0.411-0.203,1.473-0.299,1.473-0.299s-1.061-0.096-1.473-0.299
		c0.178-0.31,0.496-0.693,0.496-0.693s-0.383,0.318-0.693,0.496c-0.203-0.411-0.299-1.473-0.299-1.473s-0.096,1.061-0.299,1.473
		c-0.31-0.178-0.693-0.496-0.693-0.496s0.318,0.383,0.496,0.693c-0.411,0.203-1.473,0.299-1.473,0.299s1.061,0.096,1.473,0.299
		c-0.178,0.31-0.496,0.693-0.496,0.693s0.383-0.318,0.693-0.496c0.203,0.411,0.299,1.473,0.299,1.473s0.096-1.061,0.299-1.473
		c0.31,0.178,0.693,0.496,0.693,0.496S122.437,263.676,122.26,263.365z"/>
</g>
<g>
	<path fill="#FFFFFF" d="M86.647,298.584c0.698-0.344,2.5-0.507,2.5-0.507s-1.801-0.163-2.5-0.507
		c0.301-0.526,0.842-1.176,0.842-1.176s-0.65,0.54-1.176,0.842c-0.344-0.698-0.507-2.5-0.507-2.5s-0.163,1.801-0.507,2.5
		c-0.526-0.301-1.176-0.842-1.176-0.842s0.54,0.65,0.842,1.176c-0.698,0.344-2.5,0.507-2.5,0.507s1.801,0.163,2.5,0.507
		c-0.301,0.526-0.842,1.176-0.842,1.176s0.65-0.541,1.176-0.842c0.344,0.698,0.507,2.5,0.507,2.5s0.163-1.801,0.507-2.5
		c0.526,0.301,1.176,0.842,1.176,0.842S86.948,299.11,86.647,298.584z"/>
	<path fill="#EEE6D7" d="M86.301,298.375c0.411-0.203,1.473-0.299,1.473-0.299s-1.061-0.096-1.473-0.299
		c0.178-0.31,0.496-0.693,0.496-0.693s-0.383,0.319-0.693,0.496c-0.203-0.411-0.299-1.473-0.299-1.473s-0.096,1.061-0.299,1.473
		c-0.31-0.178-0.693-0.496-0.693-0.496s0.318,0.383,0.496,0.693c-0.411,0.203-1.473,0.299-1.473,0.299s1.061,0.096,1.473,0.299
		c-0.178,0.31-0.496,0.693-0.496,0.693s0.383-0.318,0.693-0.496c0.203,0.411,0.299,1.473,0.299,1.473s0.096-1.061,0.299-1.473
		c0.31,0.178,0.693,0.496,0.693,0.496S86.479,298.685,86.301,298.375z"/>
</g>
</svg>
