<?xml version="1.0" encoding="utf-8"?>
<!-- Generator: Adobe Illustrator 17.0.0, SVG Export Plug-In . SVG Version: 6.00 Build 0)  -->
<!DOCTYPE svg PUBLIC "-//W3C//DTD SVG 1.1//EN" "http://www.w3.org/Graphics/SVG/1.1/DTD/svg11.dtd">
<svg version="1.1" id="Ñëîé_1" xmlns="http://www.w3.org/2000/svg" xmlns:xlink="http://www.w3.org/1999/xlink" x="0px" y="0px"
	 width="435px" height="400px" viewBox="0 0 435 400" enable-background="new 0 0 435 400" xml:space="preserve">
<g>
	<g>
		<g>
			<path fill="#E9ECEC" d="M97.491,297.221L95.332,278.7c-12.839,0.767-25.448,3.106-36.883,7.033l17.415,15.612
				C82.625,299.131,89.983,297.756,97.491,297.221z"/>
		</g>
		<g>
			<path fill="#F9BF30" d="M97.491,287.537l-2.159-18.521c-12.839,0.767-25.448,3.107-36.883,7.033l17.415,15.613
				C82.625,289.446,89.983,288.072,97.491,287.537z"/>
		</g>
		<polygon fill="#F9BF30" points="97.491,248.273 76.296,249.221 75.865,252.398 75.865,291.662 92.358,285.423 97.491,287.537 		
			"/>
		<polygon fill="#E8A200" points="58.45,236.785 58.45,276.049 75.865,291.662 75.865,252.398 		"/>
		<g>
			<path fill="#FDD762" d="M97.491,248.273l-2.159-18.521c-12.839,0.765-25.448,3.106-36.883,7.032l17.415,15.613
				C82.625,250.183,89.983,248.809,97.491,248.273z"/>
		</g>
	</g>
	<g>
		<g>
			<path fill="#E9ECEC" d="M104.063,296.857c14.145-0.088,28.329,2.767,39.565,8.571l22.718-13.116
				c-18.085-9.721-41.366-14.375-64.441-13.969L104.063,296.857z"/>
		</g>
		<g>
			<path fill="#D71419" d="M104.063,287.28c14.145-0.088,28.329,2.768,39.565,8.571l22.718-13.116
				c-18.085-9.72-41.366-14.375-64.441-13.968L104.063,287.28z"/>
		</g>
		<polygon fill="#CC0293" points="104.063,287.28 104.063,273.727 101.905,255.214 101.905,268.768 		"/>
		<polygon fill="#D71419" points="143.629,282.297 118.323,259.549 104.063,273.727 104.063,287.28 140.864,287.044 
			143.629,295.852 		"/>
		<polygon fill="#D71419" points="166.347,269.181 166.347,282.735 143.629,295.852 143.629,282.297 		"/>
		<g>
			<path fill="#ED1C24" d="M104.063,273.727c14.145-0.088,28.329,2.768,39.565,8.57l22.718-13.116
				c-18.085-9.72-41.366-14.374-64.441-13.967L104.063,273.727z"/>
		</g>
	</g>
	<g>
		<g>
			<path fill="#E9ECEC" d="M54.917,348.094c-13.891-13.007-11.086-30.273,8.444-41.551c2.198-1.268,4.529-2.412,6.965-3.437
				l-17.397-15.598c-4.311,1.737-8.43,3.704-12.277,5.923C9.945,311.16,5.916,338.449,28.529,358.699L54.917,348.094z"/>
		</g>
		<g>
			<path fill="#B45EF4" d="M54.917,338.706c-13.891-13.008-11.086-30.274,8.444-41.55c2.198-1.27,4.529-2.414,6.965-3.438
				L52.929,278.12c-4.311,1.738-8.43,3.701-12.277,5.923C9.945,301.772,5.916,329.062,28.529,349.31L54.917,338.706z"/>
		</g>
		<path fill="#836FEA" d="M70.326,269.591v24.128l-15.409,5.725c0,0-20.011-10.923-20.011-11.178c0-0.254,3.378-23.389,5.849-24.429
			C43.226,262.799,70.326,269.591,70.326,269.591z"/>
		<polygon fill="#836FEA" points="54.917,338.706 54.917,314.579 28.529,325.184 28.529,349.311 		"/>
		<path fill="#547189" d="M28.529,310.048v39.263c0,0-13.772-11.608-14.393-27.014l0.033-25.203l16.026-2.32L28.529,310.048z"/>
		<g>
			<path fill="#385572" d="M54.917,314.579c-13.891-13.009-11.086-30.274,8.444-41.552c2.198-1.269,4.529-2.413,6.965-3.437
				l-17.397-15.598c-4.311,1.737-8.43,3.702-12.277,5.923c-30.707,17.729-34.736,45.018-12.123,65.268L54.917,314.579z"/>
		</g>
	</g>
</g>
<g>
	<g>
		<g>
			<path fill="#E9ECEC" d="M295.264,298.162c-17.652,10.192-46.273,10.192-63.927,0c-17.653-10.19-17.653-26.717-0.001-36.908
				c17.652-10.191,46.272-10.191,63.927,0.001C312.916,271.446,312.916,287.972,295.264,298.162z"/>
			<path fill="#E8A200" d="M314.13,233.568l-12.109,0.074c-0.881-0.598-1.799-1.185-2.778-1.751
				c-19.853-11.461-52.036-11.461-71.886-0.001c-1.243,0.719-2.409,1.464-3.498,2.235l-11.389,0.07v18.446l0,0
				c0,7.511,4.963,15.021,14.888,20.751c19.851,11.462,52.035,11.462,71.886,0c9.925-5.73,14.888-13.239,14.887-20.751l0,0
				L314.13,233.568L314.13,233.568z"/>
			<path fill="#FFDC2D" d="M261.601,223.319c-12.437,0.238-24.751,3.091-34.244,8.571c-1.244,0.719-2.409,1.464-3.498,2.235
				l-11.389,0.07v18.446c0,7.511,4.963,15.021,14.888,20.751c9.493,5.482,21.807,8.335,34.243,8.574V223.319z"/>
			<path fill="#E8A200" d="M219.454,234.153l-6.984,0.043v18.446c0,5.144,2.33,10.287,6.984,14.859V234.153z"/>
			<path fill="#FDD762" d="M299.243,254.32c-19.851,11.462-52.035,11.46-71.886,0c-19.852-11.461-19.852-30.044-0.001-41.503
				c19.85-11.461,52.033-11.461,71.886,0C319.094,224.278,319.094,242.859,299.243,254.32z"/>
			<path fill="#FFDC2D" d="M299.243,254.32c-19.851,11.462-52.035,11.46-71.886,0c-9.427-5.443-14.368-12.491-14.842-19.62
				c-0.525,7.885,4.416,15.868,14.842,21.887c19.851,11.461,52.035,11.461,71.886,0c10.424-6.018,15.364-14,14.841-21.884
				C313.609,241.83,308.668,248.88,299.243,254.32z"/>
		</g>
		<g>
			<path fill="#E8A200" d="M299.179,225.847l-8.785,0.055c-0.64-0.435-1.306-0.86-2.017-1.271c-14.402-8.315-37.754-8.315-52.156,0
				c-0.902,0.521-1.749,1.063-2.537,1.621l-8.264,0.052v6.35l0,0c0,5.448,3.601,10.897,10.802,15.055
				c14.403,8.315,37.754,8.315,52.156,0.002c7.202-4.159,10.803-9.608,10.801-15.057l0,0V225.847z"/>
			<path fill="#F9BF30" d="M261.067,218.411c-9.023,0.173-17.959,2.242-24.847,6.219c-0.902,0.521-1.749,1.063-2.537,1.621
				l-8.264,0.052v6.35c0,5.448,3.601,10.897,10.802,15.055c6.888,3.978,15.822,6.047,24.846,6.221V218.411z"/>
			<path fill="#FDD762" d="M230.487,226.271l-5.067,0.032v6.35c0,3.73,1.691,7.463,5.067,10.779V226.271z"/>
			<path fill="#FFDC2D" d="M288.378,240.902c-14.402,8.316-37.753,8.316-52.156,0c-14.402-8.315-14.403-21.797-0.001-30.111
				c14.402-8.315,37.754-8.314,52.156,0C302.779,219.107,302.779,232.589,288.378,240.902z"/>
		</g>
		<g>
			<g>
				<g>
					<path fill="#FFDC2D" d="M194.907,161.648c-12.291,0-23.822-6.486-30.192-17.021l-19.33-32.049
						c-2.306-3.823-2.373-8.428-0.179-12.315c2.196-3.89,6.174-6.211,10.641-6.211h38.185V104h-38.185
						c-1.153,0-1.734,0.723-1.978,1.154c-0.242,0.43-0.561,1.299,0.034,2.286l19.327,32.044
						c4.638,7.669,13.059,12.383,22.054,12.215l33.237-0.502l0.148,9.947l-33.237,0.501
						C195.258,161.647,195.082,161.648,194.907,161.648z"/>
				</g>
				<g>
					<path fill="#FFDC2D" d="M329.691,161.648c-0.174,0-0.35-0.001-0.526-0.003l-33.236-0.501l0.149-9.947l33.236,0.502
						c8.946,0.203,17.418-4.547,22.057-12.218l19.324-32.041c0.595-0.987,0.276-1.856,0.033-2.286
						c-0.242-0.431-0.824-1.154-1.977-1.154h-38.186v-9.948h38.186c4.467,0,8.444,2.322,10.64,6.211
						c2.195,3.887,2.129,8.492-0.179,12.316l-19.325,32.044C353.514,155.162,341.98,161.648,329.691,161.648z"/>
				</g>
				<path fill="#E8A200" d="M360.603,124.175l-9.231,15.304c-4.639,7.672-13.11,12.422-22.057,12.219l-33.236-0.503l-0.149,9.948
					l33.236,0.501c0.177,0.002,0.353,0.003,0.526,0.003c11.075,0,21.521-5.28,28.146-14.034
					C362.209,136.377,361.518,128.257,360.603,124.175z"/>
			</g>
			<g>
				<g>
					<g>
						<path fill="#FFFFFF" d="M242.548,208.472c10.908,6.298,28.594,6.298,39.503-0.001c10.908-6.298,10.909-16.509,0.001-22.807
							s-28.595-6.297-39.504,0C231.64,191.963,231.64,202.173,242.548,208.472z"/>
					</g>
				</g>
				<g>
					<g>
						<path fill="#FFDC2D" d="M229.683,213.195c5.882-4.369,4.748-8.642,4.748-8.642l4.453,5.374
							c13.535-6.532,33.307-6.531,46.841,0.002l4.453-5.376c0,0-1.133,4.272,4.75,8.642c5.882,4.367,3.963,12.944,3.963,12.944
							l-0.011-0.013c0.003,5.408-3.565,10.817-10.715,14.945c-14.285,8.247-37.446,8.249-51.731,0
							c-7.144-4.123-10.715-9.528-10.715-14.933C225.719,226.135,223.801,217.563,229.683,213.195z"/>
					</g>
				</g>
				<g>
					<g>
						<path fill="#E8A200" d="M282.735,214.479c0,0-10.566-6.255-10.566-7.574c0-0.191,0.216-0.541,0.571-0.98
							c4.645,0.797,9.078,2.121,12.984,4.006l4.453-5.376c0,0-1.133,4.272,4.75,8.642c5.882,4.367,3.963,12.944,3.963,12.944
							l-0.011-0.013c0.002,2.952-1.099,5.895-3.226,8.638c0.096-0.668,1.223-9.506-5.422-12.401
							C283.325,219.356,282.735,214.479,282.735,214.479z"/>
					</g>
				</g>
				<g>
					<g>
						<path fill="#E8A200" d="M242.548,214.889c10.908,6.299,28.594,6.299,39.503,0c10.908-6.297,10.909-16.509,0.001-22.807
							s-28.595-6.297-39.504,0C231.64,198.381,231.64,208.592,242.548,214.889z"/>
					</g>
				</g>
				<g>
					<g>
						<path fill="#FFDC2D" d="M335.363,94.646c-0.734,40.723-21.727,45.654-32.959,60.897c-10.481,14.225-9.289,34.798-9.083,37.481
							c0.002,0.101,0.024,0.199,0.024,0.3l0,0l0,0c0,4.587-3.031,9.174-9.094,12.675c-12.124,6.999-31.781,6.999-43.906,0
							c-5.682-3.28-8.667-7.519-9.021-11.815l-0.07,0.001v-0.861v-0.004c0-0.097,0.021-0.193,0.023-0.29
							c0.205-2.663,1.405-23.252-9.082-37.487c-11.232-15.243-32.227-20.174-32.961-60.897L335.363,94.646L335.363,94.646z"/>
					</g>
				</g>
				<path fill="#E8A200" d="M281.988,138.981c0,0-1.707,4.868-7.01,18.786c-5.302,13.918-2.81,49.138-2.81,49.138l9.021,0.623
					c1.059-0.471,2.091-0.968,3.062-1.528c6.063-3.501,9.094-8.088,9.094-12.675l0,0c0-0.101-0.022-0.2-0.024-0.3
					c-0.206-2.684-1.398-23.257,9.083-37.481c11.23-15.243,32.225-20.174,32.96-60.896h-8.001L281.988,138.981z"/>
				<g>
					<g>
						<path fill="#FFDC2D" d="M210.635,124.476c28.532,16.473,74.795,16.473,103.328-0.001
							c28.534-16.475,28.535-43.184,0.001-59.657c-28.532-16.474-74.794-16.473-103.328,0.001
							C182.102,81.292,182.102,108.001,210.635,124.476z"/>
					</g>
				</g>
				<path fill="#FFFFFF" d="M210.635,124.475c28.532,16.474,74.795,16.474,103.328,0c13.451-7.767,20.555-17.807,21.324-27.979
					c0.864,11.406-6.24,22.975-21.324,31.684c-28.533,16.474-74.796,16.475-103.328,0.001
					c-15.082-8.708-22.186-20.275-21.323-31.679C190.081,106.671,197.185,116.71,210.635,124.475z"/>
				<g>
					<g>
						<path fill="#FFDC2D" d="M218.938,119.682c23.947,13.826,62.774,13.825,86.723-0.001c23.947-13.826,23.948-36.243,0.002-50.07
							c-23.948-13.825-62.775-13.825-86.724,0.002C194.991,83.438,194.991,105.854,218.938,119.682z"/>
					</g>
				</g>
				<path fill="#E8A200" d="M218.938,119.682c10.036,5.794,22.691,9.126,35.763,10.063c2.047-2.567,2.842-5.337,1.854-8.298
					c-6.368-19.082-3.905-58.619-3.905-58.619l-11.535-1.375c-8.083,1.716-15.685,4.412-22.175,8.159
					C194.991,83.438,194.991,105.854,218.938,119.682z"/>
				<path fill="#FFFFFF" d="M305.662,72.754c-23.948-13.826-62.775-13.826-86.724,0c-11.282,6.515-17.244,14.936-17.896,23.466
					c-0.733-9.579,5.229-19.295,17.896-26.608c23.948-13.827,62.775-13.827,86.724-0.002c12.664,7.314,18.625,17.028,17.895,26.604
					C322.903,87.686,316.941,79.267,305.662,72.754z"/>
				<path fill="#E8A200" d="M292.321,125.515c-18.59,6.034-41.453,6.034-60.043,0.001c0.637-0.425,1.293-0.845,1.994-1.25
					c15.479-8.937,40.576-8.937,56.056,0C291.027,124.67,291.685,125.089,292.321,125.515z"/>
			</g>
			<g>
				<path fill="#FFFFFF" d="M231.278,193.03c0.024-0.32,0.063-0.907,0.095-1.707c0.467,4.192,3.424,8.309,8.973,11.512
					c12.125,7,31.782,7,43.906,0c5.428-3.134,8.417-7.139,8.985-11.235c0.029,0.65,0.063,1.141,0.084,1.424
					c0.002,0.101,0.024,0.199,0.024,0.3l0,0c0,4.587-3.031,9.174-9.094,12.675c-12.124,6.999-31.781,6.999-43.906,0
					c-5.683-3.28-8.667-7.519-9.021-11.815l-0.07,0.001v-0.861v-0.003C231.254,193.224,231.275,193.127,231.278,193.03z"/>
			</g>
		</g>
	</g>
</g>
<g>
	<g>
		<path fill="#173D7A" d="M221.697,175.303c0,0-3.838-1.936-6.195,0.948c-2.358,2.882-5.728,9.687-5.833,14.285
			c-0.104,4.598,3.64,4.288,5.864,3.199c2.226-1.088,8.725-10.517,9.118-12.364c0.394-1.847-0.464-4.345-1.089-4.834
			C222.937,176.047,221.697,175.303,221.697,175.303z"/>
		<path fill="#E8A200" d="M222.534,174.379l0.179,3.977c0.037,0.846-0.388,1.651-1.124,2.069c-0.67,0.38-1.646,0.672-2.962,0.46
			c-2.892-0.465-3.148-1.291-3.355-5.267C215.064,171.642,222.534,174.379,222.534,174.379z"/>
		<g>
			<path fill="#173D7A" d="M207.646,167.657c0,0-3.839-1.937-6.196,0.946c-2.357,2.882-5.728,9.687-5.832,14.285
				s3.639,4.287,5.864,3.199s8.725-10.517,9.117-12.364c0.394-1.848-0.464-4.346-1.088-4.833
				C208.885,168.401,207.646,167.657,207.646,167.657z"/>
			<path fill="#E8A200" d="M208.484,166.731l0.178,3.978c0.037,0.846-0.389,1.651-1.124,2.068c-0.671,0.38-1.645,0.672-2.962,0.461
				c-2.893-0.465-3.148-1.291-3.355-5.268C201.014,163.995,208.484,166.731,208.484,166.731z"/>
			<path fill="#FDD762" d="M242.735,93.718c-1.136-18.486-20.021,2.72-20.021,2.72l-12.923,12.668l-11.639,12.785
				c-2.273,2.497-3.33,5.869-2.891,9.216l4.708,35.849c0.232,1.771,1.747,3.076,3.532,3.063c0.506-0.004,1.082-0.05,1.744-0.153
				c4.2-0.654,3.891-4.647,3.891-4.647l-0.86-33.53l24.44-14.733C232.718,116.954,243.871,112.203,242.735,93.718z"/>
		</g>
		<path fill="#E8A200" d="M226.476,109.856c0,0-14.632,16.126-15.447,20.624c-0.817,4.499,15.447-4.14,15.447-4.14l11.131-18.182
			L226.476,109.856z"/>
		<path fill="#FDD762" d="M256.787,100.761c-1.135-18.486-20.021,2.719-20.021,2.719l-12.924,12.668l-11.638,12.785
			c-2.273,2.496-3.33,5.868-2.891,9.216l4.708,35.849c0.231,1.77,1.747,3.076,3.532,3.062c0.505-0.004,1.082-0.05,1.744-0.153
			c4.199-0.653,3.891-4.647,3.891-4.647l-0.86-33.528l24.44-14.733C246.77,123.998,257.923,119.247,256.787,100.761z"/>
		<path fill="#385572" d="M245.616,41.421c14.316,5.936,14.028,14.398,14.028,14.398s-2.804,31.024-1.847,51.745
			c0.4,8.663-46.021,9.324-39.099-13.785c8.164-27.248,5.104-49.306,8.925-52.633C231.445,37.819,241.912,39.886,245.616,41.421z"/>
		
			<ellipse transform="matrix(-0.2494 0.9684 -0.9684 -0.2494 349.2871 -176.572)" fill="#FFC2B0" cx="243.073" cy="47.079" rx="5.435" ry="7.384"/>
		<path fill="#FFFFFF" d="M244.159,53.346c-0.859,0-1.74-0.111-2.615-0.338c-4.308-1.109-7.129-4.67-6.287-7.938
			c0.843-3.269,5.032-5.025,9.34-3.913c2.051,0.528,3.833,1.62,5.02,3.073c1.235,1.516,1.686,3.242,1.268,4.865l0,0
			c-0.418,1.622-1.646,2.917-3.46,3.646C246.425,53.143,245.313,53.346,244.159,53.346z M241.976,42.188
			c-2.658,0-4.881,1.236-5.393,3.224c-0.652,2.537,1.726,5.35,5.303,6.271c1.769,0.456,3.556,0.381,5.027-0.211
			c1.398-0.563,2.339-1.528,2.645-2.718v-0.001c0.307-1.189-0.05-2.487-1.003-3.656c-1.002-1.229-2.529-2.157-4.3-2.614
			C243.48,42.282,242.711,42.188,241.976,42.188z"/>
		<path fill="#FFC2B0" d="M239.875,40.775c0,0,0.124,0.574-0.123,5.111c-0.079,1.426,4.916,2.758,6.206,1.467
			c1.291-1.291,0.775-2.633,1.085-7.486C247.353,35.013,239.875,40.775,239.875,40.775z"/>
		<path fill="#EA9C92" d="M247.043,39.867c0,0-1.23,4.5-7.292,6.226l0.091-4.09L247.043,39.867z"/>
		<circle fill="#FFC2B0" cx="240.213" cy="31.19" r="11.019"/>
		<path fill="#EA9C92" d="M242.744,31.594c0,0-6.067,2.6-10.269,2.629c-4.2,0.029-3.274-3.489-3.274-3.489l12.472-1.802
			L242.744,31.594z"/>
		<path fill="#173D7A" d="M231.224,32.28c0,0,5.284-2.245,9.922-1.309c1.09,0.22,2.101,0.803,2.802,1.666
			c0.23,0.282,0.52,0.539,0.849,0.614c0.821,0.185,2.168-3.226,3.767-3.304c1.598-0.077,2.665,1.055,1.354,3.152
			c-1.31,2.098-0.868,4.445-0.265,4.782c0.604,0.336,6.997-4.562,1.357-15.736c-5.641-11.174-19.97-5.156-22.198-2.891
			c0,0-2.35,2.045-4.258,0.225C224.553,19.479,222.412,35.511,231.224,32.28z"/>
		<path fill="#FFC2B0" d="M220.621,38.881l-7.698-3.319c-0.883-0.38-1.564-1.114-1.877-2.021l-7.602-22.031l-3.522,0.612
			l6.145,27.415c0.286,1.28,1.103,2.377,2.247,3.02l12.816,7.199L220.621,38.881z"/>
		<path fill="#FFC2B0" d="M300.715,42.463l1.767-0.81c1.504-0.69,2.877-1.639,4.054-2.802l1.229-1.214
			c0.694-0.684,0.9-1.722,0.522-2.62l0,0c-0.296-0.7-1.124-1.005-1.803-0.662l-3.688,1.863c0,0,0.577-1.633,0.299-2.057
			c-0.276-0.426-3.132,2.725-4.452,4.96C297.321,41.356,300.715,42.463,300.715,42.463z"/>
		<path fill="#FFC2B0" d="M269.991,51.275l6.585-0.736c1.558-0.174,3.063-0.661,4.426-1.433l17.64-9.984l2.073,3.341L282.68,56.389
			c-0.558,0.429-1.167,0.786-1.813,1.063l-10.757,4.599L269.991,51.275z"/>
		<path fill="#FFC2B0" d="M199.922,12.121l-0.673-0.775c-0.773-0.892-1.275-1.987-1.447-3.156l-0.471-3.212
			c-0.146-1,0.246-2.017,1.058-2.617c0.029-0.021,0.061-0.043,0.09-0.064c0.853-0.589,2.043-0.163,2.439,0.795l1.583,3.828
			c0,0-0.499-1.983,0.141-2.202c0.47-0.161,1.357,2.299,0.833,3.667c-0.526,1.367-0.03,3.125-0.03,3.125L199.922,12.121z"/>
		<path fill="#FFFFFF" d="M235.842,38.777l-2.847-0.781c0,0,1.359,2.138,3.342,2.682c1.984,0.545,2.293-1.134,2.293-1.134
			L235.842,38.777z"/>
	</g>
	<path fill="#385572" d="M231.574,39.564c0,0-12.86-2.541-16.786-3.733c-3.928-1.193-5.567,9.593-5.27,12.326
		c0.299,2.734,13.671,5.784,15.261,10.473C226.368,63.317,231.574,39.564,231.574,39.564z"/>
	<path fill="#385572" d="M251.236,44.298c0,0,9.399,4.033,25.128,5.998c0.64,0.079,1.187,0.503,1.398,1.111
		c0.605,1.742,1.642,5.544,0.833,9.456c-0.332,1.612-1.793,2.744-3.439,2.733c-4.924-0.034-15.521,0.438-17.239,5.041
		C255.663,74.668,251.236,44.298,251.236,44.298z"/>
</g>
<g>
	
		<rect x="367.039" y="61.306" transform="matrix(0.5744 0.8186 -0.8186 0.5744 210.5599 -273.7388)" fill="#FDD762" width="2.967" height="8.62"/>
	
		<rect x="369.582" y="55.901" transform="matrix(0.5744 0.8186 -0.8186 0.5744 207.2181 -278.1219)" fill="#FDD762" width="2.968" height="8.621"/>
	
		<rect x="372.091" y="50.529" transform="matrix(0.5742 0.8187 -0.8187 0.5742 203.9621 -282.4994)" fill="#FDD762" width="2.968" height="8.619"/>
	
		<rect x="374.602" y="45.114" transform="matrix(0.5743 0.8187 -0.8187 0.5743 200.5719 -286.8459)" fill="#FDD762" width="2.967" height="8.621"/>
</g>
<g>
	
		<rect x="428.892" y="126.699" transform="matrix(0.9103 -0.414 0.414 0.9103 -15.2542 189.702)" fill="#ED1C24" width="2.304" height="6.691"/>
	
		<rect x="425.16" y="124.046" transform="matrix(0.9103 -0.4139 0.4139 0.9103 -14.4957 187.8789)" fill="#ED1C24" width="2.305" height="6.69"/>
	
		<rect x="421.383" y="121.321" transform="matrix(0.9103 -0.414 0.414 0.9103 -13.7013 186.1106)" fill="#ED1C24" width="2.304" height="6.691"/>
	
		<rect x="417.628" y="118.637" transform="matrix(0.9103 -0.414 0.414 0.9103 -12.9271 184.3152)" fill="#ED1C24" width="2.303" height="6.691"/>
</g>
<rect x="413.123" y="27.438" transform="matrix(-0.5682 -0.8229 0.8229 -0.5682 626.2773 386.739)" fill="#FF2C9C" width="2.968" height="3.231"/>
<rect x="398.816" y="21.868" transform="matrix(-0.5685 -0.8227 0.8227 -0.5685 608.547 366.1566)" fill="#B45EF4" width="2.968" height="3.232"/>
<g>
	<path fill="#B45EF4" d="M405.91,87.956l1.339-2.269c0,0,1.116,0.616,2.313,0.239c0.958-0.302,1.787-1.167,2.466-2.57
		c2.388-4.951,6.798-5.326,8.797-4.833l-0.632,2.558l0.315-1.279l-0.305,1.28c-0.383-0.087-3.802-0.736-5.805,3.417
		c-1.018,2.107-2.396,3.438-4.099,3.955C408.026,89.143,406.122,88.08,405.91,87.956z"/>
</g>
<g>
	<path fill="#E9ECEC" d="M91.705,356.418c15.463,8.929,40.533,8.929,55.997,0c15.463-8.928,15.463-23.401,0-32.328
		s-40.532-8.927-55.995,0C76.243,333.018,76.243,347.492,91.705,356.418z"/>
	<g>
		<path fill="#173D7A" d="M100.813,330.459c-2.229,0.952-3.632,3.438-3.447,6.111c0.087,1.261,0.24,2.436,0.503,2.986
			c0.709,1.49,3.035,3.534,6.747,2.067s11.957-9.213,12.266-14.284C117.457,317.922,106.686,327.951,100.813,330.459z"/>
		<path fill="#173D7A" d="M122.625,346.037c0,0-0.891,5.43-0.457,6.425c0.432,0.996,3.016,3.121,6.833,2.661
			c3.817-0.459,14.798-4.246,17.245-11.483c3.79-11.219-21.197,0.843-21.197,0.843L122.625,346.037z"/>
		<path fill="#FDD762" d="M133.355,259.225l0.85,84.773c-0.089,2.949-2.02,5.439-4.617,5.877c-0.322,0.055-0.665,0.098-1.032,0.13
			c-2.63,0.23-4.163-0.898-5.037-2.083c-0.708-0.959-1.08-2.178-1.134-3.422l-1.082-36.188l-5.402-32.357l-7.475,57.267
			c-0.121,1.549-0.861,2.98-2.054,3.771c-0.824,0.545-1.942,0.969-3.408,0.924c-2.14-0.063-3.625-1.209-4.532-2.23
			c-0.719-0.811-1.096-1.924-1.081-3.066l2.962-34.456l1.102-43.95L133.355,259.225z"/>
		<path fill="#FFC2B0" d="M122.377,183.342l-1.339,7.725c0,0-0.05,2.635,2.892,3.365s3.853-1.169,3.853-1.169l1.33-8.699
			L122.377,183.342z"/>
		<path fill="#FFC2B0" d="M138.278,183.639c-3.183,6.167-10.207,8.854-15.686,6.003c-5.481-2.852-7.346-10.164-4.164-16.33
			c3.184-6.167,10.206-8.854,15.687-6.002C139.597,170.161,141.46,177.472,138.278,183.639z"/>
		<path fill="#385572" d="M122.727,191.207c-0.203-0.083-12.484-7.99-17.025,0.285c-7.403,13.493-6.967,56.932-4.628,62.557
			c2.162,5.207,7.563,9.046,11.349,11.21c3.368,1.923,7.137,3.102,11.016,3.132c3.838,0.031,11.197-3.38,10.931-8.396
			c-1.229-23.077,0.811-42.527,2.696-61.401C137.065,198.593,134.71,196.058,122.727,191.207z"/>
		<path fill="#D8892B" d="M115.901,275.954l-7.475,57.267c-0.121,1.549-0.861,2.98-2.054,3.771c-0.195,0.13-0.41,0.249-0.639,0.362
			c1.552-1.165,6.083-49.232,6.921-54.579C113.494,277.425,115.901,275.954,115.901,275.954z"/>
	</g>
	<polygon fill="#FFC2B0" points="162.002,193.755 168.675,171.896 165.149,170.436 157.283,187.564 	"/>
	<polygon fill="#FFC2B0" points="94.728,176.527 99.73,153.771 103.714,153.814 102.217,172.688 	"/>
	<path fill="#385572" d="M137.065,198.593c0,0,11.989,2.391,19.615-11.569c0.671-1.23,2.454-1.412,3.163-0.333
		c1.222,1.862,2.842,4.716,2.003,7.8c-3.713,13.644-23.87,16.659-27.49,24.572C130.737,226.979,137.065,198.593,137.065,198.593z"/>
	<path fill="#385572" d="M114.937,188.372c0,0-9.496,0.729-10.862-7.489c-0.703-4.232-0.915-6.76-0.955-8.216
		c-0.025-0.986-0.883-1.733-1.861-1.612c-2.274,0.282-5.795,0.961-6.272,2.484c-0.712,2.277-2.054,13.438,7.325,30.562
		C108.456,215.321,114.937,188.372,114.937,188.372z"/>
	<path fill="#FFC2B0" d="M99.711,153.827l0.09-2.595c0.032-0.915,0.3-1.809,0.776-2.591l2.63-4.321l0.686-0.864
		c0.633-0.798,1.766-0.992,2.628-0.45l0.605,0.381c0.771,0.485,1.215,1.354,1.157,2.263l-1.36,3.693l1.72-0.333
		c0.334-0.065,0.657,0.156,0.717,0.492l0,0c0.052,0.284-0.104,0.565-0.373,0.674l-2.81,1.133l-2.552,3.612L99.711,153.827z"/>
	<path fill="#FFC2B0" d="M168.771,172.012l0.797-2.471c0.281-0.873,0.332-1.802,0.15-2.701l-1.007-4.957l-0.351-1.046
		c-0.326-0.966-1.326-1.532-2.321-1.314l-0.698,0.151c-0.891,0.195-1.603,0.86-1.855,1.735l0.025,3.936l-1.505-0.899
		c-0.293-0.174-0.671-0.076-0.842,0.219l0,0c-0.145,0.25-0.094,0.568,0.122,0.761l2.257,2.02l1.319,4.792L168.771,172.012z"/>
	<path fill="#385572" d="M131.449,215.127c-1.093,4.986,1.974,43.685-8.01,53.264c3.838,0.031,11.196-3.381,10.931-8.396
		c-0.824-15.476-0.169-29.303,0.915-42.436c3.916-5.074,14.688-8.304,21.425-14.809C156.219,202.9,132.531,210.191,131.449,215.127z
		"/>
	<path fill="#FFFFFF" d="M118.312,189.025l1.706-1.751c0,0,2.804,2.865,5.058,3.363c0,0,2.713,0.769,4.037,0.834l1.098,3.027
		C130.211,194.499,121.278,193.859,118.312,189.025z"/>
	<path fill="#173D7A" d="M130.349,182.481c0.466,0.071,0.932-0.065,1.262-0.401c0.574-0.587,0.811-3.694,2.313-3.956
		c2.35-0.409,7.122,3.266,9.06-4.622c1.007-4.1-0.824-5.55-0.423-7.823c0,0-0.022,1.171-10.577-1.378
		c-10.556-2.549-15.662,6.335-16.691,10.807c-1.031,4.473-0.125,12.275,6.997,14.552c1.181,0.377,6.968-2.833,6.928-3.393
		c-0.038-0.559-1.962-0.859-1.416-2.371C128.256,182.637,129.13,182.295,130.349,182.481z"/>
</g>
<circle fill="#FFFFFF" cx="249.685" cy="34.224" r="1.371"/>
<g>
	<polygon fill="#E9ECEC" points="254.31,387.49 238.217,378.199 222.125,387.49 238.217,396.781 	"/>
	<polygon fill="#E8A200" points="238.217,388.163 238.217,377.693 257.444,366.593 257.444,377.063 	"/>
	<polygon fill="#F9BF30" points="238.217,377.693 218.99,366.593 218.99,377.063 238.217,388.163 	"/>
	<polygon fill="#FDD762" points="257.444,366.593 238.217,355.493 218.99,366.593 238.217,377.693 	"/>
</g>
<g>
	<polygon fill="#E9ECEC" points="102.77,128.167 86.678,118.877 70.585,128.167 86.678,137.459 	"/>
	<polygon fill="#D71419" points="86.678,128.841 86.678,118.372 105.904,107.271 105.904,117.741 	"/>
	<polygon fill="#D71419" points="86.678,118.372 67.452,107.271 67.452,117.741 86.678,128.841 	"/>
	<polygon fill="#ED1C24" points="105.904,107.271 86.678,96.171 67.452,107.271 86.678,118.372 	"/>
</g>
<path fill="#FFDC2D" d="M360.006,203.59c-4.718,0-8.556-3.837-8.556-8.555c0-4.718,3.838-8.556,8.556-8.556
	c4.717,0,8.556,3.838,8.556,8.556C368.562,199.752,364.723,203.59,360.006,203.59z M360.006,189.111
	c-3.266,0-5.923,2.657-5.923,5.924c0,3.266,2.657,5.922,5.923,5.922s5.923-2.656,5.923-5.922
	C365.929,191.769,363.271,189.111,360.006,189.111z"/>
<path fill="#ED1C24" d="M13.835,225.701l-5.809-11.814l11.813-5.807l5.808,11.813L13.835,225.701z M11.552,215.088l3.484,7.088
	l7.086-3.482l-3.484-7.088L11.552,215.088z"/>
<g>
	<path fill="#ED1C24" d="M198.265,332.732c-6.653,0-12.066-5.414-12.066-12.067s5.413-12.066,12.066-12.066
		s12.066,5.413,12.066,12.066S204.918,332.732,198.265,332.732z M198.265,311.231c-5.202,0-9.434,4.231-9.434,9.434
		s4.231,9.435,9.434,9.435s9.434-4.232,9.434-9.435S203.467,311.231,198.265,311.231z"/>
	<circle fill="#FDD762" cx="187.516" cy="328.618" r="8.721"/>
</g>
<g>
	<g>
		<polygon fill="#E9ECEC" points="370.027,364.531 350.246,353.11 330.466,364.531 350.246,375.951 		"/>
		<polygon fill="#721BD5" points="355.997,349.375 355.997,278.239 372.8,268.538 372.8,339.675 		"/>
		<polygon fill="#547189" points="355.997,278.239 339.197,268.538 339.197,339.675 355.997,349.375 		"/>
		<polygon fill="#385572" points="372.8,268.538 355.997,258.838 339.197,268.538 355.997,278.239 		"/>
	</g>
	<g>
		<polygon fill="#95D359" points="372.8,352.608 355.997,342.908 355.997,349.375 372.8,359.075 		"/>
	</g>
	<g>
		<polygon fill="#C13D1A" points="339.197,359.075 339.197,307.34 355.997,297.64 355.997,349.375 		"/>
		<polygon fill="#DB5126" points="339.197,307.34 322.395,297.64 322.395,349.375 339.197,359.075 		"/>
		<polygon fill="#EF602E" points="355.997,297.64 339.197,287.939 322.395,297.64 339.197,307.34 		"/>
		<polygon fill="#D71419" points="339.197,359.075 339.197,307.34 355.997,297.64 355.997,349.375 		"/>
		<polygon fill="#D71419" points="339.197,307.34 322.395,297.64 322.395,349.375 339.197,359.075 		"/>
		<polygon fill="#ED1C24" points="355.997,297.64 339.197,287.939 322.395,297.64 339.197,307.34 		"/>
	</g>
	<g>
		<polygon fill="#E8A200" points="355.997,368.775 355.997,339.675 372.8,329.975 372.8,359.075 		"/>
		<polygon fill="#F9BF30" points="355.997,339.675 339.197,329.975 339.197,359.075 355.997,368.775 		"/>
		<polygon fill="#FDD762" points="372.8,329.975 355.997,320.274 339.197,329.975 355.997,339.675 		"/>
	</g>
</g>
</svg>
