<?xml version="1.0" encoding="utf-8"?>
<!-- Generator: Adobe Illustrator 17.0.0, SVG Export Plug-In . SVG Version: 6.00 Build 0)  -->
<!DOCTYPE svg PUBLIC "-//W3C//DTD SVG 1.1//EN" "http://www.w3.org/Graphics/SVG/1.1/DTD/svg11.dtd">
<svg version="1.1" id="b1906fbd-debd-48f4-becc-050b3be1d47c"
	 xmlns="http://www.w3.org/2000/svg" xmlns:xlink="http://www.w3.org/1999/xlink" x="0px" y="0px" width="988.734px"
	 height="579.5px" viewBox="0 0 988.734 579.5" enable-background="new 0 0 988.734 579.5" xml:space="preserve">
<title>accept request</title>
<ellipse fill="#F2F2F2" cx="723.666" cy="556.002" rx="150.779" ry="23.498"/>
<ellipse fill="none" stroke="#3F3D56" stroke-miterlimit="10" cx="748.143" cy="547.19" rx="150.779" ry="23.498"/>
<linearGradient id="SVGID_1_" gradientUnits="userSpaceOnUse" x1="849.4115" y1="-170.9263" x2="849.4115" y2="383.2912" gradientTransform="matrix(1 0 0 -1 -97.483 395.41)">
	<stop  offset="0" style="stop-color:#808080;stop-opacity:0.25"/>
	<stop  offset="0.5351" style="stop-color:#808080;stop-opacity:0.12"/>
	<stop  offset="1" style="stop-color:#808080;stop-opacity:0.1"/>
</linearGradient>
<path fill="url(#SVGID_1_)" d="M822.176,119.689c-0.436-0.496-0.883-0.979-1.344-1.448c3.534-4.01,7.192-8.121,7.16-13.274
	c-0.04-6.262-5.596-11.067-7.671-16.987c-2.824-8.057,1.095-16.688,2.707-25.062c2.539-13.775-1.198-27.965-10.193-38.703
	c-1.633-1.929-3.528-3.795-5.957-4.56c-3.696-1.165-7.627,0.454-11.478,0.929c-12.712,1.57-24.277-9.383-37.049-8.403
	c-0.846,0.031-1.68,0.217-2.459,0.55c-1.653,0.79-2.549,2.534-3.57,4.038c-3.967,5.838-10.63,8.739-17.258,11.737
	c-0.833,0.245-1.626,0.608-2.355,1.08c-1.991,0.927-3.951,1.893-5.8,2.988c-12.515,7.407-10.7,17.771-3.321,24.173
	c-1.442,7.186-8.789,13.515-7.523,20.903c0.992,5.792,7.024,9.734,8.186,15.496c0.675,3.346-0.388,6.535-1.864,9.7
	c-14.005,3.241-29.825,9.21-31.06,19.743c-2.148,18.324-8.613,68.933-8.613,68.933s-7.49,40.549,20.971,21.38l-0.365,1.079
	c-5.129,15.527-8.63,31.545-10.446,47.796c-0.289,2.417-0.868,4.322-1.921,4.944c-0.382,0.226,0.373,0.583,2.017,1.03
	c-0.186,0.682-0.386,1.36-0.564,2.044c-3.127,11.851-5.126,23.971-5.969,36.199c-0.801,10.831-2.295,21.6-4.471,32.24
	c-6.741,33.914,0,77.412,0,77.412l14.71,69.258l2.517,11.84c1.662,1.838,3.694,3.304,5.962,4.303
	c0.985,4.243,1.668,8.55,2.044,12.89c0.04,0.483,0.072,0.972,0.103,1.462c-1.783,0.227-3.378,1.223-4.365,2.725
	c-5.243,7.373,0.749,13.271-19.473,28.016c-5.224,3.809-7.744,7.273-8.383,10.215l0,0v0c-0.688,3.167,0.806,5.729,3.474,7.464
	l0.006,0.003c0.454,0.294,0.927,0.558,1.415,0.791l0.023,0.011c0.247,0.118,0.501,0.231,0.76,0.337l0.003,0.001
	c0.26,0.107,0.527,0.207,0.799,0.302l0.047,0.016c0.256,0.088,0.516,0.171,0.781,0.249l0.057,0.017
	c0.275,0.08,0.555,0.153,0.839,0.221c0.024,0.006,0.049,0.011,0.073,0.017c0.261,0.061,0.525,0.117,0.793,0.169
	c0.035,0.007,0.069,0.014,0.104,0.02c0.286,0.053,0.575,0.101,0.868,0.143c0.032,0.004,0.064,0.008,0.096,0.013
	c0.262,0.036,0.526,0.067,0.792,0.094c0.051,0.005,0.101,0.011,0.152,0.015c0.292,0.027,0.586,0.049,0.882,0.065
	c0.038,0.002,0.076,0.003,0.114,0.005c0.262,0.013,0.525,0.02,0.79,0.023c0.062,0.001,0.124,0.002,0.186,0.002
	c0.296,0.001,0.592-0.002,0.89-0.012c0.039-0.001,0.078-0.004,0.117-0.005c0.263-0.01,0.527-0.026,0.791-0.045
	c0.07-0.005,0.14-0.01,0.21-0.016c0.297-0.025,0.594-0.054,0.891-0.091c0.035-0.004,0.071-0.01,0.106-0.014
	c0.266-0.034,0.532-0.073,0.798-0.117c0.074-0.012,0.148-0.024,0.222-0.037c0.295-0.052,0.59-0.107,0.884-0.171
	c0.028-0.006,0.056-0.013,0.085-0.02c0.269-0.059,0.536-0.125,0.802-0.194c0.075-0.02,0.151-0.039,0.226-0.06
	c0.291-0.079,0.581-0.163,0.868-0.255l0.048-0.016c0.273-0.088,0.544-0.184,0.814-0.283c0.073-0.027,0.145-0.054,0.217-0.082
	c0.284-0.109,0.565-0.221,0.844-0.343c13.482-5.898,41.194-21.38,41.194-21.38l0-0.141l0-0.094l-0.001-0.137l-0.001-0.123
	l-0.002-0.215l-0.002-0.192c-0.001-0.077-0.002-0.153-0.003-0.238l-0.003-0.226c-0.001-0.103-0.003-0.204-0.004-0.317
	c-0.001-0.076-0.003-0.161-0.004-0.241c-0.002-0.118-0.004-0.232-0.006-0.36c-0.004-0.204-0.008-0.419-0.013-0.644l0,0
	c-0.138-6.443-0.773-21.242-3.707-20.664c-0.999,0.197-1.679,1.601-2.38,3.218c-0.113-0.214-0.229-0.432-0.347-0.66
	c-2.855-5.505-6.984-14.954-7.386-24.189c2.303-1.669,4.436-3.561,6.368-5.648c0,0-1.505-6.34-2.786-13.027
	c-1.109-5.795-2.052-11.855-1.708-14.251c0.749-5.161-8.988-44.973-8.988-44.973s1.004-8.759,3.018-20.931
	c3.917-23.659,11.632-60.219,23.143-70.555c0.27-0.236,0.532-0.464,0.801-0.671c0,0,8.239,1.475,14.979,47.922l1.955,20.687
	c0.56,5.729,1.531,11.411,2.906,17.001c2.01,8.914,2.644,18.084,1.88,27.19c-0.854,12.194-1.221,26.549-1.378,36.627
	c-0.12,7.594-0.12,12.769-0.12,12.769c1.394,1.178,2.899,2.218,4.494,3.105v6.765c-0.016,1.436-0.58,2.811-1.577,3.844l-0.026,0.028
	c-1.062,1.195-1.836,2.619-2.261,4.16c-1.307,2.353-2.414,6.176-2.877,12.325c-1.498,19.906-2.247,17.694-2.247,17.694
	c-0.86,2.153-1.431,4.41-1.698,6.712l0,0v0.001c-0.042,0.43-0.069,0.864-0.077,1.298c-0.001,0.068-0.001,0.136-0.001,0.204
	c-0.001,0.199,0.003,0.397,0.011,0.595c0.004,0.097,0.009,0.194,0.016,0.291c0.01,0.147,0.022,0.293,0.037,0.438
	c0.014,0.132,0.03,0.264,0.048,0.395c0.013,0.093,0.027,0.186,0.043,0.279c0.03,0.177,0.066,0.351,0.107,0.524
	c0.018,0.077,0.038,0.153,0.059,0.23c0.048,0.18,0.1,0.359,0.16,0.533c0.019,0.055,0.041,0.108,0.061,0.162
	c0.059,0.159,0.124,0.315,0.195,0.469c0.021,0.046,0.041,0.094,0.063,0.139c0.087,0.178,0.185,0.35,0.29,0.518
	c0.029,0.047,0.058,0.093,0.088,0.139c0.111,0.168,0.23,0.33,0.359,0.485c0.03,0.036,0.062,0.071,0.093,0.107
	c0.141,0.163,0.292,0.318,0.451,0.463c0.017,0.015,0.035,0.029,0.052,0.044c0.164,0.143,0.337,0.277,0.518,0.4
	c0.028,0.019,0.054,0.04,0.083,0.059c0.198,0.129,0.404,0.247,0.616,0.352c0.042,0.021,0.084,0.042,0.127,0.062
	c0.229,0.108,0.464,0.204,0.703,0.286c0.041,0.014,0.084,0.027,0.126,0.04c0.273,0.089,0.552,0.164,0.833,0.224l0.03,0.005
	c0.292,0.06,0.602,0.106,0.924,0.142c0.045,0.005,0.087,0.011,0.133,0.016c0.32,0.031,0.657,0.049,1.008,0.055
	c0.065,0.001,0.131,0.002,0.197,0.002c0.356,0.001,0.726-0.01,1.113-0.035c0.06-0.004,0.123-0.01,0.184-0.015
	c0.412-0.032,0.838-0.074,1.288-0.137c15.728-2.212,23.218-3.686,22.469-12.533c-0.451-5.332-1.719-13.075-2.655-18.386
	c-0.475-2.699-1.348-5.312-2.591-7.753c0.039-0.414,0.075-0.841,0.108-1.279c0.27-3.657,0.255-8.007-0.854-10.919l0.345-6.455
	c3.902-0.991,7.428-3.104,10.141-6.078c0,0,0.112-4.785,0.442-11.125c0.494-9.798,1.483-23.319,3.303-28.687
	c2.996-8.847,0-39.812,0-39.812s-11.235-53.082-0.749-75.937c9.251-20.16,9.169-40.328,0.272-59.984
	c0.176-0.139,0.336-0.297,0.477-0.471c0,0-2.247-1.475-1.498-18.431c0.572-12.941-3.217-26.303-5.044-31.91
	c2.864,1.227,5.799,2.281,8.789,3.157c17.226,5.161,18.724-14.008,18.724-14.008l3.745-28.753l4.442-42.858l0-0.002
	C829.18,137.928,830.813,129.529,822.176,119.689z M746.036,91.281c-0.021,0.474-0.053,0.949-0.101,1.42
	c-0.139,1.525-0.462,3.028-0.96,4.476c0.512-1.957,0.823-3.961,0.929-5.98C745.948,91.226,745.992,91.253,746.036,91.281
	L746.036,91.281z M791.315,195.946c0.266,0.487,0.519,0.961,0.762,1.426l-1.892-0.966c0.701-3.477,1.835-6.851,3.377-10.045
	c1.861-3.717,3.393-7.589,4.578-11.574c-0.053,4.604,0.169,9.208,0.665,13.785C800.303,200.37,791.315,195.946,791.315,195.946z"/>
<path fill="#3F3D56" d="M727.803,35.653c-2.394,1.633-4.897,3.52-5.749,6.29c-1.374,4.467,2.075,8.953,2.416,13.614
	c0.62,8.476-8.965,15.481-7.552,23.862c0.969,5.744,6.857,9.654,7.991,15.368c1.654,8.333-7.378,15.682-6.668,24.148
	c0.379,4.51,3.515,8.339,7.074,11.134c4.996,3.909,10.974,6.363,17.276,7.089c-0.419-7.249-5.796-13.845-4.873-21.047
	c0.633-4.939,4.107-8.977,6.118-13.533c3.53-7.998,2.4-17.255,0.283-25.737s-5.174-16.867-5.327-25.607
	c-0.093-5.261,2.376-12.995,0.565-17.987C737.155,27.177,731.905,32.856,727.803,35.653z"/>
<path opacity="0.1" enable-background="new    " d="M727.803,35.855c-2.394,1.633-4.897,3.52-5.749,6.29
	c-1.374,4.467,2.075,8.953,2.416,13.614c0.62,8.476-8.965,15.481-7.552,23.862c0.969,5.744,6.857,9.654,7.991,15.368
	c1.654,8.333-7.378,15.682-6.668,24.148c0.379,4.51,3.515,8.339,7.074,11.134c4.996,3.909,10.974,6.362,17.276,7.089
	c-0.419-7.249-5.796-13.845-4.873-21.047c0.633-4.939,4.107-8.977,6.118-13.533c3.53-7.998,2.4-17.255,0.283-25.737
	s-5.174-16.867-5.328-25.607c-0.093-5.261,2.376-12.995,0.565-17.987C737.155,27.379,731.905,33.058,727.803,35.855z"/>
<path fill="#FFB9B9" d="M734.81,525.026l-6.581,6.58c0,0-23.397,12.43-20.472-4.387c0.8-4.999,0.969-10.079,0.504-15.12
	c-0.604-7.037-2-13.982-4.16-20.706l21.935-4.387c-3.648,11.465,2.362,25.898,6.112,33.246
	C733.663,523.213,734.81,525.026,734.81,525.026z"/>
<path fill="#FFB9B9" d="M784.632,511.726c-0.164,2.252-0.442,4.495-0.834,6.719c0,0-18.279,12.43-19.741-1.462
	c-0.951-9.052,1.199-13.139,2.822-14.886l0.026-0.028c0.975-1.031,1.525-2.393,1.539-3.813v-16.369l16.085,5.118l-0.731,13.892
	C784.88,503.786,784.895,508.1,784.632,511.726z"/>
<path opacity="0.05" enable-background="new    " d="M734.81,525.026l-6.581,6.58c0,0-23.397,12.43-20.472-4.387
	c0.8-4.999,0.969-10.079,0.504-15.12c5.125-0.753,11.194,4.884,11.194,4.884c8.569,12.093,10.88,7.516,12.693,3.268
	C733.663,523.213,734.81,525.026,734.81,525.026z"/>
<path fill="#3F3D56" d="M719.456,518.445c0,0-10.236-9.505-15.354-2.193c-5.118,7.312,0.731,13.161-19.01,27.784
	c-19.741,14.623,0,24.128,13.161,18.279s40.214-21.204,40.214-21.204s0-24.128-3.656-23.397
	C731.155,518.445,731.886,535.993,719.456,518.445z"/>
<path opacity="0.05" enable-background="new    " d="M784.632,511.726c-0.164,2.252-0.442,4.495-0.834,6.719
	c0,0-18.279,12.43-19.741-1.462c-0.951-9.052,1.199-13.139,2.822-14.886c1.294-0.977,3.022-1.157,4.489-0.468
	c2.925-1.301,6.142,0.87,8.803,3.678C781.975,507.208,783.479,509.372,784.632,511.726z"/>
<path fill="#3F3D56" d="M771.368,503.091c0,0-8.043-4.387-9.505,15.354c-1.462,19.741-2.193,17.548-2.193,17.548
	s-7.312,17.548,8.043,15.354c15.354-2.193,22.666-3.656,21.935-12.43c-0.441-5.288-1.678-12.967-2.592-18.234
	c-0.871-5.217-3.265-10.059-6.881-13.918C777.506,503.958,774.293,501.791,771.368,503.091z"/>
<path fill="#3F3D56" d="M797.69,409.503c0,0,2.925,30.709,0,39.482c-1.777,5.323-2.742,18.732-3.224,28.449
	c-0.322,6.288-0.431,11.033-0.431,11.033c-13.892,14.623-29.977,0-29.977,0s0-5.133,0.117-12.664
	c0.154-9.995,0.512-24.231,1.345-36.324c0.747-9.03,0.128-18.12-1.835-26.965c-1.343-5.546-2.291-11.18-2.837-16.861l-1.908-20.516
	c-6.58-46.063-14.623-47.525-14.623-47.525c-0.263,0.205-0.519,0.431-0.782,0.665c-11.238,10.251-18.769,46.509-22.593,69.972
	c-1.967,12.071-2.947,20.758-2.947,20.758s9.505,39.482,8.774,44.601c-0.336,2.376,0.585,8.386,1.667,14.133
	c1.25,6.632,2.72,12.92,2.72,12.92c-18.279,19.741-30.709,4.387-30.709,4.387l-2.457-11.742l-14.36-68.685c0,0-6.58-43.138,0-76.772
	c2.125-10.556,3.583-21.235,4.365-31.974c0.822-12.122,2.773-24.14,5.827-35.9c0.892-3.48,1.881-6.934,2.969-10.36
	c1.63-5.14,27.455-4.774,53.309-4.774c19.39,0,37.874,2.683,43.204,12.086c1.228,2.164,2.345,4.333,3.349,6.507
	c9.256,19.895,9.534,40.331,0.307,60.759C786.723,356.86,797.69,409.503,797.69,409.503z"/>
<path fill="#FFB9B9" d="M736.273,144.093c0,0-38.751-39.483-9.505-36.558c6.632,0.665,11.121-0.519,14.097-2.742
	c3.393-2.53,4.818-6.405,5.213-10.448c0.804-8.065-2.493-16.787-2.493-16.787s39.482-31.44,31.44,8.043
	c-0.883,4.012-1.397,8.097-1.535,12.203c-0.132,8.379,2.625,11.589,6.493,12.905c6.522,2.23,16.217-0.892,20.633,6.332
	C808.657,130.201,736.273,144.093,736.273,144.093z"/>
<path opacity="0.1" enable-background="new    " d="M736.273,144.093c0,0-38.751-39.483-9.505-36.558
	c6.632,0.665,11.121-0.519,14.097-2.742c3.393-2.53,4.818-6.405,5.213-10.448c0.804-8.065-2.493-16.787-2.493-16.787
	s39.482-31.44,31.44,8.043c-0.883,4.012-1.397,8.097-1.535,12.203c-0.132,8.379,2.625,11.589,6.493,12.905
	c6.522,2.23,16.217-0.892,20.633,6.332C808.657,130.201,736.273,144.093,736.273,144.093z"/>
<path fill="#FFB9B9" d="M794.765,66.59c-0.014,17.364-14.102,31.428-31.465,31.414c-17.344-0.014-31.4-14.07-31.414-31.414
	c0-0.585,0.015-1.17,0.051-1.747c0.964-17.336,15.8-30.608,33.136-29.644C781.732,36.125,794.766,49.905,794.765,66.59
	L794.765,66.59z"/>
<path opacity="0.05" enable-background="new    " d="M736.273,144.093c0,0-38.751-39.483-9.505-36.558
	c6.632,0.665,11.121-0.519,14.097-2.742c-5.659,9.388-12.028,26.27,16.612,24.677c26.212-1.455,25.766-11.903,22.505-18.762
	c6.522,2.23,16.217-0.892,20.633,6.332C808.657,130.201,736.273,144.093,736.273,144.093z"/>
<path opacity="0.1" enable-background="new    " d="M797.69,276.432c-6.654,8.65-91.468-2.691-103.868-6.456
	c0.892-3.48,1.881-6.934,2.969-10.36c1.63-5.14,27.455-4.774,53.309-4.774c19.39,0,37.874,2.683,43.204,12.086
	c1.228,2.164,2.345,4.333,3.349,6.507C797.12,276.052,797.69,276.432,797.69,276.432z"/>
<path fill="#EDA000" d="M744.315,100.954c0,0-49.353,4.021-51.547,23.031c-2.097,18.173-8.408,68.363-8.408,68.363
	s-7.312,40.214,20.472,21.204l-0.357,1.07c-5.01,15.41-8.427,31.294-10.198,47.401c-0.282,2.397-0.847,4.286-1.875,4.903
	c-3.656,2.193,97.975,16.817,105.287,7.312c0,0-2.193-1.462-1.462-18.279s-5.849-34.364-5.849-34.364s-5.849-17.548,2.193-34.364
	s5.118-21.935,5.118-21.935l27.784-21.204c0,0,6-10.286-4.969-22.983c-6.652-7.586-16.047-12.215-26.114-12.867l-19.164-1.363
	c0,0,21.001,22.59-18.481,24.784C717.263,133.857,744.315,100.954,744.315,100.954z"/>
<path opacity="0.05" enable-background="new    " d="M711.413,141.168c0,0,1.462,11.699-1.462,15.354
	c-2.925,3.656-3.656,20.472,0,30.709"/>
<path opacity="0.1" enable-background="new    " d="M743.533,328.279c-11.238,10.251-18.769,46.509-22.593,69.972
	c-5.323-32.661,16.795-86.723,16.795-86.723L743.533,328.279z"/>
<path opacity="0.1" enable-background="new    " d="M731.155,490.661c-18.279,19.741-30.709,4.387-30.709,4.387l-2.457-11.742
	c6.909,3.59,18.586,6.376,30.445-5.564C729.685,484.373,731.155,490.661,731.155,490.661z"/>
<path opacity="0.1" enable-background="new    " d="M794.466,477.435c-0.322,6.288-0.431,11.033-0.431,11.033
	c-13.892,14.623-29.977,0-29.977,0s0-5.133,0.117-12.664C770.206,479.636,781.049,483.854,794.466,477.435z"/>
<path fill="#CDD0DB" d="M718.741,166.027h42.376c2.028,0,3.672,1.644,3.672,3.672v13.129c0,2.028-1.644,3.672-3.672,3.672h-42.376
	c-2.028,0-3.672-1.644-3.672-3.672v-13.129C715.069,167.671,716.713,166.027,718.741,166.027z"/>
<path opacity="0.05" enable-background="new    " d="M718.741,166.027h42.376c2.028,0,3.672,1.644,3.672,3.672v13.129
	c0,2.028-1.644,3.672-3.672,3.672h-42.376c-2.028,0-3.672-1.644-3.672-3.672v-13.129
	C715.069,167.671,716.713,166.027,718.741,166.027z"/>
<path fill="#3F3D56" d="M718.741,166.759h42.376c2.028,0,3.672,1.644,3.672,3.672v13.129c0,2.028-1.644,3.672-3.672,3.672h-42.376
	c-2.028,0-3.672-1.644-3.672-3.672V170.43C715.069,168.402,716.713,166.759,718.741,166.759z"/>
<circle fill="#9DA7C0" cx="754.186" cy="176.629" r="2.193"/>
<path opacity="0.05" enable-background="new    " d="M693.909,198.447c1.335-3.977,4.358-7.162,8.26-8.702
	c3.087-1.145,5.622-3.421,7.092-6.367c2.884-6.383,8.002-12.963,21.163-8.576c13.161,4.387-3.656,7.312-3.656,7.312
	s29.977-4.387,18.279,4.387c-11.698,8.774-26.322,13.892-26.322,13.892l-7.2,7.624c-4.039,4.36-10.848,4.62-15.208,0.581
	c-0.306-0.283-0.594-0.584-0.865-0.9C693.309,205.116,692.72,201.583,693.909,198.447z"/>
<path fill="#FFB9B9" d="M693.178,196.985c1.335-3.977,4.358-7.162,8.26-8.702c3.087-1.145,5.622-3.421,7.092-6.367
	c2.884-6.383,8.002-12.963,21.163-8.576c13.161,4.387-3.656,7.312-3.656,7.312s29.977-4.387,18.279,4.387
	c-11.698,8.774-26.322,13.892-26.322,13.892l-7.2,7.624c-4.039,4.36-10.848,4.62-15.208,0.581c-0.306-0.283-0.594-0.584-0.865-0.9
	C692.578,203.654,691.988,200.121,693.178,196.985z"/>
<path opacity="0.05" enable-background="new    " d="M796.228,212.09l-5.118,12.43l-6.551-4.818l-18.308-13.461l-12.43-8.043
	c-17.548-13.161,0-15.354,0-15.354c-6.58-2.925,0-5.849,0-5.849c23.397-5.118,19.01,13.892,19.01,13.892l14.821,7.684l4.921,2.552
	L796.228,212.09z"/>
<path fill="#FFB9B9" d="M797.69,210.628l-5.118,12.43l-6.551-4.818l-18.308-13.461l-12.43-8.043c-17.548-13.161,0-15.354,0-15.354
	c-6.58-2.925,0-5.849,0-5.849c23.397-5.118,19.01,13.892,19.01,13.892l14.821,7.684l4.921,2.552L797.69,210.628z"/>
<path opacity="0.05" enable-background="new    " d="M797.69,210.628l-5.118,12.43l-6.551-4.818
	c5.93,0.212,12.934-2.654,3.093-21.13l4.921,2.552L797.69,210.628z"/>
<path fill="#EDA000" d="M824.743,136.781l1.411,5.752l-4.336,42.504l-3.656,28.515c0,0-1.462,19.01-18.279,13.892
	c-16.817-5.118-18.279-10.236-18.279-10.236s24.128,8.043,8.774-20.472c0,0,8.774,4.387,7.312-7.312s0-32.171,0-32.171
	L824.743,136.781z"/>
<path opacity="0.05" enable-background="new    " d="M794.765,66.59c0,14.685-10.165,27.415-24.486,30.665
	c-1.053-3.042-1.799-6.069-1.031-9.147c1.484-5.974,8.379-10.331,7.611-16.436c-0.065-0.687-0.304-1.347-0.695-1.916
	c-1.543-2.033-4.687-1.024-7.187-0.519c-6.739,1.117-13.268-2.909-15.296-9.432c-5.726,5.632-14.126,7.578-21.745,5.038
	c0.964-17.336,15.8-30.608,33.136-29.644C781.732,36.125,794.766,49.905,794.765,66.59L794.765,66.59z"/>
<path fill="#3F3D56" d="M754.416,58.345c2.025,6.521,8.553,10.547,15.289,9.428c2.503-0.5,5.646-1.509,7.188,0.524
	c0.394,0.565,0.633,1.223,0.694,1.909c0.773,6.109-6.122,10.464-7.607,16.44c-1.529,6.154,2.954,12.098,3.909,18.367
	c0.522,3.429-0.03,6.923,0.009,10.391s0.818,7.195,3.39,9.523s7.324,2.352,9.047-0.659c8.227,4.347,4.942,17.822,11.189,24.719
	c3.446,3.804,9.114,4.718,14.223,4.231c1.197-0.018,2.361-0.394,3.343-1.079c0.846-0.833,1.417-1.906,1.635-3.074
	c1.289-4.881,1.068-10.038-0.637-14.789c-0.82-2.271-1.996-4.568-1.691-6.963c0.372-1.858,1.25-3.578,2.536-4.969
	c3.928-4.87,9.289-9.578,9.25-15.834c-0.039-6.211-5.462-10.975-7.488-16.846c-2.757-7.99,1.069-16.55,2.643-24.855
	c2.486-13.635-1.153-27.673-9.95-38.383c-1.594-1.913-3.444-3.763-5.815-4.523c-3.608-1.155-7.446,0.45-11.205,0.922
	c-12.409,1.557-23.699-9.306-36.168-8.333c-0.827,0.031-1.641,0.216-2.4,0.546c-1.613,0.784-2.488,2.513-3.485,4.004
	c-5.504,8.228-16.325,10.573-24.809,15.674C702.728,49.613,735.468,76.581,754.416,58.345z"/>
<path opacity="0.3" fill="#FFFFFF" enable-background="new    " d="M698.253,559.39c-8.544,3.798-19.858,1.122-21.345-5.223
	c-1.791,8.377,11.584,12.486,21.345,8.148c13.161-5.849,40.214-21.204,40.214-21.204s0-1.136-0.037-2.904
	C737.641,538.655,711.217,553.628,698.253,559.39z"/>
<path opacity="0.3" fill="#FFFFFF" enable-background="new    " d="M789.609,538.497c-0.843,6.578-8.139,7.96-21.897,9.926
	c-6.997,1-9.281-2.102-9.701-5.773c-0.457,4.701,0.878,9.958,9.701,8.697c15.354-2.193,22.666-3.656,21.935-12.43
	C789.636,538.781,789.622,538.637,789.609,538.497z"/>
<g opacity="0.1">
	<path d="M814.671,149.996c-5.109,0.487-10.777-0.427-14.223-4.231c-6.247-6.896-2.962-20.371-11.189-24.719
		c-1.723,3.011-6.476,2.987-9.047,0.659c-2.571-2.328-3.35-6.055-3.39-9.523c-0.039-3.469,0.513-6.962-0.009-10.391
		c-0.954-6.269-5.438-12.213-3.909-18.367c1.485-5.976,8.381-10.331,7.607-16.44c-0.061-0.686-0.3-1.344-0.694-1.909
		c-1.543-2.033-4.686-1.023-7.188-0.524c-6.736,1.119-13.264-2.907-15.289-9.428c-16.937,16.301-44.889-3.516-32.936-18.547
		c-18.651,15.158,11.948,38.856,30.012,21.471c2.025,6.521,8.553,10.547,15.289,9.428c2.503-0.5,5.646-1.509,7.188,0.524
		c0.394,0.565,0.633,1.223,0.694,1.909c0.773,6.109-6.122,10.464-7.607,16.44c-1.529,6.154,2.954,12.098,3.909,18.367
		c0.522,3.429-0.03,6.923,0.009,10.391c0.039,3.469,0.818,7.195,3.39,9.523c2.571,2.328,7.324,2.352,9.047-0.659
		c8.227,4.347,4.942,17.822,11.189,24.719c3.446,3.804,9.114,4.718,14.223,4.231c1.197-0.018,2.362-0.394,3.343-1.079
		c0.635-0.579,1.101-1.318,1.35-2.141C815.859,149.851,815.268,149.95,814.671,149.996z"/>
	<path d="M755.237,15.819c0.251-0.375,0.495-0.766,0.744-1.153c-0.061,0.026-0.124,0.044-0.183,0.073
		c-1.613,0.784-2.488,2.513-3.485,4.004c-0.343,0.513-0.706,1.003-1.089,1.472C752.764,18.949,754.115,17.468,755.237,15.819z"/>
</g>
<path opacity="0.1" enable-background="new    " d="M715.069,220.356c0,0-1.892,6.58,10.538,9.505
	C738.037,232.785,715.069,220.356,715.069,220.356z"/>
<path opacity="0.1" enable-background="new    " d="M709.627,239.853c0,0-6.345,4.631,8.96,12.673
	C733.893,260.569,709.627,239.853,709.627,239.853z"/>
<path opacity="0.1" enable-background="new    " d="M695.386,317.112c0,0,17.226-4.874,19.581-12.186
	C717.32,297.615,695.386,317.112,695.386,317.112z"/>
<path opacity="0.1" enable-background="new    " d="M695.386,409.726c0,0,7.421,3.656,12.119,3.168
	C712.202,412.407,695.386,409.726,695.386,409.726z"/>
<path opacity="0.1" enable-background="new    " d="M697.989,419.962c0,0,3.355,1.706,9.515,1.95
	C713.665,422.155,697.989,419.962,697.989,419.962z"/>
<path fill="#57B894" d="M824.011,448.009c7.892,2.869,16.615-1.203,19.484-9.094c2.869-7.892-1.203-16.615-9.094-19.484
	c-2.679-0.974-5.577-1.175-8.365-0.581l0.381,7.826l-3.702-6.707c-3.634,1.707-6.441,4.788-7.805,8.564
	c-0.484,1.323-0.779,2.707-0.875,4.113C813.555,439.42,817.627,445.691,824.011,448.009z"/>
<path fill="none" stroke="#3F3D56" stroke-miterlimit="10" d="M842.331,538.771c-1.307-6.655,4.356-12.555,9.95-16.39
	c5.594-3.835,12.13-7.603,14.039-14.111c2.743-9.354-5.428-17.92-11.788-25.307c-4.718-5.482-8.77-11.504-12.071-17.94
	c-1.435-2.528-2.412-5.289-2.887-8.157c-0.501-4.146,0.831-8.272,2.172-12.227c4.47-13.175,9.25-26.239,14.339-39.193"/>
<path fill="none" stroke="#3F3D56" stroke-miterlimit="10" d="M824.638,445.994c7.892,2.869,16.615-1.203,19.484-9.094
	c2.869-7.892-1.203-16.615-9.094-19.484c-2.679-0.974-5.577-1.175-8.365-0.581l0.381,7.826l-3.702-6.707
	c-3.634,1.707-6.441,4.788-7.805,8.564c-0.484,1.323-0.779,2.707-0.875,4.113C814.181,437.405,818.253,443.676,824.638,445.994z"/>
<path fill="#57B894" d="M840.473,402.744c1.765-4.87,5.89-8.504,10.943-9.641l1.252,7.439l2.321-7.813
	c8.395,0.125,15.1,7.031,14.975,15.426c-0.125,8.395-7.031,15.1-15.426,14.975c-8.395-0.125-15.1-7.031-14.975-15.426
	C839.588,406.012,839.895,404.335,840.473,402.744L840.473,402.744z"/>
<path fill="none" stroke="#3F3D56" stroke-miterlimit="10" d="M841.307,400.058c1.765-4.87,5.89-8.504,10.943-9.641l1.252,7.439
	l2.321-7.813c8.395,0.125,15.1,7.031,14.975,15.426c-0.125,8.395-7.031,15.1-15.426,14.975c-8.395-0.125-15.1-7.031-14.975-15.426
	C840.423,403.325,840.73,401.649,841.307,400.058L841.307,400.058z"/>
<path fill="#57B894" d="M851.864,483.114c7.893,2.863,16.612-1.214,19.475-9.107c2.413-6.652-0.083-14.089-6.019-17.939
	l-1.783,6.004l-1.265-7.527c-0.013-0.006-0.025-0.011-0.039-0.015c-7.889-2.875-16.615,1.189-19.49,9.078
	c-2.875,7.889,1.189,16.615,9.078,19.49C851.835,483.103,851.849,483.108,851.864,483.114L851.864,483.114z"/>
<path fill="none" stroke="#3F3D56" stroke-miterlimit="10" d="M852.587,480.393c7.893,2.863,16.612-1.214,19.475-9.107
	c2.413-6.652-0.083-14.089-6.019-17.939l-1.783,6.004l-1.265-7.527c-0.013-0.006-0.025-0.011-0.039-0.015
	c-7.889-2.875-16.615,1.189-19.49,9.078c-2.875,7.889,1.189,16.615,9.078,19.49C852.558,480.382,852.573,480.387,852.587,480.393
	L852.587,480.393z"/>
<path fill="#57B894" d="M836.036,508.363c1.453,8.266,9.331,13.789,17.597,12.336c8.266-1.453,13.789-9.331,12.336-17.597
	c-1.453-8.266-9.331-13.789-17.597-12.336c-3.736,0.656-7.091,2.687-9.406,5.691l6.774,10.196l-9.256-5.412
	C835.766,503.545,835.613,505.987,836.036,508.363z"/>
<path fill="none" stroke="#3F3D56" stroke-miterlimit="10" d="M836.662,506.348c1.453,8.266,9.331,13.789,17.597,12.336
	c8.266-1.453,13.789-9.331,12.336-17.597c-1.453-8.266-9.331-13.789-17.597-12.336c-3.736,0.657-7.091,2.687-9.406,5.691
	l6.774,10.196l-9.256-5.412C836.392,501.53,836.239,503.972,836.662,506.348z"/>
<path fill="#656380" d="M821.222,547.786c0,0,13.416-5.258,17.46-8.137c4.043-2.879,20.638-6.317,21.641-1.7
	c1.003,4.618,20.162,22.966,5.015,23.088c-15.147,0.122-35.195,2.485-39.231,0.027C822.072,558.607,821.222,547.786,821.222,547.786
	z"/>
<path opacity="0.2" enable-background="new    " d="M865.608,559.43c-15.147,0.122-35.195,2.485-39.231,0.027
	c-3.073-1.872-4.298-8.59-4.708-11.689c-0.284,0.012-0.448,0.017-0.448,0.017s0.85,10.82,4.885,13.279
	c4.036,2.458,24.084,0.095,39.231-0.027c4.372-0.035,5.883-1.591,5.8-3.895C870.53,558.535,868.863,559.404,865.608,559.43z"/>
<g>
	<g>
		<g>
			<path fill="#E9ECEC" d="M607.456,161.464c-0.032-0.346-0.101-0.689-0.206-1.022c-0.069-0.297-0.165-0.586-0.287-0.866
				c-0.14-0.273-0.31-0.531-0.503-0.77c-0.194-0.284-0.419-0.545-0.67-0.781c-0.081-0.07-0.116-0.166-0.201-0.236l-48.412-37.598
				V81.223c0-8.34-6.761-15.101-15.101-15.101h-54.553L465.68,49.163c-5.396-4.208-12.963-4.208-18.359,0l-21.847,16.959h-54.554
				c-8.34,0-15.101,6.761-15.101,15.101v38.968l-48.395,37.598c-0.085,0.07-0.12,0.166-0.201,0.236
				c-0.25,0.235-0.476,0.497-0.67,0.781c-0.194,0.239-0.361,0.497-0.503,0.77c-0.122,0.279-0.218,0.569-0.287,0.866
				c-0.105,0.328-0.174,0.665-0.206,1.007c0,0.105-0.059,0.197-0.059,0.302v171.168c0.008,3.201,1.043,6.317,2.954,8.884
				c0.03,0.046,0.035,0.101,0.07,0.14c0.035,0.04,0.111,0.085,0.162,0.14c2.828,3.722,7.227,5.915,11.9,5.935h271.833
				c4.692-0.014,9.109-2.219,11.941-5.961c0.04-0.05,0.101-0.066,0.136-0.116c0.035-0.05,0.04-0.096,0.07-0.14
				c1.911-2.568,2.948-5.683,2.954-8.884V161.766C607.515,161.661,607.46,161.571,607.456,161.464z M453.476,57.105
				c1.759-1.397,4.248-1.397,6.005,0l11.613,9.016h-29.197L453.476,57.105z M321.849,337.956l131.629-102.245
				c1.759-1.394,4.246-1.394,6.005,0l131.662,102.245L321.849,337.956L321.849,337.956z M597.449,330.107L465.68,227.766
				c-5.398-4.205-12.961-4.205-18.359,0L315.547,330.107V169.433l82.492,64.058c2.198,1.704,5.361,1.304,7.065-0.894
				c1.704-2.198,1.304-5.361-0.894-7.065l-83.805-65.074l35.414-27.521v38.898c0,2.78,2.254,5.033,5.033,5.033
				c2.78,0,5.033-2.254,5.033-5.033V81.223c0-2.78,2.253-5.033,5.033-5.033h171.155c2.78,0,5.033,2.253,5.033,5.033v90.611
				c0,2.78,2.253,5.033,5.033,5.033c2.781,0,5.033-2.254,5.033-5.033v-38.898l35.414,27.521l-83.951,65.19
				c-1.444,1.094-2.189,2.881-1.949,4.676c0.239,1.795,1.426,3.325,3.107,4.004c1.681,0.677,3.596,0.401,5.015-0.728l82.637-64.168
				L597.449,330.107L597.449,330.107z"/>
			<path fill="#E9ECEC" d="M516.904,166.801v-20.136c0-33.363-27.045-60.408-60.408-60.408c-33.363,0-60.408,27.045-60.408,60.408
				s27.045,60.408,60.408,60.408c2.78,0,5.033-2.253,5.033-5.033c0-2.78-2.253-5.033-5.033-5.033
				c-27.802,0-50.34-22.538-50.34-50.34s22.538-50.34,50.34-50.34s50.34,22.538,50.34,50.34v20.136
				c0,5.561-4.507,10.068-10.068,10.068s-10.068-4.507-10.068-10.068v-20.136c0-2.78-2.253-5.033-5.033-5.033
				s-5.033,2.253-5.033,5.033c0,11.12-9.016,20.136-20.136,20.136c-11.12,0-20.136-9.016-20.136-20.136s9.016-20.136,20.136-20.136
				c2.78,0,5.033-2.253,5.033-5.033c0-2.78-2.253-5.033-5.033-5.033c-13.518-0.03-25.41,8.926-29.115,21.927
				c-3.705,13.001,1.679,26.879,13.183,33.981c11.503,7.1,26.324,5.692,36.284-3.447c1.097,10.646,10.349,18.56,21.036,17.996
				C508.572,186.35,516.938,177.503,516.904,166.801z"/>
		</g>
	</g>
</g>
<g opacity="0.3">
	<path fill="#EDA000" d="M311.83,447.151c-10.146,5.403-22.75,1.557-28.153-8.588c-5.403-10.146-1.558-22.75,8.588-28.153
		c3.444-1.834,7.334-2.663,11.226-2.392l0.986,10.679l3.731-9.8c5.253,1.617,9.648,5.253,12.221,10.109
		c0.91,1.7,1.575,3.52,1.974,5.406C324.354,433.503,320.038,442.785,311.83,447.151z"/>
	<path fill="none" stroke="#3F3D56" stroke-miterlimit="10" d="M304.414,573.682c0.495-9.271-8.313-16.181-16.631-20.306
		s-17.9-7.978-21.735-16.433c-5.513-12.151,3.919-25.329,11.121-36.561c5.343-8.335,9.68-17.275,12.919-26.631
		c1.298-3.751,2.429-7.641,2.348-11.61c-0.116-5.716-2.713-11.052-5.29-16.155c-8.587-16.999-17.572-33.789-26.954-50.369"/>
	<path fill="none" stroke="#3F3D56" stroke-miterlimit="10" d="M310.595,444.54c-10.146,5.403-22.75,1.557-28.153-8.588
		c-5.403-10.146-1.557-22.75,8.588-28.153c3.444-1.834,7.334-2.663,11.226-2.392l0.986,10.68l3.731-9.8
		c5.253,1.617,9.648,5.253,12.221,10.109c0.91,1.7,1.575,3.52,1.974,5.406C323.119,430.893,318.803,440.174,310.595,444.54z"/>
	<path fill="#EDA000" d="M280.834,388.959c-3.326-6.262-9.615-10.396-16.682-10.968l-0.269,10.323l-4.645-10.145
		c-11.354,1.779-19.117,12.427-17.337,23.781c1.779,11.354,12.427,19.117,23.781,17.337c11.354-1.779,19.117-12.427,17.337-23.781
		C282.661,393.218,281.922,391.005,280.834,388.959L280.834,388.959z"/>
	<path fill="none" stroke="#3F3D56" stroke-miterlimit="10" d="M279.187,385.478c-3.326-6.262-9.615-10.396-16.682-10.968
		l-0.269,10.323l-4.645-10.145c-11.354,1.779-19.117,12.427-17.337,23.781c1.779,11.354,12.426,19.117,23.781,17.337
		c11.354-1.779,19.117-12.427,17.337-23.781C281.014,389.737,280.275,387.524,279.187,385.478z"/>
	<path fill="#EDA000" d="M280.814,500.075c-10.148,5.395-22.748,1.541-28.143-8.607c-4.547-8.553-2.591-19.111,4.717-25.469
		l3.569,7.796l0.27-10.445c0.016-0.01,0.032-0.02,0.05-0.027c10.143-5.406,22.748-1.566,28.154,8.577s1.566,22.748-8.577,28.154
		C280.841,500.061,280.828,500.068,280.814,500.075L280.814,500.075z"/>
	<path fill="none" stroke="#3F3D56" stroke-miterlimit="10" d="M279.312,496.526c-10.148,5.395-22.748,1.541-28.143-8.607
		c-4.547-8.553-2.591-19.111,4.717-25.469l3.569,7.796l0.27-10.445c0.016-0.01,0.032-0.02,0.05-0.027
		c10.143-5.406,22.748-1.566,28.154,8.577s1.566,22.748-8.577,28.154C279.338,496.512,279.325,496.519,279.312,496.526z"/>
	<path fill="#EDA000" d="M307.112,531.259c-0.383,11.482-10.001,20.479-21.483,20.096s-20.479-10.001-20.096-21.483
		s10.001-20.479,21.483-20.096c5.189,0.173,10.127,2.281,13.841,5.909l-7.225,15.118l11.507-9.11
		C306.553,524.678,307.23,527.959,307.112,531.259z"/>
	<path fill="none" stroke="#3F3D56" stroke-miterlimit="10" d="M305.877,528.649c-0.383,11.482-10.001,20.479-21.483,20.096
		s-20.479-10.001-20.096-21.483s10.001-20.479,21.483-20.096c5.189,0.173,10.127,2.281,13.841,5.909l-7.225,15.118l11.507-9.11
		C305.318,522.067,305.995,525.348,305.877,528.649z"/>
</g>
<g opacity="0.3">
	<path fill="#EDA000" d="M91.83,445.151c-10.146,5.403-22.75,1.557-28.153-8.588c-5.403-10.146-1.558-22.75,8.588-28.153
		c3.444-1.834,7.334-2.663,11.226-2.392l0.986,10.679l3.731-9.8c5.253,1.617,9.648,5.253,12.221,10.109
		c0.91,1.7,1.575,3.52,1.974,5.406C104.354,431.503,100.038,440.785,91.83,445.151z"/>
	<path fill="none" stroke="#3F3D56" stroke-miterlimit="10" d="M84.414,571.682c0.495-9.271-8.313-16.181-16.631-20.306
		s-17.9-7.978-21.735-16.433c-5.513-12.151,3.919-25.329,11.121-36.561c5.343-8.335,9.68-17.275,12.919-26.631
		c1.298-3.751,2.429-7.641,2.348-11.61c-0.116-5.716-2.713-11.052-5.29-16.155c-8.587-16.999-17.572-33.789-26.954-50.369"/>
	<path fill="none" stroke="#3F3D56" stroke-miterlimit="10" d="M90.595,442.54c-10.146,5.403-22.75,1.557-28.153-8.588
		c-5.403-10.146-1.558-22.75,8.588-28.153c3.444-1.834,7.334-2.663,11.226-2.392l0.986,10.68l3.731-9.8
		c5.253,1.617,9.648,5.253,12.221,10.109c0.91,1.7,1.575,3.52,1.974,5.406C103.119,428.893,98.803,438.174,90.595,442.54z"/>
	<path fill="#EDA000" d="M60.834,386.959c-3.326-6.262-9.615-10.396-16.682-10.968l-0.269,10.323l-4.645-10.145
		c-11.354,1.779-19.117,12.427-17.337,23.781c1.779,11.354,12.427,19.117,23.781,17.337c11.354-1.779,19.117-12.427,17.337-23.781
		C62.661,391.218,61.922,389.005,60.834,386.959L60.834,386.959z"/>
	<path fill="none" stroke="#3F3D56" stroke-miterlimit="10" d="M59.187,383.478c-3.326-6.262-9.615-10.396-16.682-10.968
		l-0.269,10.323l-4.645-10.145c-11.354,1.781-19.116,12.428-17.337,23.782c1.779,11.354,12.427,19.117,23.781,17.337
		c11.354-1.779,19.117-12.427,17.337-23.781C61.014,387.737,60.275,385.524,59.187,383.478z"/>
	<path fill="#EDA000" d="M60.815,498.075c-10.148,5.395-22.748,1.541-28.143-8.607c-4.547-8.553-2.591-19.111,4.717-25.469
		l3.569,7.796l0.27-10.445c0.016-0.01,0.032-0.02,0.05-0.027c10.143-5.405,22.748-1.564,28.153,8.579
		c5.405,10.143,1.564,22.748-8.579,28.153C60.839,498.062,60.827,498.068,60.815,498.075L60.815,498.075z"/>
	<path fill="none" stroke="#3F3D56" stroke-miterlimit="10" d="M59.312,494.526c-10.148,5.395-22.748,1.541-28.143-8.607
		c-4.547-8.553-2.591-19.111,4.717-25.469l3.569,7.796l0.27-10.445c0.016-0.01,0.032-0.02,0.05-0.027
		c10.143-5.406,22.748-1.566,28.154,8.577s1.566,22.748-8.577,28.154C59.338,494.512,59.325,494.519,59.312,494.526L59.312,494.526z
		"/>
	<path fill="#EDA000" d="M87.112,529.259c-0.383,11.482-10.001,20.479-21.483,20.096s-20.479-10.001-20.096-21.483
		s10.001-20.479,21.483-20.096c5.189,0.173,10.127,2.281,13.841,5.909l-7.225,15.118l11.507-9.11
		C86.553,522.678,87.23,525.959,87.112,529.259z"/>
	<path fill="none" stroke="#3F3D56" stroke-miterlimit="10" d="M85.877,526.649c-0.383,11.482-10.001,20.479-21.483,20.096
		s-20.479-10.001-20.096-21.483s10.001-20.479,21.483-20.096c5.189,0.173,10.127,2.281,13.841,5.909l-7.225,15.118l11.507-9.11
		C85.318,520.067,85.995,523.348,85.877,526.649z"/>
</g>
<g opacity="0.3">
	<path fill="#57B894" d="M86.239,352.811c17.428,9.28,39.078,2.675,48.359-14.752c9.28-17.428,2.675-39.078-14.752-48.359
		c-5.915-3.15-12.597-4.574-19.283-4.109l-1.693,18.345l-6.41-16.834c-9.023,2.777-16.573,9.023-20.993,17.365
		c-1.564,2.92-2.705,6.047-3.391,9.287C64.725,329.368,72.139,345.311,86.239,352.811z"/>
	<path fill="none" stroke="#3F3D56" stroke-miterlimit="10" d="M98.978,570.159c-0.849-15.925,14.28-27.795,28.568-34.88
		s30.747-13.704,37.336-28.227c9.469-20.873-6.731-43.509-19.103-62.803c-9.178-14.318-16.627-29.673-22.191-45.745
		c-2.23-6.444-4.172-13.125-4.034-19.943c0.199-9.818,4.66-18.984,9.087-27.75c14.75-29.199,30.183-58.04,46.3-86.521"/>
	<path fill="none" stroke="#3F3D56" stroke-miterlimit="10" d="M88.361,348.326c17.428,9.28,39.078,2.675,48.359-14.752
		c9.28-17.428,2.675-39.078-14.752-48.359c-5.915-3.15-12.597-4.574-19.283-4.109l-1.693,18.345l-6.41-16.834
		c-9.023,2.777-16.573,9.023-20.993,17.365c-1.564,2.92-2.705,6.047-3.391,9.287C66.847,324.884,74.261,340.827,88.361,348.326z"/>
	<path fill="#57B894" d="M139.481,252.853c5.714-10.756,16.515-17.857,28.655-18.84l0.463,17.733l7.978-17.426
		c19.504,3.057,32.837,21.345,29.781,40.849c-3.057,19.504-21.345,32.837-40.849,29.781s-32.837-21.346-29.781-40.849
		C136.344,260.168,137.613,256.367,139.481,252.853L139.481,252.853z"/>
	<path fill="none" stroke="#3F3D56" stroke-miterlimit="10" d="M142.31,246.874c5.714-10.756,16.515-17.857,28.655-18.84
		l0.463,17.733l7.978-17.426c19.504,3.057,32.837,21.346,29.781,40.849c-3.057,19.504-21.346,32.837-40.849,29.781
		s-32.837-21.345-29.781-40.849C139.173,254.189,140.442,250.388,142.31,246.874L142.31,246.874z"/>
	<path fill="#57B894" d="M139.515,443.72c17.432,9.267,39.076,2.648,48.342-14.784c7.81-14.691,4.451-32.829-8.102-43.749
		l-6.131,13.391l-0.463-17.941c-0.027-0.018-0.056-0.034-0.085-0.047c-17.433-9.268-39.078-2.648-48.345,14.785
		S122.082,434.453,139.515,443.72L139.515,443.72z"/>
	<path fill="none" stroke="#3F3D56" stroke-miterlimit="10" d="M142.096,437.624c17.432,9.267,39.076,2.648,48.342-14.784
		c7.81-14.691,4.451-32.829-8.102-43.749l-6.131,13.391l-0.463-17.941c-0.027-0.018-0.056-0.034-0.085-0.047
		c-17.433-9.268-39.078-2.648-48.345,14.785C118.044,406.711,124.663,428.356,142.096,437.624L142.096,437.624z"/>
	<path fill="#57B894" d="M94.343,497.287c0.658,19.723,17.18,35.178,36.903,34.52c19.723-0.658,35.178-17.18,34.52-36.903
		s-17.18-35.178-36.903-34.52c-8.914,0.297-17.395,3.918-23.775,10.15l12.411,25.97l-19.765-15.649
		C95.303,485.982,94.141,491.617,94.343,497.287z"/>
	<path fill="none" stroke="#3F3D56" stroke-miterlimit="10" d="M96.465,492.803c0.658,19.723,17.18,35.178,36.902,34.52
		c19.723-0.658,35.178-17.18,34.52-36.902c-0.658-19.723-17.18-35.178-36.903-34.52c-8.914,0.297-17.395,3.918-23.775,10.15
		l12.411,25.969l-19.765-15.649C97.425,481.498,96.262,487.133,96.465,492.803z"/>
</g>
<line fill="none" stroke="#3F3D56" stroke-miterlimit="10" x1="88.443" y1="572.19" x2="1118.443" y2="572.19"/>
</svg>
