<?xml version="1.0" encoding="utf-8"?>
<!-- Generator: Adobe Illustrator 17.0.0, SVG Export Plug-In . SVG Version: 6.00 Build 0)  -->
<!DOCTYPE svg PUBLIC "-//W3C//DTD SVG 1.1//EN" "http://www.w3.org/Graphics/SVG/1.1/DTD/svg11.dtd">
<svg version="1.1" id="Layer_1" xmlns="http://www.w3.org/2000/svg" xmlns:xlink="http://www.w3.org/1999/xlink" x="0px" y="0px"
	 width="512px" height="512px" viewBox="0 0 512 512" enable-background="new 0 0 512 512" xml:space="preserve">
<g>
	<path fill="#FFFFFF" d="M204.931,56.481l-0.648-0.28c-34.041-14.646-66.333-33.344-95.983-55.576
		c-2.402-1.798-5.852-1.8-8.262,0.002C70.392,22.856,38.1,41.554,4.053,56.203l-0.634,0.274c-2.533,1.086-4.169,3.57-4.169,6.328
		v56.869c0,20.62,5.413,39.793,16.088,56.989c8.458,13.626,20.2,25.99,34.899,36.749c24.846,18.186,49.276,25.423,50.303,25.722
		c0.629,0.184,1.28,0.276,1.935,0.276c0.635,0,1.267-0.087,1.888-0.264c1.406-0.404,14.216-4.193,30.677-12.759l3.266-1.699
		l-1.639-3.297c-0.88-1.77-1.684-3.598-2.389-5.433l-1.514-3.94l-3.735,1.968c-8.498,4.479-17.421,8.281-26.541,11.309
		c-5.886-1.987-25.143-9.112-44.116-22.999c-10.306-7.545-19.008-15.956-25.901-25.031c0.424-0.901,0.654-1.899,0.654-2.936v-5.994
		c0-3.798-3.089-6.887-6.887-6.887c-1.158,0-2.25,0.287-3.208,0.794c-6.643-13.102-10.005-27.39-10.005-42.568V67.322
		c32.171-14.148,62.812-31.834,91.146-52.611c28.335,20.777,58.975,38.462,91.146,52.611v67.353c0,2.147-0.078,4.384-0.23,6.648
		l-0.249,3.688l3.685,0.301c1.986,0.163,3.966,0.418,5.886,0.758l4.098,0.727l0.297-4.151c0.19-2.659,0.287-5.341,0.287-7.974
		V62.805C209.091,60.047,207.455,57.563,204.931,56.481z"/>
	<path fill="#FFFFFF" d="M97.283,168.336v5.996c0,3.798,3.089,6.887,6.887,6.887s6.887-3.089,6.887-6.887v-5.996
		c0-3.798-3.089-6.887-6.887-6.887S97.283,164.538,97.283,168.336z"/>
	<path fill="#FFFFFF" d="M116.768,168.336v5.996c0,3.798,3.089,6.887,6.887,6.887c3.797,0,6.887-3.089,6.887-6.887v-5.996
		c0-3.798-3.089-6.887-6.887-6.887C119.857,161.449,116.768,164.538,116.768,168.336z"/>
	<path fill="#FFFFFF" d="M143.197,161.449c-3.798,0-6.887,3.089-6.887,6.887v5.996c0,3.798,3.089,6.887,6.887,6.887
		c3.797,0,6.887-3.089,6.887-6.887v-5.996C150.084,164.538,146.995,161.449,143.197,161.449z"/>
	<path fill="#FFFFFF" d="M162.637,161.449c-3.798,0-6.887,3.089-6.887,6.887v5.996c0,3.798,3.089,6.887,6.887,6.887
		c3.797,0,6.887-3.089,6.887-6.887v-5.996C169.524,164.538,166.435,161.449,162.637,161.449z"/>
	<path fill="#FFFFFF" d="M77.799,168.336v5.996c0,3.798,3.089,6.887,6.887,6.887c3.797,0,6.887-3.089,6.887-6.887v-5.996
		c0-3.798-3.089-6.887-6.887-6.887C80.889,161.449,77.799,164.538,77.799,168.336z"/>
	<path fill="#FFFFFF" d="M58.317,168.336v5.996c0,3.798,3.089,6.887,6.887,6.887c3.798,0,6.887-3.089,6.887-6.887v-5.996
		c0-3.798-3.089-6.887-6.887-6.887C61.407,161.449,58.317,164.538,58.317,168.336z"/>
	<path fill="#FFFFFF" d="M38.835,168.336v5.996c0,3.798,3.089,6.887,6.887,6.887s6.887-3.089,6.887-6.887v-5.996
		c0-3.798-3.089-6.887-6.887-6.887S38.835,164.538,38.835,168.336z"/>
</g>
<g>
	<path fill="#FFFFFF" d="M407.367,419.597c-8.426-0.011-15.286-6.874-15.292-15.3v-15.005l-1-1H222.45l-1,1v15.006
		c-0.006,8.425-6.867,15.288-15.294,15.299h-20.477c-8.42-0.011-15.281-6.875-15.293-15.3v-16.379l-0.663-0.941
		c-8.583-3.073-14.316-10.949-14.604-20.065l-7.855-62.106c-0.045-0.358-0.067-0.71-0.067-1.074
		c0-17.405,10.881-31.612,26.46-34.551l0.686-0.491l24.831-43.996c9.929-20.303,24.498-31.456,41.048-31.456h134.216
		c20.451,0,32.409,16.741,40.543,31.326l24.018,44.273l0.686,0.505c15.434,3.034,26.636,17.5,26.636,34.396
		c0,0.349-0.024,0.722-0.074,1.138l-8.194,61.969c-0.301,9.044-5.9,16.864-14.273,20.021l-0.647,0.936v16.498
		c-0.012,8.424-6.873,15.288-15.294,15.299H407.367z M409.178,389.299V401.5l1,1h14.85l1-1v-12.201l-1-1h-14.85L409.178,389.299z
		 M187.496,389.299V401.5l1,1h14.85l1-1v-12.201l-1-1h-14.85L187.496,389.299z M178.42,285.8
		c-8.876,0.628-13.893,9.418-14.106,17.369l0.007,0.152l7.835,61.869c0.044,0.354,0.067,0.716,0.067,1.074
		c0.031,2.737,2.191,4.898,4.918,4.931h258.88c2.692-0.031,4.899-2.238,4.931-4.919c0-0.405,0.023-0.771,0.072-1.127l8.177-61.842
		l0.008-0.162c-0.265-8.497-6.094-17.286-15.389-17.286l-0.137-0.006H179.311c-0.201,0-0.395-0.021-0.59-0.039l-0.138-0.014
		L178.42,285.8z M257.847,239.883c17.001,0,31.607,11.556,35.517,28.104l0.974,0.77h123.477l0.879-1.477L400,232.815
		c-8.78-15.748-16.421-22.462-25.555-22.462H240.229c-13.126,0-21.775,13.807-25.762,22.037c-0.071,0.142-0.153,0.302-0.241,0.45
		l-19.431,34.425l0.871,1.491h25.695l0.973-0.771C226.239,251.439,240.842,239.883,257.847,239.883z M257.847,256.986
		c-7.186,0-13.746,3.947-17.12,10.301l0.883,1.469h32.474l0.884-1.469C271.599,260.934,265.039,256.986,257.847,256.986z"/>
	<path fill="#FFFFFF" d="M197.347,350.471c-12.403-0.018-22.509-10.123-22.526-22.526c0-12.419,10.104-22.523,22.525-22.523
		s22.525,10.104,22.525,22.524S209.766,350.47,197.347,350.471L197.347,350.471z M197.343,322.524
		c-2.98,0.007-5.411,2.438-5.419,5.418c0,2.988,2.431,5.424,5.419,5.431c2.992,0,5.424-2.435,5.424-5.428
		c0-2.989-2.432-5.421-5.422-5.421H197.343z"/>
	<path fill="#FFFFFF" d="M416.18,350.471c-12.409-0.012-22.515-10.117-22.526-22.526c0-12.419,10.104-22.523,22.525-22.523
		c12.42,0,22.524,10.104,22.524,22.524C438.704,340.366,428.599,350.471,416.18,350.471L416.18,350.471z M416.177,322.524
		c-2.981,0.007-5.413,2.438-5.42,5.419c0,2.987,2.432,5.423,5.42,5.43c2.991,0,5.423-2.435,5.423-5.428
		c0-2.989-2.432-5.421-5.421-5.421H416.177z"/>
	<path fill="#FFFFFF" d="M242.045,341.938c-2.729-0.005-5.316-1.327-6.921-3.536c-1.6-2.204-2.052-5.073-1.207-7.673l4.271-13.069
		c3.867-10.879,14.247-18.409,25.822-18.713h85.181c11.674,0.319,21.861,7.618,25.927,18.594l4.449,13.096
		c0.888,2.601,0.461,5.492-1.142,7.735c-1.605,2.232-4.205,3.566-6.953,3.566H242.045z M263.893,316.055
		c-4.151,0.382-7.761,2.999-9.42,6.83l-0.214,0.64l0.951,1.311H358.14l0.946-1.323l-0.168-0.491
		c-1.751-3.941-5.431-6.578-9.635-6.966l-85.299-0.004L263.893,316.055z"/>
	<g>
		<path fill="#FFFFFF" d="M307,509.5c-111.659,0-202.5-90.841-202.5-202.5c0-111.659,90.841-202.5,202.5-202.5
			c111.659,0,202.5,90.841,202.5,202.5C509.5,418.659,418.659,509.5,307,509.5z M307,120.5c-102.836,0-186.5,83.664-186.5,186.5
			c0,102.837,83.664,186.5,186.5,186.5c102.837,0,186.5-83.663,186.5-186.5C493.5,204.164,409.837,120.5,307,120.5z"/>
	</g>
</g>
</svg>
