<?xml version="1.0" encoding="utf-8"?>
<!-- Generator: Adobe Illustrator 17.0.0, SVG Export Plug-In . SVG Version: 6.00 Build 0)  -->
<!DOCTYPE svg PUBLIC "-//W3C//DTD SVG 1.1//EN" "http://www.w3.org/Graphics/SVG/1.1/DTD/svg11.dtd">
<svg version="1.1" id="Layer_1" xmlns="http://www.w3.org/2000/svg" xmlns:xlink="http://www.w3.org/1999/xlink" x="0px" y="0px"
	 width="200.5px" height="200.5px" viewBox="0 0 200.5 200.5" enable-background="new 0 0 200.5 200.5" xml:space="preserve">
<path fill="#FFF5F4" d="M196.036,6.994v188.019c0,1.825-1.227,3.366-2.899,3.837c-0.012,0.003-0.025,0.008-0.037,0.008
	c-0.777,0.222,6.516,0.148-131.285,0.148V3.001h130.228C194.247,3.001,196.036,4.788,196.036,6.994z"/>
<path fill="#EBE0DA" d="M196.036,179.247v15.766c0,1.825-1.227,3.366-2.899,3.837c-0.012,0.003-0.025,0.008-0.037,0.008
	c-0.566,0.096-1.145,0.148-1.74,0.148H61.815v-62.64h0.512l-0.512-0.012V4.981c4.505-1.234,9.233-1.917,14.112-1.98
	c0.08-0.005,0.16-0.005,0.239-0.005c0.479-0.005,0.959-0.005,1.435,0.005c30.407,0.479,55.04,25.136,55.319,55.72
	c0.288,31.057-24.661,56.47-55.723,56.752c-0.176,0-0.351,0.005-0.524,0.005h49.871c5.738,0,10.437,4.696,10.437,10.438
	c0,4.018-2.307,8.262-5.658,10.45h54.043c2.871,0,5.479,1.173,7.371,3.067c1.893,1.888,3.067,4.5,3.067,7.371
	c0,5.738-4.696,10.437-10.438,10.437h-3.182c3.793,1.889,6.561,6.161,6.561,10.45c0,4.241-2.344,8.501-5.883,10.438h8.498
	C193.037,178.129,194.626,178.533,196.036,179.247z"/>
<path fill="#FFDC2D" d="M175.543,199.004H95.355c-5.741,0-10.437-4.696-10.437-10.437s4.697-10.438,10.437-10.438h80.188
	c5.741,0,10.438,4.697,10.438,10.438S181.284,199.004,175.543,199.004z"/>
<path fill="#FED22B" d="M162.493,178.128H82.304c-5.741,0-10.438-4.697-10.438-10.438s4.697-10.438,10.438-10.438h80.188
	c5.741,0,10.437,4.697,10.437,10.438S168.234,178.128,162.493,178.128z"/>
<path fill="#FFDC2D" d="M169.553,157.239H89.364c-5.741,0-10.437-4.696-10.437-10.437s4.697-10.438,10.437-10.438h80.188
	c5.741,0,10.438,4.697,10.438,10.438S175.294,157.239,169.553,157.239z"/>
<path fill="#FDC202" d="M172.93,167.687v0.005c0,2.867-1.174,5.479-3.067,7.371s-4.5,3.067-7.371,3.067H82.303
	c-5.739,0-10.438-4.7-10.438-10.438c0-2.871,1.174-5.479,3.067-7.371s4.503-3.067,7.371-3.067h3.33
	c0.003,5.742,4.696,10.434,10.438,10.434h76.859V167.687z"/>
<path fill="#E2BC1A" d="M185.983,188.567c0,2.871-1.174,5.479-3.067,7.371s-4.5,3.067-7.371,3.067H95.356
	c-5.742,0-10.438-4.696-10.438-10.438c0-2.871,1.174-5.479,3.067-7.371c1.888-1.893,4.5-3.067,7.371-3.067h3.326
	c0,5.738,4.696,10.438,10.438,10.438H185.983z"/>
<path fill="#E2BC1A" d="M179.989,146.8v0.005c0,2.87-1.174,5.477-3.067,7.371c-1.893,1.893-4.5,3.065-7.371,3.065H89.366
	c-5.742,0-10.438-4.699-10.438-10.437c0-2.871,1.174-5.483,3.067-7.371c1.889-1.894,4.5-3.067,7.371-3.067h3.327
	c0.003,5.742,4.696,10.434,10.437,10.434L179.989,146.8L179.989,146.8z"/>
<path fill="#FED22B" d="M106.673,199.004H26.484c-5.741,0-10.438-4.696-10.438-10.437s4.697-10.438,10.438-10.438h80.188
	c5.741,0,10.437,4.697,10.437,10.438C117.111,194.308,112.414,199.004,106.673,199.004z"/>
<path fill="#FFE5A0" d="M93.621,178.128H13.433c-5.741,0-10.437-4.697-10.437-10.438s4.696-10.438,10.437-10.438h80.188
	c5.741,0,10.438,4.697,10.438,10.438S99.362,178.128,93.621,178.128z"/>
<path fill="#FED22B" d="M100.683,157.239H20.494c-5.741,0-10.438-4.696-10.438-10.437s4.697-10.438,10.438-10.438h80.188
	c5.741,0,10.437,4.697,10.437,10.438S106.423,157.239,100.683,157.239z"/>
<path fill="#FFE5A0" d="M110.728,136.352H30.539c-5.741,0-10.437-4.697-10.437-10.438s4.696-10.437,10.437-10.437h80.188
	c5.741,0,10.438,4.697,10.438,10.437C121.166,131.655,116.468,136.352,110.728,136.352z"/>
<path fill="#E2BC1A" d="M117.116,58.717c-0.287-31.062-25.698-56.011-56.76-55.724C29.294,3.278,4.346,28.69,4.631,59.751
	c0.285,31.062,25.698,56.011,56.76,55.724C92.451,115.191,117.401,89.779,117.116,58.717z"/>
<path fill="#FED22B" d="M94.201,36.542c5.699,8.359,8.035,18.48,6.579,28.499c-3.196,22-23.695,37.296-45.695,34.099
	c-11.144-1.62-21.174-7.888-27.52-17.198c-5.699-8.358-8.034-18.48-6.579-28.497c1.549-10.657,7.156-20.073,15.786-26.514
	s19.253-9.134,29.909-7.585C77.824,20.966,87.856,27.233,94.201,36.542z"/>
<path fill="#FDC202" d="M67.873,98.946c-4.121,0.735-8.425,0.828-12.79,0.193c-11.141-1.618-21.172-7.888-27.52-17.194
	c-5.699-8.362-8.034-18.48-6.578-28.499c1.55-10.659,7.156-20.073,15.786-26.514c8.632-6.442,19.253-9.133,29.912-7.587
	c0.384,0.055,0.763,0.116,1.142,0.183c-6.121,1.074-11.952,3.577-17.079,7.404c-8.629,6.44-14.235,15.855-15.784,26.514
	c-1.458,10.019,0.878,20.137,6.576,28.499C47.66,90.919,57.207,97.07,67.873,98.946z"/>
<path fill="#FFDD81" d="M104.059,167.687v0.005c0,2.867-1.174,5.479-3.067,7.371s-4.5,3.067-7.371,3.067h-80.19
	c-5.738,0-10.438-4.7-10.438-10.438c0-2.871,1.174-5.479,3.067-7.371s4.505-3.067,7.371-3.067h3.33
	c0.005,5.742,4.696,10.434,10.438,10.434h76.86V167.687z"/>
<path fill="#FFDD81" d="M121.164,125.916c0,2.867-1.173,5.479-3.065,7.371c-1.894,1.893-4.502,3.067-7.371,3.067h-80.19
	c-5.738,0-10.434-4.7-10.434-10.438c0-2.871,1.173-5.479,3.067-7.371c1.888-1.893,4.5-3.067,7.367-3.067h3.33
	c0,5.738,4.696,10.438,10.438,10.438H121.164z"/>
<path fill="#FDC202" d="M117.113,188.567c0,2.871-1.174,5.479-3.067,7.371s-4.5,3.067-7.371,3.067h-80.19
	c-5.742,0-10.438-4.696-10.438-10.438c0-2.871,1.174-5.479,3.067-7.371c1.889-1.893,4.5-3.067,7.371-3.067h3.326
	c0,5.738,4.696,10.438,10.438,10.438H117.113z"/>
<path fill="#FDC202" d="M111.118,146.8v0.005c0,2.87-1.173,5.477-3.065,7.371c-1.894,1.893-4.5,3.065-7.371,3.065H20.496
	c-5.742,0-10.438-4.699-10.438-10.437c0-2.871,1.173-5.483,3.067-7.371c1.888-1.894,4.5-3.067,7.371-3.067h3.326
	c0.003,5.742,4.696,10.434,10.438,10.434L111.118,146.8L111.118,146.8z"/>
<path d="M192.043,0.005C192.037,0.005,60.325,0,60.325,0C44.599,0.143,29.844,6.377,18.779,17.55
	C-9.715,46.322-1.56,94.654,34.856,112.481h-4.317c-7.407,0-13.433,6.026-13.433,13.433c0,2.777,0.848,5.36,2.296,7.504
	c-6.898,0.558-12.341,6.345-12.341,13.385c0,2.988,0.982,5.752,2.64,7.986C4.104,156.41,0,161.577,0,167.69
	c0,7.407,6.026,13.433,13.433,13.433h1.877c-1.426,2.133-2.258,4.693-2.258,7.445c0,7.407,6.026,13.433,13.433,13.433h165.558
	c3.853,0,6.988-3.135,6.988-6.988V6.994C199.03,3.139,195.896,0.005,192.043,0.005z M30.539,118.472h80.188
	c4.104,0,7.444,3.338,7.444,7.442s-3.34,7.444-7.444,7.444H30.539c-4.104,0-7.442-3.34-7.442-7.444S26.435,118.472,30.539,118.472z
	 M20.494,139.359c6.322,0,77.344,0.002,80.207,0.002c4.095,0.009,7.424,3.344,7.424,7.441c0,4.106-3.338,7.444-7.442,7.444H20.494
	c-4.104,0-7.444-3.338-7.444-7.444C13.05,142.697,16.39,139.359,20.494,139.359z M162.493,160.247c4.104,0,7.444,3.34,7.444,7.444
	c0,4.089-3.354,7.444-7.444,7.444h-57.699c1.426-2.133,2.259-4.693,2.259-7.445c0-2.751-0.832-5.309-2.256-7.442L162.493,160.247
	L162.493,160.247z M5.99,167.69c0-4.104,3.338-7.442,7.442-7.442h80.212c4.093,0.014,7.421,3.346,7.421,7.442
	c0,4.104-3.34,7.442-7.444,7.442H13.433C9.329,175.132,5.99,171.794,5.99,167.69z M19.041,188.567c0-4.104,3.34-7.444,7.444-7.444
	h80.188c4.104,0,7.442,3.34,7.442,7.444s-3.338,7.442-7.442,7.442H26.484C22.38,196.01,19.041,192.671,19.041,188.567z
	 M117.848,196.01c3.011-4.505,3.011-10.378,0-14.886h57.696c4.104,0,7.442,3.34,7.442,7.444c0,4.09-3.354,7.442-7.442,7.442H117.848
	z M193.041,195.012c0,0.55-0.448,0.997-0.999,0.997h-5.326c1.469-2.188,2.259-4.757,2.259-7.442c0-7.407-6.026-13.433-13.433-13.433
	h-1.877c1.47-2.19,2.261-4.759,2.261-7.444c0-2.988-0.983-5.752-2.64-7.985c2.15-0.624,4.123-1.782,5.756-3.414
	c8.433-8.436,2.446-22.923-9.49-22.923h-4.32c-1.655,0-2.994,1.341-2.994,2.996c0,1.654,1.339,2.994,2.994,2.994h4.32
	c6.602,0,9.94,8.011,5.254,12.697c-1.412,1.412-3.278,2.188-5.254,2.188c0,0-56.145,0-57.697,0c1.426-2.131,2.258-4.693,2.258-7.444
	s-0.832-5.311-2.256-7.442h41.396c1.654,0,2.994-1.341,2.994-2.994c0-1.655-1.341-2.996-2.994-2.996h-31.359
	c1.43-2.134,2.265-4.699,2.265-7.456c0-7.407-6.026-13.431-13.433-13.431H86.791c9.091-4.429,17.039-11.167,22.928-19.734
	c0.937-1.364,0.592-3.227-0.772-4.164s-3.227-0.592-4.164,0.771c-9.894,14.397-26.306,23.128-43.926,23.128
	c-29.231,0-53.237-23.912-53.237-53.259c0-29.232,23.914-53.237,53.259-53.237c37.445,0,63.677,38.276,49.286,73.412
	c-0.627,1.53,0.106,3.28,1.637,3.907c1.532,0.627,3.28-0.106,3.907-1.637c11.622-28.377-0.388-61.747-28.812-75.674h105.146
	c0.552,0,0.999,0.448,0.999,0.999v188.019h-0.001V195.012z"/>
<path d="M182.5,99.963h-6.687v-67.87c0-1.654-1.339-2.994-2.994-2.994c-1.654,0-2.994,1.341-2.994,2.994v67.87h-7.602V72.144
	c0-1.654-1.339-2.996-2.994-2.996c-1.654,0-2.994,1.342-2.994,2.996v27.819h-7.602V41.851c0-1.654-1.339-2.994-2.994-2.994
	c-1.654,0-2.994,1.341-2.994,2.994v58.112h-7.602V59.821c0-1.654-1.341-2.994-2.994-2.994c-1.655,0-2.994,1.341-2.994,2.994v40.142
	h-6.685c-1.655,0-2.996,1.341-2.996,2.994c0,1.655,1.341,2.996,2.996,2.996h60.13c1.655,0,2.994-1.341,2.994-2.996
	C185.494,101.304,184.154,99.963,182.5,99.963z"/>
<path d="M34.981,24.53c-3.643,2.719-6.81,5.952-9.416,9.609c-0.959,1.347-0.644,3.216,0.703,4.176
	c1.347,0.959,3.216,0.644,4.176-0.703c2.242-3.149,4.975-5.936,8.119-8.282c26.518-19.788,64.031,2.407,59.254,35.28
	c-2.9,19.953-21.667,34.565-42.301,31.566C32.84,92.881,18.07,69.852,25.458,47.462c0.519-1.572-0.334-3.264-1.905-3.783
	s-3.264,0.334-3.782,1.905c-8.583,26.005,8.612,52.701,34.882,56.52c23.684,3.441,45.664-13.055,49.09-36.631
	C109.287,27.363,65.774,1.552,34.981,24.53z"/>
<path d="M77.654,44.14h-6.687h-2.53c-0.463-2.162-1.36-3.937-2.557-5.387h11.774c1.655,0,2.994-1.341,2.994-2.996
	c0-1.64-1.32-2.969-2.956-2.99v-0.004h-0.038h-6.687H50.208h-6.685h-0.744v0.104c-1.293,0.332-2.252,1.495-2.252,2.89
	c0,1.655,1.341,2.996,2.996,2.996h10.632c3.471,0.86,5.799,2.656,6.883,5.387h-10.83h-6.685c-1.655,0-2.996,1.341-2.996,2.994
	c0,1.655,1.341,2.996,2.996,2.996h18.071c-0.857,5.37-5.626,8.839-14.255,8.839h-2.275c-0.434-0.1-0.885-0.097-1.322,0h-0.963v0.401
	c-0.12,0.077-0.241,0.152-0.352,0.249c-1.249,1.086-1.381,2.978-0.296,4.227l22.391,25.758c1.086,1.249,2.976,1.38,4.225,0.294
	c1.247-1.084,1.38-2.976,0.295-4.224l-4.387-5.047l-7.864-9.046c-1.85-2.744-3.795-5.366-6.22-7.884
	c10.352-0.323,16.982-5.466,18.075-13.566h9.006c1.655,0,2.994-1.341,2.994-2.996C80.648,45.481,79.307,44.14,77.654,44.14z"/>
</svg>
