<?xml version="1.0" encoding="utf-8"?>
<!-- Generator: Adobe Illustrator 17.0.0, SVG Export Plug-In . SVG Version: 6.00 Build 0)  -->
<!DOCTYPE svg PUBLIC "-//W3C//DTD SVG 1.1//EN" "http://www.w3.org/Graphics/SVG/1.1/DTD/svg11.dtd">
<svg version="1.1" id="Capa_1" xmlns="http://www.w3.org/2000/svg" xmlns:xlink="http://www.w3.org/1999/xlink" x="0px" y="0px"
	 width="200px" height="200px" viewBox="0 0 200 200" enable-background="new 0 0 200 200" xml:space="preserve">
<rect x="94.717" y="51.681" fill="#A9ADB1" width="11.719" height="111.674"/>
<path fill="#7E848A" d="M94.716,119.11c3.113-0.736,7.197-1.152,11.719-0.213V51.682H94.716V119.11L94.716,119.11z"/>
<path fill="#EEE6D7" d="M92.594,150.219v22.776c0,3.969-3.044,7.389-7.008,7.584c-4.237,0.209-7.751-3.178-7.751-7.37v-5.719
	c0-4.438-3.411-8.257-7.844-8.466c-4.734-0.223-8.641,3.549-8.641,8.234v5.529c0,13.354,10.929,24.514,24.281,24.285
	c12.969-0.222,23.451-10.841,23.451-23.862v-22.99c0-2.948-2.39-5.339-5.339-5.339h-5.808
	C94.984,144.88,92.594,147.271,92.594,150.219z"/>
<path fill="#B39A7C" d="M100.575,31.053c-3.236,0-5.859-2.623-5.859-5.859V8.789c0-3.236,2.623-5.859,5.859-5.859
	s5.859,2.623,5.859,5.859v16.404C106.435,28.429,103.811,31.053,100.575,31.053z"/>
<path fill="#34ABC6" d="M100,13.85L100,13.85c-45.337,0-82.431,37.094-82.431,82.431v12.654c0,4.596,5.72,6.658,8.687,3.147
	c4.18-4.947,10.213-8.946,18.79-8.946c11.151,0,19.366,5.166,23.782,12.901c2.033,3.56,7.103,3.648,9.409,0.259
	c4.018-5.905,10.722-11.393,21.762-11.393l0,0c10.075,0,18.929,5.495,23.711,13.637c2.109,3.589,7.177,3.753,9.475,0.282
	c4.095-6.185,10.87-12.153,21.768-12.153c8.587,0,14.614,3.96,18.788,8.873c2.977,3.504,8.689,1.452,8.689-3.145V96.281
	C182.431,50.944,145.337,13.85,100,13.85z"/>
<path fill="#2095A8" d="M112.849,14.861c-4.189-0.663-8.48-1.011-12.848-1.011l0,0c-4.368,0-8.659,0.348-12.848,1.011
	c-0.177,0.116-41.46,27.352-43.934,88.339c0.597-0.041,1.205-0.065,1.829-0.065c11.151,0,19.366,5.166,23.782,12.901
	c2.033,3.561,7.103,3.648,9.409,0.259c4.018-5.905,10.722-11.393,21.762-11.393l0,0c10.075,0,18.929,5.495,23.711,13.637
	c2.109,3.589,7.177,3.753,9.475,0.282c4.095-6.185,10.87-12.153,21.768-12.153c0.657,0,1.297,0.026,1.925,0.071
	C155.9,43.268,113.029,14.98,112.849,14.861z"/>
<path fill="#47C7E9" d="M72.693,118.705c2.032,0.319,4.235-0.48,5.546-2.407c4.018-5.905,10.722-11.393,21.762-11.393l0,0
	c10.075,0,18.929,5.495,23.711,13.637c1.076,1.832,2.923,2.766,4.779,2.785c8.013-77.232-27.916-107.477-27.916-107.477
	S64.679,41.472,72.693,118.705z"/>
<path d="M182.431,97.273c-1.618,0-2.93,1.312-2.93,2.93v12.194c0,1.246-0.896,1.709-1.282,1.851
	c-0.31,0.114-1.388,0.407-2.245-0.602c-5.584-6.573-12.656-9.906-21.021-9.906c-9.336,0-17.248,4.054-23.003,11.752
	c2.836-37.22-4.701-62.879-11.755-78.096c-4.371-9.429-9.035-16.059-12.486-20.236c17.044,1.666,33.128,8.828,45.941,20.588
	c14.641,13.438,23.702,31.624,25.512,51.208c0.149,1.611,1.578,2.794,3.187,2.648c1.611-0.149,2.796-1.576,2.648-3.187
	c-1.945-21.035-11.67-40.563-27.385-54.986c-13.485-12.376-30.347-20.007-48.249-21.988V8.789c0-4.846-3.943-8.789-8.789-8.789
	s-8.789,3.943-8.789,8.789v2.525c-19.621,1.88-37.871,10.475-52.074,24.678C23.544,52.16,14.64,73.571,14.64,96.281v12.654
	c0,3.329,2.016,6.217,5.135,7.358c3.136,1.148,6.558,0.237,8.719-2.32c4.434-5.247,10.003-7.908,16.552-7.908
	c9.489,0,17.032,4.057,21.238,11.424c1.439,2.52,4.035,4.093,6.945,4.207c2.975,0.113,5.753-1.286,7.431-3.754
	c2.926-4.299,6.653-7.233,11.125-8.791v25.585c0,1.618,1.312,2.93,2.93,2.93s2.93-1.312,2.93-2.93v-26.799
	c0.77-0.064,1.552-0.106,2.355-0.106c1.181,0,2.352,0.09,3.505,0.26v33.859h-5.573c-4.559,0-8.268,3.709-8.268,8.269v22.775
	c0,2.454-1.894,4.543-4.223,4.658c-1.23,0.059-2.4-0.373-3.292-1.222c-0.893-0.85-1.385-1.995-1.385-3.222v-5.719
	c0-6.107-4.672-11.112-10.636-11.393c-3.09-0.144-6.016,0.947-8.248,3.075c-2.232,2.129-3.461,5.001-3.461,8.085v5.529
	c0,7.28,2.995,14.399,8.216,19.532c5.054,4.968,9.975,7.682,19.044,7.682c14.521,0,26.33-12.268,26.33-26.791v-22.99
	c0-2.386-1.022-4.534-2.645-6.044v-34.457c4.868,2.031,9.065,5.614,11.822,10.306c1.511,2.571,4.179,4.154,7.136,4.234
	c0.077,0.002,0.155,0.003,0.232,0.003c2.852,0,5.484-1.416,7.076-3.821c4.762-7.193,11.264-10.84,19.325-10.84
	c6.566,0,12.136,2.638,16.555,7.84c2.17,2.554,5.597,3.461,8.732,2.309c3.11-1.143,5.12-4.028,5.12-7.351v-12.194
	C185.361,98.585,184.049,97.273,182.431,97.273z M106.149,173.209c0,11.348-9.228,20.738-20.571,20.933
	c-5.536,0.102-10.802-2.037-14.836-6.002c-4.109-4.038-6.464-9.634-6.464-15.354v-5.529c0-1.466,1.121-5.307,5.574-5.307
	c2.789,0,5.052,2.616,5.052,5.54v5.719c0,2.806,1.168,5.527,3.205,7.466c2.065,1.966,4.77,2.972,7.62,2.83
	c5.492-0.27,9.793-4.887,9.793-10.511v-22.775c0-1.329,1.081-2.409,2.409-2.409h5.808c1.329,0,2.409,1.081,2.409,2.409
	L106.149,173.209L106.149,173.209z M97.646,8.789c0-1.616,1.314-2.93,2.93-2.93s2.93,1.314,2.93,2.93v2.207
	c-0.929-0.038-5.076-0.063-5.859-0.042L97.646,8.789L97.646,8.789z M100,101.972c-17.894,0-24.506,13.077-24.699,13.239
	c-2.109-23.532-0.268-44.626,5.484-62.737c0.49-1.542-0.363-3.189-1.905-3.679c-1.542-0.491-3.189,0.363-3.679,1.905
	c-5.614,17.677-7.657,37.999-6.097,60.501c-5.493-7.035-14.05-10.997-24.057-10.997c-8.354,0-15.429,3.36-21.028,9.986
	c-0.848,1.003-1.921,0.712-2.23,0.6c-0.388-0.142-1.289-0.607-1.289-1.856V96.281c0-21.144,8.295-41.084,23.356-56.145
	C57.291,26.7,74.61,18.656,93.201,17.074c-3.827,4.41-9.023,11.599-13.67,22.136c-0.653,1.48,0.018,3.21,1.498,3.863
	c1.481,0.653,3.21-0.018,3.863-1.498c5.757-13.054,12.441-20.604,15.614-23.716c2.916,3.047,8.872,10.132,14.374,22.001
	c6.857,14.792,14.186,39.949,11.104,76.779C120.465,107.581,110.557,101.972,100,101.972z"/>
</svg>
