<?xml version="1.0" encoding="utf-8"?>
<!-- Generator: Adobe Illustrator 17.0.0, SVG Export Plug-In . SVG Version: 6.00 Build 0)  -->
<!DOCTYPE svg PUBLIC "-//W3C//DTD SVG 1.1//EN" "http://www.w3.org/Graphics/SVG/1.1/DTD/svg11.dtd">
<svg version="1.1" id="Layer_1" xmlns="http://www.w3.org/2000/svg" xmlns:xlink="http://www.w3.org/1999/xlink" x="0px" y="0px"
	 width="200.5px" height="200.5px" viewBox="0 0 200.5 200.5" enable-background="new 0 0 200.5 200.5" xml:space="preserve">
<title>033 - Insurance</title>
<desc>Created with Sketch.</desc>
<path id="Shape" fill="#EBC80F" d="M149.538,25.865V76.7c0.003,10.6-5.091,20.555-13.69,26.753l-34.176,24.675
	c-0.966,0.693-2.267,0.693-3.233,0l-3.332-2.408l-30.844-22.267C55.664,97.255,50.57,87.3,50.573,76.7V25.865
	c-0.008-0.616,0.357-1.177,0.924-1.418l43.61-19.133l4.321-1.88c0.402-0.165,0.852-0.165,1.254,0l47.932,21.013
	C149.181,24.689,149.546,25.249,149.538,25.865z"/>
<path id="Shape_1_" fill="#FFDC2D" d="M139.641,25.865V76.7c0.003,10.6-5.091,20.555-13.69,26.753L95.107,125.72l-30.844-22.267
	C55.664,97.255,50.57,87.3,50.573,76.7V25.865c-0.008-0.616,0.357-1.177,0.924-1.418l43.61-19.133l43.61,19.133
	C139.284,24.689,139.649,25.249,139.641,25.865z"/>
<path id="Shape_2_" fill="#EEE6D7" d="M72.058,91.782c-5.198-3.797-8.277-9.843-8.29-16.28V32.526l36.287-16.029l36.287,16.029
	v42.977c-0.01,6.438-3.089,12.485-8.29,16.28l-27.997,20.38L72.058,91.782z"/>
<path id="Shape_3_" fill="#FFE0B2" d="M48.317,137.688l-15.069-15.072c-3.232-3.232-5.818-7.051-7.62-11.252l-7.383-17.216
	c-1.138-2.652-3.745-4.372-6.631-4.374c-2.453,0.004-4.736,1.252-6.063,3.315S4.036,97.746,5.05,99.98l12.928,28.442
	c1.585,3.486,3.784,6.66,6.492,9.369l23.847,23.854h31.946v-9.438c0.108-7.064-2.186-13.955-6.505-19.545
	c-2.414-3.186-5.702-5.6-9.464-6.951c-7.323-3.091-14.074-7.393-19.968-12.727c-4.707-3.929-11.636-3.608-15.96,0.739"/>
<path id="Shape_4_" fill="#FFE0B2" d="M151.787,137.688l15.072-15.072c3.232-3.232,5.818-7.051,7.62-11.252l7.386-17.216
	c1.139-2.654,3.749-4.375,6.637-4.374c2.452,0.006,4.733,1.255,6.058,3.318s1.514,4.657,0.5,6.889l-12.928,28.442
	c-1.585,3.486-3.784,6.66-6.492,9.369l-23.854,23.854h-31.939v-9.438c-0.107-7.064,2.188-13.955,6.509-19.545
	c2.414-3.186,5.702-5.6,9.464-6.951c7.322-3.091,14.072-7.393,19.964-12.727c4.708-3.928,11.638-3.607,15.963,0.739"/>
<path id="Shape_5_" fill="#DFC49C" d="M195.721,96.988c0.003,1.037-0.222,2.062-0.66,3.002l-12.931,28.436
	c-1.585,3.489-3.786,6.662-6.499,9.369l-23.85,23.85h-9.896l23.85-23.85c2.713-2.706,4.914-5.88,6.499-9.369l12.931-28.436
	c0.438-0.94,0.663-1.965,0.66-3.002c-0.009-1.986-0.832-3.882-2.276-5.245c1.33-1.278,3.104-1.988,4.948-1.979
	C192.479,89.781,195.703,93.005,195.721,96.988z"/>
<path id="Rectangle-path" fill="#5452C1" d="M116.549,161.644h36.287c1.822,0,3.299,1.477,3.299,3.299v26.39
	c0,1.822-1.477,3.299-3.299,3.299h-36.287c-1.822,0-3.299-1.477-3.299-3.299v-26.39
	C113.251,163.121,114.728,161.644,116.549,161.644z"/>
<path id="Rectangle-path_1_" fill="#836FEA" d="M116.549,161.644h26.39c1.822,0,3.299,1.477,3.299,3.299v26.39
	c0,1.822-1.477,3.299-3.299,3.299h-26.39c-1.822,0-3.299-1.477-3.299-3.299v-26.39C113.251,163.121,114.728,161.644,116.549,161.644
	z"/>
<path id="Rectangle-path_2_" fill="#836FEA" d="M47.271,161.644h36.287c1.822,0,3.299,1.477,3.299,3.299v26.39
	c0,1.822-1.477,3.299-3.299,3.299H47.271c-1.822,0-3.299-1.477-3.299-3.299v-26.39C43.972,163.121,45.449,161.644,47.271,161.644z"
	/>
<path id="Shape_6_" d="M100.055,131.955c-1.271,0-2.51-0.402-3.54-1.148l-34.199-24.665c-9.432-6.82-15.025-17.747-15.043-29.386
	V24.961c0.001-1.311,0.778-2.497,1.979-3.022L98.736,0.28c0.841-0.367,1.798-0.367,2.639,0l49.482,21.66
	c1.202,0.524,1.979,1.711,1.979,3.022v51.791c-0.018,11.639-5.611,22.565-15.043,29.386l-34.199,24.672
	C102.565,131.554,101.326,131.954,100.055,131.955z M53.872,27.119v49.637c0.015,9.52,4.59,18.457,12.305,24.035l33.879,24.434
	l33.879-24.434c7.714-5.578,12.289-14.515,12.305-24.035V27.119L100.055,6.904L53.872,27.119z"/>
<path id="Shape_7_" d="M100.055,116.325c-0.693,0-1.368-0.218-1.93-0.623L70.036,95.44c-5.999-4.335-9.556-11.283-9.567-18.684
	V33.591c0.001-1.311,0.778-2.497,1.979-3.022l36.287-15.887c0.841-0.367,1.798-0.367,2.639,0l36.287,15.887
	c1.202,0.524,1.979,1.711,1.979,3.022v43.165c-0.01,7.401-3.568,14.349-9.567,18.684l-28.089,20.261
	C101.423,116.107,100.748,116.325,100.055,116.325z M73.896,90.09l26.16,18.869l26.16-18.869c4.28-3.095,6.818-8.052,6.829-13.334
	V35.745l-32.988-14.439l-32.99,14.439v41.011C67.077,82.038,69.616,86.995,73.896,90.09z"/>
<path id="Shape_8_" d="M80.263,164.943H48.32c-0.875,0-1.714-0.348-2.332-0.967l-23.854-23.854
	c-2.991-2.986-5.418-6.489-7.162-10.338L2.045,101.345c-1.517-3.437-1.086-7.423,1.132-10.456c2.218-3.033,5.886-4.652,9.621-4.247
	s6.971,2.771,8.489,6.208l7.135,16.672c5.565-3.68,12.882-3.293,18.028,0.953c5.548,5.1,11.938,9.201,18.886,12.12
	c4.369,1.543,8.191,4.331,10.995,8.019c4.78,6.174,7.328,13.784,7.231,21.591v9.438C83.561,163.466,82.084,164.943,80.263,164.943z
	 M49.686,158.345h27.278v-6.139c0.1-6.313-1.938-12.475-5.783-17.484c-2.018-2.689-4.775-4.732-7.934-5.882
	c-7.753-3.155-14.88-7.668-21.046-13.327c-3.085-2.542-7.517-2.616-10.685-0.178c1.19,1.779,2.552,3.437,4.067,4.948l15.069,15.072
	c0.858,0.828,1.201,2.055,0.9,3.208c-0.302,1.153-1.203,2.054-2.356,2.356s-2.38-0.042-3.208-0.9l-15.069-15.072
	c-3.536-3.525-6.36-7.696-8.32-12.288L15.22,95.45c-0.615-1.443-2.033-2.38-3.602-2.378c-1.333,0-2.575,0.678-3.297,1.799
	s-0.824,2.532-0.273,3.746l12.928,28.439c1.419,3.128,3.392,5.975,5.822,8.402L49.686,158.345z"/>
<path id="Shape_9_" d="M83.561,197.931H47.275c-3.644,0-6.598-2.954-6.598-6.598v-26.39c0-3.644,2.954-6.598,6.598-6.598h36.287
	c3.644,0,6.598,2.954,6.598,6.598v26.39C90.159,194.977,87.205,197.931,83.561,197.931z M47.275,164.943v26.39h36.287v-26.39H47.275
	z"/>
<path id="Shape_10_" d="M73.665,181.437h-3.299c-1.822,0-3.299-1.477-3.299-3.299c0-1.822,1.477-3.299,3.299-3.299h3.299
	c1.822,0,3.299,1.477,3.299,3.299C76.964,179.96,75.487,181.437,73.665,181.437z"/>
<path id="Shape_11_" d="M151.791,164.943h-31.942c-1.822,0-3.299-1.477-3.299-3.299v-9.438c-0.101-7.813,2.448-15.429,7.231-21.607
	c2.804-3.688,6.626-6.476,10.995-8.019c6.948-2.919,13.337-7.02,18.886-12.12c5.147-4.255,12.467-4.656,18.048-0.99l7.119-16.609
	c1.478-3.498,4.727-5.928,8.5-6.357s7.485,1.21,9.71,4.287s2.618,7.115,1.029,10.564l-12.928,28.439
	c-1.744,3.85-4.17,7.352-7.162,10.338l-23.854,23.844C153.504,164.595,152.665,164.943,151.791,164.943z M123.147,158.345h27.278
	l22.887-22.887c2.431-2.427,4.403-5.274,5.822-8.402l12.928-28.439c0.552-1.214,0.449-2.625-0.273-3.746s-1.963-1.799-3.297-1.799
	c-1.568-0.001-2.985,0.934-3.602,2.375l-7.379,17.213c-1.96,4.592-4.784,8.763-8.32,12.288l-15.069,15.072
	c-1.294,1.25-3.352,1.232-4.624-0.04c-1.272-1.272-1.29-3.33-0.04-4.624l15.069-15.072c1.525-1.52,2.894-3.189,4.087-4.981
	c-3.179-2.44-7.623-2.354-10.705,0.208c-6.167,5.66-13.296,10.173-21.05,13.327c-3.153,1.153-5.903,3.196-7.917,5.882
	c-3.85,5.008-5.893,11.171-5.796,17.487L123.147,158.345L123.147,158.345z"/>
<path id="Shape_12_" d="M152.836,197.931h-36.287c-3.644,0-6.598-2.954-6.598-6.598v-26.39c0-3.644,2.954-6.598,6.598-6.598h36.287
	c3.644,0,6.598,2.954,6.598,6.598v26.39C159.434,194.977,156.48,197.931,152.836,197.931z M116.549,164.943v26.39h36.287v-26.39
	H116.549z"/>
<path id="Shape_13_" d="M129.745,181.437h-3.299c-1.822,0-3.299-1.477-3.299-3.299c0-1.822,1.477-3.299,3.299-3.299h3.299
	c1.822,0,3.299,1.477,3.299,3.299C133.043,179.96,131.567,181.437,129.745,181.437z"/>
<path id="Shape_14_" d="M93.458,85.772c-0.714,0-1.408-0.231-1.979-0.66l-13.195-9.896c-1.458-1.093-1.753-3.161-0.66-4.618
	s3.161-1.753,4.618-0.66l10.404,7.805l24.457-36.686c1.011-1.516,3.06-1.925,4.575-0.914c1.516,1.011,1.925,3.06,0.914,4.575
	l-26.39,39.586c-0.503,0.754-1.294,1.268-2.187,1.422C93.831,85.756,93.645,85.771,93.458,85.772z"/>
</svg>
