<?xml version="1.0" encoding="utf-8"?>
<!-- Generator: Adobe Illustrator 17.0.0, SVG Export Plug-In . SVG Version: 6.00 Build 0)  -->
<!DOCTYPE svg PUBLIC "-//W3C//DTD SVG 1.1//EN" "http://www.w3.org/Graphics/SVG/1.1/DTD/svg11.dtd">
<svg version="1.1" xmlns="http://www.w3.org/2000/svg" xmlns:xlink="http://www.w3.org/1999/xlink" x="0px" y="0px" width="200.5px"
	 height="200.5px" viewBox="0 0 200.5 200.5" enable-background="new 0 0 200.5 200.5" xml:space="preserve">
<g id="Layer_1">
	<title>007 - Car Insurance</title>
	<desc>Created with Sketch.</desc>
	<path id="Shape" fill="#BFC2C5" d="M163.299,106.646H16.663l20.329-57.755c1.879-5.329,6.913-8.895,12.564-8.898h63.753
		L163.299,106.646z"/>
	<path id="Shape_1_" fill="#A9ADB1" d="M163.299,106.646H36.326c26.258-27.086,63.97-39.843,101.279-34.26L163.299,106.646z"/>
	<path id="Shape_2_" fill="#3B97D3" d="M163.299,109.978H16.663c-1.081,0-2.095-0.525-2.719-1.407
		c-0.625-0.882-0.782-2.012-0.424-3.032l20.33-57.754c2.348-6.663,8.642-11.121,15.707-11.124h63.753
		c1.049,0,2.037,0.494,2.666,1.333l49.99,66.653c0.757,1.01,0.879,2.361,0.315,3.49
		C165.716,109.265,164.562,109.978,163.299,109.978z M21.369,103.313h135.265l-44.991-59.988H49.556
		c-4.235,0.002-8.01,2.672-9.421,6.665L21.369,103.313z"/>
	<path id="Shape_3_" fill="#A9ADB1" d="M103.312,66.654H76.651c-1.841,0-3.333-1.492-3.333-3.333v-6.665
		c0-1.841,1.492-3.333,3.333-3.333h26.661"/>
	<path id="Shape_4_" fill="#93989D" d="M13.331,166.633h33.326v23.328c0,3.681-2.984,6.665-6.665,6.665H19.996
		c-3.681,0-6.665-2.984-6.665-6.665V166.633z"/>
	<path id="Shape_5_" fill="#A9ADB1" d="M166.632,166.633v23.328c-0.011,3.677-2.989,6.654-6.665,6.665h-19.996
		c-3.677-0.011-6.654-2.989-6.665-6.665v-23.328H166.632z"/>
	<path id="Shape_6_" fill="#93989D" d="M156.634,166.633v23.328c-0.011,3.677-2.989,6.654-6.665,6.665h-9.998
		c-3.677-0.011-6.654-2.989-6.665-6.665v-23.328H156.634z"/>
	<path id="Shape_7_" fill="#A9ADB1" d="M176.63,119.976v49.99c0,1.841-1.492,3.333-3.333,3.333H6.665
		c-1.841,0-3.333-1.492-3.333-3.333v-49.99c0-7.362,5.968-13.331,13.331-13.331h113.743l37.792,0.966
		C173.295,109.594,176.646,114.508,176.63,119.976z"/>
	<path id="Shape_8_" fill="#BFC2C5" d="M166.632,119.976v49.99c0,1.841-1.492,3.333-3.333,3.333H6.665
		c-1.841,0-3.333-1.492-3.333-3.333v-49.99c0-7.362,5.968-13.331,13.331-13.331h103.745l37.792,0.966
		C163.297,109.594,166.648,114.508,166.632,119.976z"/>
	<path id="Shape_9_" fill="#EEE6D7" d="M23.328,119.976h13.331c7.362,0,13.331,5.968,13.331,13.331c0,3.681-2.984,6.665-6.665,6.665
		H23.328c-3.681,0-6.665-2.984-6.665-6.665v-6.665C16.663,122.961,19.647,119.976,23.328,119.976z"/>
	<path id="Shape_10_" fill="#EEE6D7" d="M143.304,119.976h13.331c3.681,0,6.665,2.984,6.665,6.665v6.665
		c0,3.681-2.984,6.665-6.665,6.665h-19.996c-3.681,0-6.665-2.984-6.665-6.665C129.973,125.945,135.941,119.976,143.304,119.976z"/>
	<path id="Shape_11_" fill="#A9ADB1" d="M23.328,159.968h6.665c1.841,0,3.333,1.492,3.333,3.333v9.998h-13.33v-9.998
		C19.996,161.46,21.488,159.968,23.328,159.968z"/>
	<path id="Shape_12_" fill="#A9ADB1" d="M149.969,159.968h6.665c1.841,0,3.333,1.492,3.333,3.333v9.998h-13.331v-9.998
		C146.636,161.46,148.128,159.968,149.969,159.968z"/>
	<path id="Rectangle-path" fill="#EEE6D7" d="M66.653,139.972h46.657c1.841,0,3.333,1.492,3.333,3.333v13.331
		c0,1.841-1.492,3.333-3.333,3.333H66.653c-1.841,0-3.333-1.492-3.333-3.333v-13.331C63.32,141.464,64.812,139.972,66.653,139.972z"
		/>
	<path id="Shape_13_" fill="#A9ADB1" d="M196.626,24.43v47.09c-0.017,9.887-4.824,19.154-12.897,24.861l-32.793,23.362
		c-0.582,0.4-1.351,0.4-1.933,0l-4.032-2.866L116.21,96.381c-8.074-5.708-12.881-14.974-12.897-24.861V24.43
		c0.002-0.663,0.394-1.264,1-1.533L144.97,5.334l4.332-1.866c0.429-0.167,0.904-0.167,1.333,0l44.991,19.429
		C196.232,23.166,196.624,23.766,196.626,24.43z"/>
	<path id="Shape_14_" fill="#BFC2C5" d="M186.628,24.43v47.09c-0.017,9.887-4.824,19.154-12.897,24.861l-28.761,20.496
		l-28.761-20.496c-8.074-5.708-12.881-14.974-12.897-24.861V24.43c0.002-0.663,0.394-1.264,1-1.533L144.97,5.334l40.658,17.563
		C186.234,23.166,186.626,23.766,186.628,24.43z"/>
	<path id="Shape_15_" fill="#955BA5" d="M123.934,85.53c-4.546-3.215-7.261-8.426-7.292-13.994V32.105l33.326-14.397l33.326,14.397
		v39.432c-0.03,5.569-2.745,10.781-7.292,13.997l-26.035,18.529L123.934,85.53z"/>
	<path id="Shape_16_" fill="#EEE6D7" d="M123.934,85.53c-4.546-3.215-7.261-8.426-7.292-13.994V32.105l33.326-14.397l33.326,14.397
		v39.432c-0.03,5.569-2.745,10.781-7.292,13.997l-26.035,18.529L123.934,85.53z"/>
	<path id="Shape_17_" fill="#385572" d="M149.969,123.309c-1.236,0.001-2.442-0.384-3.449-1.1l-32.247-22.955
		c-8.935-6.345-14.258-16.612-14.294-27.571V23.49c-0.002-1.327,0.783-2.529,2-3.059l46.657-20.156c0.842-0.363,1.797-0.363,2.639,0
		l46.657,20.156c1.216,0.531,2.002,1.732,2,3.059v48.193c-0.036,10.958-5.359,21.226-14.294,27.571l-32.247,22.952
		C152.392,122.918,151.196,123.303,149.969,123.309z M106.644,25.679v45.99c0.033,8.803,4.314,17.049,11.494,22.142l31.83,22.672
		l31.83-22.662c7.18-5.092,11.46-13.337,11.494-22.139V25.679L149.969,6.963L106.644,25.679z"/>
	<path id="Shape_18_" fill="#385572" d="M149.969,107.546c-0.693-0.001-1.369-0.217-1.933-0.62l-26.035-18.533
		c-5.423-3.842-8.66-10.064-8.692-16.71V32.251c-0.002-1.327,0.783-2.529,2-3.059l33.326-14.397c0.842-0.363,1.797-0.363,2.639,0
		L184.6,29.192c1.216,0.531,2.002,1.732,2,3.059v39.432c-0.031,6.646-3.268,12.869-8.692,16.71L151.9,106.926
		C151.338,107.328,150.662,107.545,149.969,107.546z M125.87,82.964l24.098,17.156l24.098-17.136
		c3.675-2.594,5.871-6.803,5.895-11.301V34.441l-29.994-12.954l-29.994,12.954v37.242C120.004,76.175,122.2,80.376,125.87,82.964z"
		/>
	<path id="Shape_19_" fill="#385572" d="M143.304,79.985c-0.721,0.001-1.423-0.233-2-0.667l-13.331-9.998
		c-1.472-1.104-1.771-3.193-0.667-4.666c1.104-1.472,3.193-1.771,4.666-0.667l10.744,8.062l24.662-30.807
		c1.15-1.437,3.248-1.67,4.686-0.52c1.437,1.15,1.67,3.248,0.52,4.686l-26.661,33.326C145.287,79.53,144.322,79.99,143.304,79.985z"
		/>
	<path id="Shape_20_" fill="#385572" d="M173.297,176.631H6.665c-3.681,0-6.665-2.984-6.665-6.665v-49.99
		c0.011-9.198,7.465-16.652,16.663-16.663h113.743c1.841,0,3.333,1.492,3.333,3.333s-1.492,3.333-3.333,3.333H16.663
		c-5.522,0-9.998,4.476-9.998,9.998v49.99h166.632v-49.99c0.024-4.097-2.487-7.782-6.309-9.258
		c-1.715-0.667-2.565-2.599-1.898-4.314s2.599-2.565,4.314-1.898c6.392,2.462,10.595,8.621,10.558,15.47v49.99
		C179.963,173.647,176.978,176.631,173.297,176.631z"/>
	<path id="Shape_21_" fill="#385572" d="M39.992,199.96H19.996c-5.522,0-9.998-4.476-9.998-9.998v-16.663
		c0-1.841,1.492-3.333,3.333-3.333h33.326c1.841,0,3.333,1.492,3.333,3.333v16.663C49.99,195.484,45.513,199.96,39.992,199.96z
		 M16.663,176.631v13.331c0,1.841,1.492,3.333,3.333,3.333h19.996c1.841,0,3.333-1.492,3.333-3.333v-13.331H16.663z"/>
	<path id="Shape_22_" fill="#385572" d="M159.967,199.96h-19.996c-5.522,0-9.998-4.476-9.998-9.998v-16.663
		c0-1.841,1.492-3.333,3.333-3.333h33.326c1.841,0,3.333,1.492,3.333,3.333v16.663C169.965,195.484,165.488,199.96,159.967,199.96z
		 M136.638,176.631v13.331c0,1.841,1.492,3.333,3.333,3.333h19.996c1.841,0,3.333-1.492,3.333-3.333v-13.331H136.638z"/>
	<path id="Shape_23_" fill="#385572" d="M130.406,109.978H16.663c-1.081,0-2.095-0.525-2.719-1.407
		c-0.625-0.882-0.782-2.012-0.424-3.032l20.33-57.754c2.348-6.663,8.642-11.121,15.707-11.124h53.755
		c1.841,0,3.333,1.492,3.333,3.333s-1.492,3.333-3.333,3.333H49.556c-4.235,0.002-8.01,2.672-9.421,6.665l-18.766,53.322h109.037
		c1.841,0,3.333,1.492,3.333,3.333C133.739,108.486,132.247,109.978,130.406,109.978z"/>
	<path id="Shape_24_" fill="#385572" d="M35.486,96.648c-1.081,0-2.095-0.525-2.719-1.407c-0.625-0.882-0.782-2.012-0.424-3.032
		l12.511-35.553c1.419-3.992,5.195-6.661,9.431-6.665h5.702c1.841,0,3.333,1.492,3.333,3.333s-1.492,3.333-3.333,3.333h-5.702
		c-1.414,0-2.673,0.893-3.143,2.226l-12.51,35.539C38.162,95.756,36.901,96.649,35.486,96.648z"/>
	<path id="Shape_25_" fill="#385572" d="M89.981,56.656c-1.841,0-3.333-1.492-3.333-3.333v-13.33c0-1.841,1.492-3.333,3.333-3.333
		s3.333,1.492,3.333,3.333v13.331C93.314,55.164,91.822,56.656,89.981,56.656z"/>
	<path id="Shape_26_" fill="#385572" d="M103.312,69.987H76.651c-3.681,0-6.665-2.984-6.665-6.665v-6.665
		c0-3.681,2.984-6.665,6.665-6.665h26.661c1.841,0,3.333,1.492,3.333,3.333s-1.492,3.333-3.333,3.333H76.651v6.665h26.661
		c1.841,0,3.333,1.492,3.333,3.333C106.644,68.495,105.152,69.987,103.312,69.987z"/>
	<path id="Shape_27_" fill="#385572" d="M43.324,143.305H23.328c-5.522,0-9.998-4.476-9.998-9.998v-6.665
		c0-5.522,4.476-9.998,9.998-9.998h13.331c9.198,0.011,16.652,7.465,16.663,16.663C53.322,138.829,48.846,143.305,43.324,143.305z
		 M23.328,123.309c-1.841,0-3.333,1.492-3.333,3.333v6.665c0,1.841,1.492,3.333,3.333,3.333h19.996c1.841,0,3.333-1.492,3.333-3.333
		c0-5.522-4.476-9.998-9.998-9.998C36.659,123.309,23.328,123.309,23.328,123.309z"/>
	<path id="Shape_28_" fill="#385572" d="M156.634,143.305h-19.996c-5.522,0-9.998-4.476-9.998-9.998
		c0.011-9.198,7.465-16.652,16.663-16.663h13.331c5.522,0,9.998,4.476,9.998,9.998v6.665
		C166.632,138.829,162.156,143.305,156.634,143.305z M143.304,123.309c-5.522,0-9.998,4.476-9.998,9.998
		c0,1.841,1.492,3.333,3.333,3.333h19.996c1.841,0,3.333-1.492,3.333-3.333v-6.665c0-1.841-1.492-3.333-3.333-3.333
		C156.635,123.309,143.304,123.309,143.304,123.309z"/>
	<path id="Shape_29_" fill="#385572" d="M33.326,176.631h-13.33c-1.841,0-3.333-1.492-3.333-3.333V163.3
		c0-3.681,2.984-6.665,6.665-6.665h6.665c3.681,0,6.665,2.984,6.665,6.665v9.998C36.659,175.139,35.167,176.631,33.326,176.631z
		 M23.328,169.966h6.665v-6.665h-6.665V169.966z"/>
	<path id="Shape_30_" fill="#385572" d="M159.967,176.631h-13.331c-1.841,0-3.333-1.492-3.333-3.333V163.3
		c0-3.681,2.984-6.665,6.665-6.665h6.665c3.681,0,6.665,2.984,6.665,6.665v9.998C163.299,175.139,161.807,176.631,159.967,176.631z
		 M149.969,169.966h6.665v-6.665h-6.665V169.966z"/>
	<path id="Shape_31_" fill="#385572" d="M113.31,163.301H66.653c-3.681,0-6.665-2.984-6.665-6.665v-13.331
		c0-3.681,2.984-6.665,6.665-6.665h46.657c3.681,0,6.665,2.984,6.665,6.665v13.331C119.975,160.317,116.991,163.301,113.31,163.301z
		 M66.653,143.305v13.331h46.657v-13.331H66.653z"/>
</g>
<g id="Layer_2">
</g>
</svg>
