<?xml version="1.0" encoding="utf-8"?>
<!-- Generator: Adobe Illustrator 17.0.0, SVG Export Plug-In . SVG Version: 6.00 Build 0)  -->
<!DOCTYPE svg PUBLIC "-//W3C//DTD SVG 1.1//EN" "http://www.w3.org/Graphics/SVG/1.1/DTD/svg11.dtd">
<svg version="1.1" id="b15325d2-ef49-41bb-b39b-b88ff27f55f0"
	 xmlns="http://www.w3.org/2000/svg" xmlns:xlink="http://www.w3.org/1999/xlink" x="0px" y="0px" width="1136px"
	 height="647.595px" viewBox="0 0 1136 647.595" enable-background="new 0 0 1136 647.595" xml:space="preserve">
<title>journey</title>
<circle fill="#FFDC2D" cx="248" cy="214.523" r="86"/>
<path fill="#F2F2F2" d="M1100.4,611.793c-5.057,4.551-10.376,8.801-15.93,12.73c-13.182,9.27-27.427,16.928-42.43,22.81
	c-62.35-1.5-154.01-9.15-269.71-13.23c-8.63-2.95-17.457-6.143-26.48-9.58c-11.94-4.55-24.223-9.55-36.85-15
	c-52.44-22.66-106.28-37.39-159.61-46.19c-11.46-1.89-22.89-3.51-34.29-4.86c-240.82-28.8-462.9,55.82-488.62,66.05H24l15.82-30.64
	L309,72.523l62.95,161.62l20.09,51.59l55.37-75.98l28.59-39.23l130.2,149.27l36.8-81.27l254.78,207.92l14.21,11.59l14.38,11.74
	l4.58,3.74l136.21,111.16L1100.4,611.793z"/>
<polygon opacity="0.1" enable-background="new    " points="285,177.523 311,120.523 347,203.523 316,143.523 "/>
<path opacity="0.1" enable-background="new    " d="M549.39,563.333c-11.46-1.89-22.89-3.51-34.29-4.86l-123.06-272.74
	L549.39,563.333z"/>
<polygon opacity="0.1" enable-background="new    " points="447.411,209.752 476,187.523 606,337.523 474,209.523 "/>
<polygon opacity="0.1" enable-background="new    " points="606.197,319.789 866,568.523 830.464,576.904 "/>
<path fill="#28323C" d="M1136,625.023c0,19.37-32.96,23.78-93.96,22.31c-62.35-1.5-154.01-9.15-269.71-13.23
	c-43.76-1.54-90.97-2.58-141.33-2.58c-313.7,0-631,40.17-631-6.5c0-11,14.12-21.5,39.82-31.14c76.2-28.58,254.18-49.51,467.4-52.88
	c9.7-0.16,19.47-0.277,29.31-0.35c10.42-0.09,20.91-0.133,31.47-0.13c84.77,0,165.21,2.76,237.46,7.71
	c0.23,0.02,0.45,0.04,0.68,0.05c5.8,0.4,11.543,0.813,17.23,1.24c6.21,0.47,12.353,0.953,18.43,1.45c1.25,0.1,2.5,0.2,3.74,0.31
	c0.9,0.07,1.8,0.15,2.69,0.23c1.64,0.13,3.28,0.27,4.9,0.42c0.057-0.002,0.114,0.001,0.17,0.01c2.98,0.26,5.94,0.52,8.88,0.78
	c0.31,0.03,0.62,0.06,0.93,0.08c85.45,7.75,156.07,18.76,204.05,31.87C1111.06,596.663,1136,610.403,1136,625.023z"/>
<path fill="#28323C" d="M70.887,458.182c0,64.016,40.16,115.817,89.791,115.817"/>
<path fill="#00BF7E" d="M160.678,573.999c0-64.735,44.817-117.118,100.201-117.118"/>
<path fill="#00BF7E" d="M103.42,463.985c0,60.809,25.609,110.014,57.258,110.014"/>
<path fill="#28323C" d="M160.678,573.999c0-82.717,51.801-149.651,115.817-149.651"/>
<path fill="#A8A8A8" d="M141.788,574.816c0,0,12.734-0.392,16.571-3.125s19.588-5.996,20.54-1.613s19.137,21.798,4.76,21.914
	s-33.404-2.239-37.235-4.573S141.788,574.816,141.788,574.816z"/>
<path opacity="0.2" enable-background="new    " d="M183.916,590.466c-14.376,0.116-33.404-2.239-37.235-4.573
	c-2.917-1.777-4.079-8.153-4.468-11.094c-0.269,0.012-0.425,0.017-0.425,0.017s0.807,10.27,4.637,12.603s22.858,4.688,37.235,4.573
	c4.15-0.033,5.583-1.51,5.505-3.697C188.587,589.616,187.005,590.441,183.916,590.466z"/>
<path fill="#3F3D56" d="M762.887,449.182c0,64.016,40.16,115.817,89.791,115.817L762.887,449.182z"/>
<path fill="#00BF7E" d="M852.678,564.999c0-64.735,44.817-117.118,100.201-117.118L852.678,564.999z"/>
<path fill="#00BF7E" d="M795.42,454.985c0,60.809,25.609,110.014,57.258,110.014L795.42,454.985z"/>
<path fill="#3F3D56" d="M852.678,564.999c0-82.717,51.801-149.651,115.817-149.651L852.678,564.999z"/>
<path fill="#A8A8A8" d="M833.788,565.816c0,0,12.734-0.392,16.571-3.125s19.588-5.996,20.54-1.613s19.137,21.798,4.76,21.914
	s-33.404-2.239-37.235-4.573S833.788,565.816,833.788,565.816z"/>
<path opacity="0.2" enable-background="new    " d="M875.916,581.466c-14.376,0.116-33.404-2.239-37.235-4.573
	c-2.917-1.777-4.079-8.153-4.468-11.094c-0.269,0.012-0.425,0.017-0.425,0.017s0.807,10.27,4.637,12.603s22.858,4.688,37.235,4.573
	c4.15-0.033,5.583-1.51,5.505-3.697C880.587,580.616,879.005,581.441,875.916,581.466z"/>
<rect x="481" y="440.479" fill="#3F3D56" width="18" height="32.087"/>
<circle fill="#F2F2F2" cx="490" cy="449.088" r="3.522"/>
<path fill="#FFB9B9" d="M492.182,413.059c0,0-5.478,31.775,4.383,32.871s1.096-33.966,1.096-33.966L492.182,413.059z"/>
<path fill="#575A89" d="M498.756,304.586c0,0-11.505,109.021-8.218,110.665s12.053,3.835,13.696,2.191s8.218-69.028,8.218-69.028
	l-4.931-35.062L498.756,304.586z"/>
<path opacity="0.1" enable-background="new    " d="M498.756,304.586c0,0-11.505,109.021-8.218,110.665s12.053,3.835,13.696,2.191
	s8.218-69.028,8.218-69.028l-4.931-35.062L498.756,304.586z"/>
<rect x="519.848" y="255.554" fill="#2F2E41" width="34.514" height="37.253"/>
<path fill="#FFB9B9" d="M527.792,272.263c0,0-1.096,24.105-8.766,25.749s7.122,29.584,7.122,29.584l23.009-2.191l5.478-32.871
	c0,0-12.6-2.191-8.218-19.175L527.792,272.263z"/>
<path opacity="0.1" enable-background="new    " d="M527.792,272.263c0,0-1.096,24.105-8.766,25.749s7.122,29.584,7.122,29.584
	l23.009-2.191l5.478-32.871c0,0-12.6-2.191-8.218-19.175L527.792,272.263z"/>
<polygon fill="#FFB9B9" points="528.888,547.829 530.531,557.142 540.393,554.951 538.201,545.637 "/>
<polygon fill="#FFB9B9" points="560.115,533.585 556.828,543.446 567.237,548.924 567.785,540.707 "/>
<path fill="#2F2E41" d="M517.383,385.667c0,0-13.148,38.349-10.409,56.428s13.696,104.09,13.696,104.09s12.6,8.218,20.27-1.096
	l-5.479-73.411c0,0,1.096-44.375,5.478-39.993s21.366,55.88,21.366,55.88l-3.287,46.567c0,0,1.644,14.244,11.505,8.218
	l13.696-51.497c0,0-4.383-69.028-6.574-71.768s-16.435-34.514-16.435-34.514L517.383,385.667z"/>
<circle fill="#FFB9B9" cx="539.023" cy="267.059" r="15.887"/>
<path fill="#FFDC2D" d="M522.862,306.229c0,0,6.026,8.766,13.696,2.739s12.053-6.574,12.053-6.574l9.313,5.478l-2.191,21.366
	l3.287,59.167c0,0-39.993,3.287-42.184-1.096s2.739-23.009,2.739-23.009l-7.122-39.993v-18.079H522.862z"/>
<path fill="#575A89" d="M535.462,322.117c0,0-9.861-30.131-13.148-30.679s-12.6,6.026-12.6,6.026s-13.696,4.383-13.696,7.122
	s2.191,2.739,2.191,2.739l7.67,14.792c0,0,3.287,13.148,2.191,21.914c-0.661,5.269-0.844,10.586-0.548,15.887
	c0,0-12.053,72.315-6.026,74.507s6.026,4.383,6.026,4.383s8.766,4.931,10.409,2.739s17.531-96.421,17.531-96.421
	S543.68,329.239,535.462,322.117z"/>
<path fill="#575A89" d="M537.653,322.117c0,0,4.931-11.505,2.191-19.175c0,0,2.739-0.548,3.835-2.191s0-9.861,2.739-10.409
	s23.009,0,24.105,1.096s4.383,8.766,4.383,8.766h-1.644l-12.053,19.722c0,0,6.026,37.253,4.931,43.28s15.887,31.227,18.079,32.871
	s12.053,27.94,7.67,30.679s-42.732,20.27-44.375,11.505s-13.148-61.359-13.148-61.359s-0.548-29.036,1.096-36.158
	S537.653,322.117,537.653,322.117z"/>
<path fill="#FFB9B9" d="M563.402,409.772c0,0-11.505,37.801,0,36.158s8.766-37.253,8.766-37.253L563.402,409.772z"/>
<path fill="#2F2E41" d="M539.321,554.97c0,0,9.083,2.595,8.434,8.434c-0.413,3.453-2.64,6.422-5.839,7.785
	c-1.943,1.263-2.96,3.551-2.595,5.839c0.649,3.893-5.19,9.732-14.922,7.137s-7.785-5.19-7.785-5.19
	c0.53-2.878,2.158-5.438,4.541-7.137c3.893-2.595,8.434-11.678,8.434-12.327s1.298-5.19,1.298-5.19S536.077,551.077,539.321,554.97z
	"/>
<path fill="#2F2E41" d="M558.471,542.35c0,0-9.861,4.383-7.67,9.861s9.313,13.148,10.409,21.366s10.409,15.34,16.983,10.957
	s-1.096-13.148-1.096-13.148s-8.218-15.34-8.766-18.627s1.096-6.574-2.191-7.67S558.471,542.35,558.471,542.35z"/>
<path opacity="0.1" enable-background="new    " d="M572.989,305.955c0,0-1.37-6.3,0.274-2.465s13.696,50.402,2.739,78.342
	c0,0-1.096,34.514-2.191,34.514s-14.244-0.548-13.696-4.383s1.644-65.741,1.644-69.576s1.917-28.762,1.917-28.762L572.989,305.955z"
	/>
<path fill="#575A89" d="M570.524,296.368c1.756,2.179,3.229,4.572,4.383,7.122c1.644,3.835,13.696,50.402,2.739,78.342
	c0,0-1.096,34.514-2.191,34.514s-14.244-0.548-13.696-4.383s1.644-65.741,1.644-69.576s-3.287-29.584-3.287-29.584L570.524,296.368z
	"/>
<path fill="#2F2E41" d="M530.067,239.088c-5.748,1.797-10.04,6.493-14.04,10.996c-1.556,1.592-2.875,3.398-3.918,5.365
	c-1.016,2.506-1.553,5.181-1.582,7.886c-0.267,4.191-0.352,8.389-0.256,12.594c0.092,4.027,0.339,8.156-0.899,11.989
	c-1.197,3.706-3.688,6.839-5.4,10.338c-2.73,5.581-3.36,12.353-0.84,18.032c1.387,3.126,3.632,5.786,5.309,8.766
	c2.966,5.307,4.064,11.457,3.12,17.462l7.889-10.22c5.053-6.546,10.265-13.443,11.687-21.588
	c2.062-11.815-4.241-23.388-5.484-35.317c-0.347-3.326-0.23-6.919,1.653-9.683c2.779-4.08,8.824-5.522,10.495-10.167
	c0.242,1.945,11.895,8.141,13.298,6.936c1.756,4.736,0.922,10.045-2.201,14.015c-1.128,1.4-2.514,2.579-3.614,4.001
	c-2.849,3.684-3.497,8.651-3.095,13.291s1.738,9.146,2.444,13.749c0.597,4.583,0.882,9.202,0.853,13.824
	c0.052,3.2-0.035,6.77-2.279,9.052c3.68-1.29,7.042-3.35,9.861-6.044c1.53-1.665,3.173-3.223,4.918-4.662
	c3.529-2.546,8.31-3.301,11.189-6.564c2.57-2.913,2.98-7.187,2.376-11.025s-2.076-7.49-2.816-11.304
	c-0.936-4.851-0.675-9.857,0.762-14.584c1.048-3.433,2.72-6.743,2.925-10.326c0.417-7.31-5.219-13.424-10.638-18.347
	C553.664,240.177,541.092,235.641,530.067,239.088z"/>
<path fill="#F2F2F2" d="M995.395,104.367c-4.857,1.793-13.383,3.26-23.253,4.444c-26.839,3.221-63.62,4.364-63.62,4.364
	s-189.025,15.679-330.706-42.631c0,0-20.608-10.806-1.465-25.344c2.941-2.176,6.069-4.086,9.348-5.708c0,0,0.079-0.081,0.236-0.23
	c2.175-2.011,4.525-3.823,7.023-5.414c7.339-4.744,19.733-10.373,34.816-7.823l372.091,60.186
	C999.865,86.212,1013.456,97.695,995.395,104.367z"/>
<path fill="#F2F2F2" d="M921.25,77.092l77.9-55.271l34.334,5.938l-33.62,58.452C999.864,86.211,922.145,86.829,921.25,77.092z"/>
<polygon fill="#F2F2F2" points="725.129,43.517 880.294,0 905.307,5.226 835.216,36.756 813.306,61.264 "/>
<path fill="#F2F2F2" d="M972.141,108.811c-26.839,3.221-63.62,4.364-63.62,4.364s-189.025,15.679-330.706-42.631
	c0,0-20.608-10.806-1.465-25.344l0.065,0.266c0,0,30.569,20.662,176.636,37.914L972.141,108.811z"/>
<path fill="#F2F2F2" d="M947.198,107.616l69.376,28.324l17.426-1.935l-41.496-31.184C992.504,102.82,942.315,92.117,947.198,107.616
	z"/>
<path fill="#F2F2F2" d="M601.544,48.492c-3.312,0.058-10.895-5.496-15.61-9.229c2.175-2.011,4.525-3.823,7.023-5.414
	c3.8,2.917,10.565,7.64,14.325,7.471C612.711,41.077,606.527,48.406,601.544,48.492z"/>
<path fill="#F2F2F2" d="M916.702,205.532l-44.539,2.328l-125.22-84.441l-23.247-15.676l-11.298-7.618
	c21.186-17.907,107.616,6.783,107.616,6.783c1.655,1.397,2.18,3.717,2.105,6.279c-0.142,4.802-2.397,10.454-3.267,12.465
	c-0.209,0.485-0.337,0.758-0.337,0.758L916.702,205.532z"/>
<path fill="#28323C" d="M995.395,104.367c-4.857,1.793-13.383,3.26-23.253,4.444c-26.839,3.221-63.62,4.364-63.62,4.364
	s-189.025,15.679-330.706-42.631c0,0-20.608-10.806-1.465-25.344c2.941-2.176,6.069-4.086,9.348-5.708c0,0,0.079-0.081,0.236-0.23
	c2.175-2.011,4.525-3.823,7.023-5.414c7.339-4.744,19.733-10.373,34.816-7.823l372.091,60.186
	C999.865,86.212,1013.456,97.695,995.395,104.367z"/>
<path fill="#28323C" d="M921.25,77.092l77.9-55.271l34.334,5.938l-33.62,58.452C999.864,86.211,922.145,86.829,921.25,77.092z"/>
<polygon fill="#28323C" points="725.129,43.517 880.294,0 905.307,5.226 835.216,36.756 813.306,61.264 "/>
<path fill="#F2F2F2" d="M971.141,109.811c-26.839,3.221-63.62,4.364-63.62,4.364s-189.025,15.679-330.706-42.631
	c0,0-20.608-10.806-1.465-25.344l0.065,0.266c0,0,30.569,20.662,176.636,37.914L971.141,109.811z"/>
<path fill="#28323C" d="M947.198,107.616l69.376,28.324l17.426-1.935l-41.496-31.184C992.504,102.82,942.315,92.117,947.198,107.616
	z"/>
<path fill="#F2F2F2" d="M601.544,48.492c-3.312,0.058-10.895-5.496-15.61-9.229c2.175-2.011,4.525-3.823,7.023-5.414
	c3.8,2.917,10.565,7.64,14.325,7.471C612.711,41.077,606.527,48.406,601.544,48.492z"/>
<path fill="#28323C" d="M916.702,205.532l-44.539,2.328l-125.22-84.441l-23.247-15.676l-11.298-7.618
	c21.186-17.907,107.616,6.783,107.616,6.783c1.655,1.397,2.18,3.717,2.105,6.279c-0.142,4.802-2.397,10.454-3.267,12.465
	c-0.209,0.485-0.337,0.758-0.337,0.758L916.702,205.532z"/>
</svg>
