<?xml version="1.0" encoding="utf-8"?>
<!-- Generator: Adobe Illustrator 17.0.0, SVG Export Plug-In . SVG Version: 6.00 Build 0)  -->
<!DOCTYPE svg PUBLIC "-//W3C//DTD SVG 1.1//EN" "http://www.w3.org/Graphics/SVG/1.1/DTD/svg11.dtd">
<svg version="1.1" id="Layer_1" xmlns="http://www.w3.org/2000/svg" xmlns:xlink="http://www.w3.org/1999/xlink" x="0px" y="0px"
	 width="512px" height="512px" viewBox="0 0 512 512" enable-background="new 0 0 512 512" xml:space="preserve">
<title  style="fill:#FFFFFF" data-old_color="#B6B2B2" class="active-path">a1</title>
<path fill="#FFFFFF" d="M169,238.687c0-3.314-2.686-6-6-6l0,0h-49c-3.314,0-6,2.686-6,6l0,0v181c0,3.314,2.686,6,6,6h49
	c3.314,0,6-2.686,6-6V238.687z M158,412.687h-38v-168h38V412.687z"/>
<path fill="#FFFFFF" d="M68,180.687c0-3.314-2.686-6-6-6H13c-3.314,0-6,2.686-6,6v238c0,3.314,2.686,6,6,6h49c3.314,0,6-2.686,6-6
	V180.687z M57,412.687H19v-226h38V412.687z"/>
<path fill="#FFFFFF" d="M271,170.687c0-3.314-2.686-6-6-6h-49c-3.314,0-6,2.686-6,6v248c0,3.314,2.686,6,6,6h49c3.314,0,6-2.686,6-6
	V411.5v-11l-10-37l10-54V170.687z M260,412.687h-38v-236h38V338.5v26V412.687z"/>
<path fill="#FFFFFF" d="M215.932,121.917c12.903,13.566,34.361,14.104,47.927,1.201c9.946-9.46,13.206-23.983,8.257-36.786
	l39.363-36.077c8.476,16.694,28.88,23.356,45.574,14.88s23.356-28.88,14.88-45.574s-28.88-23.356-45.574-14.88
	c-11.389,5.783-18.561,17.476-18.553,30.249c0,0.785,0.036,1.561,0.089,2.333l-42.166,38.646
	c-12.484-13.962-33.923-15.159-47.884-2.675c-10.844,9.697-14.296,25.23-8.579,38.607l-40.642,34.276
	c-9.282-16.251-29.98-21.9-46.231-12.618c-4.221,2.411-7.873,5.701-10.71,9.648l-41.078-28.6
	c5.051-18.079-5.509-36.829-23.588-41.881c-18.079-5.051-36.829,5.509-41.881,23.588s5.509,36.829,23.588,41.881
	c13.64,3.811,28.213-1.235,36.576-12.664l41.147,28.652c-4.907,18.085,5.776,36.724,23.862,41.631s36.724-5.776,41.631-23.862
	c1.201-4.426,1.492-9.05,0.856-13.592L215.932,121.917z M341.732,13.004c12.109-0.001,21.926,9.816,21.927,21.925
	c0.001,12.109-9.816,21.926-21.925,21.927c-12.109,0.001-21.926-9.816-21.927-21.925c0,0,0-0.001,0-0.001
	c0.014-12.103,9.821-21.911,21.924-21.926L341.732,13.004z M240.463,76.593c12.109,0,21.926,9.817,21.926,21.926
	s-9.817,21.926-21.926,21.926c-12.109,0-21.926-9.817-21.926-21.926c0,0,0,0,0,0C218.551,86.415,228.359,76.606,240.463,76.593z
	 M37.926,127.387C25.817,127.387,16,117.57,16,105.461s9.817-21.926,21.926-21.926c12.109,0,21.926,9.817,21.926,21.926
	c0,0,0,0.001,0,0.001C59.838,117.565,50.029,127.373,37.926,127.387z M139.194,184.887c-12.109,0-21.926-9.817-21.926-21.926
	s9.817-21.926,21.926-21.926c12.109,0,21.926,9.817,21.926,21.926v0C161.107,175.064,151.298,184.873,139.194,184.887z"/>
<title  style="fill:#FFFFFF" data-old_color="#FBF5F5" class="active-path">Coin,money bag</title>
<path fill="#FFFFFF" d="M344.765,205.282c-0.911,0.199-1.741,0.344-2.459,0.422l1.536,0.153L344.765,205.282z"/>
<path fill="#FFFFFF" d="M327.401,202.733l0.642,1.551l8.613,0.857C333.562,204.5,329.968,203.495,327.401,202.733z"/>
<path fill="#FFFFFF" d="M362,195.372c-0.824,0.208-1.657,0.455-2.495,0.723l-14.741,9.186c6.597-1.442,17.235-5.595,17.235-5.595
	V195.372z"/>
<path fill="#FFFFFF" d="M373,191.333v-86.646c0-3.314-2.686-6-6-6h-49c-3.314,0-6,2.686-6,6v96.353l12,0.053v-90.405h38v80.871
	L373,191.333z"/>
<path fill="#FFFFFF" d="M342.306,205.704l-5.65-0.563c1.932,0.4,3.669,0.659,4.833,0.625
	C341.738,205.759,342.016,205.735,342.306,205.704z"/>
<g>
	<path fill="#FFFFFF" d="M425.936,354.664c-38.498,0-69.819,31.32-69.82,69.818c0,38.499,31.321,69.82,69.819,69.82
		s69.819-31.321,69.819-69.82C495.71,386.029,464.391,354.709,425.936,354.664z M485.438,424.482
		c-0.036,32.773-26.729,59.468-59.503,59.505c-32.811,0-59.504-26.693-59.505-59.503c0-32.811,26.693-59.504,59.504-59.505
		C458.745,364.979,485.438,391.673,485.438,424.482z"/>
	<path fill="#FFFFFF" d="M455.348,394.406c0-2.844-2.313-5.157-5.158-5.157h-48.508c-2.845,0-5.158,2.313-5.158,5.157
		c0,2.845,2.313,5.158,5.158,5.158h13.88c6.921,0,12.718,4.158,14.804,10.474h-28.684c-2.845,0-5.158,2.313-5.158,5.157
		c0,2.845,2.313,5.158,5.158,5.158h28.641c-2.252,6.145-8.148,10.388-14.761,10.474l-13.968-0.001c-2.739,0-5.016,2.229-5.074,4.972
		c-0.03,1.449,0.563,2.846,1.62,3.824l34.694,32.767c0.961,0.9,2.215,1.396,3.532,1.396c1.416,0,2.785-0.59,3.752-1.613
		c0.938-0.977,1.439-2.261,1.412-3.615c-0.027-1.355-0.58-2.618-1.615-3.61l-25.261-23.804h0.908
		c12.414-0.013,22.983-8.705,25.446-20.789h9.181c2.845,0,5.158-2.313,5.158-5.158c0-2.844-2.313-5.157-5.158-5.157h-9.177
		c-0.763-3.818-2.378-7.391-4.73-10.474h13.907C453.034,399.564,455.348,397.251,455.348,394.406z"/>
	<path fill="#FFFFFF" d="M484.096,361.803c-0.238-21.272-6.468-41.94-18.025-59.794c-10.269-16.006-24.55-29.079-41.38-37.896
		c3.415-2.436,5.144-5.327,5.144-8.613v-9.19c0-0.054-0.003-0.107-0.006-0.196l0.006-0.166c0-4.152-2.64-8.335-21.325-10.933
		c2.785-2.943,5.127-6.259,6.977-9.88l12.127-23.728c1.295-2.532,0.29-5.646-2.242-6.941c-1.49-0.764-3.353-0.738-4.821,0.064
		c-1.521,0.83-3.263,1.251-5.177,1.251c-4.934,0-11.264-1.778-14.86-4.105c-6.734-4.424-15.967-7.157-21.615-6.763
		c-16.896,1.181-31.73,17.711-43.049,17.711c-9.984,0-15.463-6.534-15.688-6.809c-0.983-1.209-2.442-1.903-4.003-1.903
		c-1.181,0-2.336,0.411-3.253,1.157c-1.777,1.446-2.387,3.842-1.515,5.964l8.715,21.035c2.052,4.961,4.964,9.408,8.672,13.243
		c-2.632,0.405-5.264,0.917-7.855,1.53c-3.467,0.854-11.584,2.856-11.584,9.107v9.552c0,3.232,1.749,6.111,5.203,8.575
		c-27.183,14.221-47.418,39.474-55.649,69.541c-8.999,32.868-2.202,67.268,18.646,94.494c-3.327,5.755-5.075,12.289-5.062,18.947
		c0.026,6.57,5.394,11.915,11.961,11.915h0.102c9.922,0,19.622-4.037,26.669-11.133c3.21-3.236,7.666-5.092,12.275-5.092h18.9
		c8.491,39.015,43.498,67.248,83.553,67.248c47.151,0,85.512-38.36,85.512-85.512C511.446,400.766,501.483,377.946,484.096,361.803z
		 M340.792,432.438h-17.391c-7.272,0-14.383,2.961-19.56,8.175c-5.077,5.11-12.121,8.041-19.326,8.041h-0.122
		c-0.871,0-1.593-0.709-1.606-1.617c-0.012-5.083,1.389-10.059,4.05-14.392c1.921-3.141,1.689-7.202-0.575-10.106
		c-19.298-24.737-25.648-56.155-17.425-86.197c8.258-30.163,30.08-55.116,58.406-66.814c15.803,4.347,36.379,4.687,42.339,4.687
		l0.684,0.001c8.432,0,16.936-0.529,25.311-1.573c-4.134,6.886-7.064,14.358-8.719,22.241c-0.588,2.783,1.198,5.525,3.98,6.113
		c0.353,0.074,0.713,0.112,1.07,0.112c2.421,0,4.541-1.722,5.042-4.095c1.719-8.19,5.006-15.8,9.779-22.642l0.631,0.915l0.084,0.143
		c6.743,11.541,11.635,24.011,14.544,37.08c0.561,2.326,2.62,3.95,5.01,3.95c0.406,0,0.814-0.049,1.213-0.145
		c2.74-0.661,4.425-3.337,3.833-6.103c-2.991-13.424-7.932-26.282-14.695-38.249c16.389,7.979,30.191,20.249,40.054,35.65
		c8.849,13.675,14.321,29.42,15.889,45.662c-14.047-9.366-30.372-14.305-47.356-14.305c-47.15,0-85.511,38.36-85.511,85.512
		C340.424,427.118,340.548,429.789,340.792,432.438z M359.243,248.218h18.565c6.3,0,12.623-1.437,18.307-4.157
		c6.764,0.555,11.727,1.241,15.287,1.881c-6.839,1.215-20.22,2.898-41.817,2.898c-21.625,0-35.008-1.686-41.849-2.904
		c3.215-0.573,7.605-1.189,13.487-1.718C346.816,246.836,353.024,248.218,359.243,248.218z M373.489,237.902h-14.274
		c-4.955,0-9.915-1.172-14.27-3.347c-0.236-0.145-0.486-0.272-0.658-0.338c-6.603-3.479-11.808-9.195-14.656-16.097l-2.665-6.437
		c4.834,1.38,9.997,1.606,15.19,0.655c3.408-0.624,6.878-2.762,10.314-4.381c0.305-0.109,0.597-0.245,0.804-0.372
		c5.94-2.842,18.498-12.113,25.612-13.35c4.375-0.76,11.944,1.761,17.016,5.098c6.274,4.059,12.238,6.311,17.755,6.706l-7.36,14.4
		c-2.963,5.822-7.569,10.539-13.233,13.599c-0.267,0.112-0.523,0.247-0.765,0.4c-2.596,1.317-5.345,2.269-8.189,2.836
		 M409.271,256.749c3.445-0.448,6.887-1.13,10.249-2.028v0.289c-0.506,0.555-2.461,2.234-8.771,4.13l0.288,0.958l-0.384-0.93
		c-10.058,3.004-25.025,4.727-41.066,4.727c-13.377,0-26.139-1.208-35.935-3.4c-9.648-2.159-13.268-4.638-14.001-5.449v-0.325
		c3.362,0.898,6.801,1.58,10.229,2.027c10.645,1.557,24.745,2.414,39.703,2.414S398.644,258.304,409.271,256.749z M501.131,424.483
		c0,20.086-7.821,38.969-22.024,53.172c-14.203,14.202-33.086,22.024-53.172,22.024c-20.085,0-38.968-7.822-53.171-22.024
		c-14.202-14.203-22.024-33.086-22.024-53.172s7.822-38.969,22.024-53.172c14.202-14.202,33.085-22.023,53.171-22.023
		s38.97,7.821,53.172,22.023C493.31,385.515,501.131,404.397,501.131,424.483z"/>
</g>
</svg>
