<?xml version="1.0" encoding="utf-8"?>
<!-- Generator: Adobe Illustrator 17.0.0, SVG Export Plug-In . SVG Version: 6.00 Build 0)  -->
<!DOCTYPE svg PUBLIC "-//W3C//DTD SVG 1.1//EN" "http://www.w3.org/Graphics/SVG/1.1/DTD/svg11.dtd">
<svg version="1.1" id="Layer_1" xmlns="http://www.w3.org/2000/svg" xmlns:xlink="http://www.w3.org/1999/xlink" x="0px" y="0px"
	 width="512px" height="512px" viewBox="0 0 512 512" enable-background="new 0 0 512 512" xml:space="preserve">
<title  style="fill:#FFFFFF" data-old_color="#E9E0E0" class="active-path">Save Money</title>
<g>
	<path fill="#FFFFFF" d="M509.185,308.484c-7.862-13.099-22.245-21.235-37.535-21.235c-7.221,0-14.411,1.827-20.792,5.282
		l-1.19,0.643c-7.491-8.358-18.288-13.31-29.163-13.31c-5.255,0-10.184,1.147-14.667,3.422l-5.114,2.752
		c-8.575-6.855-19.281-10.617-30.284-10.617c-8.47,0-16.83,2.235-24.139,6.443l-32.521,17.683h-43.36
		c-9.145-0.013-18.333-2.117-26.569-6.086l-6.031-2.917c-14.299-6.958-30.257-10.636-46.148-10.636
		c-22.839,0-45.446,7.585-63.662,21.363c-0.189,0.145-0.373,0.29-0.535,0.438l-14.567,12.968c-4.76,4.229-10.415,7.53-16.443,9.61
		l-7.692-25.229c-1.104-3.618-4.387-6.05-8.17-6.05H10.137c-4.71,0-8.542,3.832-8.542,8.542c0,0.345,0.021,0.69,0.063,1.033
		l23.489,192.589c0.523,4.279,4.168,7.507,8.479,7.507h105.691c4.709,0,8.541-3.831,8.541-8.541c0-0.845-0.125-1.683-0.372-2.492
		l-13.45-44.116l41.916-26.494c5.282-2.905,11.658-3.719,17.482-2.245c0.176,0.046,0.353,0.083,0.544,0.119l87.97,16.198
		c6.715,1.201,13.577,1.811,20.399,1.811c0.002,0,0.002,0,0.004,0c17.642,0,35.334-4.12,51.166-11.917
		c0.362-0.18,0.713-0.386,1.041-0.611L506.7,319.93C510.42,317.376,511.511,312.348,509.185,308.484z M358.491,308.791
		c-4.199-2.914-8.752-5.166-13.588-6.725l9.659-5.248l0.181-0.102c4.768-2.756,10.199-4.213,15.707-4.213
		c4.502,0,8.947,0.972,13.024,2.83L358.491,308.791z M167.416,406.232c-0.128,0.073-0.256,0.149-0.388,0.231l-38.165,24.125
		l-27.419-89.937c8.371-2.807,16.229-7.354,22.817-13.218l14.302-12.732c15.219-11.417,34.078-17.704,53.11-17.704
		c13.325,0,26.707,3.083,38.701,8.918l6.036,2.919c10.542,5.082,22.299,7.776,34.003,7.791h58.514
		c15.866,0.022,29.731,10.817,33.791,25.975l-39.811-1.801c-15.475-0.698-31.174,0.03-46.518,2.148
		c-4.665,0.646-7.936,4.968-7.289,9.633c0.582,4.202,4.216,7.372,8.452,7.372c0.393,0,0.79-0.027,1.18-0.082
		c14.317-1.978,28.971-2.654,43.404-2.005l49.911,2.264l0.387,0.009c4.71,0,8.542-3.832,8.542-8.542c0-0.63-0.015-1.29-0.044-1.997
		l5.74-3.027l72.305-39.006c3.89-2.106,8.278-3.219,12.692-3.219c6.524,0,12.876,2.435,17.73,6.739L345.4,409.956
		c-13.338,6.466-28.219,9.884-43.041,9.884c-5.804,0-11.644-0.518-17.349-1.537l-87.688-16.146
		c-3.202-0.785-6.496-1.184-9.792-1.184C180.503,400.973,173.548,402.791,167.416,406.232z M378.63,331.498l-1.398,0.737
		c-1.556-3.865-3.564-7.519-5.995-10.902l42.408-22.85c2.053-1.027,4.338-1.549,6.792-1.549c4.488,0,9.323,1.771,13.33,4.817
		L378.63,331.498z M127.777,485.597h-86.59L19.784,310.094H74.27L127.777,485.597z"/>
	<path fill="#FFFFFF" d="M58.301,460.442c0.003,12.478,10.156,22.629,22.633,22.63h0.006c6.046-0.001,11.729-2.356,16.003-6.633
		c4.274-4.275,6.627-9.96,6.626-16.006c-0.002-12.479-10.157-22.63-22.642-22.63C68.462,437.82,58.313,447.976,58.301,460.442z
		 M86.486,460.441c0,3.061-2.49,5.551-5.551,5.552c-3.059,0-5.548-2.49-5.549-5.55c0.001-2.982,2.37-5.428,5.325-5.551h0.227
		C83.996,454.893,86.485,457.382,86.486,460.441z M80.935,481.322L80.935,481.322L80.935,481.322L80.935,481.322z"/>
	<path fill="#FFFFFF" d="M255.998,253.642H256c67.128,0,121.741-54.613,121.741-121.742S323.128,10.159,256,10.159
		c-67.128,0-121.742,54.613-121.742,121.743C134.334,198.954,188.946,253.566,255.998,253.642z M256.001,27.243
		c57.708,0.001,104.656,46.95,104.656,104.657c0,57.708-46.949,104.658-104.657,104.658c-57.708,0-104.658-46.949-104.658-104.656
		C151.407,74.258,198.356,27.308,256.001,27.243z"/>
	<path fill="#FFFFFF" d="M238.163,130.771l-24.15-0.256h-0.105c-5.404,0-9.802,4.397-9.802,9.802c0,2.645,1.091,5.215,2.995,7.052
		l59.047,57.011c1.837,1.774,4.255,2.75,6.808,2.75c2.684,0,5.188-1.063,7.052-2.994c1.818-1.883,2.795-4.362,2.749-6.98
		s-1.109-5.061-2.992-6.88l-41.327-39.894c21.088-0.134,39.393-14.857,44.127-35.311l15.029,0.161h0.149
		c5.377,0,9.773-4.374,9.802-9.75c0.014-2.618-0.993-5.085-2.834-6.946c-1.842-1.861-4.299-2.894-6.907-2.907l-15.015-0.16
		c-1.202-5.816-3.552-11.358-6.885-16.263l22.073,0.232h0.149c5.377,0,9.773-4.374,9.802-9.75c0.014-2.618-0.993-5.085-2.834-6.946
		c-1.842-1.861-4.298-2.894-6.907-2.907l-83.41-0.895l-0.106,0c-5.347,0-9.743,4.351-9.801,9.698
		c-0.028,2.618,0.965,5.09,2.797,6.961c1.832,1.871,4.283,2.917,6.9,2.945l23.866,0.256c10.719,0.122,20.049,6.635,23.907,16.443
		l-47.948-0.51h-0.15c-5.376,0-9.772,4.374-9.801,9.75c-0.028,5.405,4.346,9.825,9.741,9.854l47.93,0.51
		C258.085,124.447,248.74,130.755,238.163,130.771z M297.741,113.48L297.741,113.48l0,0.002L297.741,113.48z M298.125,77.686
		C298.125,77.686,298.125,77.686,298.125,77.686l0,0.002L298.125,77.686z M214.241,96.484L214.241,96.484l0-0.002L214.241,96.484z"
		/>
</g>
</svg>
