<?xml version="1.0" encoding="utf-8"?>
<!-- Generator: Adobe Illustrator 17.0.0, SVG Export Plug-In . SVG Version: 6.00 Build 0)  -->
<!DOCTYPE svg PUBLIC "-//W3C//DTD SVG 1.1//EN" "http://www.w3.org/Graphics/SVG/1.1/DTD/svg11.dtd">
<svg version="1.1" id="Layer_1" xmlns="http://www.w3.org/2000/svg" xmlns:xlink="http://www.w3.org/1999/xlink" x="0px" y="0px"
	 width="512px" height="512px" viewBox="0 0 512 512" enable-background="new 0 0 512 512" xml:space="preserve">
<g>
	<path fill="#FFFFFF" d="M310.198,320.003v-22.529c-0.034-29.576-24.124-53.667-53.708-53.702
		c-29.578,0.034-53.669,24.125-53.702,53.705v22.526c0,29.613,24.092,53.705,53.705,53.705S310.198,349.616,310.198,320.003z
		 M292.893,297.478v22.526c0,20.072-16.329,36.401-36.4,36.401c-20.072,0-36.401-16.329-36.401-36.401v-22.526
		c0-20.071,16.33-36.4,36.401-36.4C276.563,261.077,292.893,277.406,292.893,297.478z"/>
	<path fill="#FFFFFF" d="M388.268,388.673c8.456,0,16.794-2.24,24.112-6.479c14.869-8.617,24.057-24.648,23.978-41.825v-19.722
		c-0.035-26.484-21.607-48.054-48.094-48.084c-26.482,0.03-48.052,21.602-48.083,48.091v19.703
		c-0.079,17.188,9.108,33.219,23.979,41.837C371.475,386.433,379.812,388.673,388.268,388.673z M357.486,340.367v-19.733
		c-0.063-11.008,5.814-21.276,15.34-26.798c4.687-2.718,10.026-4.154,15.442-4.154c5.415,0,10.754,1.437,15.438,4.154
		c9.524,5.52,15.403,15.788,15.344,26.813v19.732c0.06,11.01-5.82,21.28-15.344,26.802c-4.685,2.716-10.022,4.151-15.438,4.151
		c-5.417,0-10.757-1.436-15.442-4.15C363.302,361.658,357.423,351.389,357.486,340.367z"/>
	<path fill="#FFFFFF" d="M420.268,386.019c-4.443-0.211-6.717,2.554-8.374,4.571c-5.632,6.887-13.964,10.837-22.859,10.837
		c-0.002,0-0.004,0-0.007,0c-0.241,0-0.481-0.003-0.725-0.009c-9.179-0.224-17.575-4.585-23.043-11.974
		c-1.636-2.192-4.244-3.501-6.979-3.501l-0.179,0.002c-8.688,0.189-17.197,2.54-24.743,6.819
		c-10.329-11.403-24.894-18.431-40.292-19.369c-4.523-0.281-6.787,2.516-8.638,4.771c-6.639,8.153-16.479,12.829-27.076,12.829
		c-0.292,0-0.588-0.003-0.922-0.016c-10.704-0.237-20.874-5.531-27.204-14.157c-1.613-2.205-4.207-3.522-6.939-3.522l-0.24,0.004
		c-15.559,0.36-30.105,6.706-40.959,17.867c-0.511,0.525-1.024,1.076-1.549,1.662c-7.014-3.984-14.918-6.332-23.012-6.814
		c-4.437-0.221-6.721,2.563-8.371,4.571c-5.632,6.887-13.964,10.837-22.859,10.837c-0.235-0.013-0.487-0.003-0.732-0.009
		c-9.176-0.224-17.571-4.584-23.041-11.977c-1.639-2.19-4.249-3.498-6.98-3.498l-0.188,0.002
		c-13.906,0.354-26.912,6.032-36.622,15.992c-9.71,9.959-15.059,23.104-15.061,37.015v44.368c0,4.771,3.881,8.651,8.652,8.651
		h112.876v13.874c0,4.771,3.881,8.652,8.652,8.652H340.13c4.771,0,8.652-3.882,8.652-8.652v-13.874h112.7
		c4.771,0,8.651-3.881,8.651-8.651v-44.371C470.096,410.989,448.206,387.74,420.268,386.019z M169.87,407.276
		c-3.733,7.901-5.686,16.617-5.667,25.355v42.036H59.98v-35.7c0.11-17.847,13.264-32.842,30.805-35.39
		c8.833,9.616,21.289,15.123,34.389,15.156h0.1c13.049,0,25.484-5.436,34.335-14.96C163.204,404.409,166.643,405.583,169.87,407.276
		z M343.044,407.207c3.568-1.852,7.471-3.093,11.454-3.639c8.547,9.364,20.615,14.867,33.298,15.148
		c0.412,0.013,0.824,0.014,1.23,0.014h0.114c13.015,0,25.401-5.433,34.206-14.953c16.881,3.021,29.464,17.915,29.482,35.176v35.715
		H348.782v-42.034C348.79,423.864,346.812,415.125,343.044,407.207z M181.508,497.191v-64.56
		c0.003-21.414,15.776-39.136,36.893-41.727c9.891,11.037,23.967,17.357,38.832,17.391h0.13c14.794,0,28.835-6.242,38.741-17.174
		c20.239,3.272,35.355,20.891,35.373,41.511v64.559H181.508z"/>
	<path fill="#FFFFFF" d="M124.539,388.673c8.456,0,16.792-2.24,24.108-6.479c14.874-8.617,24.062-24.648,23.978-41.825v-19.722
		c-0.03-26.483-21.6-48.054-48.089-48.084c-26.481,0.03-48.052,21.602-48.087,48.091v19.703c-0.08,17.188,9.109,33.22,23.981,41.837
		C107.746,386.433,116.083,388.673,124.539,388.673z M93.754,340.367v-19.732c-0.059-11.011,5.82-21.279,15.344-26.799
		c4.686-2.718,10.025-4.154,15.44-4.154c5.415,0,10.754,1.437,15.441,4.154c9.524,5.52,15.402,15.788,15.339,26.813v19.733
		c0.063,11.009-5.815,21.278-15.339,26.801c-4.686,2.716-10.025,4.151-15.441,4.151s-10.755-1.436-15.441-4.151
		C99.574,361.661,93.695,351.391,93.754,340.367z"/>
	<path fill="#FFFFFF" d="M256.561,2.5h-0.478c-68.115,0.035-132.232,20.862-180.54,58.643C27.051,99.067,0.37,149.448,0.415,203.007
		c0.007,4.363,3.926,8.047,9.116,8.571c5.112,0.518,9.872-2.179,11.246-6.215c1.556-4.621,7.623-19.173,14.896-25.376
		c9.855-7.397,22.835-11.483,36.556-11.506h0.384c13.605,0,26.424,4.082,36.045,11.453c9.353,7.559,14.525,17.455,14.563,27.855
		c0,4.771,4.655,8.652,10.377,8.652s10.377-3.881,10.376-8.702c-0.204-10.283,5.075-20.394,14.485-27.74
		c9.381-7.324,22.407-11.524,35.737-11.524l1.239,0.005c13.601,0,26.415,4.08,36.032,11.448c9.353,7.56,14.525,17.456,14.563,27.856
		v20.563c0,4.771,4.655,8.652,10.377,8.652c5.722,0,10.377-3.881,10.377-8.652v-20.612c-0.204-10.285,5.075-20.396,14.484-27.74
		c9.382-7.321,22.407-11.521,35.736-11.521l1.223,0.005c13.608,0,26.425,4.083,36.04,11.458c9.353,7.55,14.524,17.444,14.563,27.851
		c0,4.771,4.655,8.652,10.377,8.652s10.377-3.881,10.376-8.701c-0.202-10.285,5.077-20.396,14.485-27.74
		c9.382-7.321,22.403-11.52,35.725-11.52c0.274,0,0.549,0.001,0.855,0.005h0.397c13.573,0,26.363,4.067,36.021,11.454
		c7.273,6.149,13.383,20.774,14.951,25.42c1.246,3.703,5.352,6.289,9.983,6.29c0.001,0,0.001,0,0.002,0
		c0.422,0,0.848-0.021,1.274-0.065c5.196-0.525,9.115-4.217,9.115-8.587v-0.254C512.306,92.328,397.539,2.5,256.561,2.5z
		 M486.238,163.742c-12.74-8.139-28.53-12.565-45.142-12.565h-0.476c-18.953,0.013-36.913,5.708-50.563,16.027
		c-0.142,0.106-0.283,0.216-0.426,0.333c-3.97,3.271-7.462,6.875-10.416,10.745c-2.961-3.876-6.457-7.483-10.44-10.767
		c-0.097-0.081-0.198-0.163-0.251-0.2c-13.488-10.407-31.327-16.138-50.232-16.138h-0.481c-18.947,0.009-36.908,5.703-50.555,16.021
		c-0.147,0.11-0.296,0.225-0.434,0.338c-3.973,3.274-7.466,6.877-10.417,10.744c-2.957-3.872-6.447-7.475-10.409-10.739
		l-0.283-0.227c-13.491-10.409-31.333-16.142-50.238-16.142h-0.475c-18.953,0.013-36.914,5.708-50.555,16.021
		c-0.146,0.109-0.292,0.223-0.434,0.339c-3.962,3.265-7.454,6.869-10.415,10.745c-2.956-3.872-6.449-7.477-10.429-10.756
		c-0.1-0.083-0.207-0.17-0.265-0.211c-13.488-10.407-31.323-16.138-50.219-16.138h-0.488c-16.739,0.008-32.704,4.449-45.637,12.619
		c23.404-83.776,118.6-143.934,229.527-143.987h0.472C367.532,19.805,462.778,79.943,486.238,163.742z"/>
</g>
</svg>
