<?xml version="1.0" encoding="utf-8"?>
<!-- Generator: Adobe Illustrator 17.0.0, SVG Export Plug-In . SVG Version: 6.00 Build 0)  -->
<!DOCTYPE svg PUBLIC "-//W3C//DTD SVG 1.1//EN" "http://www.w3.org/Graphics/SVG/1.1/DTD/svg11.dtd">
<svg version="1.1" id="b13b70b1-aa4f-457d-9f62-b44ed99594ac"
	 xmlns="http://www.w3.org/2000/svg" xmlns:xlink="http://www.w3.org/1999/xlink" x="0px" y="0px" width="846.02px"
	 height="729.265px" viewBox="0 0 846.02 729.265" enable-background="new 0 0 846.02 729.265" xml:space="preserve">
<circle fill="#F7F2EB" cx="369.397" cy="172.495" r="39.552"/>
<circle fill="#F7F2EB" cx="342.397" cy="291.733" r="39.552"/>
<circle fill="#F7F2EB" cx="439.9" cy="72.116" r="39.552"/>
<circle fill="#F7F2EB" cx="583.628" cy="28.282" r="39.552"/>
<circle fill="#F7F2EB" cx="713.66" cy="98.86" r="39.552"/>
<circle fill="#F7F2EB" cx="764.83" cy="210.397" r="39.552"/>
<title>social thinking</title>
<path fill="#00BF7E" d="M93.484,679.876c0,22.469-13.356,30.314-29.834,30.314c-0.382,0-0.763-0.004-1.143-0.013
	c-0.763-0.016-1.52-0.053-2.267-0.104c-14.871-1.052-26.424-9.301-26.424-30.197c0-21.625,27.634-48.912,29.71-50.932l0.004-0.004
	c0.08-0.078,0.12-0.116,0.12-0.116S93.484,657.407,93.484,679.876z"/>
<path fill="#3F3D56" d="M62.563,706.752l10.912-15.247l-10.939,16.921l-0.029,1.75c-0.763-0.016-1.52-0.053-2.267-0.104
	l1.176-22.479l-0.009-0.174l0.02-0.033l0.111-2.123L50.572,668.3l11.001,15.37l0.025,0.451l0.889-16.985l-9.388-17.528l9.503,14.547
	l0.925-35.212l0.004-0.12v0.116l-0.154,27.767l9.347-11.008l-9.385,13.4l-0.247,15.207l8.727-14.594l-8.763,16.832l-0.138,8.454
	l12.669-20.313L62.87,687.947L62.563,706.752z"/>
<line fill="none" stroke="#3F3D56" stroke-width="2" stroke-miterlimit="10" x1="0" y1="709.074" x2="846.02" y2="709.074"/>
<g>
	<path fill="#EEE6D7" d="M401.696,394.388c0,176.179,78.652,315.163,175.509,319c126.31,5.003,291.391-123.086,175.509-319
		c-89.296-150.967-78.578-319-175.509-319S401.696,218.209,401.696,394.388z"/>
	<rect x="503.59" y="488.049" fill="#827768" width="250.249" height="221.025"/>
	<path fill="#2F2E41" d="M594.063,268.118c0,0-41.637,1.151-48.513,3.696c-6.877,2.544-9.952,20.74-9.952,20.74l32.328,10.334
		l24.18-1.393l18.198,1.308l-10.161-27.065L594.063,268.118z"/>
	<path fill="#FFC5CB" d="M592.267,254.223c0,0-2.739,10.761,3.34,18.38c6.08,7.619-26.137,34.77-26.137,34.77l-16.996-2.971
		c0,0,3.746-33.064-1.286-41.437C546.156,254.592,592.267,254.223,592.267,254.223z"/>
	<path opacity="0.1" fill="#FF8EAF" enable-background="new    " d="M548.856,343.308c0,0-2.739,10.761,3.34,18.38
		c6.08,7.619-26.137,34.77-26.137,34.77l-16.996-2.971c0,0,3.746-33.064-1.286-41.437S548.856,343.308,548.856,343.308z"/>
	<polygon fill="#FFC5CB" points="479.236,568.843 516.735,619.42 491.144,634.616 455.922,576.007 	"/>
	<path fill="#2F2E41" d="M505.54,620.273c0,0,13.809-16.319,13.194-12.68s9.826,34.5,0.112,37.485s-93.016,10.903-94.162,1.336
		s24.851-16.262,24.851-16.262s15.444-15.096,18.869-13.561S505.54,620.273,505.54,620.273z"/>
	<polygon fill="#FFC5CB" points="487.649,617.145 457.697,669.044 435.082,655.725 465.286,613.236 	"/>
	<path fill="#2F2E41" d="M440.366,493.674l8.889,12.793c0,0,42.378,59.859,37.877,64.692s-23.243,23.099-32.776,19.56
		c-9.532-3.54-43.398-64.721-43.398-64.721l8.833-35.921L440.366,493.674z"/>
	<path fill="#2F2E41" d="M622.917,481.563c0,0-9.49,18.01-33.544,24.108s-49.184,18.565-50.079,18.408s-3.424-1.535-4.039,2.104
		s-7.212,9.979-7.212,9.979s-26.57,91.829-36.717,91.928s-31-7.292-31.434-10.178c-0.433-2.886,31.071-96.662,31.378-98.481
		l3.69-21.834c0,0-41.665,6.766-45.55,7.96c-3.886,1.194-38.45,20.441-38.45,20.441s-35.235-25.829-2.278-51.913
		s89.605-45.218,89.605-45.218l20.322-5.814l17.712-1.075l2.608-10.171l41.947,2.461l43.775,18.892L622.917,481.563z"/>
	<ellipse fill="#FFC5CB" cx="567.556" cy="242.411" rx="32.675" ry="33.232"/>
	<path fill="#D0CDE1" d="M597.117,269.121l-3.93-0.687c0,0-7.098,27.795-29.055,32.386c0,0-10.835-13.2-10.372-15.428
		c0.462-2.227-8.58-14.111-13.389-7.458c-4.808,6.653,1.174,123.841-2.866,125.945c-4.039,2.104-12.705,4.336-5.731,12.111
		s34.676,18.238,40.812,14.627s18.673-34.201,24.096-44.493s14.103-45.303,14.103-45.303s11.084-38.338,4.263-47.023
		C608.228,285.113,597.117,269.121,597.117,269.121z"/>
	<path fill="#2F2E41" d="M565.845,413.391c0.73,8.163,1.981,16.27,3.743,24.268c1.603,6.508,3.468,10.437,5.598,10.27
		c5.433-0.413,7.903,7.691,9.176,17.035c1.361,9.913,1.361,21.221,2.107,25.217c0.988,5.28,7.31,9.31,19.943,8.127
		c7.524-0.87,14.908-2.712,21.974-5.481c17.056-6.307,16.552-57.455,13.698-95.409c-1.745-23.263-4.368-41.582-4.368-41.582
		s5.181-15.717,6.838-26.49c0.33-1.965,0.495-3.956,0.494-5.95c-0.252-9.41-17.144-34.839-27.352-50.68
		c-10.219-15.84-24.158-4.22-24.158-4.22l4.851,14.891c0,0-7.518,11.799-7.573,23.029s-18,19.334-24.443,24.77
		C562.322,334.604,562.421,380.204,565.845,413.391z"/>
	<path fill="#2F2E41" d="M551.657,273.819c0,0-1.177,1.416-6.569,0.725c-6.466-0.828-15.357,1.447-17.422,7.726
		c-3.788,11.514-14.466,58.352-14.466,58.352s-4.445,53.548-6.443,65.375s-1.006,22.303-2.977,28.515s19.456-11.585,27.353-9.268
		c7.897,2.317,12.971-27.705,11.978-38.181s-1.831-21.863,0.909-32.623s-2.117-39.24-1.936-45.765
		C542.265,302.149,559.495,285.705,551.657,273.819z"/>
	<path fill="#FFC5CB" d="M528.537,440.244c0,0-34.596,19.196-37.907,46.518s46.274-26.455,46.274-26.455L528.537,440.244z"/>
	<path fill="#FFC5CB" d="M508.788,420.869c0,0-10.601,54.345-27.115,51.458s9.225-54.585,9.225-54.585L508.788,420.869z"/>
	<path fill="#2F2E41" d="M452.232,657.786c0,0,8.456,9.908,10.552,8.401s6.918,19.005,2.572,22.929s-21.091,10.363-21.273,16.887
		s-45.089,5.231-46.696-1.606c-1.607-6.837,5.633-22.431,10.72-25.288s23.899-29.155,23.899-29.155S446.739,652.142,452.232,657.786
		z"/>
	<path opacity="0.1" enable-background="new    " d="M534.048,473.481c8.023-5.76,30.425-7.189,50.313-8.517
		c8.726-0.569,16.969-1.127,23.302-2.032c6.103-0.86,11.591-6.53,16.464-14.981c7.387-12.804,13.358-32.004,17.956-50.534
		c-1.745-23.263-4.368-41.582-4.368-41.582s5.181-15.717,6.838-26.49c-1.168-1.654-2.673-3.032-4.412-4.041
		c-21.096-9.209-41.236,81.422-43.794,95.644c-0.044,0.234-0.077,0.458-0.11,0.647c-1.24,7.323-14.642,13.585-26.649,16.063
		c-7.398,1.529-14.28,1.63-17.452-0.357c-8.331-5.202-33.948,15.617-35.891,16.208C514.302,454.113,522.523,481.775,534.048,473.481
		z"/>
	<path fill="#2F2E41" d="M640.137,319.726c0,0,15.333,7.363,8.596,41.778c-6.737,34.414-20.309,92.923-41.064,95.851
		s-62.085,2.26-73.616,10.547s-19.749-19.375-17.806-19.972s27.562-21.408,35.893-16.205s42.098-3.881,44.097-15.707
		S618.697,310.358,640.137,319.726z"/>
	<path fill="#2F2E41" d="M529.65,303.222l-16.85,39.767c0,0-1.696-0.861-3.667,5.351s-2.893,11.67-6.345,15.75
		s-18.813,62.276-19.274,65.005s21.216,12.138,26.059,4.555C514.416,426.067,529.65,303.222,529.65,303.222z"/>
	<path fill="#2F2E41" d="M586.146,241.948c-1.252-0.34-1.436-2.031-1.478-3.348c-0.225-7.055-4.402-14.295-11.043-16.349
		c-2.548-0.711-5.216-0.86-7.825-0.438c-3.725,0.505-7.321,1.725-10.598,3.596c-1.729,0.989-3.426,2.18-5.388,2.482
		c-1.296,0.199-6.905,1.858-8.195,2.092c-2.836,0.513-5.472,3.094-8.194,2.134c-2.604-0.919-3.18-4.348-3.243-7.15
		c-0.143-6.385,4.622-15.221,8.82-19.971c3.185-3.604,7.982-5.268,12.67-6.133c5.477-0.895,11.027-1.238,16.57-1.025
		c7.503,0.136,15.215,0.725,21.98,4.027s12.449,9.874,12.773,17.499c0.068,1.588-0.094,3.183,0.038,4.768
		c0.32,3.865,2.338,7.356,3.285,11.113c1.368,5.575,0.354,11.478-2.792,16.25c-2.511,3.758-6.458,7.157-6.312,11.699l-5.445-5.737
		c-1.676-1.301-2.23-3.617-1.33-5.556l1.927-7.645c0.495-1.365,0.554-2.854,0.167-4.255
		C590.467,234.808,588.233,242.515,586.146,241.948z"/>
</g>
<path fill="#EEE6D7" d="M292.583,468.934c0,105.949-62.985,142.942-140.681,142.942S11.221,574.883,11.221,468.934
	s140.681-240.732,140.681-240.732S292.583,362.985,292.583,468.934z"/>
<polygon fill="#3F3D56" points="146.777,595.669 148.218,507 208.179,397.303 148.444,493.09 149.091,453.22 190.417,373.856 
	149.263,442.67 149.263,442.67 150.428,370.963 194.68,307.779 150.611,359.687 151.339,228.202 146.765,402.264 147.14,395.084 
	102.149,326.217 146.419,408.868 142.227,488.953 142.102,486.827 90.235,414.355 141.945,494.336 141.421,504.352 141.327,504.502 
	141.37,505.324 130.734,708.506 144.944,708.506 146.649,603.558 198.232,523.773 "/>
<path fill="#413F56" d="M360.95,169.036c0-0.288-0.234-0.522-0.522-0.522l0,0h-4.262c-0.288,0-0.522,0.234-0.522,0.522l0,0v15.742
	c0,0.288,0.234,0.522,0.522,0.522h4.262c0.288,0,0.522-0.234,0.522-0.522V169.036z M359.993,184.169h-3.305v-14.611h3.305V184.169z"
	/>
<path fill="#413F56" d="M352.166,163.991c0-0.288-0.234-0.522-0.522-0.522h-4.262c-0.288,0-0.522,0.234-0.522,0.522v20.699
	c0,0.288,0.234,0.522,0.522,0.522h4.262c0.288,0,0.522-0.234,0.522-0.522V163.991z M351.209,184.169h-3.305v-19.656h3.305V184.169z"
	/>
<path fill="#413F56" d="M369.821,163.122c0-0.288-0.234-0.522-0.522-0.522h-4.262c-0.288,0-0.522,0.234-0.522,0.522v21.569
	c0,0.288,0.234,0.522,0.522,0.522h4.262c0.288,0,0.522-0.234,0.522-0.522v-0.625v-0.957l-0.87-3.218l0.87-4.696V163.122z
	 M368.865,184.169h-3.305v-20.525h3.305v14.073v2.261V184.169z"/>
<path fill="#413F56" d="M365.032,158.88c1.122,1.18,2.988,1.227,4.168,0.104c0.865-0.823,1.149-2.086,0.718-3.199l3.423-3.138
	c0.737,1.452,2.512,2.031,3.964,1.294s2.031-2.512,1.294-3.964c-0.737-1.452-2.512-2.031-3.964-1.294
	c-0.991,0.503-1.614,1.52-1.614,2.631c0,0.068,0.003,0.136,0.008,0.203l-3.667,3.361c-1.086-1.214-2.95-1.318-4.165-0.233
	c-0.943,0.843-1.243,2.194-0.746,3.358l-3.535,2.981c-0.807-1.413-2.607-1.905-4.021-1.097c-0.367,0.21-0.685,0.496-0.931,0.839
	l-3.573-2.487c0.439-1.572-0.479-3.203-2.051-3.642s-3.203,0.479-3.642,2.051c-0.439,1.572,0.479,3.203,2.051,3.642
	c1.186,0.331,2.454-0.107,3.181-1.101l3.579,2.492c-0.427,1.573,0.502,3.194,2.075,3.621s3.194-0.502,3.621-2.075
	c0.104-0.385,0.13-0.787,0.074-1.182L365.032,158.88z M375.973,149.408c1.053,0,1.907,0.854,1.907,1.907s-0.854,1.907-1.907,1.907
	s-1.907-0.854-1.907-1.907l0,0C374.067,150.262,374.92,149.409,375.973,149.408L375.973,149.408z M367.165,154.938
	c1.053,0,1.907,0.854,1.907,1.907s-0.854,1.907-1.907,1.907s-1.907-0.854-1.907-1.907l0,0
	C365.26,155.793,366.113,154.939,367.165,154.938z M349.551,159.356c-1.053,0-1.907-0.854-1.907-1.907s0.854-1.907,1.907-1.907
	s1.907,0.854,1.907,1.907l0,0C351.456,158.502,350.603,159.355,349.551,159.356z M358.358,164.357c-1.053,0-1.907-0.854-1.907-1.907
	s0.854-1.907,1.907-1.907s1.907,0.854,1.907,1.907l0,0C360.264,163.502,359.411,164.356,358.358,164.357z"/>
<path fill="#413F56" d="M376.237,166.131c-0.079,0.017-0.151,0.03-0.214,0.037l0.134,0.013L376.237,166.131z"/>
<path fill="#413F56" d="M374.727,165.909l0.056,0.135l0.749,0.075C375.262,166.063,374.95,165.975,374.727,165.909z"/>
<path fill="#413F56" d="M377.736,165.269c-0.072,0.018-0.144,0.04-0.217,0.063l-1.282,0.799c0.574-0.125,1.499-0.487,1.499-0.487
	L377.736,165.269L377.736,165.269z"/>
<path fill="#413F56" d="M378.692,164.917v-7.536c0-0.288-0.234-0.522-0.522-0.522h-4.262c-0.288,0-0.522,0.234-0.522,0.522v8.38
	l1.044,0.005v-7.863h3.305v7.033L378.692,164.917z"/>
<path fill="#413F56" d="M376.023,166.167l-0.491-0.049c0.168,0.035,0.319,0.057,0.42,0.054
	C375.973,166.172,375.998,166.17,376.023,166.167z"/>
<g>
	<path fill="#413F56" d="M383.296,179.122c-3.348,0-6.072,2.724-6.072,6.072s2.724,6.072,6.072,6.072s6.072-2.724,6.072-6.072
		C389.365,181.85,386.641,179.126,383.296,179.122z M388.471,185.195c-0.003,2.85-2.325,5.172-5.175,5.175
		c-2.854,0-5.175-2.322-5.175-5.175c0-2.854,2.322-5.175,5.175-5.175C386.15,180.02,388.471,182.341,388.471,185.195z"/>
	<path fill="#413F56" d="M385.854,182.579c0-0.247-0.201-0.449-0.449-0.449h-4.219c-0.247,0-0.449,0.201-0.449,0.449
		c0,0.247,0.201,0.449,0.449,0.449h1.207c0.602,0,1.106,0.362,1.288,0.911h-2.495c-0.247,0-0.449,0.201-0.449,0.449
		c0,0.247,0.201,0.449,0.449,0.449h2.491c-0.196,0.534-0.709,0.903-1.284,0.911h-1.215c-0.238,0-0.436,0.194-0.441,0.432
		c-0.003,0.126,0.049,0.248,0.141,0.333l3.017,2.85c0.084,0.078,0.193,0.121,0.307,0.121c0.123,0,0.242-0.051,0.326-0.14
		c0.082-0.085,0.125-0.197,0.123-0.314c-0.002-0.118-0.05-0.228-0.14-0.314l-2.197-2.07h0.079c1.08-0.001,1.999-0.757,2.213-1.808
		h0.798c0.247,0,0.449-0.201,0.449-0.449c0-0.247-0.201-0.449-0.449-0.449h-0.798c-0.066-0.332-0.207-0.643-0.411-0.911h1.21
		C385.653,183.028,385.854,182.826,385.854,182.579z"/>
	<path fill="#413F56" d="M388.354,179.743c-0.021-1.85-0.563-3.648-1.568-5.2c-0.893-1.392-2.135-2.529-3.599-3.296
		c0.297-0.212,0.447-0.463,0.447-0.749v-0.799c0-0.005,0-0.009-0.001-0.017l0.001-0.014c0-0.361-0.23-0.725-1.855-0.951
		c0.242-0.256,0.446-0.544,0.607-0.859l1.055-2.064c0.113-0.22,0.025-0.491-0.195-0.604c-0.13-0.066-0.292-0.064-0.419,0.006
		c-0.132,0.072-0.284,0.109-0.45,0.109c-0.429,0-0.98-0.155-1.292-0.357c-0.586-0.385-1.389-0.622-1.88-0.588
		c-1.469,0.103-2.76,1.54-3.744,1.54c-0.868,0-1.345-0.568-1.364-0.592c-0.086-0.105-0.212-0.165-0.348-0.165
		c-0.103,0-0.203,0.036-0.283,0.101c-0.155,0.126-0.208,0.334-0.132,0.519l0.758,1.829c0.178,0.431,0.432,0.818,0.754,1.152
		c-0.229,0.035-0.458,0.08-0.683,0.133c-0.302,0.074-1.007,0.248-1.007,0.792v0.831c0,0.281,0.152,0.531,0.453,0.746
		c-2.364,1.237-4.124,3.433-4.84,6.048c-0.783,2.859-0.191,5.85,1.622,8.218c-0.289,0.501-0.441,1.069-0.44,1.648
		c0.002,0.571,0.469,1.036,1.04,1.036H371c0.863,0,1.707-0.351,2.319-0.968c0.279-0.281,0.667-0.443,1.068-0.443h1.644
		c0.738,3.393,3.783,5.849,7.267,5.849c4.101,0,7.437-3.336,7.437-7.437C390.733,183.132,389.867,181.147,388.354,179.743z
		 M375.891,185.887h-1.513c-0.632,0-1.251,0.258-1.701,0.711c-0.442,0.444-1.054,0.699-1.681,0.699h-0.011
		c-0.076,0-0.139-0.062-0.14-0.141c-0.001-0.442,0.121-0.875,0.352-1.252c0.167-0.273,0.147-0.626-0.05-0.879
		c-1.678-2.151-2.231-4.884-1.515-7.497c0.718-2.623,2.616-4.794,5.08-5.811c1.374,0.378,3.164,0.408,3.682,0.408h0.06
		c0.733,0,1.473-0.046,2.201-0.137c-0.36,0.599-0.614,1.249-0.758,1.934c-0.051,0.242,0.104,0.481,0.346,0.532
		c0.031,0.006,0.062,0.01,0.093,0.01c0.211,0,0.395-0.15,0.439-0.356c0.15-0.712,0.435-1.374,0.85-1.969l0.055,0.08l0.007,0.012
		c0.586,1.004,1.012,2.088,1.265,3.225c0.049,0.202,0.228,0.344,0.436,0.344c0.035,0,0.071-0.004,0.105-0.013
		c0.238-0.057,0.385-0.29,0.333-0.531c-0.26-1.168-0.69-2.286-1.278-3.327c1.425,0.694,2.626,1.761,3.484,3.101
		c0.77,1.189,1.246,2.559,1.382,3.971c-1.222-0.815-2.641-1.244-4.119-1.244c-4.101,0-7.437,3.336-7.437,7.437
		C375.859,185.424,375.87,185.656,375.891,185.887z M377.496,169.865h1.615c0.548,0,1.098-0.125,1.592-0.362
		c0.588,0.048,1.02,0.108,1.33,0.164c-0.595,0.106-1.759,0.252-3.637,0.252c-1.881,0-3.045-0.147-3.64-0.253
		c0.28-0.05,0.661-0.103,1.173-0.149C376.415,169.745,376.955,169.865,377.496,169.865z M378.735,168.968h-1.241
		c-0.431,0-0.862-0.102-1.241-0.291c-0.021-0.013-0.042-0.024-0.057-0.029c-0.574-0.303-1.027-0.8-1.275-1.4l-0.232-0.56
		c0.42,0.12,0.869,0.14,1.321,0.057c0.296-0.054,0.598-0.24,0.897-0.381c0.027-0.009,0.052-0.021,0.07-0.032
		c0.517-0.247,1.609-1.053,2.228-1.161c0.38-0.066,1.039,0.153,1.48,0.443c0.546,0.353,1.064,0.549,1.544,0.583l-0.64,1.252
		c-0.258,0.506-0.658,0.917-1.151,1.183c-0.023,0.01-0.045,0.021-0.067,0.035c-0.226,0.115-0.465,0.197-0.712,0.247
		 M381.847,170.607c0.3-0.039,0.599-0.098,0.891-0.176v0.025c-0.044,0.048-0.214,0.194-0.763,0.359l0.025,0.083l-0.033-0.081
		c-0.875,0.261-2.176,0.411-3.572,0.411c-1.163,0-2.273-0.105-3.125-0.296c-0.839-0.188-1.154-0.403-1.218-0.474v-0.028
		c0.292,0.078,0.591,0.137,0.89,0.176c0.926,0.135,2.152,0.21,3.453,0.21C379.696,170.817,380.923,170.742,381.847,170.607z
		 M389.836,185.195c0,1.747-0.68,3.389-1.915,4.624c-1.235,1.235-2.878,1.915-4.624,1.915c-1.747,0-3.389-0.68-4.624-1.915
		s-1.915-2.878-1.915-4.624c0-1.747,0.68-3.389,1.915-4.624c1.235-1.235,2.877-1.915,4.624-1.915c1.747,0,3.389,0.68,4.624,1.915
		C389.156,181.806,389.836,183.448,389.836,185.195z"/>
</g>
<g>
	<path fill="#413F56" d="M444.549,77.431v-1.947c-0.003-2.556-2.085-4.638-4.642-4.641c-2.556,0.003-4.638,2.085-4.641,4.642v1.947
		c0,2.559,2.082,4.642,4.642,4.642C442.467,82.073,444.549,79.991,444.549,77.431z M443.054,75.485v1.947
		c0,1.735-1.411,3.146-3.146,3.146s-3.146-1.411-3.146-3.146v-1.947c0-1.735,1.411-3.146,3.146-3.146
		C441.642,72.339,443.054,73.75,443.054,75.485z"/>
	<path fill="#413F56" d="M451.297,83.366c0.731,0,1.451-0.194,2.084-0.56c1.285-0.745,2.079-2.13,2.072-3.615v-1.705
		c-0.003-2.289-1.867-4.153-4.157-4.156c-2.289,0.003-4.153,1.867-4.156,4.156v1.703c-0.007,1.486,0.787,2.871,2.072,3.616
		C449.845,83.173,450.566,83.366,451.297,83.366z M448.636,79.191v-1.705c-0.005-0.951,0.503-1.839,1.326-2.316
		c0.405-0.235,0.867-0.359,1.335-0.359s0.929,0.124,1.334,0.359c0.823,0.477,1.331,1.365,1.326,2.317v1.705
		c0.005,0.952-0.503,1.839-1.326,2.316c-0.405,0.235-0.866,0.359-1.334,0.359c-0.468,0-0.93-0.124-1.335-0.359
		C449.139,81.031,448.631,80.144,448.636,79.191z"/>
	<path fill="#413F56" d="M454.062,83.137c-0.384-0.018-0.581,0.221-0.724,0.395c-0.487,0.595-1.207,0.937-1.976,0.937
		c0,0,0,0-0.001,0c-0.021,0-0.042,0-0.063-0.001c-0.793-0.019-1.519-0.396-1.992-1.035c-0.141-0.189-0.367-0.303-0.603-0.303h-0.015
		c-0.751,0.016-1.486,0.22-2.138,0.589c-0.893-0.986-2.152-1.593-3.482-1.674c-0.391-0.024-0.587,0.217-0.747,0.412
		c-0.574,0.705-1.424,1.109-2.34,1.109c-0.025,0-0.051,0-0.08-0.001c-0.925-0.02-1.804-0.478-2.351-1.224
		c-0.139-0.191-0.364-0.304-0.6-0.304h-0.021c-1.345,0.031-2.602,0.58-3.54,1.544c-0.044,0.045-0.089,0.093-0.134,0.144
		c-0.606-0.344-1.289-0.547-1.989-0.589c-0.383-0.019-0.581,0.222-0.723,0.395c-0.487,0.595-1.207,0.937-1.976,0.937
		c-0.02-0.001-0.042,0-0.063-0.001c-0.793-0.019-1.519-0.396-1.991-1.035c-0.142-0.189-0.367-0.302-0.603-0.302h-0.016
		c-1.202,0.031-2.326,0.521-3.165,1.382c-0.839,0.861-1.302,1.997-1.302,3.199v3.835c0,0.412,0.335,0.748,0.748,0.748h9.756v1.199
		c0,0.412,0.335,0.748,0.748,0.748h14.457c0.412,0,0.748-0.336,0.748-0.748v-1.199h9.74c0.412,0,0.748-0.335,0.748-0.748v-3.835
		C458.369,85.295,456.477,83.286,454.062,83.137z M432.421,84.974c-0.323,0.683-0.491,1.436-0.49,2.191v3.633h-9.008v-3.085
		c0.009-1.542,1.146-2.838,2.662-3.059c0.763,0.831,1.84,1.307,2.972,1.31h0.009c1.128,0,2.203-0.47,2.967-1.293
		C431.845,84.726,432.142,84.828,432.421,84.974z M447.388,84.968c0.308-0.16,0.646-0.267,0.99-0.315
		c0.739,0.809,1.782,1.285,2.878,1.309c0.036,0.001,0.071,0.001,0.106,0.001h0.01c1.125,0,2.195-0.47,2.956-1.292
		c1.459,0.261,2.547,1.548,2.548,3.04v3.087h-8.992v-3.633C447.885,86.408,447.714,85.653,447.388,84.968z M433.427,92.745v-5.58
		c0-1.851,1.363-3.382,3.189-3.606c0.855,0.954,2.071,1.5,3.356,1.503h0.011c1.279,0,2.492-0.539,3.348-1.484
		c1.749,0.283,3.056,1.806,3.057,3.588v5.58L433.427,92.745L433.427,92.745z"/>
	<path fill="#413F56" d="M428.503,83.366c0.731,0,1.451-0.194,2.084-0.56c1.286-0.745,2.08-2.13,2.072-3.615v-1.705
		c-0.003-2.289-1.867-4.153-4.156-4.156c-2.289,0.003-4.153,1.867-4.156,4.156v1.703c-0.007,1.486,0.787,2.871,2.073,3.616
		C427.052,83.173,427.772,83.366,428.503,83.366z M425.843,79.191v-1.705c-0.005-0.952,0.503-1.839,1.326-2.316
		c0.405-0.235,0.866-0.359,1.334-0.359c0.468,0,0.929,0.124,1.335,0.359c0.823,0.477,1.331,1.365,1.326,2.317v1.705
		c0.005,0.951-0.503,1.839-1.326,2.316c-0.405,0.235-0.866,0.359-1.335,0.359c-0.468,0-0.93-0.124-1.335-0.359
		C426.346,81.032,425.838,80.144,425.843,79.191z"/>
	<path fill="#413F56" d="M439.914,49.99h-0.041c-5.887,0.003-11.428,1.803-15.604,5.068c-4.191,3.278-6.497,7.632-6.493,12.261
		c0.001,0.377,0.339,0.695,0.788,0.741c0.442,0.045,0.853-0.188,0.972-0.537c0.134-0.399,0.659-1.657,1.287-2.193
		c0.852-0.639,1.974-0.992,3.159-0.994h0.033c1.176,0,2.284,0.353,3.115,0.99c0.808,0.653,1.255,1.509,1.259,2.407
		c0,0.412,0.402,0.748,0.897,0.748s0.897-0.335,0.897-0.752c-0.018-0.889,0.439-1.763,1.252-2.397
		c0.811-0.633,1.937-0.996,3.089-0.996h0.107c1.176,0,2.283,0.353,3.114,0.989c0.808,0.653,1.255,1.509,1.259,2.408v1.777
		c0,0.412,0.402,0.748,0.897,0.748s0.897-0.335,0.897-0.748v-1.781c-0.018-0.889,0.439-1.763,1.252-2.397
		c0.811-0.633,1.937-0.996,3.089-0.996h0.106c1.176,0,2.284,0.353,3.115,0.99c0.808,0.653,1.255,1.508,1.259,2.407
		c0,0.412,0.402,0.748,0.897,0.748s0.897-0.335,0.897-0.752c-0.017-0.889,0.439-1.763,1.252-2.397
		c0.811-0.633,1.936-0.996,3.088-0.996c0.024,0,0.047,0,0.074,0h0.034c1.173,0,2.278,0.351,3.113,0.99
		c0.629,0.531,1.157,1.795,1.292,2.197c0.108,0.32,0.463,0.544,0.863,0.544l0,0c0.036,0,0.073-0.002,0.11-0.006
		c0.449-0.045,0.788-0.364,0.788-0.742v-0.022C462.017,57.754,452.098,49.99,439.914,49.99z M459.764,63.926
		c-1.101-0.703-2.466-1.086-3.902-1.086h-0.041c-1.638,0.001-3.19,0.493-4.37,1.385c-0.012,0.009-0.024,0.019-0.037,0.029
		c-0.343,0.283-0.645,0.594-0.9,0.929c-0.256-0.335-0.558-0.647-0.902-0.931c-0.008-0.007-0.017-0.014-0.022-0.017
		c-1.166-0.899-2.708-1.395-4.341-1.395h-0.042c-1.638,0.001-3.19,0.493-4.369,1.385c-0.013,0.01-0.026,0.019-0.038,0.029
		c-0.343,0.283-0.645,0.594-0.9,0.929c-0.256-0.335-0.557-0.646-0.9-0.928l-0.024-0.02c-1.166-0.9-2.708-1.395-4.342-1.395h-0.041
		c-1.638,0.001-3.19,0.493-4.369,1.385c-0.013,0.009-0.025,0.019-0.038,0.029c-0.342,0.282-0.644,0.594-0.9,0.929
		c-0.255-0.335-0.557-0.646-0.901-0.93c-0.009-0.007-0.018-0.015-0.023-0.018c-1.166-0.899-2.707-1.395-4.34-1.395h-0.042
		c-1.447,0.001-2.827,0.385-3.944,1.091c2.023-7.241,10.25-12.44,19.837-12.444h0.041C449.505,51.486,457.736,56.684,459.764,63.926
		z"/>
</g>
<g>
	<path fill="#413F56" d="M790.186,215.611c-0.787-1.312-2.228-2.127-3.759-2.127c-0.723,0-1.443,0.183-2.082,0.529l-0.119,0.064
		c-0.75-0.837-1.831-1.333-2.921-1.333c-0.526,0-1.02,0.115-1.469,0.343l-0.512,0.276c-0.859-0.687-1.931-1.063-3.033-1.063
		c-0.848,0-1.685,0.224-2.417,0.645l-3.257,1.771h-4.342c-0.916-0.001-1.836-0.212-2.661-0.609l-0.604-0.292
		c-1.432-0.697-3.03-1.065-4.622-1.065c-2.287,0-4.551,0.76-6.375,2.139c-0.019,0.015-0.037,0.029-0.054,0.044l-1.459,1.299
		c-0.477,0.424-1.043,0.754-1.647,0.962l-0.77-2.527c-0.111-0.362-0.439-0.606-0.818-0.606h-7.057c-0.472,0-0.855,0.384-0.855,0.855
		c0,0.035,0.002,0.069,0.006,0.103l2.352,19.287c0.052,0.429,0.417,0.752,0.849,0.752h10.585c0.472,0,0.855-0.384,0.855-0.855
		c0-0.085-0.013-0.169-0.037-0.25l-1.347-4.418l4.198-2.653c0.529-0.291,1.168-0.372,1.751-0.225
		c0.018,0.005,0.035,0.008,0.054,0.012l8.81,1.622c0.672,0.12,1.36,0.181,2.043,0.181l0,0c1.767,0,3.539-0.413,5.124-1.193
		c0.036-0.018,0.071-0.039,0.104-0.061l15.237-10.461C790.31,216.501,790.419,215.998,790.186,215.611z M775.094,215.642
		c-0.421-0.292-0.877-0.517-1.361-0.673l0.967-0.526l0.018-0.01c0.477-0.276,1.021-0.422,1.573-0.422
		c0.451,0,0.896,0.097,1.304,0.283L775.094,215.642z M755.959,225.4c-0.013,0.007-0.026,0.015-0.039,0.023l-3.822,2.416
		l-2.746-9.007c0.838-0.281,1.625-0.736,2.285-1.324l1.432-1.275c1.524-1.143,3.413-1.773,5.319-1.773
		c1.334,0,2.675,0.309,3.876,0.893l0.604,0.292c1.056,0.509,2.233,0.779,3.405,0.78h5.86c1.589,0.002,2.977,1.083,3.384,2.601
		l-3.987-0.18c-1.55-0.07-3.122,0.003-4.659,0.215c-0.467,0.065-0.795,0.498-0.73,0.965c0.058,0.421,0.422,0.738,0.846,0.738
		c0.039,0,0.079-0.003,0.118-0.008c1.434-0.198,2.901-0.266,4.347-0.201l4.998,0.227l0.039,0.001c0.472,0,0.855-0.384,0.855-0.855
		c0-0.063-0.002-0.129-0.004-0.2l0.575-0.303l7.241-3.906c0.39-0.211,0.829-0.322,1.271-0.322c0.653,0,1.289,0.244,1.776,0.675
		l-14.421,9.902c-1.336,0.648-2.826,0.99-4.31,0.99c-0.581,0-1.166-0.052-1.737-0.154l-8.782-1.617
		c-0.321-0.079-0.651-0.119-0.981-0.119C757.27,224.873,756.573,225.055,755.959,225.4z M777.111,217.916l-0.14,0.074
		c-0.156-0.387-0.357-0.753-0.6-1.092l4.247-2.288c0.206-0.103,0.434-0.155,0.68-0.155c0.449,0,0.934,0.177,1.335,0.482
		L777.111,217.916z M751.989,233.348h-8.672l-2.143-17.576h5.457L751.989,233.348z"/>
	<path fill="#413F56" d="M745.031,230.829c0,1.25,1.017,2.266,2.267,2.266h0.001c0.605,0,1.175-0.236,1.603-0.664
		c0.428-0.428,0.664-0.997,0.664-1.603c0-1.25-1.017-2.266-2.268-2.266C746.049,228.563,745.033,229.58,745.031,230.829z
		 M747.854,230.829c0,0.307-0.249,0.556-0.556,0.556c-0.306,0-0.556-0.249-0.556-0.556c0-0.299,0.237-0.544,0.533-0.556h0.023
		C747.605,230.273,747.854,230.522,747.854,230.829z M747.298,232.92L747.298,232.92L747.298,232.92L747.298,232.92z"/>
	<path fill="#413F56" d="M764.83,210.119L764.83,210.119c6.723,0,12.192-5.469,12.192-12.192s-5.469-12.192-12.192-12.192
		s-12.192,5.469-12.192,12.192C752.646,204.642,758.115,210.111,764.83,210.119z M764.83,187.445
		c5.779,0,10.481,4.702,10.481,10.481s-4.702,10.481-10.481,10.481s-10.481-4.702-10.481-10.481
		C754.356,192.154,759.057,187.452,764.83,187.445z"/>
	<path fill="#413F56" d="M763.044,197.813l-2.419-0.026h-0.011c-0.541,0-0.982,0.44-0.982,0.982c0,0.265,0.109,0.522,0.3,0.706
		l5.913,5.709c0.184,0.178,0.426,0.275,0.682,0.275c0.269,0,0.52-0.106,0.706-0.3c0.182-0.189,0.28-0.437,0.275-0.699
		c-0.005-0.262-0.111-0.507-0.3-0.689l-4.139-3.995c2.112-0.013,3.945-1.488,4.419-3.536l1.505,0.016h0.015
		c0.539,0,0.979-0.438,0.982-0.976c0.001-0.262-0.099-0.509-0.284-0.696c-0.184-0.186-0.431-0.29-0.692-0.291l-1.504-0.016
		c-0.12-0.582-0.356-1.137-0.689-1.629l2.211,0.023h0.015c0.539,0,0.979-0.438,0.982-0.976c0.001-0.262-0.099-0.509-0.284-0.696
		c-0.185-0.186-0.43-0.29-0.692-0.291l-8.353-0.09h-0.011c-0.535,0-0.976,0.436-0.982,0.971c-0.003,0.262,0.097,0.51,0.28,0.697
		c0.183,0.187,0.429,0.292,0.691,0.295l2.39,0.026c1.073,0.012,2.008,0.664,2.394,1.647l-4.802-0.051h-0.015
		c-0.538,0-0.979,0.438-0.982,0.976c-0.003,0.541,0.435,0.984,0.976,0.987l4.8,0.051
		C765.039,197.18,764.103,197.812,763.044,197.813z M769.011,196.082L769.011,196.082L769.011,196.082L769.011,196.082z
		 M769.049,192.497L769.049,192.497L769.049,192.497L769.049,192.497z M760.648,194.38L760.648,194.38L760.648,194.38
		L760.648,194.38z"/>
</g>
<g>
	<path fill="#413F56" d="M593.115,31.261c-0.672-0.001-1.334,0.161-1.931,0.47c-1.771-0.915-3.941-0.462-5.198,1.085
		s-1.257,3.764,0,5.31c1.257,1.547,3.427,2,5.198,1.085c1.551,0.801,3.436,0.562,4.737-0.601c1.302-1.163,1.75-3.009,1.127-4.64
		C596.426,32.338,594.861,31.26,593.115,31.261z M586.331,35.47c0-1.613,1.308-2.921,2.922-2.921s2.922,1.308,2.922,2.922
		c0,1.613-1.308,2.922-2.922,2.922C587.64,38.39,586.333,37.083,586.331,35.47z M593.115,38.392c-0.25,0-0.5-0.033-0.742-0.097
		c1.451-1.603,1.451-4.046,0-5.649c1.096-0.288,2.26,0.084,2.986,0.955s0.882,2.083,0.402,3.109
		C595.28,37.736,594.249,38.392,593.115,38.392z"/>
	<path fill="#413F56" d="M601.563,12.923h-31.27c-2.138,0.003-3.953,1.565-4.275,3.679h-0.324c-2.386,0.003-4.32,1.936-4.323,4.323
		v18.394c0.003,2.386,1.936,4.32,4.323,4.323h31.27c2.138-0.003,3.953-1.565,4.275-3.679h0.324c2.386-0.003,4.32-1.936,4.323-4.323
		V17.245C605.883,14.859,603.949,12.925,601.563,12.923z M562.659,23.634H600v2.674h-37.341V23.634z M601.176,19.955h3.422v2.674
		h-3.311v-1.705C601.286,20.598,601.249,20.273,601.176,19.955z M570.292,14.21h31.27c1.675,0.002,3.033,1.36,3.035,3.035v1.422
		h-3.949c-0.785-1.283-2.181-2.065-3.685-2.066h-29.638C567.631,15.207,568.865,14.212,570.292,14.21z M565.694,17.889h31.27
		c1.675,0.002,3.033,1.36,3.035,3.035v1.422h-37.341v-1.422C562.661,19.249,564.019,17.891,565.694,17.889z M596.964,42.354h-31.27
		c-1.675-0.002-3.033-1.36-3.035-3.035V27.596H600v11.723C599.997,40.994,598.639,42.352,596.964,42.354z M601.563,38.675h-0.276
		V23.917h3.311V35.64C604.596,37.315,603.238,38.673,601.563,38.675z"/>
</g>
<g>
	<path fill="#413F56" d="M336.713,272.503l-0.072-0.031c-3.791-1.631-7.387-3.713-10.689-6.189c-0.268-0.2-0.652-0.2-0.92,0
		c-3.302,2.476-6.898,4.558-10.69,6.189l-0.071,0.031c-0.282,0.121-0.464,0.398-0.464,0.705v6.333c0,2.296,0.603,4.432,1.792,6.347
		c0.942,1.517,2.25,2.894,3.887,4.093c2.767,2.025,5.488,2.831,5.602,2.865c0.07,0.02,0.143,0.031,0.216,0.031
		c0.071,0,0.141-0.01,0.21-0.029c0.157-0.045,1.583-0.467,3.416-1.421l0.364-0.189l-0.183-0.367
		c-0.098-0.197-0.188-0.401-0.266-0.605l-0.169-0.439l-0.416,0.219c-0.946,0.499-1.94,0.922-2.956,1.259
		c-0.656-0.221-2.8-1.015-4.913-2.561c-1.148-0.84-2.117-1.777-2.885-2.788c0.047-0.1,0.073-0.211,0.073-0.327v-0.668
		c0-0.423-0.344-0.767-0.767-0.767c-0.129,0-0.251,0.032-0.357,0.088c-0.74-1.459-1.114-3.05-1.114-4.741v-5.83
		c3.583-1.576,6.995-3.545,10.151-5.859c3.156,2.314,6.568,4.283,10.151,5.859v7.501c0,0.239-0.009,0.488-0.026,0.74l-0.028,0.411
		l0.41,0.034c0.221,0.018,0.442,0.047,0.655,0.084l0.456,0.081l0.033-0.462c0.021-0.296,0.032-0.595,0.032-0.888v-8.004
		C337.177,272.9,336.994,272.623,336.713,272.503z"/>
	<path fill="#413F56" d="M324.725,284.96v0.668c0,0.423,0.344,0.767,0.767,0.767s0.767-0.344,0.767-0.767v-0.668
		c0-0.423-0.344-0.767-0.767-0.767S324.725,284.537,324.725,284.96z"/>
	<path fill="#413F56" d="M326.895,284.96v0.668c0,0.423,0.344,0.767,0.767,0.767s0.767-0.344,0.767-0.767v-0.668
		c0-0.423-0.344-0.767-0.767-0.767S326.895,284.537,326.895,284.96z"/>
	<path fill="#413F56" d="M329.838,284.193c-0.423,0-0.767,0.344-0.767,0.767v0.668c0,0.423,0.344,0.767,0.767,0.767
		s0.767-0.344,0.767-0.767v-0.668C330.605,284.537,330.261,284.193,329.838,284.193z"/>
	<path fill="#413F56" d="M332.003,284.193c-0.423,0-0.767,0.344-0.767,0.767v0.668c0,0.423,0.344,0.767,0.767,0.767
		s0.767-0.344,0.767-0.767v-0.668C332.77,284.537,332.426,284.193,332.003,284.193z"/>
	<path fill="#413F56" d="M322.555,284.96v0.668c0,0.423,0.344,0.767,0.767,0.767s0.767-0.344,0.767-0.767v-0.668
		c0-0.423-0.344-0.767-0.767-0.767S322.555,284.537,322.555,284.96z"/>
	<path fill="#413F56" d="M320.385,284.96v0.668c0,0.423,0.344,0.767,0.767,0.767s0.767-0.344,0.767-0.767v-0.668
		c0-0.423-0.344-0.767-0.767-0.767S320.385,284.537,320.385,284.96z"/>
	<path fill="#413F56" d="M318.216,284.96v0.668c0,0.423,0.344,0.767,0.767,0.767s0.767-0.344,0.767-0.767v-0.668
		c0-0.423-0.344-0.767-0.767-0.767S318.216,284.537,318.216,284.96z"/>
</g>
<g>
	<path fill="#413F56" d="M359.258,312.942c-0.938-0.001-1.702-0.766-1.703-1.704v-1.671l-0.111-0.111h-18.779l-0.111,0.111v1.671
		c-0.001,0.938-0.765,1.703-1.703,1.704h-2.28c-0.938-0.001-1.702-0.766-1.703-1.704v-1.824l-0.074-0.105
		c-0.956-0.342-1.594-1.219-1.626-2.235l-0.875-6.917c-0.005-0.04-0.007-0.079-0.007-0.12c0-1.938,1.212-3.521,2.947-3.848
		l0.076-0.055l2.765-4.9c1.106-2.261,2.728-3.503,4.571-3.503h14.947c2.278,0,3.609,1.864,4.515,3.489l2.675,4.931l0.076,0.056
		c1.719,0.338,2.966,1.949,2.966,3.831c0,0.039-0.003,0.08-0.008,0.127l-0.913,6.901c-0.034,1.007-0.657,1.878-1.59,2.23
		l-0.072,0.104v1.837c-0.001,0.938-0.765,1.703-1.703,1.704L359.258,312.942L359.258,312.942z M359.46,309.568v1.359l0.111,0.111
		h1.654l0.111-0.111v-1.359l-0.111-0.111h-1.654L359.46,309.568z M334.772,309.568v1.359l0.111,0.111h1.654l0.111-0.111v-1.359
		l-0.111-0.111h-1.654L334.772,309.568z M333.761,298.041c-0.988,0.07-1.547,1.049-1.571,1.934l0.001,0.017l0.873,6.89
		c0.005,0.039,0.007,0.08,0.007,0.12c0.003,0.305,0.244,0.546,0.548,0.549h28.831c0.3-0.003,0.546-0.249,0.549-0.548
		c0-0.045,0.003-0.086,0.008-0.126l0.911-6.887l0.001-0.018c-0.03-0.946-0.679-1.925-1.714-1.925l-0.015-0.001h-28.33
		c-0.022,0-0.044-0.002-0.066-0.004l-0.015-0.002h-0.018V298.041z M342.606,292.928c1.893,0,3.52,1.287,3.955,3.13l0.108,0.086
		h13.751l0.098-0.164l-2.082-3.838c-0.978-1.754-1.829-2.502-2.846-2.502h-14.947c-1.462,0-2.425,1.538-2.869,2.454
		c-0.008,0.016-0.017,0.034-0.027,0.05l-2.164,3.834l0.097,0.166h2.862l0.108-0.086
		C339.086,294.215,340.713,292.928,342.606,292.928z M342.606,294.832c-0.8,0-1.531,0.44-1.907,1.147l0.098,0.164h3.617l0.098-0.164
		C344.138,295.272,343.407,294.832,342.606,294.832z"/>
	<path fill="#413F56" d="M335.869,305.243c-1.381-0.002-2.507-1.127-2.509-2.509c0-1.383,1.125-2.508,2.509-2.508
		c1.383,0,2.509,1.125,2.509,2.508S337.252,305.243,335.869,305.243L335.869,305.243z M335.868,302.131
		c-0.332,0.001-0.603,0.272-0.603,0.603c0,0.333,0.271,0.604,0.603,0.605c0.333,0,0.604-0.271,0.604-0.605
		C336.472,302.402,336.201,302.131,335.868,302.131L335.868,302.131z"/>
	<path fill="#413F56" d="M360.24,305.243c-1.382-0.001-2.507-1.127-2.509-2.509c0-1.383,1.125-2.508,2.509-2.508
		c1.383,0,2.508,1.125,2.508,2.508C362.748,304.118,361.623,305.243,360.24,305.243L360.24,305.243z M360.239,302.131
		c-0.332,0.001-0.603,0.272-0.604,0.603c0,0.333,0.271,0.604,0.604,0.605c0.333,0,0.604-0.271,0.604-0.605
		C360.843,302.402,360.572,302.131,360.239,302.131L360.239,302.131z"/>
	<path fill="#413F56" d="M340.847,304.293c-0.304-0.001-0.592-0.148-0.771-0.394c-0.178-0.245-0.229-0.565-0.134-0.855l0.476-1.455
		c0.431-1.212,1.587-2.05,2.876-2.084h9.486c1.3,0.036,2.435,0.848,2.887,2.071l0.495,1.458c0.099,0.29,0.051,0.612-0.127,0.861
		c-0.179,0.249-0.468,0.397-0.774,0.397h-14.414V304.293z M343.28,301.411c-0.462,0.043-0.864,0.334-1.049,0.761l-0.024,0.071
		l0.106,0.146h11.463l0.105-0.147l-0.019-0.055c-0.195-0.439-0.605-0.733-1.073-0.776h-9.5H343.28z"/>
	<g>
		<path fill="#413F56" d="M348.08,322.954c-12.435,0-22.552-10.117-22.552-22.552s10.117-22.552,22.552-22.552
			s22.552,10.117,22.552,22.552S360.516,322.954,348.08,322.954z M348.08,279.632c-11.453,0-20.77,9.317-20.77,20.77
			s9.317,20.77,20.77,20.77s20.77-9.317,20.77-20.77C368.85,288.95,359.533,279.632,348.08,279.632z"/>
	</g>
</g>
<g>
	<path fill="#413F56" d="M734.617,94.167c-1.578,0-2.862,1.284-2.862,2.862v7.353c-0.528-0.52-1.241-0.814-1.99-0.814
		c-0.675,0-1.329,0.242-1.842,0.681c-0.11,0.094-0.215,0.199-0.31,0.31l-3.44,4.019c-3.141,1.633-5.083,4.844-5.071,8.385v5.07h1.77
		v-5.07c-0.008-2.939,1.622-5.576,4.256-6.881c0.106-0.053,0.198-0.126,0.276-0.216l3.554-4.146
		c0.204-0.237,0.501-0.373,0.814-0.373c0.232,0,0.454,0.074,0.64,0.212c0.472,0.354,0.568,1.025,0.214,1.497
		c-0.019,0.026-0.04,0.051-0.062,0.076l-4.125,4.739c-0.319,0.369-0.279,0.929,0.09,1.248c0.161,0.139,0.366,0.216,0.578,0.216
		c0.254,0,0.496-0.109,0.664-0.3l5.536-6.326c0.142-0.163,0.22-0.371,0.219-0.587v-9.094c0-0.602,0.49-1.092,1.092-1.092
		s1.092,0.49,1.092,1.092v10.897c0,0.724-0.203,1.432-0.587,2.046l-7.237,11.579l1.504,0.938l7.237-11.579
		c0.559-0.896,0.854-1.928,0.852-2.984V97.029C737.479,95.451,736.195,94.167,734.617,94.167z"/>
	<path fill="#413F56" d="M703.148,108.579l-3.44-4.014c-0.541-0.628-1.328-0.988-2.157-0.988c-0.617,0-1.206,0.195-1.701,0.565
		c-0.1,0.074-0.194,0.155-0.283,0.242v-7.355c0-1.578-1.284-2.862-2.862-2.862s-2.862,1.284-2.862,2.862v10.897
		c0,1.056,0.296,2.088,0.856,2.984l7.187,11.499l0.05,0.08l1.504-0.938l-7.24-11.579c-0.384-0.614-0.587-1.321-0.587-2.046V97.029
		c0-0.602,0.49-1.092,1.092-1.092s1.092,0.49,1.092,1.092v9.094c0,0.215,0.078,0.422,0.219,0.583l5.536,6.327
		c0.168,0.19,0.41,0.299,0.663,0.299c0.216,0,0.424-0.079,0.586-0.222c0.362-0.319,0.399-0.877,0.083-1.242l-4.131-4.746
		c-0.391-0.44-0.352-1.117,0.089-1.509c0.022-0.02,0.045-0.039,0.069-0.056c0.187-0.139,0.408-0.213,0.641-0.213
		c0.313,0,0.609,0.136,0.813,0.372l3.554,4.146c0.077,0.09,0.17,0.162,0.276,0.216c2.634,1.306,4.264,3.944,4.255,6.884v5.07h1.77
		v-5.069C708.231,113.423,706.288,110.212,703.148,108.579z"/>
	<path fill="#413F56" d="M727.9,88.173l-0.035,0.087c-0.606,1.504-1.579,2.854-2.813,3.905l-11.408,9.689L702.5,92.942
		c-1.242-0.996-2.243-2.291-2.895-3.744l-0.038-0.086l-1.616,0.722l0.039,0.086c0.766,1.709,1.944,3.232,3.405,4.403l11.713,9.37
		c0.156,0.125,0.352,0.194,0.552,0.194l0,0c0.21,0,0.413-0.075,0.573-0.211l11.965-10.171c1.452-1.236,2.596-2.824,3.31-4.592
		l0.035-0.088L727.9,88.173z"/>
	<path fill="#413F56" d="M730.315,85.512c0.031-0.356,0.046-0.687,0.046-1.008c0-5.113-4.16-9.272-9.272-9.272
		c-2.477,0-4.805,0.965-6.556,2.716l-0.872,0.871l-0.872-0.871c-1.751-1.751-4.08-2.716-6.557-2.716s-4.805,0.964-6.556,2.716
		c-1.751,1.751-2.716,4.08-2.716,6.556v0.593c0.002,0.401,0.025,0.807,0.068,1.206h-7.185v1.77h15.91
		c0.309,0,0.599-0.165,0.758-0.429l1.603-2.672l4.782,8.194c0.157,0.272,0.45,0.442,0.765,0.442h0.016h0.001
		c0.32-0.006,0.613-0.186,0.764-0.468l5.573-10.447l2.367,4.145c0.157,0.273,0.451,0.443,0.769,0.443h14.329v-1.77L730.315,85.512
		L730.315,85.512z M707.367,82.778l-2.115,3.525h-6.44c-0.051-0.4-0.079-0.806-0.082-1.207v-0.592c0-4.137,3.366-7.503,7.504-7.503
		c2.004,0,3.888,0.78,5.305,2.198l1.498,1.498c0.167,0.167,0.389,0.259,0.625,0.259s0.458-0.092,0.626-0.259l1.496-1.498
		c1.417-1.417,3.301-2.198,5.306-2.198c2.004,0,3.888,0.781,5.306,2.198c1.417,1.417,2.197,3.301,2.197,5.305
		c-0.002,0.335-0.021,0.674-0.057,1.009h-4.871l-2.908-5.093c-0.155-0.273-0.447-0.443-0.762-0.443h-0.02
		c-0.322,0.005-0.616,0.184-0.767,0.468l-5.581,10.463l-4.736-8.117c-0.156-0.27-0.447-0.44-0.76-0.442h-0.005
		C707.816,82.349,707.526,82.513,707.367,82.778z"/>
</g>
</svg>
